<?xml version="1.0" encoding="iso-8859-1"?>
<!-- Generator: Adobe Illustrator 18.0.0, SVG Export Plug-In . SVG Version: 6.00 Build 0)  -->
<!DOCTYPE svg PUBLIC "-//W3C//DTD SVG 1.1//EN" "http://www.w3.org/Graphics/SVG/1.1/DTD/svg11.dtd">
<svg version="1.1" id="Capa_1" xmlns="http://www.w3.org/2000/svg" xmlns:xlink="http://www.w3.org/1999/xlink" x="0px" y="0px"
	 viewBox="0 0 442.155 442.155" style="enable-background:new 0 0 442.155 442.155;" xml:space="preserve">
<path d="M441.636,165.185c-0.77-1.959-2.327-3.505-4.292-4.259L337.339,122.53l-1.825-1.825l12.733-12.733
	c7.143-7.143,7.143-18.766,0-25.909L315.82,49.637c-3.46-3.46-8.061-5.366-12.955-5.366s-9.495,1.906-12.955,5.366L277.178,62.37
	l-3.409-3.409c-2.929-2.929-7.678-2.929-10.606,0l-67.879,67.879c-1.407,1.407-2.197,3.314-2.197,5.303s0.79,3.897,2.197,5.303
	l3.409,3.409l-35.622,35.622c-7.696,7.696-11.939,17.938-11.948,28.843c0,3.407-0.661,6.722-1.97,9.869
	c-1.301,3.148-3.178,5.96-5.578,8.36l-84.103,84.103c-4.179,4.179-9.947,6.292-15.839,5.798c-5.129-0.424-10.162,0.257-14.938,2.013
	c-4.75,1.734-9.155,4.544-12.738,8.127l-9.503,9.504c-8.605,8.605-8.605,22.606,0,31.211l27.125,27.125
	c4.303,4.302,9.954,6.454,15.606,6.454s11.303-2.151,15.606-6.454L257.03,199.191l1.825,1.825l38.395,100.004
	c0.754,1.965,2.3,3.523,4.259,4.292c0.883,0.347,1.813,0.519,2.743,0.519c1.132,0,2.261-0.256,3.299-0.765
	c57.929-28.379,105.461-75.911,133.841-133.84C442.317,169.337,442.406,167.144,441.636,165.185z M300.518,60.243
	c0.846-0.846,1.834-0.973,2.348-0.973s1.502,0.126,2.348,0.973l32.427,32.427c1.294,1.295,1.294,3.402,0,4.696l-12.733,12.733
	l-37.123-37.123L300.518,60.243z M54.184,380.824c-2.757,2.757-7.242,2.756-9.999,0L17.06,353.7c-2.756-2.757-2.756-7.242,0-9.999
	l9.503-9.504c2.078-2.077,4.525-3.639,7.291-4.649c2.731-1.004,5.608-1.392,8.536-1.15c10.287,0.865,20.381-2.831,27.689-10.139
	l84.103-84.103c3.802-3.802,6.774-8.255,8.827-13.221c2.066-4.968,3.114-10.221,3.114-15.609c0.005-6.897,2.688-13.376,7.554-18.242
	l35.622-35.622l37.124,37.123L54.184,380.824z M308.269,287.874l-4.593-11.962c28.978-16.569,54.691-37.795,76.505-63.169
	c2.7-3.141,2.343-7.876-0.798-10.576c-3.14-2.7-7.876-2.343-10.577,0.798c-20.188,23.484-43.907,43.211-70.578,58.756
	l-25.942-67.569c-0.377-0.981-0.956-1.872-1.699-2.615l-59.394-59.394l57.272-57.272l59.394,59.394
	c0.743,0.743,1.634,1.322,2.615,1.698l67.569,25.942c-2.232,3.826-4.546,7.61-6.943,11.301c-2.255,3.474-1.268,8.119,2.206,10.375
	c1.262,0.819,2.678,1.211,4.078,1.211c2.455,0,4.86-1.204,6.297-3.417c2.967-4.569,5.824-9.268,8.546-14.024l11.969,4.595
	C398.219,221.165,357.488,261.896,308.269,287.874z"/>
<g>
</g>
<g>
</g>
<g>
</g>
<g>
</g>
<g>
</g>
<g>
</g>
<g>
</g>
<g>
</g>
<g>
</g>
<g>
</g>
<g>
</g>
<g>
</g>
<g>
</g>
<g>
</g>
<g>
</g>
</svg>
