<?xml version="1.0" encoding="iso-8859-1"?>
<!-- Generator: Adobe Illustrator 18.0.0, SVG Export Plug-In . SVG Version: 6.00 Build 0)  -->
<!DOCTYPE svg PUBLIC "-//W3C//DTD SVG 1.1//EN" "http://www.w3.org/Graphics/SVG/1.1/DTD/svg11.dtd">
<svg version="1.1" id="Capa_1" xmlns="http://www.w3.org/2000/svg" xmlns:xlink="http://www.w3.org/1999/xlink" x="0px" y="0px"
	 viewBox="0 0 422.727 422.727" style="enable-background:new 0 0 422.727 422.727;" xml:space="preserve">
<g>
	<path d="M352.529,268.085c-0.039,0-0.077,0.003-0.115,0.003H227.462l24.462-63.713l46.931-46.931c2.929-2.929,2.929-7.678,0-10.606
		l-50.421-50.421c-2.929-2.929-7.677-2.93-10.607,0l-4.051,4.051l-92.12-92.12C136.272,2.964,129.115,0,121.503,0
		s-14.769,2.964-20.152,8.347l-1.018,1.018c-5.383,5.383-8.347,12.54-8.347,20.152s2.964,14.769,8.347,20.152l92.12,92.12
		l-1.559,1.559l-73.901,28.374c-1.965,0.754-3.523,2.3-4.292,4.259c-0.77,1.959-0.681,4.151,0.245,6.042
		c17.069,34.84,43.387,64.654,75.553,86.066H70.193c-29.157,0-52.877,23.721-52.877,52.877v48.876
		c0,29.161,23.721,52.885,52.877,52.885h282.412c0.052,0,0.103-0.007,0.155-0.008c29.054-0.125,52.652-23.795,52.652-52.877v-48.874
		C405.411,291.808,381.689,268.085,352.529,268.085z M282.944,152.141l-37.451,37.451l-39.815-39.814l37.452-37.451L282.944,152.141
		z M110.94,39.062c-2.55-2.55-3.954-5.939-3.954-9.545s1.404-6.996,3.954-9.545l1.018-1.018c2.55-2.55,5.939-3.954,9.545-3.954
		c3.605,0,6.995,1.404,9.545,3.954l92.12,92.12l-20.108,20.108L110.94,39.062z M130.181,182.725l63.031-24.2l43.533,43.533
		l-24.199,63.031C177.824,246.279,148.991,217.446,130.181,182.725z M32.315,369.842v-48.876c0-20.886,16.992-37.877,37.877-37.877
		H315.68c-9.88,9.614-16.034,23.038-16.034,37.88v48.874c0,14.844,6.156,28.271,16.04,37.885H70.193
		C49.307,407.727,32.315,390.731,32.315,369.842z M390.411,369.842c0,20.889-16.994,37.883-37.883,37.883
		s-37.883-16.994-37.883-37.883v-48.874c0-20.85,16.932-37.817,37.767-37.88h0.192c0.004,0,0.009-0.001,0.013-0.001
		c20.847,0.049,37.793,17.022,37.793,37.881V369.842z"/>
	<path d="M352.529,312.085c4.898,0,8.883,3.985,8.883,8.883c0,4.142,3.357,7.5,7.5,7.5s7.5-3.358,7.5-7.5
		c0-13.169-10.714-23.883-23.883-23.883s-23.883,10.714-23.883,23.883v48.874c0,13.169,10.714,23.883,23.883,23.883
		s23.883-10.714,23.883-23.883v-14.631c0-4.142-3.357-7.5-7.5-7.5s-7.5,3.358-7.5,7.5v14.631c0,4.898-3.984,8.883-8.883,8.883
		s-8.883-3.985-8.883-8.883v-48.874C343.646,316.07,347.63,312.085,352.529,312.085z"/>
	<path d="M272.679,295.91H253.18c-4.143,0-7.5,3.358-7.5,7.5s3.357,7.5,7.5,7.5h19.499c4.143,0,7.5-3.358,7.5-7.5
		S276.822,295.91,272.679,295.91z"/>
	<path d="M76.189,310.91h140.993c4.143,0,7.5-3.358,7.5-7.5s-3.357-7.5-7.5-7.5H76.189c-4.142,0-7.5,3.358-7.5,7.5
		S72.047,310.91,76.189,310.91z"/>
	<path d="M272.679,379.905h-35.998c-4.143,0-7.5,3.358-7.5,7.5s3.357,7.5,7.5,7.5h35.998c4.143,0,7.5-3.358,7.5-7.5
		S276.822,379.905,272.679,379.905z"/>
	<path d="M203.682,379.905H76.189c-4.142,0-7.5,3.358-7.5,7.5s3.358,7.5,7.5,7.5h127.493c4.142,0,7.5-3.358,7.5-7.5
		S207.824,379.905,203.682,379.905z"/>
	<path d="M122.685,345.407c0,4.142,3.358,7.5,7.5,7.5h107.272c4.143,0,7.5-3.358,7.5-7.5s-3.357-7.5-7.5-7.5H130.185
		C126.043,337.907,122.685,341.265,122.685,345.407z"/>
	<path d="M110.687,345.407c0-4.142-3.358-7.5-7.5-7.5H64.966c-4.142,0-7.5,3.358-7.5,7.5s3.358,7.5,7.5,7.5h38.221
		C107.329,352.907,110.687,349.549,110.687,345.407z"/>
</g>
<g>
</g>
<g>
</g>
<g>
</g>
<g>
</g>
<g>
</g>
<g>
</g>
<g>
</g>
<g>
</g>
<g>
</g>
<g>
</g>
<g>
</g>
<g>
</g>
<g>
</g>
<g>
</g>
<g>
</g>
</svg>
