<?xml version="1.0" encoding="iso-8859-1"?>
<!-- Generator: Adobe Illustrator 18.0.0, SVG Export Plug-In . SVG Version: 6.00 Build 0)  -->
<!DOCTYPE svg PUBLIC "-//W3C//DTD SVG 1.1//EN" "http://www.w3.org/Graphics/SVG/1.1/DTD/svg11.dtd">
<svg version="1.1" id="Capa_1" xmlns="http://www.w3.org/2000/svg" xmlns:xlink="http://www.w3.org/1999/xlink" x="0px" y="0px"
	 viewBox="0 0 452.466 452.466" style="enable-background:new 0 0 452.466 452.466;" xml:space="preserve">
<g>
	<path d="M335.335,138.01c-4.143,0-7.5,3.358-7.5,7.5v60.667c0,4.142,3.357,7.5,7.5,7.5s7.5-3.358,7.5-7.5V145.51
		C342.835,141.368,339.478,138.01,335.335,138.01z"/>
	<path d="M292.483,54.682h-132.5c-27.765,0-50.353,22.588-50.353,50.353v101.142c0,4.142,3.358,7.5,7.5,7.5s7.5-3.358,7.5-7.5
		V105.035c0-19.494,15.859-35.353,35.353-35.353h132.5c19.493,0,35.353,15.859,35.353,35.353v13.808c0,4.142,3.357,7.5,7.5,7.5
		s7.5-3.358,7.5-7.5v-13.808C342.835,77.271,320.248,54.682,292.483,54.682z"/>
	<path d="M406.306,168.242h-9.313c-3.016-15.167-14.991-27.143-30.158-30.158v-33.048c0-40.999-33.354-74.353-74.353-74.353h-25.002
		v-3.891C267.481,12.019,255.462,0,240.69,0h-28.915c-14.772,0-26.791,12.019-26.791,26.791v3.891h-25.001
		c-40.999,0-74.353,33.354-74.353,74.353v33.048c-15.167,3.016-27.143,14.991-30.158,30.158H46.16c-4.142,0-7.5,3.358-7.5,7.5
		v114.269c0,24.857,20.223,45.081,45.081,45.081h1.89v5.751c0,6.603,1.961,12.752,5.322,17.911h-6.94
		c-10.967,0-19.89,8.922-19.89,19.89v43.312c0,10.967,8.923,19.89,19.89,19.89h56.921v3.122c0,4.142,3.358,7.5,7.5,7.5
		s7.5-3.358,7.5-7.5v-3.122h140.6v3.122c0,4.142,3.357,7.5,7.5,7.5s7.5-3.358,7.5-7.5v-3.122h56.921
		c10.967,0,19.89-8.923,19.89-19.89v-43.312c0-10.967-8.923-19.89-19.89-19.89h-6.94c3.361-5.159,5.322-11.308,5.322-17.911v-5.751
		h1.89c24.857,0,45.081-20.223,45.081-45.081V175.742C413.806,171.6,410.449,168.242,406.306,168.242z M398.806,209.377h-31.971
		v-26.135h31.971V209.377z M381.501,168.242h-14.666v-14.667C373.714,155.909,379.167,161.363,381.501,168.242z M199.984,26.791
		c0-6.501,5.29-11.791,11.791-11.791h28.915c6.502,0,11.791,5.29,11.791,11.791v3.891h-52.497V26.791z M70.963,168.241
		c2.334-6.878,7.788-12.332,14.667-14.666v14.667L70.963,168.241z M85.63,183.242v26.135H53.66v-26.135H85.63z M83.74,320.091
		c-16.586,0-30.081-13.494-30.081-30.081v-65.634h31.97v95.714H83.74z M84.012,426.844c-2.696,0-4.89-2.194-4.89-4.89v-43.312
		c0-2.696,2.194-4.89,4.89-4.89h56.921v53.091H84.012z M155.933,426.844v-53.091h140.6v53.091H155.933z M373.343,378.643v43.312
		c0,2.696-2.193,4.89-4.89,4.89h-56.921v-53.091h56.921C371.15,373.753,373.343,375.946,373.343,378.643z M311.533,358.753v-14.394
		c0-4.142-3.357-7.5-7.5-7.5s-7.5,3.358-7.5,7.5v14.394h-140.6v-14.394c0-4.142-3.358-7.5-7.5-7.5s-7.5,3.358-7.5,7.5v14.394H118.54
		c-9.875,0-17.91-8.035-17.91-17.911V105.035c0-32.728,26.625-59.353,59.353-59.353h132.5c32.728,0,59.353,26.625,59.353,59.353
		v235.807c0,9.876-8.034,17.911-17.91,17.911H311.533z M368.725,320.091h-1.89v-95.714h31.971v65.634
		C398.806,306.597,385.312,320.091,368.725,320.091z"/>
	<path d="M310.297,144.01H142.168c-4.142,0-7.5,3.358-7.5,7.5v46.867c0,4.142,3.358,7.5,7.5,7.5h3.452v76.639
		c0,16.638,13.536,30.174,30.174,30.174h9.772v12.795c0,4.142,3.358,7.5,7.5,7.5s7.5-3.358,7.5-7.5v-12.795h51.333v12.795
		c0,4.142,3.357,7.5,7.5,7.5s7.5-3.358,7.5-7.5v-12.795h9.769c16.638,0,30.173-13.536,30.173-30.174v-76.639h3.457
		c4.143,0,7.5-3.358,7.5-7.5V151.51C317.797,147.368,314.44,144.01,310.297,144.01z M149.668,159.01h153.129v31.867H149.668V159.01z
		 M175.794,297.689c-8.367,0-15.174-6.807-15.174-15.174v-76.639h24.946v20.833h-5c-4.142,0-7.5,3.358-7.5,7.5v25
		c0,4.142,3.358,7.5,7.5,7.5h5v30.979H175.794z M188.066,251.71v-10h10v10H188.066z M200.566,297.689V266.71h5
		c4.142,0,7.5-3.358,7.5-7.5v-25c0-4.142-3.358-7.5-7.5-7.5h-5v-20.833h51.333v20.833h-5c-4.143,0-7.5,3.358-7.5,7.5v25
		c0,4.142,3.357,7.5,7.5,7.5h5v30.979H200.566z M254.399,251.71v-10h10v10H254.399z M291.84,282.516
		c0,8.367-6.807,15.174-15.173,15.174h-9.769V266.71h5c4.143,0,7.5-3.358,7.5-7.5v-25c0-4.142-3.357-7.5-7.5-7.5h-5v-20.833h24.941
		V282.516z"/>
</g>
<g>
</g>
<g>
</g>
<g>
</g>
<g>
</g>
<g>
</g>
<g>
</g>
<g>
</g>
<g>
</g>
<g>
</g>
<g>
</g>
<g>
</g>
<g>
</g>
<g>
</g>
<g>
</g>
<g>
</g>
</svg>
