<?xml version="1.0" encoding="iso-8859-1"?>
<!-- Generator: Adobe Illustrator 18.0.0, SVG Export Plug-In . SVG Version: 6.00 Build 0)  -->
<!DOCTYPE svg PUBLIC "-//W3C//DTD SVG 1.1//EN" "http://www.w3.org/Graphics/SVG/1.1/DTD/svg11.dtd">
<svg version="1.1" id="Capa_1" xmlns="http://www.w3.org/2000/svg" xmlns:xlink="http://www.w3.org/1999/xlink" x="0px" y="0px"
	 viewBox="0 0 398.98 398.98" style="enable-background:new 0 0 398.98 398.98;" xml:space="preserve">
<g>
	<path d="M308.126,109.151c2.218-3.498,1.18-8.132-2.318-10.35c-3.499-2.219-8.132-1.181-10.35,2.318
		c-21.011,33.137-56.887,52.921-95.968,52.921c-4.142,0-7.5,3.358-7.5,7.5s3.358,7.5,7.5,7.5
		C243.737,169.04,284.348,146.652,308.126,109.151z"/>
	<path d="M310.491,89.346c0.856,0.316,1.734,0.466,2.597,0.466c3.051,0,5.918-1.875,7.037-4.904
		c1.841-4.987,3.385-10.141,4.587-15.318c0.937-4.035-1.574-8.065-5.609-9.002c-4.037-0.935-8.065,1.575-9.002,5.609
		c-1.061,4.567-2.422,9.115-4.047,13.516C304.618,83.599,306.605,87.912,310.491,89.346z"/>
	<path d="M250.882,187.723c60.809-21.288,104.545-79.24,104.545-147.225c0-4.142-3.358-7.5-7.5-7.5h-36.925V22.033
		C311.002,9.884,301.118,0,288.969,0h-20.431c-12.149,0-22.033,9.884-22.033,22.033v10.965h-14.766V22.033
		C231.739,9.884,221.855,0,209.705,0h-20.43c-12.149,0-22.034,9.884-22.034,22.033v10.965h-14.766V22.033
		C152.476,9.884,142.592,0,130.443,0h-20.431C97.863,0,87.978,9.884,87.978,22.033v10.965H51.053c-4.142,0-7.5,3.358-7.5,7.5
		c0,67.984,43.735,125.937,104.544,147.225l-23.635,89.444c0,0.002-0.001,0.004-0.002,0.006L97.734,378.32
		c-1.058,4.005,1.33,8.109,5.335,9.167c0.642,0.17,1.287,0.251,1.921,0.251c3.321,0,6.358-2.223,7.246-5.586l25.046-94.783
		l54.708,7.881v96.229c0,4.142,3.358,7.5,7.5,7.5s7.5-3.358,7.5-7.5v-96.229l54.709-7.881l25.046,94.783
		c0.889,3.363,3.924,5.586,7.246,5.586c0.634,0,1.279-0.081,1.921-0.251c4.005-1.058,6.393-5.162,5.335-9.167l-26.727-101.146
		c-0.001-0.003-0.002-0.006-0.003-0.01L250.882,187.723z M261.505,22.033c0-3.878,3.155-7.033,7.033-7.033h20.431
		c3.878,0,7.034,3.155,7.034,7.033v10.965h-34.498V22.033z M182.241,22.033c0-3.878,3.155-7.033,7.034-7.033h20.43
		c3.878,0,7.034,3.155,7.034,7.033v10.965h-34.498V22.033z M102.978,22.033c0-3.878,3.155-7.033,7.034-7.033h20.431
		c3.878,0,7.033,3.155,7.033,7.033v10.965h-34.498V22.033z M58.751,47.998H340.23c-3.909,74.243-65.541,133.437-140.74,133.437
		C124.291,181.435,62.659,122.241,58.751,47.998z M141.139,272.771l21.346-80.783c9.526,2.327,19.389,3.783,29.504,4.264v83.845
		L141.139,272.771z M206.99,280.096v-83.845c10.116-0.481,19.979-1.937,29.505-4.264l21.346,80.783L206.99,280.096z"/>
</g>
<g>
</g>
<g>
</g>
<g>
</g>
<g>
</g>
<g>
</g>
<g>
</g>
<g>
</g>
<g>
</g>
<g>
</g>
<g>
</g>
<g>
</g>
<g>
</g>
<g>
</g>
<g>
</g>
<g>
</g>
</svg>
