<?xml version="1.0" encoding="iso-8859-1"?>
<!-- Generator: Adobe Illustrator 18.0.0, SVG Export Plug-In . SVG Version: 6.00 Build 0)  -->
<!DOCTYPE svg PUBLIC "-//W3C//DTD SVG 1.1//EN" "http://www.w3.org/Graphics/SVG/1.1/DTD/svg11.dtd">
<svg version="1.1" id="Capa_1" xmlns="http://www.w3.org/2000/svg" xmlns:xlink="http://www.w3.org/1999/xlink" x="0px" y="0px"
	 viewBox="0 0 453.54 453.54" style="enable-background:new 0 0 453.54 453.54;" xml:space="preserve">
<g>
	<path d="M51,145.188c25.574,0,46.813-18.921,50.45-43.5h70.1v8.411c0,9.562,7.779,17.34,17.34,17.34h31.826
		c9.561,0,17.34-7.779,17.34-17.34v-8.411h26.985v8.411c0,9.562,7.779,17.34,17.34,17.34h31.826c9.561,0,17.34-7.779,17.34-17.34
		v-8.411h26.985v8.411c0,9.562,7.779,17.34,17.34,17.34h31.826c9.561,0,17.34-7.779,17.34-17.34v-8.411h21.003
		c4.142,0,7.5-3.358,7.5-7.5s-3.358-7.5-7.5-7.5h-21.003v-8.415c0-9.561-7.779-17.34-17.34-17.34h-31.826
		c-9.561,0-17.34,7.779-17.34,17.34v8.415h-26.985v-8.415c0-9.561-7.779-17.34-17.34-17.34H282.38c-9.561,0-17.34,7.779-17.34,17.34
		v8.415h-26.985v-8.415c0-9.561-7.779-17.34-17.34-17.34H188.89c-9.562,0-17.34,7.779-17.34,17.34v8.415H94.5
		c-4.142,0-7.5,3.358-7.5,7.5c0,19.851-16.149,36-36,36s-36-16.149-36-36s16.149-36,36-36c4.142,0,7.5-3.358,7.5-7.5
		s-3.358-7.5-7.5-7.5c-28.122,0-51,22.878-51,51S22.878,145.188,51,145.188z M373.531,78.274c0-1.29,1.05-2.34,2.34-2.34h31.826
		c1.29,0,2.34,1.05,2.34,2.34v31.826c0,1.291-1.05,2.34-2.34,2.34h-31.826c-1.29,0-2.34-1.05-2.34-2.34V78.274z M280.041,78.274
		c0-1.29,1.05-2.34,2.34-2.34h31.826c1.29,0,2.34,1.05,2.34,2.34v31.826c0,1.291-1.05,2.34-2.34,2.34H282.38
		c-1.29,0-2.34-1.05-2.34-2.34V78.274z M186.55,78.274c0-1.29,1.05-2.34,2.34-2.34h31.826c1.29,0,2.34,1.05,2.34,2.34v31.826
		c0,1.291-1.05,2.34-2.34,2.34H188.89c-1.291,0-2.34-1.05-2.34-2.34V78.274z"/>
	<path d="M446.04,219.27h-21.003v-8.415c0-9.561-7.779-17.34-17.34-17.34h-31.826c-9.561,0-17.34,7.779-17.34,17.34v8.415h-26.985
		v-8.415c0-9.561-7.779-17.34-17.34-17.34H282.38c-9.561,0-17.34,7.779-17.34,17.34v8.415h-26.985v-8.415
		c0-9.561-7.779-17.34-17.34-17.34H188.89c-9.562,0-17.34,7.779-17.34,17.34v8.415H94.5c-4.142,0-7.5,3.358-7.5,7.5
		c0,19.851-16.149,36-36,36s-36-16.149-36-36s16.149-36,36-36c4.142,0,7.5-3.358,7.5-7.5s-3.358-7.5-7.5-7.5
		c-28.122,0-51,22.878-51,51s22.878,51,51,51c25.574,0,46.813-18.921,50.45-43.5h70.1v8.412c0,9.561,7.779,17.34,17.34,17.34h31.826
		c9.561,0,17.34-7.779,17.34-17.34v-8.412h26.985v8.412c0,9.561,7.779,17.34,17.34,17.34h31.826c9.561,0,17.34-7.779,17.34-17.34
		v-8.412h26.985v8.412c0,9.561,7.779,17.34,17.34,17.34h31.826c9.561,0,17.34-7.779,17.34-17.34v-8.412h21.003
		c4.142,0,7.5-3.358,7.5-7.5S450.182,219.27,446.04,219.27z M223.056,242.681c0,1.29-1.05,2.34-2.34,2.34H188.89
		c-1.291,0-2.34-1.05-2.34-2.34v-31.826c0-1.29,1.05-2.34,2.34-2.34h31.826c1.29,0,2.34,1.05,2.34,2.34V242.681z M316.546,242.681
		c0,1.29-1.05,2.34-2.34,2.34H282.38c-1.29,0-2.34-1.05-2.34-2.34v-31.826c0-1.29,1.05-2.34,2.34-2.34h31.826
		c1.29,0,2.34,1.05,2.34,2.34V242.681z M410.037,242.681c0,1.29-1.05,2.34-2.34,2.34h-31.826c-1.29,0-2.34-1.05-2.34-2.34v-31.826
		c0-1.29,1.05-2.34,2.34-2.34h31.826c1.29,0,2.34,1.05,2.34,2.34V242.681z"/>
	<path d="M446.04,351.851h-21.003v-8.415c0-9.561-7.779-17.34-17.34-17.34h-31.826c-9.561,0-17.34,7.779-17.34,17.34v8.415h-26.985
		v-8.415c0-9.561-7.779-17.34-17.34-17.34H282.38c-9.561,0-17.34,7.779-17.34,17.34v8.415h-26.985v-8.415
		c0-9.561-7.779-17.34-17.34-17.34H188.89c-9.562,0-17.34,7.779-17.34,17.34v8.415H94.5c-4.142,0-7.5,3.358-7.5,7.5
		c0,19.851-16.149,36-36,36s-36-16.149-36-36s16.149-36,36-36c4.142,0,7.5-3.358,7.5-7.5s-3.358-7.5-7.5-7.5
		c-28.122,0-51,22.878-51,51s22.878,51,51,51c25.574,0,46.813-18.921,50.45-43.5h70.1v8.412c0,9.561,7.779,17.34,17.34,17.34h31.826
		c9.561,0,17.34-7.779,17.34-17.34v-8.412h26.985v8.412c0,9.561,7.779,17.34,17.34,17.34h31.826c9.561,0,17.34-7.779,17.34-17.34
		v-8.412h26.985v8.412c0,9.561,7.779,17.34,17.34,17.34h31.826c9.561,0,17.34-7.779,17.34-17.34v-8.412h21.003
		c4.142,0,7.5-3.358,7.5-7.5S450.182,351.851,446.04,351.851z M223.056,375.263c0,1.29-1.05,2.34-2.34,2.34H188.89
		c-1.291,0-2.34-1.05-2.34-2.34v-31.826c0-1.29,1.05-2.34,2.34-2.34h31.826c1.29,0,2.34,1.05,2.34,2.34V375.263z M316.546,375.263
		c0,1.29-1.05,2.34-2.34,2.34H282.38c-1.29,0-2.34-1.05-2.34-2.34v-31.826c0-1.29,1.05-2.34,2.34-2.34h31.826
		c1.29,0,2.34,1.05,2.34,2.34V375.263z M410.037,375.263c0,1.29-1.05,2.34-2.34,2.34h-31.826c-1.29,0-2.34-1.05-2.34-2.34v-31.826
		c0-1.29,1.05-2.34,2.34-2.34h31.826c1.29,0,2.34,1.05,2.34,2.34V375.263z"/>
</g>
<g>
</g>
<g>
</g>
<g>
</g>
<g>
</g>
<g>
</g>
<g>
</g>
<g>
</g>
<g>
</g>
<g>
</g>
<g>
</g>
<g>
</g>
<g>
</g>
<g>
</g>
<g>
</g>
<g>
</g>
</svg>
