<?xml version="1.0" encoding="iso-8859-1"?>
<!-- Generator: Adobe Illustrator 18.0.0, SVG Export Plug-In . SVG Version: 6.00 Build 0)  -->
<!DOCTYPE svg PUBLIC "-//W3C//DTD SVG 1.1//EN" "http://www.w3.org/Graphics/SVG/1.1/DTD/svg11.dtd">
<svg version="1.1" id="Capa_1" xmlns="http://www.w3.org/2000/svg" xmlns:xlink="http://www.w3.org/1999/xlink" x="0px" y="0px"
	 viewBox="0 0 416.424 416.424" style="enable-background:new 0 0 416.424 416.424;" xml:space="preserve">
<path d="M408.924,46.161h-25.141c-18.479-18.589-41.74-28.79-65.846-28.79c-24.111,0-47.375,10.201-65.854,28.79h-25.141
	c-4.143,0-7.5,3.358-7.5,7.5v89.055c0,4.142,3.357,7.5,7.5,7.5h13.182l17.036,63.599h-16.514c-13.348,0-25.178,6.589-32.433,16.679
	c-7.255-10.089-19.085-16.679-32.433-16.679h-16.514l17.036-63.599h13.181c4.142,0,7.5-3.358,7.5-7.5V53.661
	c0-4.142-3.358-7.5-7.5-7.5h-25.14c-18.48-18.589-41.741-28.79-65.847-28.79c-24.112,0-47.375,10.201-65.854,28.79H7.5
	c-4.142,0-7.5,3.358-7.5,7.5v89.055c0,4.142,3.358,7.5,7.5,7.5h13.181l19.309,72.086v93.545c0,4.142,3.358,7.5,7.5,7.5h6.294v12.064
	h-3.692c-4.142,0-7.5,3.358-7.5,7.5v48.642c0,4.142,3.358,7.5,7.5,7.5h96.799c4.142,0,7.5-3.358,7.5-7.5v-48.642
	c0-4.142-3.358-7.5-7.5-7.5h-3.692v-12.064h130.028v12.064h-3.692c-4.143,0-7.5,3.358-7.5,7.5v48.642c0,4.142,3.357,7.5,7.5,7.5
	h96.799c4.143,0,7.5-3.358,7.5-7.5v-48.642c0-4.142-3.357-7.5-7.5-7.5h-3.692v-12.064h6.294c4.143,0,7.5-3.358,7.5-7.5V222.3
	l19.309-72.084h13.182c4.143,0,7.5-3.358,7.5-7.5V53.661C416.424,49.519,413.066,46.161,408.924,46.161z M317.937,32.371
	c14.965,0,29.608,4.823,42.581,13.79h-85.168C288.322,37.194,302.968,32.371,317.937,32.371z M240.645,228.815h120.789v79.532
	H215.712v-54.599c0-0.006,0-0.013,0-0.019C215.722,239.99,226.903,228.815,240.645,228.815z M200.711,253.748v54.599H54.99v-79.532
	h120.789C189.527,228.815,200.711,240,200.711,253.748z M98.495,32.371c14.965,0,29.608,4.823,42.581,13.79H55.907
	C68.88,37.194,83.526,32.371,98.495,32.371z M15,61.161h166.982v74.055H15V61.161z M160.772,150.216l-17.036,63.599H53.245
	l-17.036-63.599H160.772z M139.39,384.053H57.591v-33.642h81.799V384.053z M128.198,335.412H68.784v-12.064h59.414V335.412z
	 M358.832,384.053h-81.799v-33.642h81.799V384.053z M347.64,335.412h-59.414v-12.064h59.414V335.412z M363.178,213.815h-90.49
	l-17.036-63.599h124.563L363.178,213.815z M401.424,135.216H234.441V61.161h166.982V135.216z"/>
<g>
</g>
<g>
</g>
<g>
</g>
<g>
</g>
<g>
</g>
<g>
</g>
<g>
</g>
<g>
</g>
<g>
</g>
<g>
</g>
<g>
</g>
<g>
</g>
<g>
</g>
<g>
</g>
<g>
</g>
</svg>
