<?xml version="1.0" encoding="iso-8859-1"?>
<!-- Generator: Adobe Illustrator 18.0.0, SVG Export Plug-In . SVG Version: 6.00 Build 0)  -->
<!DOCTYPE svg PUBLIC "-//W3C//DTD SVG 1.1//EN" "http://www.w3.org/Graphics/SVG/1.1/DTD/svg11.dtd">
<svg version="1.1" id="Capa_1" xmlns="http://www.w3.org/2000/svg" xmlns:xlink="http://www.w3.org/1999/xlink" x="0px" y="0px"
	 viewBox="0 0 426.309 426.309" style="enable-background:new 0 0 426.309 426.309;" xml:space="preserve">
<g>
	<path d="M335.375,376.086c-3.678-9.016-10.646-16.061-19.623-19.835l-59.505-25.024c-2.182-0.917-4.404-1.598-6.639-2.068v-2.415
		c0-9.735-3.791-18.887-10.674-25.771c-6.889-6.89-16.045-10.684-25.78-10.684c-20.101,0-36.454,16.353-36.454,36.454v2.415
		c-2.235,0.47-4.457,1.15-6.639,2.067l-59.505,25.024c-8.976,3.774-15.945,10.819-19.623,19.835
		c-3.678,9.016-3.624,18.924,0.15,27.9c5.858,13.93,19.411,22.323,33.652,22.323c4.703,0,14.083-2.851,14.083-2.851h0
		c0.002-0.001,0.004-0.002,0.007-0.003l59.498-25.021h0c5.954-2.504,11.017-6.454,14.829-11.456
		c3.813,5.002,8.875,8.952,14.829,11.456c0,0,0,0,0,0c0,0,59.503,25.023,59.505,25.024h0h0c4.601,1.935,9.379,2.851,14.083,2.851
		c14.24,0,27.795-8.395,33.652-22.323C338.999,395.011,339.053,385.102,335.375,376.086z M213.155,305.291
		c5.729,0,11.117,2.234,15.173,6.29c4.05,4.05,6.281,9.436,6.281,15.164v2.434c-8.409,1.783-16.092,6.5-21.454,13.51
		c-5.362-7.01-13.046-11.726-21.454-13.509v-2.435C191.701,314.915,201.325,305.291,213.155,305.291z M104.912,398.172
		c-2.222-5.283-2.253-11.114-0.088-16.42c2.165-5.306,6.266-9.452,11.548-11.673c10.907-4.583,23.508,0.555,28.093,11.459
		c4.586,10.905-0.555,23.507-11.46,28.093h0C122.098,414.217,109.497,409.076,104.912,398.172z M192.51,384.607l-32.362,13.609
		c1.722-7.259,1.25-15.104-1.857-22.493c-3.107-7.389-8.384-13.213-14.776-17.06l32.361-13.609c2.708-1.139,5.519-1.678,8.288-1.678
		c8.38,0,16.358,4.941,19.805,13.138c1.083,2.574,1.636,5.278,1.677,7.988c-0.001,0.145,0.001,0.29,0.002,0.434
		c-0.014,2.708-0.537,5.415-1.59,7.997C201.894,378.24,197.793,382.385,192.51,384.607z M222.251,372.934
		c-1.053-2.583-1.577-5.29-1.59-7.997c0-0.145,0.003-0.289,0.002-0.434c0.042-2.71,0.595-5.415,1.677-7.989
		c4.586-10.904,17.189-16.043,28.093-11.459l32.362,13.609c-6.393,3.847-11.67,9.671-14.777,17.06
		c-3.107,7.388-3.579,15.233-1.857,22.493l-32.362-13.609h0C228.517,382.385,224.416,378.24,222.251,372.934z M321.397,398.172
		c-4.585,10.904-17.187,16.046-28.093,11.459h0c-10.905-4.586-16.046-17.188-11.46-28.093c4.586-10.905,17.189-16.045,28.093-11.46
		c5.282,2.221,9.383,6.367,11.548,11.673C323.65,387.058,323.619,392.889,321.397,398.172z"/>
	<path d="M167.164,314.223c2.74,0,5.228-1.598,6.366-4.09c1.139-2.492,0.72-5.418-1.073-7.49
		c-2.759-3.188-7.216-20.435-0.908-40.383c4.532-14.332,15.686-32.645,42.944-41.928c3.073,17.688,12.353,27.454,20.67,36.207
		c10.299,10.839,19.194,20.201,16.254,45.074c-0.252,2.137,0.492,4.271,2.019,5.788c1.526,1.517,3.665,2.247,5.801,1.979
		c0.598-0.075,14.821-1.942,29.726-11.571c13.833-8.938,30.959-26.458,33.986-59.175c4.236-45.786-15.46-91.82-56.96-133.125
		c-30.92-30.775-62.626-47.962-63.961-48.679c-2.169-1.164-4.792-1.104-6.905,0.16c-2.113,1.264-3.407,3.545-3.407,6.007
		c0,61.021-24.748,84.581-48.68,107.365c-20.74,19.746-40.331,38.396-39.441,77.53C104.632,293.466,137.274,314.223,167.164,314.223
		z M152.69,180.503c23.297-22.18,49.508-47.131,52.703-105.365c11.611,7.35,31.654,21.266,50.969,40.542
		c17.122,17.087,30.332,34.987,39.264,53.202c11.007,22.446,15.509,45.48,13.383,68.463c-3.541,38.265-29.314,51.644-43.031,56.085
		c0.269-24.503-10.784-36.134-20.666-46.534c-9.061-9.536-16.887-17.772-17.786-35.973c-0.104-2.093-1.139-4.029-2.821-5.277
		s-3.835-1.679-5.868-1.169c-39.218,9.805-54.621,34.539-60.637,53.562c-4.116,13.017-4.204,24.488-3.553,31.82
		c0.288,3.24,0.777,6.295,1.441,9.087c-17.273-3.905-37.727-17.546-38.497-51.372C116.843,214.629,132.663,199.569,152.69,180.503z"
		/>
	<path d="M127.117,144c0.63,2.5,2.499,4.5,4.95,5.299c0.761,0.248,1.544,0.369,2.323,0.369c1.729,0,3.432-0.598,4.798-1.735
		c46.902-39.04,36.155-75.23,27.52-104.31c-3.744-12.608-7.281-24.517-5.633-34.954c0.487-3.083-0.987-6.146-3.701-7.689
		c-2.713-1.542-6.099-1.243-8.5,0.75c-57.529,47.793-39.599,94.282-27.734,125.044C123.568,133.07,125.862,139.017,127.117,144z
		 M146.465,24.428c1.182,7.702,3.486,15.458,5.863,23.465c7.854,26.449,15.31,51.544-14.361,80.934
		c-0.894-2.426-1.853-4.913-2.832-7.452C124.647,94.184,111.833,60.948,146.465,24.428z"/>
</g>
<g>
</g>
<g>
</g>
<g>
</g>
<g>
</g>
<g>
</g>
<g>
</g>
<g>
</g>
<g>
</g>
<g>
</g>
<g>
</g>
<g>
</g>
<g>
</g>
<g>
</g>
<g>
</g>
<g>
</g>
</svg>
