<?xml version="1.0" encoding="iso-8859-1"?>
<!-- Generator: Adobe Illustrator 18.0.0, SVG Export Plug-In . SVG Version: 6.00 Build 0)  -->
<!DOCTYPE svg PUBLIC "-//W3C//DTD SVG 1.1//EN" "http://www.w3.org/Graphics/SVG/1.1/DTD/svg11.dtd">
<svg version="1.1" id="Capa_1" xmlns="http://www.w3.org/2000/svg" xmlns:xlink="http://www.w3.org/1999/xlink" x="0px" y="0px"
	 viewBox="0 0 459 459" style="enable-background:new 0 0 459 459;" xml:space="preserve">
<g>
	<path d="M309.27,354.038c-4.142-0.325-7.741,2.753-8.07,6.883l-4.845,60.986c-0.328,4.129,2.754,7.742,6.883,8.07
		c0.202,0.016,0.402,0.024,0.602,0.024c3.873,0,7.156-2.979,7.469-6.907l4.845-60.986
		C316.48,357.979,313.398,354.366,309.27,354.038z"/>
	<path d="M317.14,254.995c0.202,0.016,0.402,0.024,0.602,0.024c3.873,0,7.156-2.979,7.469-6.907l1.895-23.849
		c0.328-4.129-2.754-7.742-6.883-8.07c-4.135-0.328-7.742,2.754-8.07,6.883l-1.895,23.849
		C309.929,251.053,313.011,254.667,317.14,254.995z"/>
	<path d="M320.828,208.55c0.203,0.016,0.403,0.024,0.603,0.024c3.873,0,7.156-2.979,7.469-6.906l0.682-8.573
		c0.328-4.129-2.753-7.742-6.882-8.071c-4.156-0.33-7.743,2.753-8.071,6.882l-0.682,8.573
		C313.618,204.608,316.699,208.221,320.828,208.55z"/>
	<path d="M338.043,59.977c-16.191-16.191-35.968-28.645-57.448-36.237C278.322,10.284,266.592,0,252.5,0h-44
		c-13.835,0-25.394,9.911-27.963,23.004c-29.029,9.79-55.014,28.486-73.581,53.059C86.704,102.866,76,134.837,76,168.52
		c0,6.278,2.442,12.178,6.877,16.614c4.441,4.44,10.345,6.886,16.623,6.886h0.742l20.662,260.074
		c0.31,3.899,3.564,6.906,7.477,6.906h202.237c3.912,0,7.167-3.006,7.477-6.906l20.663-260.074h0.742
		c12.958,0,23.5-10.542,23.5-23.5C383,127.516,367.034,88.968,338.043,59.977z M208.5,15h44c7.444,0,13.5,6.056,13.5,13.5
		S259.944,42,252.5,42h-44c-7.444,0-13.5-6.056-13.5-13.5S201.056,15,208.5,15z M124.581,308.98h209.837L333.225,324h-207.45
		L124.581,308.98z M123.39,293.98l-1.194-15.03h214.608l-1.194,15.03H123.39z M323.69,444H135.309l-8.342-105h205.066L323.69,444z
		 M337.996,263.95H121.004L113.619,171h231.762L337.996,263.95z M244.766,156h-30.532c4.009-8.437,9.104-16.264,15.266-23.382
		C235.662,139.736,240.756,147.563,244.766,156z M359.951,176.997l1.025-12.903c0.166-2.086-0.548-4.146-1.967-5.683
		c-1.42-1.537-3.417-2.411-5.51-2.411h-92.347c-4.206-10.39-9.793-20.028-16.7-28.809c25.315-6.638,44.047-29.708,44.047-57.077
		c0-4.142-3.357-7.5-7.5-7.5c-22.103,0-41.396,12.225-51.501,30.261c-10.105-18.036-29.398-30.261-51.502-30.261
		c-4.143,0-7.5,3.358-7.5,7.5c0,27.368,18.732,50.439,44.048,57.077c-6.907,8.782-12.495,18.419-16.699,28.809H105.5
		c-2.093,0-4.09,0.874-5.51,2.411c-1.419,1.537-2.133,3.597-1.967,5.683l1.025,12.904c-2.102-0.11-4.065-0.971-5.565-2.471
		C91.882,172.925,91,170.792,91,168.52c0-30.393,9.656-59.237,27.924-83.414c16.005-21.182,38.118-37.504,62.885-46.625
		C185.863,49.288,196.296,57,208.5,57h44c11.966,0,22.227-7.417,26.444-17.892c18.087,6.928,34.723,17.706,48.492,31.475
		C353.595,96.741,368,131.522,368,168.52C368,173.055,364.428,176.76,359.951,176.997z M237.781,113.334
		c3.372-17.635,17.304-31.566,34.938-34.938C269.348,96.031,255.416,109.963,237.781,113.334z M221.219,113.334
		c-17.636-3.372-31.567-17.303-34.939-34.938C203.915,81.768,217.847,95.7,221.219,113.334z"/>
</g>
<g>
</g>
<g>
</g>
<g>
</g>
<g>
</g>
<g>
</g>
<g>
</g>
<g>
</g>
<g>
</g>
<g>
</g>
<g>
</g>
<g>
</g>
<g>
</g>
<g>
</g>
<g>
</g>
<g>
</g>
</svg>
