<?xml version="1.0" encoding="iso-8859-1"?>
<!-- Generator: Adobe Illustrator 18.0.0, SVG Export Plug-In . SVG Version: 6.00 Build 0)  -->
<!DOCTYPE svg PUBLIC "-//W3C//DTD SVG 1.1//EN" "http://www.w3.org/Graphics/SVG/1.1/DTD/svg11.dtd">
<svg version="1.1" id="Capa_1" xmlns="http://www.w3.org/2000/svg" xmlns:xlink="http://www.w3.org/1999/xlink" x="0px" y="0px"
	 viewBox="0 0 369.483 369.483" style="enable-background:new 0 0 369.483 369.483;" xml:space="preserve">
<g>
	<path d="M322.38,302.97h-19.532v-93.284c0-24.775-20.156-44.931-44.931-44.931h-51.576l-2.693-32.019h26.113
		c2.158,0,4.211-0.93,5.635-2.551c1.424-1.622,2.081-3.778,1.802-5.918l-8.638-66.319l29.681-30.843
		c1.573-1.635,2.322-3.896,2.036-6.146c-0.286-2.251-1.576-4.252-3.509-5.441L233.361,1.113c-3.528-2.17-8.147-1.07-10.318,2.457
		c-2.171,3.528-1.071,8.147,2.457,10.318l15.477,9.524l-23.511,24.431h-27.828V7.501c0-4.142-3.358-7.5-7.5-7.5s-7.5,3.358-7.5,7.5
		v40.342h-27.828L123.3,23.413l15.477-9.524c3.528-2.17,4.627-6.79,2.457-10.318c-2.17-3.527-6.791-4.628-10.318-2.457
		L107.51,15.518c-1.933,1.189-3.223,3.19-3.509,5.441c-0.287,2.251,0.462,4.511,2.036,6.146l29.681,30.842l-8.638,66.319
		c-0.279,2.14,0.377,4.296,1.802,5.918c1.424,1.621,3.477,2.551,5.635,2.551h27.318l-2.693,32.019h-47.576
		c-24.775,0-44.931,20.156-44.931,44.931v93.284H47.102c-4.142,0-7.5,3.358-7.5,7.5v51.513c0,4.142,3.358,7.5,7.5,7.5H322.38
		c4.142,0,7.5-3.358,7.5-7.5V310.47C329.88,306.328,326.522,302.97,322.38,302.97z M150.206,62.843h63.865l7.149,54.893h-23.73
		h-25.499h-28.935L150.206,62.843z M176.888,132.736h11.708l2.693,32.019h-17.094L176.888,132.736z M81.635,209.686
		c0-16.504,13.427-29.931,29.931-29.931h146.351c16.504,0,29.931,13.427,29.931,29.931v93.284H81.635V209.686z M314.88,354.483
		H54.602V317.97H314.88V354.483z"/>
	<path d="M266.207,203.728c-4.142,0-7.5,3.358-7.5,7.5v70.497c0,4.142,3.358,7.5,7.5,7.5s7.5-3.358,7.5-7.5v-70.497
		C273.707,207.086,270.349,203.728,266.207,203.728z"/>
</g>
<g>
</g>
<g>
</g>
<g>
</g>
<g>
</g>
<g>
</g>
<g>
</g>
<g>
</g>
<g>
</g>
<g>
</g>
<g>
</g>
<g>
</g>
<g>
</g>
<g>
</g>
<g>
</g>
<g>
</g>
</svg>
