<?xml version="1.0" encoding="iso-8859-1"?>
<!-- Generator: Adobe Illustrator 18.0.0, SVG Export Plug-In . SVG Version: 6.00 Build 0)  -->
<!DOCTYPE svg PUBLIC "-//W3C//DTD SVG 1.1//EN" "http://www.w3.org/Graphics/SVG/1.1/DTD/svg11.dtd">
<svg version="1.1" id="Capa_1" xmlns="http://www.w3.org/2000/svg" xmlns:xlink="http://www.w3.org/1999/xlink" x="0px" y="0px"
	 viewBox="0 0 420.151 420.151" style="enable-background:new 0 0 420.151 420.151;" xml:space="preserve">
<g>
	<path d="M384.313,51.641H35.839C16.077,51.641,0,65.835,0,83.281s16.077,31.64,35.839,31.64h10.894l117.55,117.55L41.037,355.707
		c-2.146,2.145-2.787,5.371-1.626,8.174c1.16,2.803,3.896,4.63,6.929,4.63h66.883c1.989,0,3.896-0.79,5.303-2.196l89.805-89.795
		l89.794,89.794c1.407,1.407,3.314,2.197,5.304,2.197h66.884c3.033,0,5.769-1.827,6.929-4.63c1.161-2.803,0.52-6.028-1.625-8.173
		L252.38,232.471l117.539-117.55h14.394c19.761,0,35.838-14.193,35.838-31.64S404.074,51.641,384.313,51.641z M110.116,353.51
		H64.447l110.442-110.433l22.835,22.835L110.116,353.51z M306.535,353.51L67.946,114.921h45.67l238.59,238.589H306.535z
		 M134.83,114.921h146.994l-73.493,73.501L134.83,114.921z M241.773,221.864l-22.835-22.835l84.098-84.108h45.67L241.773,221.864z
		 M384.313,99.921H35.839C24.349,99.921,15,92.457,15,83.281s9.349-16.64,20.839-16.64h348.475c11.49,0,20.838,7.465,20.838,16.64
		S395.804,99.921,384.313,99.921z"/>
	<path d="M210.086,241.716c4.143,0,7.5-3.358,7.5-7.5s-3.357-7.5-7.5-7.5h-0.01c-4.143,0-7.495,3.358-7.495,7.5
		S205.944,241.716,210.086,241.716z"/>
</g>
<g>
</g>
<g>
</g>
<g>
</g>
<g>
</g>
<g>
</g>
<g>
</g>
<g>
</g>
<g>
</g>
<g>
</g>
<g>
</g>
<g>
</g>
<g>
</g>
<g>
</g>
<g>
</g>
<g>
</g>
</svg>
