<?xml version="1.0" encoding="iso-8859-1"?>
<!-- Generator: Adobe Illustrator 18.0.0, SVG Export Plug-In . SVG Version: 6.00 Build 0)  -->
<!DOCTYPE svg PUBLIC "-//W3C//DTD SVG 1.1//EN" "http://www.w3.org/Graphics/SVG/1.1/DTD/svg11.dtd">
<svg version="1.1" id="Capa_1" xmlns="http://www.w3.org/2000/svg" xmlns:xlink="http://www.w3.org/1999/xlink" x="0px" y="0px"
	 viewBox="0 0 387.482 387.482" style="enable-background:new 0 0 387.482 387.482;" xml:space="preserve">
<path d="M379.982,98.071h-34.414l12.596-20.881c1.397-2.316,1.439-5.206,0.109-7.562s-3.826-3.813-6.531-3.813h-150.44
	c-2.705,0-5.201,1.457-6.531,3.813c-1.33,2.356-1.288,5.245,0.109,7.562l12.597,20.881h-72.143V8.72c0-4.142-3.357-7.5-7.5-7.5
	H51.468c-4.143,0-7.5,3.358-7.5,7.5v14.196h-9.89c-10.438,0-18.932,8.493-18.932,18.932v14.29c0,17.238,12.446,31.615,28.821,34.641
	v7.292H7.5c-4.143,0-7.5,3.358-7.5,7.5v45.196c0,4.142,3.357,7.5,7.5,7.5h55.151l99.362,99.362l-115.83,115.83
	c-2.145,2.145-2.786,5.371-1.625,8.173c1.16,2.803,3.896,4.63,6.929,4.63h42.237c1.989,0,3.896-0.79,5.304-2.197l94.716-94.716
	l94.716,94.716c1.407,1.407,3.314,2.197,5.304,2.197h42.227c3.033,0,5.769-1.827,6.929-4.63c1.161-2.803,0.52-6.028-1.625-8.173
	L225.464,257.63l99.363-99.362h55.155c4.143,0,7.5-3.358,7.5-7.5v-45.196C387.482,101.429,384.125,98.071,379.982,98.071z
	 M214.585,80.816h123.874l-10.408,17.255H224.994L214.585,80.816z M30.146,56.138v-14.29c0-2.168,1.764-3.932,3.932-3.932h9.89
	v37.417C35.944,72.644,30.146,65.055,30.146,56.138z M58.968,16.22h61.366v81.852H58.968V16.22z M83.865,158.268h21.034
	l78.238,78.238l-10.517,10.517L83.865,158.268z M193.744,225.899l-67.631-67.631h135.263L193.744,225.899z M317.884,371.263H296.87
	l-92.519-92.519l10.507-10.507L317.884,371.263z M90.618,371.263H69.594L282.59,158.268h21.023L90.618,371.263z M372.482,143.268H15
	v-30.196h357.482V143.268z"/>
<g>
</g>
<g>
</g>
<g>
</g>
<g>
</g>
<g>
</g>
<g>
</g>
<g>
</g>
<g>
</g>
<g>
</g>
<g>
</g>
<g>
</g>
<g>
</g>
<g>
</g>
<g>
</g>
<g>
</g>
</svg>
