<?xml version="1.0" encoding="iso-8859-1"?>
<!-- Generator: Adobe Illustrator 18.0.0, SVG Export Plug-In . SVG Version: 6.00 Build 0)  -->
<!DOCTYPE svg PUBLIC "-//W3C//DTD SVG 1.1//EN" "http://www.w3.org/Graphics/SVG/1.1/DTD/svg11.dtd">
<svg version="1.1" id="Capa_1" xmlns="http://www.w3.org/2000/svg" xmlns:xlink="http://www.w3.org/1999/xlink" x="0px" y="0px"
	 viewBox="0 0 446.698 446.698" style="enable-background:new 0 0 446.698 446.698;" xml:space="preserve">
<g>
	<path d="M396.775,303.959c4.143,0,7.5-3.358,7.5-7.5V275.46c0-4.142-3.357-7.5-7.5-7.5h-29.725l5.33-3.808
		c1.762-1.258,2.893-3.215,3.104-5.369l2.741-27.894l15.833-23.122c1.224-1.787,1.615-4.015,1.073-6.112l-7.006-27.134l7.006-27.125
		c0.541-2.096,0.15-4.325-1.072-6.112l-15.834-23.133l-2.741-27.895c-0.212-2.155-1.345-4.113-3.107-5.371L349.57,68.608
		l-12.095-25.276c-0.934-1.951-2.664-3.404-4.747-3.986l-26.982-7.541l-20.003-19.629c-1.547-1.519-3.688-2.291-5.836-2.124
		l-27.938,2.18L226.444,0.668c-1.967-0.891-4.222-0.891-6.19,0l-25.522,11.564l-27.938-2.18c-2.149-0.167-4.289,0.606-5.836,2.124
		l-20.003,19.629l-26.991,7.541c-2.084,0.582-3.814,2.035-4.748,3.986L97.118,68.609L74.32,84.886
		c-1.762,1.258-2.894,3.216-3.105,5.37l-2.741,27.895L52.64,141.284c-1.223,1.787-1.613,4.015-1.072,6.112l7.006,27.125
		l-7.006,27.135c-0.542,2.097-0.15,4.325,1.073,6.112l15.833,23.122l2.741,27.894c0.212,2.154,1.343,4.111,3.104,5.369l5.33,3.808
		H49.923c-4.143,0-7.5,3.358-7.5,7.5v20.999c0,4.142,3.357,7.5,7.5,7.5h3.898v106.74h-3.898c-4.143,0-7.5,3.358-7.5,7.5v20.999
		c0,4.142,3.357,7.5,7.5,7.5h346.852c4.143,0,7.5-3.358,7.5-7.5v-20.999c0-4.142-3.357-7.5-7.5-7.5h-3.898v-106.74H396.775z
		 M85.81,253.927l-2.597-26.42c-0.123-1.257-0.563-2.462-1.275-3.504l-14.994-21.898l6.638-25.71c0.317-1.23,0.317-2.521,0-3.75
		l-6.638-25.7l14.995-21.908c0.713-1.042,1.151-2.246,1.274-3.502l2.597-26.419l21.598-15.421c1.031-0.737,1.859-1.723,2.407-2.866
		l11.461-23.95l25.571-7.144c1.22-0.341,2.332-0.984,3.235-1.87l18.945-18.591l26.459,2.065c1.259,0.098,2.526-0.124,3.679-0.646
		l24.184-10.958l24.186,10.958c1.151,0.522,2.418,0.744,3.678,0.646l26.459-2.065l18.945,18.591c0.903,0.886,2.016,1.53,3.234,1.87
		l25.563,7.144l11.46,23.95c0.548,1.144,1.376,2.131,2.409,2.867l21.606,15.42l2.597,26.418c0.123,1.256,0.562,2.461,1.274,3.502
		l14.995,21.908l-6.638,25.7c-0.317,1.23-0.317,2.521,0,3.75l6.638,25.71l-14.994,21.898c-0.713,1.042-1.152,2.247-1.275,3.504
		l-2.597,26.421l-19.643,14.033h-34.87c10.069-8.888,18.711-19.365,25.502-31.019c11.121-19.084,17-40.91,17-63.12
		c0-69.217-56.313-125.53-125.53-125.53c-69.217,0-125.529,56.313-125.529,125.53c0,22.21,5.879,44.037,17,63.12
		c6.792,11.654,15.433,22.131,25.502,31.019h-34.869L85.81,253.927z M165.435,267.96c-32.5-20.038-52.615-55.914-52.615-94.139
		c0-60.946,49.583-110.53,110.529-110.53s110.53,49.583,110.53,110.53c0,38.224-20.115,74.1-52.615,94.139H165.435z M57.423,282.96
		h331.852v5.999H57.423V282.96z M389.275,431.698H57.423v-5.999h3.898h324.055h3.898V431.698z M377.876,410.699H68.821v-106.74
		h309.055V410.699z"/>
	<path d="M123.474,392.464c1.36,1.137,3.066,1.747,4.812,1.747c0.441,0,0.886-0.039,1.327-0.118
		c19.44-3.494,36.952-12.429,51.097-25.984c18.471,17.607,43.14,27.566,68.849,27.566c28.405,0,55.541-12.157,74.45-33.354
		c2.538-2.845,2.538-7.141,0-9.985c-18.909-21.197-46.045-33.354-74.45-33.354c-25.709,0-50.378,9.96-68.849,27.566
		c-14.146-13.555-31.658-22.49-51.097-25.984c-2.186-0.392-4.434,0.204-6.139,1.629c-1.704,1.425-2.688,3.532-2.688,5.753v58.764
		C120.785,388.932,121.77,391.039,123.474,392.464z M249.559,333.982c21.807,0,42.735,8.434,58.42,23.347
		c-15.685,14.912-36.613,23.347-58.42,23.347s-42.735-8.434-58.42-23.347C206.823,342.416,227.752,333.982,249.559,333.982z
		 M135.785,337.398c12.959,3.773,24.681,10.541,34.502,19.93c-9.821,9.389-21.543,16.157-34.502,19.93V337.398z"/>
</g>
<g>
</g>
<g>
</g>
<g>
</g>
<g>
</g>
<g>
</g>
<g>
</g>
<g>
</g>
<g>
</g>
<g>
</g>
<g>
</g>
<g>
</g>
<g>
</g>
<g>
</g>
<g>
</g>
<g>
</g>
</svg>
