<?xml version="1.0" encoding="iso-8859-1"?>
<!-- Generator: Adobe Illustrator 18.0.0, SVG Export Plug-In . SVG Version: 6.00 Build 0)  -->
<!DOCTYPE svg PUBLIC "-//W3C//DTD SVG 1.1//EN" "http://www.w3.org/Graphics/SVG/1.1/DTD/svg11.dtd">
<svg version="1.1" id="Capa_1" xmlns="http://www.w3.org/2000/svg" xmlns:xlink="http://www.w3.org/1999/xlink" x="0px" y="0px"
	 viewBox="0 0 445.097 445.097" style="enable-background:new 0 0 445.097 445.097;" xml:space="preserve">
<g>
	<path d="M350.611,195.898c8.939-3.328,15.325-11.947,15.325-22.031c0-12.958-10.542-23.5-23.5-23.5h-32.473V67.59
		c0-24.944-18.626-45.605-42.694-48.837C264.303,7.957,254.407,0,242.682,0h-46.352c-11.725,0-21.621,7.957-24.587,18.753
		c-24.072,3.233-42.7,23.893-42.7,48.837v82.777H102.66c-12.958,0-23.5,10.542-23.5,23.5c0,10.084,6.386,18.703,15.325,22.031
		c-19.068,26.632-29.441,58.704-29.441,91.699c0,86.846,70.658,157.5,157.51,157.5c86.846,0,157.5-70.654,157.5-157.5
		C380.053,254.602,369.68,222.529,350.611,195.898z M196.331,15h46.352c5.79,0,10.5,4.71,10.5,10.5s-4.71,10.5-10.5,10.5h-46.352
		c-5.79,0-10.5-4.71-10.5-10.5S190.541,15,196.331,15z M144.044,67.59c0-16.826,12.186-30.85,28.2-33.736
		C175.711,43.823,185.196,51,196.331,51h46.352c11.136,0,20.621-7.178,24.088-17.148c16.007,2.883,28.193,16.909,28.193,33.738
		v82.777h-150.92V67.59z M102.66,165.367h33.826c0.02,0,0.039,0.003,0.058,0.003h165.92c0.02,0,0.039-0.003,0.058-0.003h39.915
		c4.687,0,8.5,3.813,8.5,8.5s-3.813,8.5-8.5,8.5H102.66c-4.687,0-8.5-3.813-8.5-8.5C94.16,169.18,97.973,165.367,102.66,165.367z
		 M222.553,430.097c-78.58,0-142.51-63.925-142.51-142.5c0-32.92,11.412-64.824,32.2-90.23h220.608
		c20.789,25.406,32.201,57.31,32.201,90.23C365.053,366.172,301.129,430.097,222.553,430.097z"/>
	<path d="M332.37,251.814c1.032,3.167,3.971,5.18,7.13,5.18c0.771,0,1.553-0.119,2.324-0.371c3.938-1.283,6.092-5.515,4.81-9.454
		c-2.674-8.21-6.179-16.184-10.418-23.699c-2.034-3.608-6.606-4.883-10.217-2.849c-3.607,2.035-4.883,6.609-2.848,10.217
		C326.902,237.49,330.004,244.547,332.37,251.814z"/>
	<path d="M345.553,280.097c-4.143,0-7.5,3.358-7.5,7.5c0,63.687-51.813,115.5-115.5,115.5c-4.143,0-7.5,3.358-7.5,7.5
		s3.357,7.5,7.5,7.5c71.958,0,130.5-58.542,130.5-130.5C353.053,283.455,349.696,280.097,345.553,280.097z"/>
</g>
<g>
</g>
<g>
</g>
<g>
</g>
<g>
</g>
<g>
</g>
<g>
</g>
<g>
</g>
<g>
</g>
<g>
</g>
<g>
</g>
<g>
</g>
<g>
</g>
<g>
</g>
<g>
</g>
<g>
</g>
</svg>
