<?xml version="1.0" encoding="iso-8859-1"?>
<!-- Generator: Adobe Illustrator 18.0.0, SVG Export Plug-In . SVG Version: 6.00 Build 0)  -->
<!DOCTYPE svg PUBLIC "-//W3C//DTD SVG 1.1//EN" "http://www.w3.org/Graphics/SVG/1.1/DTD/svg11.dtd">
<svg version="1.1" id="Capa_1" xmlns="http://www.w3.org/2000/svg" xmlns:xlink="http://www.w3.org/1999/xlink" x="0px" y="0px"
	 viewBox="0 0 434.21 434.21" style="enable-background:new 0 0 434.21 434.21;" xml:space="preserve">
<g>
	<path d="M245.19,61.32c5.615-6.504,9.023-14.965,9.023-24.212C254.213,16.646,237.566,0,217.105,0
		c-20.461,0-37.107,16.646-37.107,37.108c0,9.247,3.407,17.707,9.022,24.212C98.909,74.913,29.608,152.87,29.608,246.713
		c0,103.386,84.111,187.497,187.497,187.497s187.498-84.111,187.498-187.497C404.602,152.87,335.301,74.913,245.19,61.32z
		 M194.997,37.108c0-12.19,9.917-22.108,22.107-22.108s22.108,9.917,22.108,22.108s-9.918,22.108-22.108,22.108
		S194.997,49.298,194.997,37.108z M217.105,419.21c-95.115,0-172.497-77.382-172.497-172.497S121.99,74.216,217.105,74.216
		c95.116,0,172.498,77.382,172.498,172.497S312.221,419.21,217.105,419.21z"/>
	<path d="M348.099,168.851c-2.12-3.56-6.723-4.725-10.281-2.606c-3.559,2.12-4.726,6.723-2.605,10.281
		c12.599,21.153,19.259,45.424,19.259,70.187c0,75.743-61.622,137.365-137.366,137.365c-75.743,0-137.365-61.622-137.365-137.365
		s61.622-137.365,137.365-137.365c36.412,0,70.719,14.102,96.603,39.707c2.944,2.913,7.692,2.888,10.606-0.057
		c2.913-2.945,2.888-7.693-0.058-10.606c-28.71-28.402-66.764-44.044-107.152-44.044c-84.014,0-152.365,68.351-152.365,152.365
		s68.351,152.365,152.365,152.365c84.015,0,152.366-68.351,152.366-152.365C369.471,219.249,362.08,192.324,348.099,168.851z"/>
	<path d="M249.057,244.69l-24.73-88.281c-0.907-3.238-3.859-5.477-7.222-5.477s-6.315,2.239-7.222,5.477l-24.73,88.281
		c-0.371,1.323-0.371,2.723,0,4.046l24.73,88.281c0.907,3.238,3.859,5.477,7.222,5.477s6.315-2.239,7.222-5.477l24.73-88.281
		C249.429,247.413,249.429,246.013,249.057,244.69z M217.105,186.236l14.841,52.977h-29.681L217.105,186.236z M217.105,307.19
		l-14.84-52.977h29.681L217.105,307.19z"/>
	<path d="M212.938,136.154c0.41,0.27,0.85,0.5,1.3,0.69c0.45,0.18,0.92,0.33,1.4,0.42c0.48,0.1,0.98,0.15,1.47,0.15
		c0.479,0,0.979-0.05,1.46-0.15c0.479-0.09,0.95-0.24,1.399-0.42c0.46-0.19,0.891-0.42,1.301-0.69c0.409-0.28,0.79-0.59,1.14-0.94
		c1.4-1.39,2.2-3.32,2.2-5.3c0-1.97-0.8-3.91-2.2-5.3c-0.35-0.35-0.73-0.66-1.14-0.93c-0.41-0.27-0.841-0.51-1.301-0.69
		c-0.449-0.19-0.92-0.34-1.399-0.43c-2.43-0.49-5.02,0.31-6.77,2.05c-1.39,1.39-2.19,3.33-2.19,5.3c0,1.98,0.8,3.91,2.19,5.3
		C212.148,135.564,212.528,135.874,212.938,136.154z"/>
	<path d="M223.338,359.344c-0.27-0.41-0.58-0.79-0.93-1.14c-0.35-0.34-0.73-0.66-1.14-0.93c-0.41-0.27-0.841-0.5-1.301-0.69
		c-0.449-0.19-0.92-0.33-1.399-0.43c-2.43-0.49-5.02,0.31-6.77,2.05c-0.34,0.35-0.66,0.73-0.93,1.14c-0.27,0.41-0.5,0.84-0.69,1.3
		c-0.19,0.45-0.33,0.92-0.43,1.4c-0.09,0.48-0.14,0.98-0.14,1.47c0,1.97,0.8,3.9,2.19,5.3c0.35,0.35,0.73,0.66,1.14,0.93
		c0.41,0.27,0.85,0.5,1.3,0.69c0.45,0.19,0.92,0.33,1.4,0.43c0.48,0.1,0.98,0.15,1.47,0.15c0.479,0,0.979-0.05,1.46-0.15
		c0.479-0.1,0.95-0.24,1.399-0.43c0.46-0.19,0.891-0.42,1.301-0.69c0.409-0.27,0.79-0.58,1.14-0.93c1.4-1.4,2.2-3.33,2.2-5.3
		c0-0.49-0.05-0.99-0.15-1.47c-0.1-0.48-0.24-0.95-0.43-1.4C223.838,360.184,223.608,359.754,223.338,359.344z"/>
	<path d="M326.548,248.174c0.101,0.48,0.24,0.96,0.431,1.41c0.189,0.45,0.42,0.89,0.689,1.29c0.271,0.41,0.58,0.8,0.931,1.14
		c0.35,0.35,0.729,0.66,1.14,0.93c0.41,0.27,0.84,0.51,1.3,0.69c0.45,0.19,0.92,0.34,1.4,0.43c0.479,0.1,0.979,0.15,1.47,0.15
		c0.48,0,0.98-0.05,1.46-0.15c0.48-0.09,0.95-0.24,1.4-0.43c0.449-0.18,0.89-0.42,1.3-0.69c0.41-0.27,0.79-0.58,1.14-0.93
		c0.34-0.34,0.66-0.73,0.931-1.14c0.27-0.4,0.5-0.84,0.689-1.29c0.19-0.46,0.33-0.93,0.43-1.41c0.101-0.48,0.15-0.97,0.15-1.46
		s-0.05-0.98-0.15-1.47c-0.1-0.47-0.239-0.95-0.43-1.4c-0.189-0.45-0.42-0.89-0.689-1.29c-0.271-0.41-0.591-0.8-0.931-1.14
		c-0.35-0.35-0.729-0.66-1.14-0.94c-0.41-0.27-0.851-0.5-1.3-0.69c-0.45-0.18-0.92-0.33-1.4-0.42c-0.97-0.2-1.96-0.2-2.93,0
		c-0.48,0.09-0.95,0.24-1.4,0.42c-0.46,0.19-0.89,0.42-1.3,0.69c-0.41,0.28-0.79,0.59-1.14,0.94c-0.351,0.34-0.66,0.73-0.931,1.14
		c-0.27,0.4-0.5,0.84-0.689,1.29c-0.19,0.45-0.33,0.93-0.431,1.4c-0.1,0.49-0.149,0.98-0.149,1.47S326.448,247.694,326.548,248.174z
		"/>
	<path d="M106.548,242.554c-0.28-0.42-0.59-0.8-0.94-1.14c-0.34-0.35-0.73-0.66-1.14-0.94c-0.4-0.27-0.84-0.5-1.29-0.69
		c-0.46-0.18-0.93-0.33-1.4-0.42c-0.97-0.2-1.97-0.2-2.94,0c-0.47,0.09-0.95,0.24-1.4,0.42c-0.45,0.19-0.89,0.42-1.29,0.69
		c-0.41,0.28-0.8,0.59-1.14,0.94c-0.35,0.34-0.66,0.72-0.94,1.14c-0.27,0.4-0.5,0.84-0.69,1.29c-0.18,0.45-0.33,0.93-0.42,1.4
		c-0.1,0.49-0.15,0.98-0.15,1.47s0.05,0.98,0.15,1.46c0.09,0.48,0.24,0.95,0.42,1.41c0.19,0.45,0.42,0.89,0.69,1.29
		c0.28,0.41,0.59,0.8,0.94,1.14c0.34,0.35,0.73,0.66,1.14,0.93c0.4,0.28,0.84,0.51,1.29,0.69c0.45,0.19,0.93,0.34,1.4,0.43
		c0.49,0.1,0.98,0.15,1.47,0.15c0.49,0,0.98-0.05,1.47-0.15c0.47-0.09,0.94-0.24,1.4-0.43c0.45-0.18,0.89-0.41,1.29-0.69
		c0.41-0.27,0.8-0.58,1.14-0.93c0.35-0.34,0.66-0.73,0.94-1.14c0.27-0.4,0.5-0.84,0.69-1.29c0.18-0.46,0.33-0.93,0.42-1.41
		c0.1-0.48,0.15-0.97,0.15-1.46s-0.05-0.98-0.15-1.47c-0.09-0.47-0.24-0.95-0.42-1.4
		C107.048,243.394,106.818,242.954,106.548,242.554z"/>
	<path d="M303.858,323.064c-0.41-0.27-0.84-0.5-1.3-0.69c-0.45-0.19-0.92-0.33-1.4-0.43c-0.97-0.19-1.96-0.19-2.93,0
		c-0.48,0.1-0.95,0.24-1.4,0.43c-0.46,0.19-0.89,0.42-1.3,0.69c-0.41,0.28-0.79,0.59-1.14,0.93c-1.391,1.4-2.2,3.33-2.2,5.31
		c0,0.49,0.05,0.98,0.149,1.46c0.101,0.48,0.24,0.95,0.431,1.41c0.189,0.45,0.42,0.88,0.689,1.29c0.271,0.41,0.59,0.79,0.931,1.14
		c0.35,0.35,0.729,0.66,1.14,0.93s0.84,0.51,1.3,0.69c0.45,0.19,0.92,0.33,1.4,0.43c0.479,0.1,0.979,0.15,1.47,0.15
		c0.479,0,0.979-0.05,1.46-0.15c0.48-0.1,0.95-0.24,1.4-0.43c0.46-0.18,0.89-0.42,1.3-0.69s0.79-0.58,1.14-0.93
		c0.34-0.35,0.66-0.73,0.93-1.14c0.271-0.41,0.5-0.84,0.69-1.29c0.19-0.46,0.33-0.93,0.43-1.41c0.091-0.48,0.141-0.97,0.141-1.46
		c0-1.98-0.8-3.91-2.19-5.31C304.648,323.654,304.268,323.344,303.858,323.064z"/>
	<path d="M139.818,158.824c-1.74-1.74-4.33-2.54-6.77-2.05c-0.48,0.09-0.95,0.24-1.4,0.43c-0.45,0.18-0.89,0.41-1.29,0.68
		c-0.42,0.28-0.8,0.59-1.14,0.94c-1.4,1.39-2.2,3.33-2.2,5.3c0,0.49,0.05,0.98,0.15,1.47c0.09,0.47,0.24,0.95,0.42,1.4
		c0.19,0.45,0.42,0.89,0.69,1.29c0.28,0.41,0.59,0.8,0.94,1.14c0.34,0.35,0.72,0.66,1.14,0.94c0.4,0.27,0.84,0.5,1.29,0.69
		c0.45,0.18,0.92,0.33,1.4,0.42c0.49,0.1,0.98,0.15,1.47,0.15c1.97,0,3.91-0.8,5.3-2.2c0.35-0.34,0.66-0.73,0.93-1.14
		c0.27-0.4,0.51-0.84,0.69-1.29c0.19-0.45,0.34-0.93,0.43-1.4c0.1-0.49,0.15-0.98,0.15-1.47
		C142.018,162.144,141.218,160.214,139.818,158.824z"/>
	<path d="M133.048,321.944c-0.48,0.1-0.95,0.24-1.4,0.43c-0.45,0.19-0.89,0.42-1.29,0.69c-0.42,0.27-0.8,0.59-1.14,0.93
		c-1.4,1.4-2.2,3.33-2.2,5.31c0,0.49,0.05,0.98,0.15,1.46c0.09,0.48,0.24,0.95,0.42,1.41c0.19,0.45,0.42,0.88,0.69,1.29
		c0.28,0.41,0.59,0.79,0.94,1.14c0.34,0.35,0.72,0.66,1.14,0.93c0.4,0.27,0.84,0.5,1.29,0.69c0.45,0.19,0.92,0.33,1.4,0.43
		c0.49,0.1,0.98,0.15,1.47,0.15c1.97,0,3.91-0.8,5.3-2.2c0.35-0.35,0.66-0.73,0.93-1.14c0.27-0.41,0.51-0.84,0.69-1.29
		c0.19-0.46,0.34-0.93,0.43-1.41c0.1-0.48,0.15-0.97,0.15-1.46c0-1.98-0.8-3.91-2.2-5.31
		C138.078,322.254,135.488,321.454,133.048,321.944z"/>
	<path d="M304.998,158.824c-0.35-0.35-0.729-0.66-1.14-0.93s-0.84-0.51-1.3-0.69c-0.45-0.19-0.92-0.34-1.4-0.43
		c-0.97-0.2-1.96-0.2-2.93,0c-0.48,0.09-0.95,0.24-1.4,0.43c-0.46,0.18-0.89,0.42-1.3,0.69s-0.79,0.58-1.14,0.93
		c-1.391,1.39-2.2,3.32-2.2,5.3c0,0.49,0.05,0.98,0.149,1.47c0.101,0.47,0.24,0.95,0.431,1.4c0.189,0.45,0.42,0.89,0.689,1.29
		c0.271,0.41,0.59,0.8,0.931,1.14c0.35,0.35,0.729,0.66,1.14,0.94c0.41,0.27,0.84,0.5,1.3,0.69c0.45,0.18,0.92,0.33,1.4,0.42
		c0.479,0.1,0.979,0.15,1.47,0.15c0.479,0,0.979-0.05,1.46-0.15c0.48-0.09,0.95-0.24,1.4-0.42c0.46-0.19,0.89-0.42,1.3-0.69
		c0.41-0.28,0.79-0.59,1.14-0.94c0.34-0.34,0.66-0.73,0.93-1.14c0.271-0.4,0.5-0.84,0.69-1.29s0.33-0.93,0.43-1.4
		c0.091-0.49,0.141-0.98,0.141-1.47C307.188,162.144,306.389,160.214,304.998,158.824z"/>
</g>
<g>
</g>
<g>
</g>
<g>
</g>
<g>
</g>
<g>
</g>
<g>
</g>
<g>
</g>
<g>
</g>
<g>
</g>
<g>
</g>
<g>
</g>
<g>
</g>
<g>
</g>
<g>
</g>
<g>
</g>
</svg>
