<?xml version="1.0" encoding="iso-8859-1"?>
<!-- Generator: Adobe Illustrator 18.0.0, SVG Export Plug-In . SVG Version: 6.00 Build 0)  -->
<!DOCTYPE svg PUBLIC "-//W3C//DTD SVG 1.1//EN" "http://www.w3.org/Graphics/SVG/1.1/DTD/svg11.dtd">
<svg version="1.1" id="Capa_1" xmlns="http://www.w3.org/2000/svg" xmlns:xlink="http://www.w3.org/1999/xlink" x="0px" y="0px"
	 viewBox="0 0 354.905 354.905" style="enable-background:new 0 0 354.905 354.905;" xml:space="preserve">
<g>
	<path d="M347.405,16.635H81.116c-4.142,0-7.5,3.358-7.5,7.5v32.278c0,4.142,3.358,7.5,7.5,7.5h7.024v22.114H47.225
		C21.185,86.026,0,107.216,0,133.262v88.391c0,26.04,21.185,47.225,47.225,47.225h40.916v21.372
		c0,26.479,21.542,48.021,48.021,48.021h156.196c26.479,0,48.021-21.542,48.021-48.021V63.912h7.025c4.142,0,7.5-3.358,7.5-7.5
		V24.135C354.905,19.992,351.547,16.635,347.405,16.635z M88.616,31.635h251.289v17.278H88.616V31.635z M47.225,253.877
		C29.456,253.877,15,239.421,15,221.653v-88.391c0-17.775,14.456-32.236,32.225-32.236h40.916v11.899H47.225
		c-11.208,0-20.326,9.123-20.326,20.336v88.391c0,11.208,9.118,20.326,20.326,20.326h40.916v11.899H47.225z M88.141,127.926v99.053
		H47.225c-2.937,0-5.326-2.389-5.326-5.326v-88.391c0-2.942,2.389-5.336,5.326-5.336H88.141z M325.38,290.249
		c0,18.208-14.813,33.021-33.021,33.021H136.162c-18.208,0-33.021-14.813-33.021-33.021V63.912H325.38V290.249z"/>
	<path d="M303.907,267.774c4.142,0,7.5-3.358,7.5-7.5V126.78c0-4.142-3.358-7.5-7.5-7.5s-7.5,3.358-7.5,7.5v133.494
		C296.407,264.416,299.765,267.774,303.907,267.774z"/>
	<path d="M303.907,108.781c4.142,0,7.5-3.358,7.5-7.5V78.783c0-4.142-3.358-7.5-7.5-7.5s-7.5,3.358-7.5,7.5v22.499
		C296.407,105.424,299.765,108.781,303.907,108.781z"/>
</g>
<g>
</g>
<g>
</g>
<g>
</g>
<g>
</g>
<g>
</g>
<g>
</g>
<g>
</g>
<g>
</g>
<g>
</g>
<g>
</g>
<g>
</g>
<g>
</g>
<g>
</g>
<g>
</g>
<g>
</g>
</svg>
