<?xml version="1.0" encoding="iso-8859-1"?>
<!-- Generator: Adobe Illustrator 18.0.0, SVG Export Plug-In . SVG Version: 6.00 Build 0)  -->
<!DOCTYPE svg PUBLIC "-//W3C//DTD SVG 1.1//EN" "http://www.w3.org/Graphics/SVG/1.1/DTD/svg11.dtd">
<svg version="1.1" id="Capa_1" xmlns="http://www.w3.org/2000/svg" xmlns:xlink="http://www.w3.org/1999/xlink" x="0px" y="0px"
	 viewBox="0 0 423.614 423.614" style="enable-background:new 0 0 423.614 423.614;" xml:space="preserve">
<g>
	<path d="M182.075,222.34c-6.365-5.966-13.791-10.737-22.087-14.287l8.421-157.856c0.711-13.187-3.899-25.729-12.984-35.316
		c-9.09-9.594-21.376-14.878-34.595-14.878c-13.212,0-25.494,5.28-34.582,14.868c-9.088,9.587-13.704,22.132-12.998,35.322
		l8.431,157.857c-8.299,3.55-15.728,8.322-22.094,14.29c-16.757,15.708-25.614,39.328-25.614,68.303
		c0,29.55,9.082,62.488,24.294,88.108c17.178,28.93,39.396,44.863,62.563,44.863c48.916,0,86.857-71.479,86.857-132.971
		C207.689,261.667,198.832,238.048,182.075,222.34z M88.23,49.392c-0.484-9.039,2.679-17.634,8.905-24.202
		c6.227-6.569,14.642-10.187,23.695-10.187c9.059,0,17.478,3.621,23.707,10.195c6.223,6.568,9.382,15.159,8.894,24.196
		l-8.208,153.868c-7.629-1.77-15.782-2.693-24.391-2.693c-8.607,0-16.758,0.923-24.385,2.692L88.23,49.392z M170.497,371.093
		c-14.158,23.845-32.261,37.521-49.666,37.521s-35.507-13.676-49.666-37.521c-13.896-23.403-22.192-53.479-22.192-80.45
		c0-25.078,7.022-44.376,20.873-57.36c12.363-11.589,29.994-17.715,50.985-17.715s38.622,6.126,50.985,17.715
		c13.85,12.984,20.873,32.282,20.873,57.36C192.689,317.615,184.393,347.69,170.497,371.093z"/>
	<path d="M351.426,211.178l8.595-160.984c0.702-13.193-3.918-25.74-13.011-35.329C337.921,5.279,325.641,0,312.434,0
		s-25.486,5.279-34.576,14.865c-9.092,9.588-13.713,22.135-13.011,35.33l8.595,160.983c-22.84,13.425-38.214,38.241-38.214,66.596
		v102.954c0,15.037,5.635,29.387,15.857,40.395l0.079,0.085c1.419,1.534,3.415,2.406,5.505,2.406s4.085-0.872,5.505-2.406
		l0.069-0.075c10.232-11.019,15.867-25.368,15.867-40.405v-67.717c0-3.467,2.821-6.289,6.288-6.289c3.468,0,6.289,2.821,6.289,6.289
		v67.392c0,15.277,5.791,29.792,16.307,40.874c1.416,1.492,3.383,2.337,5.44,2.337s4.024-0.845,5.44-2.337
		c10.516-11.082,16.307-25.597,16.307-40.874v-67.392c0-3.467,2.821-6.289,6.288-6.289s6.289,2.821,6.289,6.289v67.717
		c0,15.037,5.635,29.386,15.857,40.395l0.079,0.085c1.417,1.531,3.407,2.403,5.493,2.406c0.004,0,0.008,0,0.012,0
		c2.082,0,4.07-0.865,5.489-2.389l0.086-0.092c10.231-11.019,15.866-25.368,15.866-40.405V277.774
		C389.64,249.419,374.266,224.603,351.426,211.178z M279.826,49.397c-0.481-9.041,2.686-17.64,8.917-24.211
		C294.972,18.618,303.385,15,312.434,15s17.462,3.618,23.691,10.186c6.231,6.571,9.397,15.17,8.917,24.209l-8.282,155.121
		c-7.654-2.548-15.827-3.949-24.326-3.949c-8.499,0-16.672,1.401-24.326,3.949L279.826,49.397z M374.64,380.728
		c0,8.212-2.249,16.15-6.441,23.04c-4.194-6.892-6.441-14.829-6.441-23.04v-67.717c0-11.739-9.55-21.289-21.289-21.289
		c-11.738,0-21.288,9.55-21.288,21.289v67.392c0,8.423-2.356,16.537-6.747,23.539c-4.391-7.002-6.747-15.116-6.747-23.539v-67.392
		c0-11.739-9.55-21.289-21.289-21.289c-11.738,0-21.288,9.55-21.288,21.289v67.717c0,8.208-2.247,16.144-6.442,23.038
		c-4.192-6.891-6.44-14.828-6.44-23.038V277.774c0-34.3,27.905-62.206,62.206-62.206s62.206,27.906,62.206,62.206V380.728z"/>
	<path d="M143.345,49.324c0-12.414-10.1-22.514-22.514-22.514s-22.514,10.1-22.514,22.514s10.1,22.514,22.514,22.514
		S143.345,61.738,143.345,49.324z M113.318,49.324c0-4.143,3.371-7.514,7.514-7.514s7.514,3.371,7.514,7.514
		s-3.371,7.514-7.514,7.514S113.318,53.467,113.318,49.324z"/>
	<path d="M334.948,49.324c0-12.414-10.1-22.514-22.514-22.514s-22.514,10.1-22.514,22.514s10.1,22.514,22.514,22.514
		S334.948,61.738,334.948,49.324z M304.921,49.324c0-4.143,3.371-7.514,7.514-7.514s7.514,3.371,7.514,7.514
		s-3.371,7.514-7.514,7.514S304.921,53.467,304.921,49.324z"/>
</g>
<g>
</g>
<g>
</g>
<g>
</g>
<g>
</g>
<g>
</g>
<g>
</g>
<g>
</g>
<g>
</g>
<g>
</g>
<g>
</g>
<g>
</g>
<g>
</g>
<g>
</g>
<g>
</g>
<g>
</g>
</svg>
