<?xml version="1.0" encoding="iso-8859-1"?>
<!-- Generator: Adobe Illustrator 18.0.0, SVG Export Plug-In . SVG Version: 6.00 Build 0)  -->
<!DOCTYPE svg PUBLIC "-//W3C//DTD SVG 1.1//EN" "http://www.w3.org/Graphics/SVG/1.1/DTD/svg11.dtd">
<svg version="1.1" id="Capa_1" xmlns="http://www.w3.org/2000/svg" xmlns:xlink="http://www.w3.org/1999/xlink" x="0px" y="0px"
	 viewBox="0 0 385.482 385.482" style="enable-background:new 0 0 385.482 385.482;" xml:space="preserve">
<g>
	<path d="M354.695,70.497h-74.958V52.459c0-16.52-13.44-29.96-29.96-29.96h-114.07c-16.52,0-29.96,13.44-29.96,29.96v18.039h-74.96
		C13.811,70.497,0,84.308,0,101.284v230.912c0,16.976,13.811,30.787,30.787,30.787h323.908c16.976,0,30.787-13.811,30.787-30.787
		V101.284C385.482,84.308,371.671,70.497,354.695,70.497z M120.748,52.459c0-8.249,6.711-14.96,14.96-14.96h114.07
		c8.249,0,14.96,6.711,14.96,14.96v18.039h-143.99V52.459z M370.482,332.197c0,8.705-7.082,15.787-15.787,15.787H30.787
		c-8.705,0-15.787-7.082-15.787-15.787V101.284c0-8.705,7.082-15.787,15.787-15.787h323.908c8.705,0,15.787,7.082,15.787,15.787
		V332.197z"/>
	<path d="M231.739,177.742v-30.748c0-4.142-3.358-7.5-7.5-7.5h-62.997c-4.142,0-7.5,3.358-7.5,7.5v30.748h-30.748
		c-4.142,0-7.5,3.358-7.5,7.5v62.997c0,4.142,3.358,7.5,7.5,7.5h30.748v30.748c0,4.142,3.358,7.5,7.5,7.5h62.997
		c4.142,0,7.5-3.358,7.5-7.5v-30.748h30.748c4.142,0,7.5-3.358,7.5-7.5v-62.997c0-4.142-3.358-7.5-7.5-7.5H231.739z
		 M254.987,240.739h-30.748c-4.142,0-7.5,3.358-7.5,7.5v30.748h-47.997v-30.748c0-4.142-3.358-7.5-7.5-7.5h-30.748v-47.997h30.748
		c4.142,0,7.5-3.358,7.5-7.5v-30.748h47.997v30.748c0,4.142,3.358,7.5,7.5,7.5h30.748V240.739z"/>
	<path d="M192.741,98.996c-64.925,0-117.745,52.82-117.745,117.745s52.82,117.745,117.745,117.745
		c64.924,0,117.744-52.82,117.744-117.745S257.666,98.996,192.741,98.996z M192.741,319.485
		c-56.654,0-102.745-46.091-102.745-102.745s46.091-102.745,102.745-102.745c56.653,0,102.744,46.091,102.744,102.745
		S249.395,319.485,192.741,319.485z"/>
</g>
<g>
</g>
<g>
</g>
<g>
</g>
<g>
</g>
<g>
</g>
<g>
</g>
<g>
</g>
<g>
</g>
<g>
</g>
<g>
</g>
<g>
</g>
<g>
</g>
<g>
</g>
<g>
</g>
<g>
</g>
</svg>
