<?xml version="1.0" encoding="iso-8859-1"?>
<!-- Generator: Adobe Illustrator 18.0.0, SVG Export Plug-In . SVG Version: 6.00 Build 0)  -->
<!DOCTYPE svg PUBLIC "-//W3C//DTD SVG 1.1//EN" "http://www.w3.org/Graphics/SVG/1.1/DTD/svg11.dtd">
<svg version="1.1" id="Capa_1" xmlns="http://www.w3.org/2000/svg" xmlns:xlink="http://www.w3.org/1999/xlink" x="0px" y="0px"
	 viewBox="0 0 398.416 398.416" style="enable-background:new 0 0 398.416 398.416;" xml:space="preserve">
<g>
	<path d="M396.22,125.791l-15.238-15.238c0.076-26.208-9.159-49.867-26.203-66.912c-17.049-17.049-40.708-26.288-66.918-26.209
		L272.625,2.197c-2.931-2.93-7.679-2.928-10.607,0L178.19,86.025c-1.19,1.19-2.141,4.393-2.141,4.393l-4.482,36.643l-150.9,150.9
		C7.34,291.287,0,309.007,0,327.855s7.34,36.567,20.667,49.894c13.327,13.327,31.047,20.667,49.894,20.667
		c18.848,0,36.567-7.34,49.895-20.667l150.9-150.9l36.643-4.489c1.605-0.195,3.161-0.902,4.393-2.135l83.828-83.828
		c1.406-1.406,2.196-3.314,2.196-5.303C398.416,129.105,397.626,127.197,396.22,125.791z M186.586,127.818l2.484-20.307
		l101.835,101.835l-20.307,2.484L186.586,127.818z M255.898,153.125l73.221-73.221l12.055,12.055l-73.221,73.221L255.898,153.125z
		 M245.291,142.518l-12.055-12.055l73.221-73.222l12.056,12.056L245.291,142.518z M295.849,46.635l-73.221,73.222l-12.055-12.055
		l73.221-73.222L295.849,46.635z M278.56,175.788l73.221-73.221l12.055,12.055l-73.221,73.221L278.56,175.788z M344.171,54.247
		c10.581,10.58,17.525,24.343,20.358,39.852l-60.216-60.215C319.823,36.718,333.589,43.665,344.171,54.247z M267.321,18.107
		l5.866,5.866l-73.221,73.222l-5.866-5.866L267.321,18.107z M109.849,367.142c-10.494,10.494-24.447,16.273-39.288,16.273
		c-14.841,0-28.793-5.779-39.288-16.273c-21.663-21.663-21.663-56.912,0-78.576l147.424-147.424l78.575,78.576L109.849,367.142z
		 M307.088,204.315l-5.866-5.866l73.221-73.221l5.866,5.866L307.088,204.315z"/>
	<path d="M199.499,190.224c0-6.611-2.575-12.826-7.25-17.5c-4.674-4.675-10.89-7.249-17.5-7.249c-6.611,0-12.826,2.574-17.5,7.249
		l-33.939,33.939c-4.675,4.675-7.249,10.89-7.249,17.5c0,6.611,2.574,12.826,7.249,17.5c4.825,4.825,11.163,7.237,17.5,7.237
		c6.337,0,12.675-2.412,17.5-7.237l33.939-33.939v0C196.924,203.05,199.499,196.835,199.499,190.224z M181.643,197.118
		L181.643,197.118l-33.939,33.94c-3.802,3.801-9.987,3.801-13.788,0c-1.841-1.841-2.855-4.289-2.855-6.893
		c0-2.604,1.014-5.052,2.855-6.894l33.939-33.939c1.901-1.901,4.397-2.851,6.894-2.851s4.993,0.95,6.894,2.851
		c1.841,1.841,2.855,4.289,2.855,6.893C184.499,192.828,183.484,195.276,181.643,197.118z"/>
</g>
<g>
</g>
<g>
</g>
<g>
</g>
<g>
</g>
<g>
</g>
<g>
</g>
<g>
</g>
<g>
</g>
<g>
</g>
<g>
</g>
<g>
</g>
<g>
</g>
<g>
</g>
<g>
</g>
<g>
</g>
</svg>
