<?xml version="1.0" encoding="iso-8859-1"?>
<!-- Generator: Adobe Illustrator 18.0.0, SVG Export Plug-In . SVG Version: 6.00 Build 0)  -->
<!DOCTYPE svg PUBLIC "-//W3C//DTD SVG 1.1//EN" "http://www.w3.org/Graphics/SVG/1.1/DTD/svg11.dtd">
<svg version="1.1" id="Capa_1" xmlns="http://www.w3.org/2000/svg" xmlns:xlink="http://www.w3.org/1999/xlink" x="0px" y="0px"
	 viewBox="0 0 421 421" style="enable-background:new 0 0 421 421;" xml:space="preserve">
<g>
	<path d="M249.131,84h-0.032V73h9.401c4.143,0,7.5-3.358,7.5-7.5v-58c0-4.142-3.357-7.5-7.5-7.5h-96c-4.143,0-7.5,3.358-7.5,7.5v58
		c0,4.142,3.357,7.5,7.5,7.5h9.401v11h-0.033C119.006,84,76,127.007,76,179.869v145.263C76,377.993,119.006,421,171.868,421h77.263
		C301.993,421,345,377.993,345,325.131V179.869C345,127.007,301.993,84,249.131,84z M251,15v7h-81v-7H251z M170,37h81v21h-81V37z
		 M186.901,73h47.197v11h-47.197V73z M330,325.131C330,369.722,293.723,406,249.131,406h-77.263C127.277,406,91,369.722,91,325.131
		V179.869C91,135.278,127.277,99,171.868,99h77.263C293.723,99,330,135.278,330,179.869V325.131z"/>
	<path d="M307.499,296c-4.143,0-7.5,3.358-7.5,7.5v21.632c0,4.142,3.357,7.5,7.5,7.5s7.5-3.358,7.5-7.5V303.5
		C314.999,299.358,311.642,296,307.499,296z"/>
	<path d="M249.131,114c-4.143,0-7.5,3.358-7.5,7.5s3.357,7.5,7.5,7.5c28.049,0,50.868,22.82,50.868,50.869V267.5
		c0,4.142,3.357,7.5,7.5,7.5s7.5-3.358,7.5-7.5v-87.631C314.999,143.549,285.45,114,249.131,114z"/>
</g>
<g>
</g>
<g>
</g>
<g>
</g>
<g>
</g>
<g>
</g>
<g>
</g>
<g>
</g>
<g>
</g>
<g>
</g>
<g>
</g>
<g>
</g>
<g>
</g>
<g>
</g>
<g>
</g>
<g>
</g>
</svg>
