<?xml version="1.0" encoding="iso-8859-1"?>
<!-- Generator: Adobe Illustrator 18.0.0, SVG Export Plug-In . SVG Version: 6.00 Build 0)  -->
<!DOCTYPE svg PUBLIC "-//W3C//DTD SVG 1.1//EN" "http://www.w3.org/Graphics/SVG/1.1/DTD/svg11.dtd">
<svg version="1.1" id="Capa_1" xmlns="http://www.w3.org/2000/svg" xmlns:xlink="http://www.w3.org/1999/xlink" x="0px" y="0px"
	 viewBox="0 0 449.04 449.04" style="enable-background:new 0 0 449.04 449.04;" xml:space="preserve">
<path d="M428.35,357.585l-32.638-56.528h6.296c2.68,0,5.156-1.43,6.495-3.75c1.34-2.321,1.34-5.18,0-7.5l-28.722-49.742h10.212
	c2.679,0,5.155-1.43,6.495-3.75s1.34-5.179,0-7.5l-56.917-98.592c-1.339-2.321-3.815-3.75-6.495-3.75c0,0,0,0,0,0
	c-2.679,0-5.155,1.429-6.495,3.75l-27.911,48.332l-14.101-24.42h19.756c2.68,0,5.155-1.43,6.495-3.75s1.34-5.18,0-7.5L230.492,3.75
	c-1.34-2.32-3.815-3.75-6.495-3.75s-5.155,1.43-6.495,3.75l-80.329,139.134c-1.34,2.32-1.34,5.18,0,7.5s3.815,3.75,6.495,3.75
	h19.757l-13.578,23.515l-27.388-47.427c-1.34-2.32-3.816-3.75-6.495-3.75c-2.68,0-5.155,1.43-6.495,3.75l-56.917,98.592
	c-1.34,2.32-1.34,5.179,0,7.5s3.816,3.75,6.495,3.75h10.212l-28.722,49.742c-1.34,2.321-1.34,5.18,0,7.5
	c1.339,2.32,3.815,3.75,6.495,3.75h6.296L20.69,357.585c-1.34,2.32-1.34,5.179,0,7.5c1.339,2.32,3.815,3.75,6.495,3.75h60.602
	l-2.57,72.438c-0.072,2.034,0.685,4.01,2.099,5.475s3.361,2.292,5.396,2.292h46.506c2.035,0,3.983-0.827,5.396-2.292
	s2.171-3.44,2.099-5.475l-2.57-72.438h44.207l-4.652,72.223c-0.133,2.068,0.595,4.1,2.013,5.612c1.418,1.512,3.398,2.37,5.471,2.37
	h65.629c2.073,0,4.053-0.858,5.471-2.37c1.418-1.512,2.146-3.543,2.013-5.612l-4.652-72.223h45.253l-2.57,72.438
	c-0.072,2.034,0.685,4.01,2.099,5.475s3.361,2.292,5.396,2.292h46.506c2.035,0,3.983-0.827,5.396-2.292s2.171-3.44,2.099-5.475
	l-2.57-72.438h60.602c2.68,0,5.156-1.43,6.495-3.75C429.69,362.765,429.69,359.906,428.35,357.585z M389.017,286.058h-6.293h-0.002
	h-49.195l-26.475-45.993h55.409L389.017,286.058z M111.7,320.852l46.563-80.649h131.468l46.563,80.649H111.7z M333.075,148.972
	l43.928,76.093h-51.477l-18.196-31.513L333.075,148.972z M223.997,22.5l67.339,116.634H156.658L223.997,22.5z M267.249,154.134
	l40.957,70.931l-168.496,0.138l41.036-71.068H267.249z M115.965,148.972l25.222,43.675l-18.719,32.418H72.036L115.965,148.972z
	 M86.579,240.065h54.364l-26.475,45.993h-48.15h-6.295L86.579,240.065z M131.447,434.04h-30.964l2.313-65.205h26.338L131.447,434.04
	z M40.176,353.835l30.473-52.778h35.159l-13.593,23.544c-1.34,2.32-1.34,5.18,0,7.5s3.815,3.75,6.495,3.75h91.766l-1.158,17.984
	H40.176z M199.181,434.04l6.325-98.188h36.982l6.325,98.188H199.181z M348.557,434.04h-30.964l2.313-65.205h26.338L348.557,434.04z
	 M258.678,353.835l-1.158-17.984h91.766c2.68,0,5.155-1.43,6.495-3.75s1.34-5.18,0-7.5l-13.593-23.544h36.205l30.473,52.778H258.678
	z"/>
<g>
</g>
<g>
</g>
<g>
</g>
<g>
</g>
<g>
</g>
<g>
</g>
<g>
</g>
<g>
</g>
<g>
</g>
<g>
</g>
<g>
</g>
<g>
</g>
<g>
</g>
<g>
</g>
<g>
</g>
</svg>
