<?xml version="1.0" encoding="iso-8859-1"?>
<!-- Generator: Adobe Illustrator 18.0.0, SVG Export Plug-In . SVG Version: 6.00 Build 0)  -->
<!DOCTYPE svg PUBLIC "-//W3C//DTD SVG 1.1//EN" "http://www.w3.org/Graphics/SVG/1.1/DTD/svg11.dtd">
<svg version="1.1" id="Capa_1" xmlns="http://www.w3.org/2000/svg" xmlns:xlink="http://www.w3.org/1999/xlink" x="0px" y="0px"
	 viewBox="0 0 402.054 402.054" style="enable-background:new 0 0 402.054 402.054;" xml:space="preserve">
<g>
	<path d="M225.073,324.992c0,13.259-10.787,24.046-24.046,24.046s-24.046-10.787-24.046-24.046s10.787-24.046,24.046-24.046
		c6.423,0,12.461,2.501,17.002,7.042c2.93,2.928,7.679,2.929,10.606,0c2.93-2.929,2.93-7.678,0.001-10.607
		c-7.374-7.375-17.18-11.436-27.609-11.436c-21.53,0-39.046,17.516-39.046,39.046s17.516,39.046,39.046,39.046
		s39.046-17.516,39.046-39.046c0-4.142-3.357-7.5-7.5-7.5S225.073,320.85,225.073,324.992z"/>
	<path d="M402.054,143.584c0-34.592-13.47-67.107-37.926-91.552c-24.446-24.458-56.961-37.928-91.555-37.928h-143.09
		c-71.396,0-129.479,58.084-129.479,129.48c0,0,0,0,0,0H0v51.958h0.004v0.001c0,34.593,13.47,67.108,37.925,91.552
		c24.447,24.458,56.962,37.928,91.555,37.928h8.587c0.017,34.7,28.253,62.926,62.957,62.926s62.939-28.226,62.956-62.926h8.59
		c71.396,0,129.48-58.084,129.48-129.48v-0.001l0,0V143.584L402.054,143.584C402.054,143.584,402.054,143.584,402.054,143.584z
		 M248.984,284.269c-11.557-13.59-28.762-22.235-47.957-22.235s-36.401,8.645-47.958,22.235v-1.408
		c0-26.444,21.514-47.958,47.958-47.958c26.443,0,47.957,21.514,47.957,47.958V284.269z M201.027,219.904
		c-25.914,0-48.214,15.741-57.86,38.16h-13.684c-30.585,0-59.332-11.909-80.948-33.535c-15.196-15.187-25.724-34.159-30.544-54.951
		c5.688-24.516,19.542-46.765,39.177-62.786c20.335-16.591,46.017-25.728,72.315-25.728h143.09
		c30.586,0,59.332,11.909,80.948,33.535c15.196,15.187,25.724,34.159,30.544,54.952c-5.688,24.516-19.542,46.765-39.177,62.785
		c-20.335,16.591-46.017,25.728-72.315,25.728h-13.687C249.241,235.645,226.941,219.904,201.027,219.904z M129.483,29.104h143.09
		c30.586,0,59.332,11.909,80.948,33.535c19.422,19.414,31,44.583,33.158,71.669c-5.951-11.073-13.519-21.289-22.551-30.316
		c-24.446-24.458-56.961-37.928-91.555-37.928h-143.09c-29.744,0-58.794,10.336-81.798,29.105
		c-13.308,10.858-24.272,24.25-32.311,39.207C20.08,75.541,69.459,29.104,129.483,29.104z M48.535,276.489
		c-19.421-19.412-30.999-44.581-33.157-71.667c5.951,11.072,13.519,21.288,22.55,30.313c24.447,24.458,56.962,37.928,91.555,37.928
		h9.353c-0.501,3.194-0.767,6.465-0.767,9.797v27.163h-8.586C98.898,310.024,70.151,298.115,48.535,276.489z M201.027,372.95
		c-26.444,0-47.958-21.514-47.958-47.958c0-26.444,21.514-47.958,47.958-47.958c26.443,0,47.957,21.514,47.957,47.958
		C248.984,351.436,227.471,372.95,201.027,372.95z M272.573,310.024h-8.589v-27.163c0-3.333-0.265-6.604-0.767-9.797h9.355
		c29.744,0,58.794-10.336,81.798-29.105c13.308-10.858,24.273-24.25,32.312-39.209C381.979,263.586,332.599,310.024,272.573,310.024
		z"/>
</g>
<g>
</g>
<g>
</g>
<g>
</g>
<g>
</g>
<g>
</g>
<g>
</g>
<g>
</g>
<g>
</g>
<g>
</g>
<g>
</g>
<g>
</g>
<g>
</g>
<g>
</g>
<g>
</g>
<g>
</g>
</svg>
