<?xml version="1.0" encoding="iso-8859-1"?>
<!-- Generator: Adobe Illustrator 18.0.0, SVG Export Plug-In . SVG Version: 6.00 Build 0)  -->
<!DOCTYPE svg PUBLIC "-//W3C//DTD SVG 1.1//EN" "http://www.w3.org/Graphics/SVG/1.1/DTD/svg11.dtd">
<svg version="1.1" id="Capa_1" xmlns="http://www.w3.org/2000/svg" xmlns:xlink="http://www.w3.org/1999/xlink" x="0px" y="0px"
	 viewBox="0 0 469.388 469.388" style="enable-background:new 0 0 469.388 469.388;" xml:space="preserve">
<g>
	<path d="M252.021,95.106h-34.652c-33.988,0-61.64,27.651-61.64,61.64v186.557c0,17.083,13.897,30.981,30.98,30.981h95.97
		c17.083,0,30.981-13.898,30.981-30.981V156.745C313.66,122.757,286.009,95.106,252.021,95.106z M217.368,110.106h34.652
		c25.376,0,46.069,20.375,46.614,45.623h-127.88C171.299,130.48,191.993,110.106,217.368,110.106z M298.66,298.66H170.729v-25.415
		H298.66V298.66z M170.729,258.245v-47.102H298.66v47.102H170.729z M170.729,170.728H298.66v25.415H170.729V170.728z
		 M282.679,359.283h-95.97c-8.812,0-15.98-7.169-15.98-15.981V313.66H298.66v29.642C298.66,352.114,291.491,359.283,282.679,359.283
		z"/>
	<path d="M468.96,392.609l-19.413-55.089c-1.729-4.906-5.469-8.881-10.26-10.906c-4.793-2.025-10.249-1.937-14.97,0.242l-3.449,1.59
		l-44.122-95.665v-79.212c0-67.023-54.527-121.55-121.55-121.55h-41.006c-67.022,0-121.55,54.527-121.55,121.55v79.211
		L48.52,328.446l-3.449-1.591h0.001c-4.723-2.178-10.181-2.268-14.972-0.241c-4.791,2.025-8.53,6-10.258,10.906L0.428,392.609
		c-1.287,3.651,0.417,7.682,3.933,9.303l28.869,13.314c1.014,0.468,2.082,0.691,3.137,0.69c2.6,0,5.11-1.356,6.492-3.739
		l29.299-50.531c2.608-4.5,3.204-9.924,1.634-14.883c-1.57-4.958-5.179-9.051-9.902-11.229l-1.748-0.806l30.501-66.133v77.883
		c0,50.118,40.773,90.891,90.891,90.891h102.324c50.117,0,90.891-40.773,90.891-90.891v-77.882l30.5,66.131l-1.749,0.807
		c-4.724,2.178-8.333,6.271-9.902,11.23c-1.57,4.959-0.975,10.384,1.635,14.883l29.298,50.53c1.382,2.383,3.893,3.739,6.492,3.739
		c1.055,0,2.123-0.223,3.137-0.69l28.869-13.314C468.543,400.291,470.247,396.26,468.96,392.609z M59.181,354.124l-25.872,44.621
		l-16.464-7.593l17.145-48.646c0.45-1.278,1.416-1.849,1.951-2.075c0.536-0.227,1.62-0.521,2.848,0.046c0,0,0,0,0.001,0
		l18.818,8.679c1.229,0.567,1.708,1.583,1.884,2.137C59.667,351.847,59.861,352.952,59.181,354.124z M361.747,346.479
		c0,41.847-34.044,75.891-75.891,75.891H183.532c-41.847,0-75.891-34.044-75.891-75.891V236.072l29.692-64.379l4.417,2.41
		c1.141,0.623,2.371,0.917,3.585,0.917c2.656,0,5.229-1.414,6.591-3.91c1.983-3.636,0.644-8.192-2.992-10.175l-5.305-2.894
		l6.134-13.299c1.734-3.761,0.092-8.217-3.67-9.952c-3.76-1.735-8.217-0.092-9.951,3.669l-5.711,12.383l-3.497-1.908
		c-3.638-1.985-8.192-0.644-10.176,2.993c-1.983,3.636-0.644,8.192,2.992,10.175l4.384,2.392l-16.494,35.762v-46.688
		c0-58.752,47.798-106.55,106.55-106.55h41.006c58.752,0,106.55,47.798,106.55,106.55v46.689l-16.495-35.764l4.384-2.392
		c3.636-1.983,4.976-6.539,2.992-10.175c-1.982-3.635-6.536-4.977-10.176-2.993l-3.497,1.908l-5.711-12.383
		c-1.734-3.761-6.191-5.404-9.951-3.669c-3.762,1.735-5.404,6.19-3.67,9.952l6.134,13.299l-5.305,2.894
		c-3.636,1.983-4.976,6.539-2.992,10.175c1.361,2.496,3.935,3.91,6.591,3.91c1.213,0,2.444-0.295,3.585-0.917l4.417-2.41
		l29.693,64.38V346.479z M436.079,398.744l-25.871-44.621c-0.68-1.172-0.487-2.277-0.312-2.832c0.176-0.555,0.654-1.569,1.884-2.137
		l18.818-8.679c0.001,0,0.001,0,0.001,0c0.525-0.243,1.024-0.328,1.466-0.328c0.59,0,1.075,0.152,1.382,0.282
		c0.536,0.227,1.502,0.797,1.953,2.075l17.143,48.646L436.079,398.744z"/>
</g>
<g>
</g>
<g>
</g>
<g>
</g>
<g>
</g>
<g>
</g>
<g>
</g>
<g>
</g>
<g>
</g>
<g>
</g>
<g>
</g>
<g>
</g>
<g>
</g>
<g>
</g>
<g>
</g>
<g>
</g>
</svg>
