<?xml version="1.0" encoding="iso-8859-1"?>
<!-- Generator: Adobe Illustrator 18.0.0, SVG Export Plug-In . SVG Version: 6.00 Build 0)  -->
<!DOCTYPE svg PUBLIC "-//W3C//DTD SVG 1.1//EN" "http://www.w3.org/Graphics/SVG/1.1/DTD/svg11.dtd">
<svg version="1.1" id="Capa_1" xmlns="http://www.w3.org/2000/svg" xmlns:xlink="http://www.w3.org/1999/xlink" x="0px" y="0px"
	 viewBox="0 0 415.66 415.66" style="enable-background:new 0 0 415.66 415.66;" xml:space="preserve">
<g>
	<path d="M265.382,237.638c-0.42-4.121-4.097-7.129-8.222-6.702c-4.12,0.419-7.121,4.1-6.702,8.221l14.43,141.764
		c0.394,3.863,3.652,6.741,7.453,6.741c0.254,0,0.51-0.013,0.769-0.039c4.12-0.419,7.121-4.1,6.702-8.221L265.382,237.638z"/>
	<path d="M255.818,217.743c4.121-0.419,7.121-4.1,6.702-8.221l-1.965-19.289c-0.419-4.121-4.104-7.126-8.221-6.702
		c-4.121,0.419-7.121,4.1-6.702,8.221l1.965,19.289c0.393,3.863,3.651,6.741,7.452,6.741
		C255.304,217.782,255.561,217.77,255.818,217.743z"/>
	<path d="M414.373,211.575l-5.5-41.49c-0.494-3.729-3.674-6.515-7.435-6.515h-27.56c-31.087,0-60.728,11.062-84.698,31.374
		l-3.292-32.336v-31.355C285.89,58.879,227.01,0,154.637,0C82.265,0,23.385,58.879,23.385,131.252v31.355L1.394,378.651
		c-0.96,9.439,2.137,18.891,8.497,25.931c6.36,7.041,15.449,11.078,24.938,11.078h239.618c9.488,0,18.577-4.038,24.938-11.078
		c6.36-7.04,9.457-16.492,8.497-25.931l-5.966-58.608c16.695-7.865,29.869-21.288,37.419-38.333l11.011-24.822
		c9.918-22.373,32.132-36.829,56.594-36.829c2.161,0,4.217-0.932,5.641-2.558C414.004,215.877,414.657,213.717,414.373,211.575z
		 M154.638,15c64.102,0,116.252,52.15,116.252,116.252v24.241h-2.346c-23.849-29.134-57.193-47.664-93.927-52.615v-8.694h4.808
		c4.143,0,7.5-3.358,7.5-7.5V60.961c0-4.142-3.357-7.5-7.5-7.5H129.85c-4.143,0-7.5,3.358-7.5,7.5v25.724c0,4.142,3.357,7.5,7.5,7.5
		h4.81v8.694c-36.735,4.951-70.08,23.48-93.929,52.615h-2.346v-24.241C38.385,67.15,90.535,15,154.638,15z M171.925,79.185H137.35
		V68.461h34.575V79.185z M159.617,94.185v7.437c-1.656-0.055-3.314-0.09-4.979-0.09c-1.665,0-3.323,0.036-4.979,0.09v-7.437H159.617
		z M154.638,116.531c35.653,0,69.021,14.033,93.734,38.962H60.902C85.616,130.564,118.985,116.531,154.638,116.531z
		 M288.253,394.527c-3.573,3.955-8.477,6.133-13.807,6.133H34.828c-5.33,0-10.233-2.178-13.807-6.133
		c-3.573-3.956-5.244-9.054-4.705-14.357L37.66,170.493h233.954l21.343,209.677C293.497,385.473,291.826,390.571,288.253,394.527z
		 M336.633,250.809l-11.012,24.824c-5.338,12.051-14.168,21.852-25.341,28.351l-9.201-90.395
		c22.462-22.585,51.84-35.018,82.8-35.018h20.988l3.574,26.961C371.488,208.528,347.792,225.634,336.633,250.809z"/>
	<path d="M361.126,190.354c-23.646,2.937-45.301,13.784-62.635,31.381c-0.007,0.006-0.082,0.081-0.089,0.087l-0.293,0.293
		c-2.929,2.929-2.929,7.678,0,10.606c1.465,1.464,3.385,2.197,5.304,2.197s3.839-0.732,5.304-2.197l0.293-0.293l0.106-0.106
		c0.001-0.001,0.069-0.071,0.07-0.072c14.93-15.155,33.528-24.496,53.787-27.011c4.111-0.51,7.029-4.256,6.519-8.367
		C368.982,192.762,365.224,189.842,361.126,190.354z"/>
</g>
<g>
</g>
<g>
</g>
<g>
</g>
<g>
</g>
<g>
</g>
<g>
</g>
<g>
</g>
<g>
</g>
<g>
</g>
<g>
</g>
<g>
</g>
<g>
</g>
<g>
</g>
<g>
</g>
<g>
</g>
</svg>
