<?xml version="1.0" encoding="iso-8859-1"?>
<!-- Generator: Adobe Illustrator 18.0.0, SVG Export Plug-In . SVG Version: 6.00 Build 0)  -->
<!DOCTYPE svg PUBLIC "-//W3C//DTD SVG 1.1//EN" "http://www.w3.org/Graphics/SVG/1.1/DTD/svg11.dtd">
<svg version="1.1" id="Capa_1" xmlns="http://www.w3.org/2000/svg" xmlns:xlink="http://www.w3.org/1999/xlink" x="0px" y="0px"
	 viewBox="0 0 375.463 375.463" style="enable-background:new 0 0 375.463 375.463;" xml:space="preserve">
<g>
	<path d="M340.96,4.011c-1.109-2.111-3.155-3.568-5.513-3.926c-2.359-0.358-4.745,0.426-6.431,2.112L30.963,300.25
		c-16.762,16.763-16.762,44.037,0.001,60.801l1.82,1.821c8.12,8.12,18.917,12.592,30.4,12.592s22.28-4.472,30.4-12.592
		l87.577-87.576l21.82,21.82c1.465,1.465,3.384,2.197,5.304,2.197c1.919,0,3.839-0.732,5.304-2.197l24.914-24.914
		c1.406-1.406,2.196-3.314,2.196-5.303c0-1.989-0.79-3.897-2.196-5.303l-7.886-7.886l85.373-85.372
		c21.294-21.295,34.941-48.288,39.466-78.062C359.979,60.5,354.966,30.671,340.96,4.011z M283.415,143.483l-81.512,81.511
		l-37.235-37.235L318.325,34.102C325.025,73.746,312.224,114.673,283.415,143.483z M82.977,352.265
		c-5.286,5.287-12.316,8.199-19.793,8.199s-14.507-2.912-19.794-8.199l-1.82-1.821c-10.914-10.914-10.914-28.673,0-39.587
		l87.577-87.577l41.408,41.408L82.977,352.265z M208.285,281.205l-68.531-68.532l14.307-14.307l60.645,60.645
		c0.001,0.001,0.002,0.002,0.003,0.003l7.884,7.884L208.285,281.205z M340.625,88.02c-4.04,26.587-16.227,50.692-35.243,69.709
		l-85.372,85.372l-7.5-7.5l81.513-81.512c34.733-34.734,48.693-85.201,36.983-132.668l1.105-1.105
		C341.201,41.652,344.145,64.855,340.625,88.02z"/>
	<path d="M65.091,321.254h-0.01c-4.143,0-7.495,3.358-7.495,7.5s3.363,7.5,7.505,7.5c4.143,0,7.5-3.358,7.5-7.5
		S69.233,321.254,65.091,321.254z"/>
	<path d="M97.332,289.012h-0.01c-4.143,0-7.495,3.358-7.495,7.5s3.363,7.5,7.505,7.5c4.143,0,7.5-3.358,7.5-7.5
		S101.474,289.012,97.332,289.012z"/>
	<path d="M122.069,264.271c0,4.142,3.363,7.5,7.505,7.5c4.143,0,7.5-3.358,7.5-7.5s-3.357-7.5-7.5-7.5h-0.01
		C125.422,256.771,122.069,260.129,122.069,264.271z"/>
</g>
<g>
</g>
<g>
</g>
<g>
</g>
<g>
</g>
<g>
</g>
<g>
</g>
<g>
</g>
<g>
</g>
<g>
</g>
<g>
</g>
<g>
</g>
<g>
</g>
<g>
</g>
<g>
</g>
<g>
</g>
</svg>
