<?xml version="1.0" encoding="iso-8859-1"?>
<!-- Generator: Adobe Illustrator 18.0.0, SVG Export Plug-In . SVG Version: 6.00 Build 0)  -->
<!DOCTYPE svg PUBLIC "-//W3C//DTD SVG 1.1//EN" "http://www.w3.org/Graphics/SVG/1.1/DTD/svg11.dtd">
<svg version="1.1" id="Capa_1" xmlns="http://www.w3.org/2000/svg" xmlns:xlink="http://www.w3.org/1999/xlink" x="0px" y="0px"
	 viewBox="0 0 449.979 449.979" style="enable-background:new 0 0 449.979 449.979;" xml:space="preserve">
<g>
	<path d="M222.266,202.752c-2.143,0.835-3.784,2.608-4.453,4.809c-2.789,9.188-7.989,20.053-13.494,31.556
		c-10.161,21.231-21.677,45.294-23.071,68.988c-1.662,28.249,11.773,50.989,39.933,67.588c1.168,0.689,2.485,1.039,3.809,1.039
		c0.92,0,1.844-0.169,2.723-0.512c2.144-0.835,3.785-2.608,4.453-4.809c2.789-9.188,7.988-20.053,13.494-31.556
		c10.16-21.231,21.677-45.294,23.07-68.988c1.662-28.249-11.772-50.989-39.933-67.588
		C226.817,202.112,224.41,201.917,222.266,202.752z M253.757,269.986c-1.222,20.755-12.063,43.408-21.627,63.395
		c-4.076,8.516-7.992,16.699-11.039,24.398c-18.116-12.961-26.055-28.647-24.87-48.792c1.221-20.755,12.063-43.408,21.627-63.395
		c4.076-8.516,7.992-16.699,11.039-24.398C247.003,234.156,254.943,249.842,253.757,269.986z"/>
	<path d="M360.441,128.994h-5.829V7.5c0-4.142-3.357-7.5-7.5-7.5H102.867c-4.142,0-7.5,3.358-7.5,7.5v121.494h-5.829
		c-4.142,0-7.5,3.358-7.5,7.5v305.984c0,4.142,3.358,7.5,7.5,7.5h270.903c4.143,0,7.5-3.358,7.5-7.5V136.494
		C367.941,132.352,364.583,128.994,360.441,128.994z M110.367,15h229.245v113.994h-20.877V85.082
		c9.991-3.185,17.249-12.551,17.249-23.584c0-13.647-11.103-24.749-24.749-24.749c-6.703,0-12.788,2.683-17.249,7.025
		c-4.461-4.343-10.546-7.025-17.249-7.025s-12.788,2.683-17.249,7.025c-4.461-4.343-10.546-7.025-17.249-7.025
		c-6.703,0-12.788,2.683-17.249,7.025c-4.461-4.343-10.546-7.025-17.249-7.025c-6.703,0-12.788,2.683-17.25,7.025
		c-4.461-4.343-10.546-7.025-17.249-7.025c-6.703,0-12.788,2.683-17.249,7.025c-4.461-4.343-10.546-7.025-17.249-7.025
		c-13.647,0-24.75,11.103-24.75,24.749c0,11.033,7.258,20.4,17.25,23.584v43.912h-20.877V15z M138.744,71.247
		c-5.376,0-9.75-4.373-9.75-9.749s4.374-9.749,9.75-9.749c5.375,0,9.749,4.374,9.749,9.749S144.119,71.247,138.744,71.247z
		 M146.244,85.082c3.703-1.18,7.028-3.211,9.749-5.86c2.721,2.649,6.046,4.68,9.749,5.86v43.912h-19.498V85.082z M173.242,71.247
		c-5.375,0-9.749-4.373-9.749-9.749s4.374-9.749,9.749-9.749s9.749,4.374,9.749,9.749S178.617,71.247,173.242,71.247z
		 M180.742,85.082c3.703-1.18,7.028-3.211,9.749-5.86c2.722,2.649,6.047,4.68,9.75,5.861v43.912h-19.499V85.082z M207.74,71.247
		c-5.376,0-9.75-4.373-9.75-9.749s4.374-9.749,9.75-9.749c5.375,0,9.749,4.374,9.749,9.749S213.116,71.247,207.74,71.247z
		 M215.24,85.082c3.703-1.18,7.028-3.211,9.749-5.86c2.721,2.649,6.046,4.68,9.749,5.86v43.912H215.24V85.082z M242.239,71.247
		c-5.372,0-9.742-4.366-9.749-9.736c0-0.004,0-0.008,0-0.013s0-0.009,0-0.013c0.007-5.37,4.378-9.736,9.749-9.736
		c5.376,0,9.749,4.374,9.749,9.749S247.615,71.247,242.239,71.247z M249.739,85.082c3.703-1.18,7.028-3.211,9.749-5.86
		c2.721,2.649,6.046,4.68,9.749,5.86v43.912h-19.498V85.082z M276.737,71.247c-5.376,0-9.749-4.373-9.749-9.749
		s4.373-9.749,9.749-9.749s9.749,4.374,9.749,9.749S282.113,71.247,276.737,71.247z M284.237,85.082
		c3.703-1.18,7.028-3.211,9.749-5.86c2.721,2.649,6.046,4.68,9.749,5.86v43.912h-19.498V85.082z M311.235,71.247
		c-5.376,0-9.749-4.373-9.749-9.749s4.373-9.749,9.749-9.749s9.749,4.374,9.749,9.749S316.611,71.247,311.235,71.247z
		 M352.941,434.979H97.038V143.994h255.903V434.979z"/>
	<path d="M119.99,420.979h210c4.143,0,7.5-3.358,7.5-7.5V235.2c0-4.142-3.357-7.5-7.5-7.5s-7.5,3.358-7.5,7.5v170.779h-195V172.994
		h195V206.2c0,4.142,3.357,7.5,7.5,7.5s7.5-3.358,7.5-7.5v-40.706c0-4.142-3.357-7.5-7.5-7.5h-210c-4.142,0-7.5,3.358-7.5,7.5
		v247.984C112.49,417.621,115.848,420.979,119.99,420.979z"/>
</g>
<g>
</g>
<g>
</g>
<g>
</g>
<g>
</g>
<g>
</g>
<g>
</g>
<g>
</g>
<g>
</g>
<g>
</g>
<g>
</g>
<g>
</g>
<g>
</g>
<g>
</g>
<g>
</g>
<g>
</g>
</svg>
