<?xml version="1.0" encoding="iso-8859-1"?>
<!-- Generator: Adobe Illustrator 18.0.0, SVG Export Plug-In . SVG Version: 6.00 Build 0)  -->
<!DOCTYPE svg PUBLIC "-//W3C//DTD SVG 1.1//EN" "http://www.w3.org/Graphics/SVG/1.1/DTD/svg11.dtd">
<svg version="1.1" id="Capa_1" xmlns="http://www.w3.org/2000/svg" xmlns:xlink="http://www.w3.org/1999/xlink" x="0px" y="0px"
	 viewBox="0 0 462.748 462.748" style="enable-background:new 0 0 462.748 462.748;" xml:space="preserve">
<path d="M361.104,351.851l-18.64-210.26c-2.27-25.602-23.365-44.908-49.071-44.908h-1.719
	c-6.542-16.202-19.421-29.184-35.559-35.852c6.605-6.445,10.717-15.433,10.717-25.368C266.834,15.909,250.925,0,231.371,0
	c-19.555,0-35.463,15.909-35.463,35.463c0,9.935,4.112,18.924,10.717,25.368c-16.138,6.668-29.017,19.65-35.559,35.852h-1.722
	c-25.706,0-46.802,19.306-49.071,44.908l-18.63,210.261c-1.933,21.863,10.664,41.983,30.527,50.003
	c-2.438,6.783-3.775,14.086-3.775,21.698v31.695c0,4.142,3.358,7.5,7.5,7.5h190.949c4.142,0,7.5-3.358,7.5-7.5v-31.695
	c0-7.612-1.337-14.915-3.775-21.698C350.438,393.836,363.037,373.716,361.104,351.851z M231.371,15
	c11.283,0,20.463,9.18,20.463,20.463c0,8.634-5.383,16.02-12.963,19.02v-19.02c0-4.142-3.358-7.5-7.5-7.5s-7.5,3.358-7.5,7.5v19.02
	c-7.58-3-12.963-10.386-12.963-19.02C210.908,24.18,220.087,15,231.371,15z M231.371,70.926c25.031,0,45.827,18.483,49.457,42.518
	h-98.915C185.543,89.409,206.339,70.926,231.371,70.926z M214.196,272.568c0.803-13.649,8.07-28.833,14.481-42.23
	c2.286-4.776,4.499-9.4,6.379-13.834c9.869,7.94,14.187,17.399,13.49,29.251c-0.803,13.649-8.07,28.833-14.481,42.23
	c-2.286,4.777-4.498,9.4-6.379,13.834C217.816,293.879,213.498,284.421,214.196,272.568z M217.872,325.361h26.998v7.818h-26.998
	V325.361z M203.84,348.179h55.061v11.039H203.84V348.179z M266.403,333.179h-6.533v-15.318c0-4.142-3.358-7.5-7.5-7.5h-11.968
	c1.92-4.868,4.498-10.267,7.194-15.9c7.007-14.641,14.948-31.236,15.924-47.824c1.188-20.187-8.347-36.398-28.34-48.184
	c-1.98-1.168-4.389-1.362-6.533-0.527c-2.143,0.835-3.784,2.608-4.453,4.809c-1.844,6.075-5.343,13.387-9.048,21.128
	c-7.007,14.641-14.949,31.236-15.925,47.824c-0.895,15.214,4.303,28.169,15.476,38.674h-4.326c-4.142,0-7.5,3.358-7.5,7.5v15.318
	h-6.533c-8.485,0-16.347-3.416-22.136-9.62s-8.656-14.281-8.071-22.747l8.211-118.861c1.092-15.809,14.361-28.192,30.208-28.192
	h53.641c15.847,0,29.115,12.384,30.207,28.192l8.212,118.861c0.584,8.465-2.282,16.543-8.071,22.747
	S274.888,333.179,266.403,333.179z M248.381,138.759h-34.02v-10.314h34.02V138.759z M116.585,353.175l18.63-210.26
	c1.508-17.024,14.99-30.036,31.797-31.146c-0.426,3-0.66,6.06-0.66,9.175c0,4.142,3.358,7.5,7.5,7.5h25.508v10.625
	c-21.341,2.471-38.47,19.957-39.982,41.848l-8.211,118.861c-0.862,12.475,3.537,24.873,12.069,34.015
	c6.808,7.295,15.868,12.097,25.604,13.744v11.809c-20.884,1.253-39.105,12.511-49.939,29.036
	C124.461,383.12,115.205,368.784,116.585,353.175z M319.345,447.748H143.396v-24.195c0-27.204,22.132-49.336,49.336-49.336h77.277
	c27.204,0,49.336,22.132,49.336,49.336V447.748z M323.839,388.382c-10.834-16.525-29.055-27.783-49.938-29.036v-11.809
	c9.736-1.647,18.796-6.449,25.604-13.744c8.532-9.142,12.931-21.54,12.069-34.015l-8.212-118.861
	c-1.512-21.891-18.64-39.377-39.982-41.848v-10.625h25.508c4.142,0,7.5-3.358,7.5-7.5c0-3.115-0.234-6.176-0.66-9.175
	c16.805,1.112,30.285,14.123,31.794,31.146l18.64,210.258C347.543,368.784,338.284,383.12,323.839,388.382z"/>
<g>
</g>
<g>
</g>
<g>
</g>
<g>
</g>
<g>
</g>
<g>
</g>
<g>
</g>
<g>
</g>
<g>
</g>
<g>
</g>
<g>
</g>
<g>
</g>
<g>
</g>
<g>
</g>
<g>
</g>
</svg>
