<?xml version="1.0" encoding="iso-8859-1"?>
<!-- Generator: Adobe Illustrator 18.0.0, SVG Export Plug-In . SVG Version: 6.00 Build 0)  -->
<!DOCTYPE svg PUBLIC "-//W3C//DTD SVG 1.1//EN" "http://www.w3.org/Graphics/SVG/1.1/DTD/svg11.dtd">
<svg version="1.1" id="Capa_1" xmlns="http://www.w3.org/2000/svg" xmlns:xlink="http://www.w3.org/1999/xlink" x="0px" y="0px"
	 viewBox="0 0 413.98 413.98" style="enable-background:new 0 0 413.98 413.98;" xml:space="preserve">
<g>
	<path d="M131.984,95.99c-4.142,0-7.5,3.358-7.5,7.5v6c0,4.142,3.358,7.5,7.5,7.5s7.5-3.358,7.5-7.5v-6
		C139.484,99.348,136.126,95.99,131.984,95.99z"/>
	<path d="M131.984,142.824c-4.142,0-7.5,3.358-7.5,7.5v12.25c0,4.142,3.358,7.5,7.5,7.5s7.5-3.358,7.5-7.5v-12.25
		C139.484,146.182,136.126,142.824,131.984,142.824z"/>
	<path d="M131.984,195.907c-4.142,0-7.5,3.358-7.5,7.5v12.25c0,4.142,3.358,7.5,7.5,7.5s7.5-3.358,7.5-7.5v-12.25
		C139.484,199.265,136.126,195.907,131.984,195.907z"/>
	<path d="M131.984,248.99c-4.142,0-7.5,3.358-7.5,7.5v6c0,4.142,3.358,7.5,7.5,7.5s7.5-3.358,7.5-7.5v-6
		C139.484,252.348,136.126,248.99,131.984,248.99z"/>
	<path d="M281.99,95.99c-4.143,0-7.5,3.358-7.5,7.5v6c0,4.142,3.357,7.5,7.5,7.5s7.5-3.358,7.5-7.5v-6
		C289.49,99.348,286.133,95.99,281.99,95.99z"/>
	<path d="M281.99,142.32c-4.143,0-7.5,3.358-7.5,7.5v12.099c0,4.142,3.357,7.5,7.5,7.5s7.5-3.358,7.5-7.5V149.82
		C289.49,145.678,286.133,142.32,281.99,142.32z"/>
	<path d="M281.99,194.748c-4.143,0-7.5,3.358-7.5,7.5v6c0,4.142,3.357,7.5,7.5,7.5s7.5-3.358,7.5-7.5v-6
		C289.49,198.105,286.133,194.748,281.99,194.748z"/>
	<path d="M62.987,175.49h-6c-4.142,0-7.5,3.358-7.5,7.5s3.358,7.5,7.5,7.5h6c4.142,0,7.5-3.358,7.5-7.5S67.129,175.49,62.987,175.49
		z"/>
	<path d="M112.907,175.49h-11.52c-4.142,0-7.5,3.358-7.5,7.5s3.358,7.5,7.5,7.5h11.52c4.142,0,7.5-3.358,7.5-7.5
		S117.049,175.49,112.907,175.49z"/>
	<path d="M162.827,175.49h-11.52c-4.142,0-7.5,3.358-7.5,7.5s3.358,7.5,7.5,7.5h11.52c4.142,0,7.5-3.358,7.5-7.5
		S166.969,175.49,162.827,175.49z"/>
	<path d="M312.587,175.49h-11.52c-4.143,0-7.5,3.358-7.5,7.5s3.357,7.5,7.5,7.5h11.52c4.143,0,7.5-3.358,7.5-7.5
		S316.729,175.49,312.587,175.49z"/>
	<path d="M262.667,175.49h-11.52c-4.143,0-7.5,3.358-7.5,7.5s3.357,7.5,7.5,7.5h11.52c4.143,0,7.5-3.358,7.5-7.5
		S266.81,175.49,262.667,175.49z"/>
	<path d="M212.747,175.49h-11.52c-4.142,0-7.5,3.358-7.5,7.5s3.358,7.5,7.5,7.5h11.52c4.143,0,7.5-3.358,7.5-7.5
		S216.89,175.49,212.747,175.49z"/>
	<path d="M356.987,175.49h-6c-4.143,0-7.5,3.358-7.5,7.5s3.357,7.5,7.5,7.5h6c4.143,0,7.5-3.358,7.5-7.5
		S361.13,175.49,356.987,175.49z"/>
	<path d="M305.508,265.984l-39.955,22.469c-1.198,0.673-2.188,1.663-2.861,2.861l-22.469,39.955
		c-1.648,2.931-1.145,6.602,1.233,8.979c1.444,1.444,3.364,2.197,5.306,2.197c1.257,0,2.522-0.315,3.674-0.963l39.956-22.468
		c1.198-0.673,2.188-1.663,2.861-2.861l22.468-39.956c1.648-2.932,1.145-6.602-1.233-8.979
		C312.108,264.839,308.438,264.337,305.508,265.984z M281.208,306.969l-14.788,8.315l8.316-14.788l14.787-8.316L281.208,306.969z"/>
	<path d="M406.48,30.748H7.5c-4.142,0-7.5,3.358-7.5,7.5v289.49c0,4.142,3.358,7.5,7.5,7.5h197.497
		c12.225,28.207,40.328,47.995,72.975,47.995c32.648,0,60.751-19.788,72.976-47.995h55.533c4.143,0,7.5-3.358,7.5-7.5V38.248
		C413.98,34.105,410.623,30.748,406.48,30.748z M277.972,368.233c-35.565,0-64.499-28.935-64.499-64.5s28.934-64.5,64.499-64.5
		s64.5,28.935,64.5,64.5S313.537,368.233,277.972,368.233z M398.98,320.238h-43.243c0.624-2.944,1.083-5.947,1.37-9h25.373
		c4.143,0,7.5-3.358,7.5-7.5v-169.49c0-4.142-3.357-7.5-7.5-7.5s-7.5,3.358-7.5,7.5v161.99h-17.873
		c-3.791-40.333-37.828-72.005-79.136-72.005c-41.307,0-75.345,31.672-79.136,72.005H39V69.748h335.98v34.5
		c0,4.142,3.357,7.5,7.5,7.5s7.5-3.358,7.5-7.5v-42c0-4.142-3.357-7.5-7.5-7.5H31.5c-4.142,0-7.5,3.358-7.5,7.5v241.49
		c0,4.142,3.358,7.5,7.5,7.5h167.337c0.287,3.053,0.746,6.056,1.37,9H15V45.748h383.98V320.238z"/>
</g>
<g>
</g>
<g>
</g>
<g>
</g>
<g>
</g>
<g>
</g>
<g>
</g>
<g>
</g>
<g>
</g>
<g>
</g>
<g>
</g>
<g>
</g>
<g>
</g>
<g>
</g>
<g>
</g>
<g>
</g>
</svg>
