<?xml version="1.0" encoding="iso-8859-1"?>
<!-- Generator: Adobe Illustrator 18.0.0, SVG Export Plug-In . SVG Version: 6.00 Build 0)  -->
<!DOCTYPE svg PUBLIC "-//W3C//DTD SVG 1.1//EN" "http://www.w3.org/Graphics/SVG/1.1/DTD/svg11.dtd">
<svg version="1.1" id="Capa_1" xmlns="http://www.w3.org/2000/svg" xmlns:xlink="http://www.w3.org/1999/xlink" x="0px" y="0px"
	 viewBox="0 0 447.279 447.279" style="enable-background:new 0 0 447.279 447.279;" xml:space="preserve">
<g>
	<path d="M160.837,152.313c-35.83,0-69.515,13.953-94.851,39.288c-52.3,52.301-52.3,137.399,0,189.7
		c25.336,25.335,59.021,39.289,94.851,39.289s69.515-13.953,94.851-39.289c52.3-52.3,52.3-137.399,0-189.7
		C230.352,166.266,196.667,152.313,160.837,152.313z M245.787,371.402c-22.69,22.691-52.86,35.188-84.95,35.188
		s-62.26-12.497-84.95-35.188c-46.842-46.842-46.842-123.059,0-169.901c22.69-22.691,52.86-35.188,84.95-35.188
		s62.26,12.497,84.95,35.188C292.629,248.343,292.629,324.56,245.787,371.402z"/>
	<path d="M435.865,11.423C428.499,4.057,418.705,0,408.288,0s-20.211,4.057-27.577,11.423L327.435,64.7
		c-7.367,7.366-11.424,17.16-11.424,27.577c0,2.357,0.218,4.679,0.625,6.951l-58.826,58.826
		c-63.003-47.649-153.342-42.783-210.749,14.622c-62.735,62.736-62.735,164.814,0,227.551
		c31.369,31.368,72.572,47.052,113.776,47.052c41.203,0,82.407-15.684,113.775-47.052c30.391-30.391,47.127-70.797,47.127-113.775
		c0-35.48-11.416-69.2-32.492-96.986l58.832-58.832c2.291,0.411,4.611,0.625,6.932,0.625c9.987,0,19.975-3.801,27.578-11.404
		l53.277-53.277C451.071,51.371,451.071,26.629,435.865,11.423z M264.712,390.328c-57.276,57.278-150.475,57.275-207.751,0
		C-0.316,333.05-0.316,239.853,56.96,182.576c28.643-28.642,66.254-42.958,103.877-42.958c37.614,0,75.24,14.323,103.875,42.958
		c27.747,27.746,43.027,64.637,43.027,103.876C307.739,325.69,292.459,362.581,264.712,390.328z M280.278,178.635
		c-1.833-2.025-3.72-4.013-5.666-5.958c-1.949-1.949-3.937-3.837-5.96-5.666l53.586-53.585c1.486,2.293,3.218,4.451,5.196,6.429
		c1.994,1.994,4.155,3.719,6.434,5.19L280.278,178.635z M425.966,56.678l-53.276,53.277c-9.747,9.746-25.606,9.749-35.355,0
		c-4.723-4.722-7.323-11-7.323-17.678s2.601-12.956,7.323-17.678l53.277-53.277C395.333,16.601,401.61,14,408.288,14
		s12.956,2.601,17.678,7.323C435.713,31.07,435.713,46.931,425.966,56.678z"/>
	<path d="M193.583,298.261v-26.223c0-20.345-10.11-39.259-27.043-50.595c-10-6.702-21.688-10.245-33.798-10.245H92.583
		c-3.866,0-7,3.134-7,7v40.16c0,12.085,3.541,23.767,10.241,33.782c11.335,16.943,30.25,27.058,50.599,27.058h26.224
		c-4.262,7.731-6.537,16.451-6.537,25.524c0,14.157,5.513,27.466,15.524,37.477c1.313,1.313,3.093,2.05,4.949,2.05
		s3.637-0.738,4.95-2.05c13.906-13.907,18.439-33.68,13.628-51.425c4.561,1.237,9.253,1.87,13.949,1.87
		c13.571,0,27.144-5.166,37.477-15.499c2.733-2.733,2.733-7.166,0-9.899c-10.011-10.011-23.32-15.523-37.478-15.523
		C210.036,291.723,201.315,293.999,193.583,298.261z M99.583,225.199h33.159c7.834,0,15.429,1.929,22.218,5.599
		c-5.026,25.089-24.689,44.749-49.775,49.77c-3.672-6.798-5.603-14.391-5.603-22.209V225.199z M114.556,292.665
		c25.251-7.413,45.08-27.238,52.499-52.49c7.967,8.575,12.528,19.894,12.528,31.864v33.16h-33.16
		C134.45,305.199,123.13,300.636,114.556,292.665z M186.578,366.255c-4.209-6.33-6.469-13.758-6.469-21.532
		c0-7.775,2.26-15.203,6.469-21.533C195.19,336.19,195.19,353.256,186.578,366.255z M197.577,312.191
		c6.33-4.208,13.758-6.468,21.532-6.468c7.775,0,15.203,2.26,21.533,6.468C227.642,320.804,210.576,320.803,197.577,312.191z"/>
	<path d="M118.144,254.376c5.328,3.65,12.443-1.749,10.583-7.846c-1.925-6.309-11.054-6.539-13.285-0.325
		C114.378,249.17,115.501,252.64,118.144,254.376C118.524,254.636,117.764,254.126,118.144,254.376z"/>
	<path d="M408.644,30.416c-6.454,1.295-7.595,10.375-1.623,13.184c2.796,1.315,6.242,0.612,8.272-1.73
		c1.909-2.202,2.235-5.449,0.83-7.997c-1.455-2.638-4.582-4.053-7.528-3.446c0.322-0.066,0.645-0.129,0.967-0.195
		C409.257,30.293,408.95,30.354,408.644,30.416C408.194,30.506,410.924,29.956,408.644,30.416z"/>
</g>
<g>
</g>
<g>
</g>
<g>
</g>
<g>
</g>
<g>
</g>
<g>
</g>
<g>
</g>
<g>
</g>
<g>
</g>
<g>
</g>
<g>
</g>
<g>
</g>
<g>
</g>
<g>
</g>
<g>
</g>
</svg>
