<?xml version="1.0" encoding="iso-8859-1"?>
<!-- Generator: Adobe Illustrator 18.0.0, SVG Export Plug-In . SVG Version: 6.00 Build 0)  -->
<!DOCTYPE svg PUBLIC "-//W3C//DTD SVG 1.1//EN" "http://www.w3.org/Graphics/SVG/1.1/DTD/svg11.dtd">
<svg version="1.1" id="Capa_1" xmlns="http://www.w3.org/2000/svg" xmlns:xlink="http://www.w3.org/1999/xlink" x="0px" y="0px"
	 viewBox="0 0 452.066 452.066" style="enable-background:new 0 0 452.066 452.066;" xml:space="preserve">
<g>
	<path d="M335.074,261.374H206.939V147.281c0-33.843-10.831-65.915-31.32-92.748C155.788,28.562,127.668,9.3,96.439,0.294
		c-2.264-0.653-4.705-0.204-6.587,1.213c-1.883,1.417-2.991,3.636-2.991,5.993v68.893c0,26.365-14.073,51.128-36.727,64.623
		c-2.271,1.353-3.662,3.801-3.662,6.443v145.156c-15.417,16.944-24.826,39.446-24.826,64.105c0,52.574,42.772,95.346,95.346,95.346
		h218.082c52.574,0,95.346-42.772,95.346-95.346C430.419,304.146,387.647,261.374,335.074,261.374z M163.697,63.636
		c18.476,24.196,28.242,53.12,28.242,83.645v114.093h-17.23V147.278c0-51.6-26.324-99.864-69.227-127.995
		C128.316,28.52,148.649,43.93,163.697,63.636z M101.861,76.393V34.967c35.978,25.734,57.848,67.641,57.848,112.312v114.096h-42.716
		c-20.697,0-39.872,6.632-55.52,17.878V151.599C86.49,134.997,101.861,106.571,101.861,76.393z M335.074,437.066H116.992
		c-44.303,0-80.346-36.043-80.346-80.346c0-44.303,36.043-80.346,80.346-80.346h218.082c44.303,0,80.346,36.043,80.346,80.346v0
		C415.419,401.023,379.376,437.066,335.074,437.066z"/>
	<path d="M335.074,288.374h-31.856c-4.142,0-7.5,3.358-7.5,7.5s3.358,7.5,7.5,7.5h31.856c29.415,0,53.346,23.931,53.346,53.346
		s-23.931,53.346-53.346,53.346H116.992c-29.415,0-53.346-23.931-53.346-53.346s23.931-53.346,53.346-53.346h148.727
		c4.142,0,7.5-3.358,7.5-7.5s-3.358-7.5-7.5-7.5H116.992c-37.686,0-68.346,30.66-68.346,68.346s30.66,68.346,68.346,68.346h218.082
		c37.686,0,68.346-30.66,68.346-68.346S372.76,288.374,335.074,288.374z"/>
	<path d="M82.331,243.188c19.809,0,35.925-16.116,35.925-35.925v-16.721c0-19.809-16.116-35.925-35.925-35.925
		c-4.142,0-7.5,3.358-7.5,7.5v73.571C74.831,239.83,78.189,243.188,82.331,243.188z M89.831,171.007
		c7.845,3.022,13.425,10.639,13.425,19.536v16.721c0,8.896-5.581,16.514-13.425,19.536V171.007z"/>
	<path d="M89.349,356.077c0,15.199,12.365,27.565,27.564,27.565s27.565-12.365,27.565-27.565c0-15.199-12.366-27.565-27.565-27.565
		S89.349,340.878,89.349,356.077z M129.479,356.077c0,6.928-5.637,12.565-12.565,12.565s-12.564-5.637-12.564-12.565
		s5.636-12.565,12.564-12.565S129.479,349.149,129.479,356.077z"/>
	<path d="M362.717,356.077c0-15.199-12.365-27.565-27.564-27.565s-27.565,12.365-27.565,27.565
		c0,15.199,12.366,27.565,27.565,27.565S362.717,371.277,362.717,356.077z M322.587,356.077c0-6.928,5.637-12.565,12.565-12.565
		s12.564,5.636,12.564,12.565s-5.636,12.565-12.564,12.565S322.587,363.006,322.587,356.077z"/>
</g>
<g>
</g>
<g>
</g>
<g>
</g>
<g>
</g>
<g>
</g>
<g>
</g>
<g>
</g>
<g>
</g>
<g>
</g>
<g>
</g>
<g>
</g>
<g>
</g>
<g>
</g>
<g>
</g>
<g>
</g>
</svg>
