<?xml version="1.0" encoding="iso-8859-1"?>
<!-- Generator: Adobe Illustrator 18.0.0, SVG Export Plug-In . SVG Version: 6.00 Build 0)  -->
<!DOCTYPE svg PUBLIC "-//W3C//DTD SVG 1.1//EN" "http://www.w3.org/Graphics/SVG/1.1/DTD/svg11.dtd">
<svg version="1.1" id="Capa_1" xmlns="http://www.w3.org/2000/svg" xmlns:xlink="http://www.w3.org/1999/xlink" x="0px" y="0px"
	 viewBox="0 0 461.835 461.835" style="enable-background:new 0 0 461.835 461.835;" xml:space="preserve">
<path d="M460.558,242.3l-65.938-97.98l4.415-4.415c2.929-2.929,2.929-7.678,0-10.606l-0.982-0.982l10.235-10.235
	c1.407-1.406,2.197-3.314,2.197-5.303s-0.79-3.897-2.196-5.303l-21.74-21.74c-2.929-2.929-7.678-2.929-10.606,0L365.706,95.97
	l-0.986-0.986c-2.93-2.929-7.678-2.929-10.607,0l-4.416,4.416l-97.975-65.935c-2.977-2.003-6.954-1.617-9.491,0.919
	c-2.536,2.537-2.921,6.515-0.919,9.491l65.936,97.975l-4.412,4.412c-2.929,2.929-2.929,7.678,0,10.606l0.984,0.984l-72.901,72.901
	l-72.902-72.902l0.983-0.983c2.929-2.929,2.929-7.678,0-10.606l-4.412-4.412l65.935-97.975c2.003-2.976,1.618-6.954-0.919-9.491
	c-2.537-2.537-6.515-2.922-9.491-0.919L112.139,99.4l-4.416-4.416c-2.928-2.929-7.677-2.929-10.606,0L96.13,95.97L85.895,85.735
	c-2.928-2.929-7.677-2.929-10.606,0l-21.741,21.74c-1.407,1.406-2.197,3.314-2.197,5.303s0.79,3.897,2.197,5.303l10.236,10.235
	l-0.982,0.982c-1.407,1.406-2.197,3.314-2.197,5.303s0.79,3.897,2.197,5.303l4.416,4.416L1.278,242.3
	c-2.003,2.976-1.618,6.954,0.919,9.491c1.45,1.45,3.37,2.197,5.306,2.197c1.451,0,2.91-0.42,4.185-1.278l97.98-65.939l4.412,4.412
	c1.406,1.407,3.314,2.197,5.303,2.197s3.897-0.79,5.303-2.197l0.985-0.985l72.901,72.901L66.569,395.103
	c-1.407,1.406-2.197,3.314-2.197,5.303s0.79,3.897,2.197,5.303l21.74,21.74c1.464,1.464,3.384,2.197,5.303,2.197
	s3.839-0.732,5.303-2.197l132.003-132.003l132.005,132.006c1.465,1.464,3.385,2.197,5.304,2.197s3.839-0.732,5.304-2.197
	l21.74-21.74c1.406-1.406,2.196-3.314,2.196-5.303s-0.79-3.897-2.196-5.303L263.265,263.1l72.901-72.9l0.983,0.983
	c1.407,1.407,3.314,2.197,5.304,2.197s3.896-0.79,5.304-2.197l4.411-4.412l97.979,65.938c1.275,0.858,2.734,1.278,4.186,1.278
	c1.935,0,3.855-0.747,5.306-2.197C462.175,249.254,462.561,245.276,460.558,242.3z M381.244,101.644l11.134,11.134l-4.932,4.932
	l-11.134-11.134L381.244,101.644z M383.124,134.602l-40.671,40.671l-23.708-23.708l40.671-40.671L383.124,134.602z M275.179,67.331
	l63.71,42.876l-20.834,20.834L275.179,67.331z M186.656,67.331l-42.876,63.71l-20.834-20.834L186.656,67.331z M143.09,151.565
	l-23.708,23.708l-40.671-40.671l23.708-23.708L143.09,151.565z M69.458,112.778l11.134-11.134l4.932,4.932L74.39,117.71
	L69.458,112.778z M35.145,218.843l42.879-63.715l20.836,20.836L35.145,218.843z M136.277,179.592l11.133-11.134l72.902,72.902
	l-11.133,11.134L136.277,179.592z M379.361,400.409l-11.134,11.134L241.525,284.84l11.133-11.133L379.361,400.409z M93.612,411.539
	l-11.134-11.133l231.947-231.947l11.134,11.134L93.612,411.539z M362.976,175.964l20.836-20.836l42.879,63.715L362.976,175.964z"/>
<g>
</g>
<g>
</g>
<g>
</g>
<g>
</g>
<g>
</g>
<g>
</g>
<g>
</g>
<g>
</g>
<g>
</g>
<g>
</g>
<g>
</g>
<g>
</g>
<g>
</g>
<g>
</g>
<g>
</g>
</svg>
