<?xml version="1.0" encoding="iso-8859-1"?>
<!-- Generator: Adobe Illustrator 18.0.0, SVG Export Plug-In . SVG Version: 6.00 Build 0)  -->
<!DOCTYPE svg PUBLIC "-//W3C//DTD SVG 1.1//EN" "http://www.w3.org/Graphics/SVG/1.1/DTD/svg11.dtd">
<svg version="1.1" id="Capa_1" xmlns="http://www.w3.org/2000/svg" xmlns:xlink="http://www.w3.org/1999/xlink" x="0px" y="0px"
	 viewBox="0 0 416.406 416.406" style="enable-background:new 0 0 416.406 416.406;" xml:space="preserve">
<g>
	<path d="M416.406,53.839c0-4.142-3.358-7.5-7.5-7.5s-7.5,3.358-7.5,7.5c0,12.738-10.363,23.101-23.101,23.101
		c-6.278,0-11.977-2.521-16.145-6.6h11.645c4.142,0,7.5-3.358,7.5-7.5s-3.358-7.5-7.5-7.5h-18.546
		c-0.032-0.497-0.054-0.996-0.054-1.5c0-4.142-3.358-7.5-7.5-7.5s-7.5,3.358-7.5,7.5c0,0.503,0.019,1.002,0.038,1.5h-73.884
		c-14.389-15.827-35.132-25.777-58.156-25.777c-23.024,0-43.767,9.951-58.156,25.777H76.163c0.019-0.499,0.038-0.997,0.038-1.5
		c0-4.142-3.358-7.5-7.5-7.5s-7.5,3.358-7.5,7.5c0,0.505-0.022,1.004-0.054,1.5H42.601c-4.142,0-7.5,3.358-7.5,7.5
		s3.358,7.5,7.5,7.5h11.645c-4.168,4.079-9.866,6.6-16.145,6.6C25.363,76.94,15,66.577,15,53.839c0-4.142-3.358-7.5-7.5-7.5
		S0,49.697,0,53.839c0,18.442,13.172,33.862,30.601,37.355v283.049c0,4.142,3.358,7.5,7.5,7.5s7.5-3.358,7.5-7.5V91.195
		C57.446,88.82,67.326,80.938,72.439,70.34h66.887c-5.048,9.156-8.32,19.417-9.358,30.324h-2.791c-4.142,0-7.5,3.358-7.5,7.5v64.056
		c0,30.352,24.693,55.045,55.045,55.045h66.959c30.352,0,55.045-24.693,55.045-55.045v-64.056c0-4.142-3.358-7.5-7.5-7.5h-2.791
		c-1.038-10.906-4.31-21.168-9.358-30.324h66.887c5.113,10.598,14.993,18.48,26.839,20.855v283.049c0,4.142,3.358,7.5,7.5,7.5
		s7.5-3.358,7.5-7.5V91.195C403.234,87.701,416.406,72.281,416.406,53.839z M208.203,44.563c13.084,0,25.254,3.977,35.375,10.777
		h-70.751C182.949,48.54,195.119,44.563,208.203,44.563z M281.728,172.22c0,22.081-17.964,40.045-40.045,40.045h-66.959
		c-22.081,0-40.045-17.964-40.045-40.045v-56.556h147.05V172.22z M271.364,100.664H145.042c1.33-11.271,5.63-21.639,12.077-30.324
		h102.168C265.734,79.024,270.035,89.393,271.364,100.664z"/>
	<path d="M249.686,348.669c8.879-12.931,9.708-30.084,1.518-43.981l-28.841-48.942c-1.348-2.288-3.806-3.692-6.461-3.692
		s-5.113,1.404-6.461,3.692l-28.841,48.942c-8.19,13.898-7.362,31.05,1.518,43.981l-25.37,25.371c-2.929,2.929-2.929,7.678,0,10.606
		c1.464,1.464,3.384,2.197,5.303,2.197s3.839-0.732,5.303-2.197l25.372-25.373c4.802,3.297,10.151,5.46,15.676,6.481v13.291
		c0,4.142,3.358,7.5,7.5,7.5s7.5-3.358,7.5-7.5v-13.291c5.525-1.021,10.874-3.184,15.676-6.481l25.372,25.373
		c1.464,1.465,3.384,2.197,5.303,2.197c1.919,0,3.839-0.732,5.303-2.197c2.929-2.929,2.929-7.678,0-10.606L249.686,348.669z
		 M193.521,312.303l22.379-37.977l22.38,37.977c6.013,10.204,4.363,23.18-4.012,31.556c-10.127,10.127-26.607,10.128-36.736,0
		C189.158,335.484,187.508,322.508,193.521,312.303z"/>
</g>
<g>
</g>
<g>
</g>
<g>
</g>
<g>
</g>
<g>
</g>
<g>
</g>
<g>
</g>
<g>
</g>
<g>
</g>
<g>
</g>
<g>
</g>
<g>
</g>
<g>
</g>
<g>
</g>
<g>
</g>
</svg>
