<?xml version="1.0" encoding="iso-8859-1"?>
<!-- Generator: Adobe Illustrator 18.0.0, SVG Export Plug-In . SVG Version: 6.00 Build 0)  -->
<!DOCTYPE svg PUBLIC "-//W3C//DTD SVG 1.1//EN" "http://www.w3.org/Graphics/SVG/1.1/DTD/svg11.dtd">
<svg version="1.1" id="Capa_1" xmlns="http://www.w3.org/2000/svg" xmlns:xlink="http://www.w3.org/1999/xlink" x="0px" y="0px"
	 viewBox="0 0 416.976 416.976" style="enable-background:new 0 0 416.976 416.976;" xml:space="preserve">
<path d="M416.976,171.847v-65.496c0-4.142-3.358-7.5-7.5-7.5H7.5c-4.142,0-7.5,3.358-7.5,7.5v65.496c0,4.142,3.358,7.5,7.5,7.5h5.02
	c-0.87,2.406-1.347,4.999-1.347,7.701c0,6.494,2.745,12.355,7.13,16.496v30.735H7.5c-4.142,0-7.5,3.358-7.5,7.5v68.845
	c0,4.142,3.358,7.5,7.5,7.5h401.976c4.142,0,7.5-3.358,7.5-7.5V241.78c0-4.142-3.358-7.5-7.5-7.5h-10.792v-30.735
	c4.385-4.142,7.13-10.003,7.13-16.496c0-2.703-0.477-5.295-1.347-7.701h5.009C413.618,179.347,416.976,175.989,416.976,171.847z
	 M15,113.851h386.976v50.496H15V113.851z M33.303,209.75h0.571h52.278l53.741,24.53H33.303V209.75z M271.003,277.636L122.276,209.75
	h179.713L271.003,277.636z M401.976,303.125H15V249.28h157.755l98.842,45.116c1.01,0.461,2.068,0.679,3.11,0.679
	c2.846,0,5.568-1.629,6.827-4.387l18.9-41.409h101.542V303.125z M383.684,209.75v24.53h-76.403l11.196-24.53h64.636H383.684z
	 M390.814,187.048c0,4.247-3.455,7.702-7.701,7.702H33.874c-4.247,0-7.701-3.455-7.701-7.702s3.455-7.701,7.701-7.701h349.239
	C387.359,179.347,390.814,182.802,390.814,187.048z"/>
<g>
</g>
<g>
</g>
<g>
</g>
<g>
</g>
<g>
</g>
<g>
</g>
<g>
</g>
<g>
</g>
<g>
</g>
<g>
</g>
<g>
</g>
<g>
</g>
<g>
</g>
<g>
</g>
<g>
</g>
</svg>
