<?xml version="1.0" encoding="iso-8859-1"?>
<!-- Generator: Adobe Illustrator 18.0.0, SVG Export Plug-In . SVG Version: 6.00 Build 0)  -->
<!DOCTYPE svg PUBLIC "-//W3C//DTD SVG 1.1//EN" "http://www.w3.org/Graphics/SVG/1.1/DTD/svg11.dtd">
<svg version="1.1" id="Capa_1" xmlns="http://www.w3.org/2000/svg" xmlns:xlink="http://www.w3.org/1999/xlink" x="0px" y="0px"
	 viewBox="0 0 473.779 473.779" style="enable-background:new 0 0 473.779 473.779;" xml:space="preserve">
<g>
	<path d="M315.292,326.405l-1.61-20.99c-0.3-3.908-3.559-6.926-7.478-6.926h-46.962V96.868h3.533
		c19.63,0,35.601-15.971,35.601-35.601V7.5c0-4.142-3.358-7.5-7.5-7.5H182.903c-4.142,0-7.5,3.358-7.5,7.5v53.767
		c0,19.63,15.971,35.601,35.601,35.601h3.533v201.621h-46.962c-3.919,0-7.178,3.018-7.478,6.926l-1.61,20.99
		c-0.015,0.191-0.022,0.383-0.022,0.574l0.006,83.14c0,2.292,1.048,4.457,2.844,5.879l70.924,56.16c1.364,1.08,3.01,1.62,4.656,1.62
		s3.292-0.54,4.656-1.621l70.915-56.16c1.796-1.422,2.844-3.588,2.844-5.879l0.006-83.14
		C315.314,326.788,315.307,326.596,315.292,326.405z M299.257,313.489l0.46,5.99h-40.475v-5.99H299.257z M229.536,284.987h14.706
		v59.388c0,4.054-3.298,7.353-7.353,7.353c-4.054,0-7.353-3.298-7.353-7.353V284.987z M244.242,269.987h-14.706v-7.499h14.706
		V269.987z M190.403,61.267V15h92.973v46.267c0,11.359-9.242,20.601-20.601,20.601h-51.771
		C199.644,81.868,190.403,72.626,190.403,61.267z M244.242,96.868v150.62h-14.706V96.868H244.242z M214.536,313.489v5.99h-40.475
		l0.459-5.99H214.536z M236.893,456.712l-63.424-50.221l-0.005-72.012h41.072v9.896c0,12.325,10.027,22.353,22.353,22.353
		c12.326,0,22.353-10.027,22.353-22.353v-9.896h41.072l-0.005,72.012L236.893,456.712z"/>
	<path d="M275.376,61.266V30.5c0-4.142-3.358-7.5-7.5-7.5h-61.973c-4.142,0-7.5,3.358-7.5,7.5v30.766
		c0,6.948,5.653,12.601,12.601,12.601h51.771C269.723,73.868,275.376,68.215,275.376,61.266z M260.376,58.868h-46.973V38h46.973
		V58.868z"/>
</g>
<g>
</g>
<g>
</g>
<g>
</g>
<g>
</g>
<g>
</g>
<g>
</g>
<g>
</g>
<g>
</g>
<g>
</g>
<g>
</g>
<g>
</g>
<g>
</g>
<g>
</g>
<g>
</g>
<g>
</g>
</svg>
