<?xml version="1.0" encoding="iso-8859-1"?>
<!-- Generator: Adobe Illustrator 18.0.0, SVG Export Plug-In . SVG Version: 6.00 Build 0)  -->
<!DOCTYPE svg PUBLIC "-//W3C//DTD SVG 1.1//EN" "http://www.w3.org/Graphics/SVG/1.1/DTD/svg11.dtd">
<svg version="1.1" id="Capa_1" xmlns="http://www.w3.org/2000/svg" xmlns:xlink="http://www.w3.org/1999/xlink" x="0px" y="0px"
	 viewBox="0 0 469.667 469.667" style="enable-background:new 0 0 469.667 469.667;" xml:space="preserve">
<path d="M462.167,169.493h-43.474v-4.208c0-4.142-3.357-7.5-7.5-7.5h-54.479c-1.277-2.312-3.738-3.879-6.567-3.879h-53.988
	c-1.035-2.902-3.8-4.982-7.058-4.982h-89.803c-0.776-3.315-3.744-5.787-7.296-5.787H7.5c-4.143,0-7.5,3.358-7.5,7.5v52.715
	c0,4.142,3.357,7.5,7.5,7.5h143.846l-17.997,17.215h-24.812c-4.143,0-7.5,3.358-7.5,7.5v54.911c0,4.142,3.357,7.5,7.5,7.5h34.233
	v13.554h-6.777c-4.143,0-7.5,3.358-7.5,7.5s3.357,7.5,7.5,7.5h28.554c4.143,0,7.5-3.358,7.5-7.5s-3.357-7.5-7.5-7.5h-6.776v-13.554
	h34.232c4.143,0,7.5-3.358,7.5-7.5v-54.911c0-4.142-3.357-7.5-7.5-7.5h-36.952l17.997-17.215h18.955c3.552,0,6.52-2.472,7.296-5.787
	h82.303v20.984c0,4.142,3.357,7.5,7.5,7.5s7.5-3.358,7.5-7.5v-25.967h46.046v17.181c0,4.142,3.357,7.5,7.5,7.5s7.5-3.358,7.5-7.5
	v-21.06h46.046v17.181c0,4.142,3.357,7.5,7.5,7.5s7.5-3.358,7.5-7.5v-28.889h24.991v17.181c0,4.142,3.357,7.5,7.5,7.5
	s7.5-3.358,7.5-7.5v-17.181h3.482c4.143,0,7.5-3.358,7.5-7.5S466.31,169.493,462.167,169.493z M184.503,282.977h-26.732v-19.956
	c0-4.142-3.357-7.5-7.5-7.5s-7.5,3.358-7.5,7.5v19.956h-26.733v-39.911h68.466V282.977z M184.503,195.851H41v-37.715h143.503
	V195.851z M15,158.136h11v37.715H15V158.136z M199.503,163.923h82.099v26.141h-82.099V163.923z M296.602,168.906h46.046v16.175
	h-46.046V168.906z M357.647,172.785h46.046v8.417h-46.046V172.785z"/>
<g>
</g>
<g>
</g>
<g>
</g>
<g>
</g>
<g>
</g>
<g>
</g>
<g>
</g>
<g>
</g>
<g>
</g>
<g>
</g>
<g>
</g>
<g>
</g>
<g>
</g>
<g>
</g>
<g>
</g>
</svg>
