<?xml version="1.0" encoding="iso-8859-1"?>
<!-- Generator: Adobe Illustrator 18.0.0, SVG Export Plug-In . SVG Version: 6.00 Build 0)  -->
<!DOCTYPE svg PUBLIC "-//W3C//DTD SVG 1.1//EN" "http://www.w3.org/Graphics/SVG/1.1/DTD/svg11.dtd">
<svg version="1.1" id="Capa_1" xmlns="http://www.w3.org/2000/svg" xmlns:xlink="http://www.w3.org/1999/xlink" x="0px" y="0px"
	 viewBox="0 0 442.116 442.116" style="enable-background:new 0 0 442.116 442.116;" xml:space="preserve">
<path d="M441.11,402.253L227.553,32.362c-1.34-2.321-3.815-3.75-6.495-3.75s-5.155,1.429-6.495,3.75L1.006,402.253
	c-2.071,3.587-0.842,8.174,2.745,10.245c3.586,2.071,8.174,0.842,10.245-2.745l25.295-43.812v40.058c0,4.142,3.358,7.5,7.5,7.5
	h348.54c4.142,0,7.5-3.358,7.5-7.5v-40.047l25.289,43.801c1.389,2.406,3.91,3.751,6.502,3.751c1.272,0,2.562-0.324,3.743-1.006
	C441.953,410.427,443.182,405.84,441.11,402.253z M228.558,276.565l45.959,121.934h-45.959V276.565z M54.291,339.96L213.558,64.102
	v334.397h-27.697v-32.83c0-4.142-3.358-7.5-7.5-7.5s-7.5,3.358-7.5,7.5v32.83h-13v-12.83c0-4.142-3.358-7.5-7.5-7.5
	s-7.5,3.358-7.5,7.5v12.83h-27v-52.83c0-4.142-3.358-7.5-7.5-7.5s-7.5,3.358-7.5,7.5v52.83h-9v-12.83c0-4.142-3.358-7.5-7.5-7.5
	s-7.5,3.358-7.5,7.5v12.83h-22.57V339.96z M387.831,398.499h-27.97v-12.83c0-4.142-3.358-7.5-7.5-7.5s-7.5,3.358-7.5,7.5v12.83h-27
	v-32.83c0-4.142-3.358-7.5-7.5-7.5s-7.5,3.358-7.5,7.5v32.83h-12.314l-61.989-164.464V64.102l159.273,275.869V398.499z"/>
<g>
</g>
<g>
</g>
<g>
</g>
<g>
</g>
<g>
</g>
<g>
</g>
<g>
</g>
<g>
</g>
<g>
</g>
<g>
</g>
<g>
</g>
<g>
</g>
<g>
</g>
<g>
</g>
<g>
</g>
</svg>
