<?xml version="1.0" encoding="iso-8859-1"?>
<!-- Generator: Adobe Illustrator 18.0.0, SVG Export Plug-In . SVG Version: 6.00 Build 0)  -->
<!DOCTYPE svg PUBLIC "-//W3C//DTD SVG 1.1//EN" "http://www.w3.org/Graphics/SVG/1.1/DTD/svg11.dtd">
<svg version="1.1" id="Capa_1" xmlns="http://www.w3.org/2000/svg" xmlns:xlink="http://www.w3.org/1999/xlink" x="0px" y="0px"
	 viewBox="0 0 406.48 406.48" style="enable-background:new 0 0 406.48 406.48;" xml:space="preserve">
<g>
	<path d="M273.241,190.417c-4.143,0-7.5,3.358-7.5,7.5v153.064c0,4.142,3.357,7.5,7.5,7.5s7.5-3.358,7.5-7.5V197.917
		C280.741,193.774,277.383,190.417,273.241,190.417z"/>
	<path d="M273.241,150.057c-4.143,0-7.5,3.358-7.5,7.5v18.138c0,4.142,3.357,7.5,7.5,7.5s7.5-3.358,7.5-7.5v-18.138
		C280.741,153.415,277.383,150.057,273.241,150.057z"/>
	<path d="M315.324,114.98c0-12.958-10.542-23.5-23.5-23.5h-0.087V78.102c0-20.573-15.383-37.609-35.249-40.24V7.5
		c0-4.142-3.357-7.5-7.5-7.5h-91.495c-4.143,0-7.5,3.358-7.5,7.5v30.362c-19.865,2.631-35.248,19.667-35.248,40.24V91.48h-0.088
		c-12.958,0-23.5,10.542-23.5,23.5c0,8.19,4.214,15.41,10.584,19.618v249.212c0,12.5,10.17,22.67,22.67,22.67h157.66
		c12.5,0,22.67-10.17,22.67-22.67V134.598C311.111,130.39,315.324,123.17,315.324,114.98z M241.488,15v22.498h-76.495V15H241.488z
		 M129.745,78.102c0-14.118,11.485-25.604,25.604-25.604h95.784c14.118,0,25.604,11.486,25.604,25.604V91.48H129.745V78.102z
		 M114.657,106.48h177.167c4.687,0,8.5,3.813,8.5,8.5s-3.813,8.5-8.5,8.5H114.657c-4.687,0-8.5-3.813-8.5-8.5
		S109.97,106.48,114.657,106.48z M282.071,391.48h-157.66c-4.229,0-7.67-3.441-7.67-7.67V138.48h173v245.33
		C289.741,388.04,286.3,391.48,282.071,391.48z"/>
</g>
<g>
</g>
<g>
</g>
<g>
</g>
<g>
</g>
<g>
</g>
<g>
</g>
<g>
</g>
<g>
</g>
<g>
</g>
<g>
</g>
<g>
</g>
<g>
</g>
<g>
</g>
<g>
</g>
<g>
</g>
</svg>
