<?xml version="1.0" encoding="iso-8859-1"?>
<!-- Generator: Adobe Illustrator 19.0.0, SVG Export Plug-In . SVG Version: 6.00 Build 0)  -->
<svg version="1.1" id="Layer_1" xmlns="http://www.w3.org/2000/svg" xmlns:xlink="http://www.w3.org/1999/xlink" x="0px" y="0px"
	 viewBox="0 0 512 512" style="enable-background:new 0 0 512 512;" xml:space="preserve">
<g transform="translate(1 1)">
	<g>
		<g>
			<path d="M324.424,94.458h-43.757C276.219,41.203,231.251-1,176.898-1c-5.207,0-8.678,3.471-8.678,8.678V42.39
				c0,5.207,3.471,8.678,8.678,8.678c25.681,0,47.161,18.847,51.325,43.39h-42.647c-81.573,0-147.525,65.953-147.525,147.525
				c0,5.207,3.471,8.678,8.678,8.678h34.693c0.417,35.433,7.875,168.102,102.419,229.098c5.207,3.471,11.281,5.207,19.091,5.207
				c3.471,0,7.81,1.736,10.414,3.471l17.356,13.885C237.644,508.397,246.322,511,255,511s17.356-2.603,24.298-8.678l15.62-12.149
				c4.339-3.471,7.81-5.207,12.149-5.207c7.81,0,14.753-1.736,19.959-5.207c94.009-61.144,101.181-193.622,101.554-229.098h34.69
				c5.207,0,8.678-3.471,8.678-8.678C471.949,160.41,405.997,94.458,324.424,94.458z M184.708,33.712V16.356
				c41.654,4.339,73.763,37.315,78.102,78.102h-17.356C241.983,63.217,216.817,38.051,184.708,33.712z M318.349,465.007
				c-2.603,1.736-6.075,2.603-9.546,2.603h-0.868c-7.81,0-15.62,3.471-22.563,8.678l-16.488,13.017
				c-7.81,6.075-19.092,6.075-26.902,0l-17.356-13.885c-6.075-5.207-13.885-7.81-21.695-7.81c-4.339,0-7.81-0.868-10.414-2.603
				c-85.912-55.539-92.854-180.502-93.722-214.346h312.407C411.203,284.505,403.393,409.468,318.349,465.007z M445.915,233.305
				c0-5.207-3.471-8.678-8.678-8.678c-5.207,0-8.678,3.471-8.678,8.678h-34.712c0-5.207-3.471-8.678-8.678-8.678
				s-8.678,3.471-8.678,8.678H341.78c0-5.207-3.471-8.678-8.678-8.678s-8.678,3.471-8.678,8.678h-34.712
				c0-5.207-3.471-8.678-8.678-8.678s-8.678,3.471-8.678,8.678h-34.712c0-5.207-3.471-8.678-8.678-8.678
				c-5.207,0-8.678,3.471-8.678,8.678h-34.712c0-5.207-3.471-8.678-8.678-8.678s-8.678,3.471-8.678,8.678h-34.712
				c0-5.207-3.471-8.678-8.678-8.678c-5.207,0-8.678,3.471-8.678,8.678H81.441c0-5.207-3.471-8.678-8.678-8.678
				s-8.678,3.471-8.678,8.678h-8.678c1.031-16.089,5.059-31.39,11.512-45.374c1.485,1.265,3.483,1.984,5.844,1.984
				c5.207,0,8.678-3.471,8.678-8.678c0-4.364-2.445-7.5-6.3-8.404c4.429-6.986,9.507-13.526,15.147-19.538
				c-0.11,0.606-0.168,1.242-0.168,1.908c0,5.207,3.471,8.678,8.678,8.678c5.207,0,8.678-3.471,8.678-8.678
				s-3.471-8.678-8.678-8.678c-0.643,0-1.259,0.054-1.846,0.156c6.014-5.563,12.55-10.569,19.52-14.94
				c0.962,3.744,4.069,6.105,8.36,6.105c5.207,0,8.678-3.471,8.678-8.678c0-2.251-0.651-4.176-1.809-5.638
				c16.476-7.52,34.736-11.718,53.877-11.718h52.068h34.712h52.068c19.276,0,37.545,4.153,53.978,11.595
				c-1.22,1.476-1.91,3.446-1.91,5.761c0,5.207,3.471,8.678,8.678,8.678c4.37,0,7.508-2.451,8.407-6.315
				c7.128,4.445,13.793,9.554,19.904,15.244c-0.715-0.159-1.472-0.252-2.277-0.252c-5.207,0-8.678,3.471-8.678,8.678
				s3.471,8.678,8.678,8.678c5.207,0,8.678-3.471,8.678-8.678c0-0.818-0.095-1.588-0.26-2.314
				c5.751,6.113,10.916,12.777,15.402,19.907c-3.95,0.852-6.464,4.015-6.464,8.441c0,5.207,3.471,8.678,8.678,8.678
				c2.403,0,4.43-0.747,5.923-2.055c6.409,14.003,10.4,29.329,11.433,45.445H445.915z"/>
			<path d="M246.322,432.898c5.207,0,8.678-3.471,8.678-8.678s-3.471-8.678-8.678-8.678c-38.183,0-69.424-31.241-69.424-69.424
				c0-5.207-3.471-8.678-8.678-8.678s-8.678,3.471-8.678,8.678C159.542,393.847,198.593,432.898,246.322,432.898z"/>
			<path d="M176.898,120.492c-5.207,0-8.678,3.471-8.678,8.678s3.471,8.678,8.678,8.678s8.678-3.471,8.678-8.678
				S182.105,120.492,176.898,120.492z"/>
			<path d="M228.966,120.492c-5.207,0-8.678,3.471-8.678,8.678s3.471,8.678,8.678,8.678c5.207,0,8.678-3.471,8.678-8.678
				S234.173,120.492,228.966,120.492z"/>
			<path d="M281.034,120.492c-5.207,0-8.678,3.471-8.678,8.678s3.471,8.678,8.678,8.678s8.678-3.471,8.678-8.678
				S286.241,120.492,281.034,120.492z"/>
			<path d="M333.102,120.492c-5.207,0-8.678,3.471-8.678,8.678s3.471,8.678,8.678,8.678s8.678-3.471,8.678-8.678
				S338.308,120.492,333.102,120.492z"/>
			<path d="M124.831,172.559c-5.207,0-8.678,3.471-8.678,8.678s3.471,8.678,8.678,8.678c5.207,0,8.678-3.471,8.678-8.678
				S130.037,172.559,124.831,172.559z"/>
			<path d="M150.864,146.525c-5.207,0-8.678,3.471-8.678,8.678s3.471,8.678,8.678,8.678s8.678-3.471,8.678-8.678
				S156.071,146.525,150.864,146.525z"/>
			<path d="M176.898,172.559c-5.207,0-8.678,3.471-8.678,8.678s3.471,8.678,8.678,8.678s8.678-3.471,8.678-8.678
				S182.105,172.559,176.898,172.559z"/>
			<path d="M228.966,172.559c-5.207,0-8.678,3.471-8.678,8.678s3.471,8.678,8.678,8.678c5.207,0,8.678-3.471,8.678-8.678
				S234.173,172.559,228.966,172.559z"/>
			<path d="M202.932,146.525c-5.207,0-8.678,3.471-8.678,8.678s3.471,8.678,8.678,8.678s8.678-3.471,8.678-8.678
				S208.139,146.525,202.932,146.525z"/>
			<path d="M255,146.525c-5.207,0-8.678,3.471-8.678,8.678s3.471,8.678,8.678,8.678s8.678-3.471,8.678-8.678
				S260.207,146.525,255,146.525z"/>
			<path d="M281.034,172.559c-5.207,0-8.678,3.471-8.678,8.678s3.471,8.678,8.678,8.678s8.678-3.471,8.678-8.678
				S286.241,172.559,281.034,172.559z"/>
			<path d="M333.102,172.559c-5.207,0-8.678,3.471-8.678,8.678s3.471,8.678,8.678,8.678s8.678-3.471,8.678-8.678
				S338.308,172.559,333.102,172.559z"/>
			<path d="M307.068,146.525c-5.207,0-8.678,3.471-8.678,8.678s3.471,8.678,8.678,8.678s8.678-3.471,8.678-8.678
				S312.275,146.525,307.068,146.525z"/>
			<path d="M359.136,146.525c-5.207,0-8.678,3.471-8.678,8.678s3.471,8.678,8.678,8.678c5.207,0,8.678-3.471,8.678-8.678
				S364.342,146.525,359.136,146.525z"/>
			<path d="M385.169,172.559c-5.207,0-8.678,3.471-8.678,8.678s3.471,8.678,8.678,8.678s8.678-3.471,8.678-8.678
				S390.376,172.559,385.169,172.559z"/>
			<path d="M98.797,198.593c-5.207,0-8.678,3.471-8.678,8.678s3.471,8.678,8.678,8.678c5.207,0,8.678-3.471,8.678-8.678
				S104.003,198.593,98.797,198.593z"/>
			<path d="M150.864,198.593c-5.207,0-8.678,3.471-8.678,8.678s3.471,8.678,8.678,8.678s8.678-3.471,8.678-8.678
				S156.071,198.593,150.864,198.593z"/>
			<path d="M202.932,198.593c-5.207,0-8.678,3.471-8.678,8.678s3.471,8.678,8.678,8.678s8.678-3.471,8.678-8.678
				S208.139,198.593,202.932,198.593z"/>
			<path d="M255,198.593c-5.207,0-8.678,3.471-8.678,8.678s3.471,8.678,8.678,8.678s8.678-3.471,8.678-8.678
				S260.207,198.593,255,198.593z"/>
			<path d="M307.068,198.593c-5.207,0-8.678,3.471-8.678,8.678s3.471,8.678,8.678,8.678s8.678-3.471,8.678-8.678
				S312.275,198.593,307.068,198.593z"/>
			<path d="M359.136,198.593c-5.207,0-8.678,3.471-8.678,8.678s3.471,8.678,8.678,8.678c5.207,0,8.678-3.471,8.678-8.678
				S364.342,198.593,359.136,198.593z"/>
			<path d="M411.203,198.593c-5.207,0-8.678,3.471-8.678,8.678s3.471,8.678,8.678,8.678c5.207,0,8.678-3.471,8.678-8.678
				S416.41,198.593,411.203,198.593z"/>
		</g>
	</g>
</g>
<g>
</g>
<g>
</g>
<g>
</g>
<g>
</g>
<g>
</g>
<g>
</g>
<g>
</g>
<g>
</g>
<g>
</g>
<g>
</g>
<g>
</g>
<g>
</g>
<g>
</g>
<g>
</g>
<g>
</g>
</svg>
