<?xml version="1.0" encoding="iso-8859-1"?>
<!-- Generator: Adobe Illustrator 19.0.0, SVG Export Plug-In . SVG Version: 6.00 Build 0)  -->
<svg version="1.1" id="Layer_1" xmlns="http://www.w3.org/2000/svg" xmlns:xlink="http://www.w3.org/1999/xlink" x="0px" y="0px"
	 viewBox="0 0 512 512" style="enable-background:new 0 0 512 512;" xml:space="preserve">
<g transform="translate(1 1)">
	<g>
		<g>
			<path d="M351.427,348.867H158.573c-12.8,0-23.04,10.24-23.04,23.04v60.587c0,19.627,16.213,35.84,35.84,35.84h167.253
				c19.627,0,35.84-16.213,35.84-35.84v-60.587C374.467,359.107,364.227,348.867,351.427,348.867z M158.573,365.933h192
				c3.413,0,5.973,2.56,5.973,5.973v19.627H152.6v-19.627C152.6,368.493,155.16,365.933,158.573,365.933z M337.773,451.267h-166.4
				c-10.24,0-18.773-8.533-18.773-18.773V408.6h42.667v17.067c0,5.12,3.413,8.533,8.533,8.533c5.12,0,8.533-3.413,8.533-8.533V408.6
				h144.213v23.893C356.547,442.733,348.013,451.267,337.773,451.267z"/>
			<path d="M195.267,237.933c0-5.12-3.413-8.533-8.533-8.533s-8.533,3.413-8.533,8.533s3.413,8.533,8.533,8.533
				S195.267,243.053,195.267,237.933z"/>
			<path d="M331.8,237.933c0-5.12-3.413-8.533-8.533-8.533s-8.533,3.413-8.533,8.533s3.413,8.533,8.533,8.533
				S331.8,243.053,331.8,237.933z"/>
			<path d="M208.92,161.133h83.627c7.68,0,13.653-5.973,13.653-13.653v-23.893c0-7.68-5.973-13.653-13.653-13.653H208.92
				c-7.68,0-13.653,5.973-13.653,13.653v23.893C195.267,155.16,201.24,161.133,208.92,161.133z M212.333,127h76.8v17.067h-76.8V127z
				"/>
			<path d="M493.08,237.933h-23.893c-10.24,0-17.92,7.68-17.92,17.92v16.213H416.28V161.133h22.187
				c21.333,0,38.4-17.067,38.4-37.547V37.4C476.867,16.067,459.8-1,439.32-1H71.533c-21.333,0-38.4,17.067-38.4,38.4v85.333
				c0,21.333,17.067,38.4,38.4,38.4h21.333v86.063c-9.726,1.65-18.541,6.059-25.6,12.399V229.4c0-5.12-3.413-8.533-8.533-8.533
				S50.2,224.28,50.2,229.4v26.256c-10.797-10.968-25.858-17.722-42.667-17.722c-5.12,0-8.533,3.413-8.533,8.533
				S2.413,255,7.533,255c20.963,0,37.981,14.452,41.841,34.133H16.067v51.2H-1v86.187c0,28.16,22.187,50.347,50.347,50.347h43.616
				C94.25,496.12,109.942,511,129.56,511h250.88c19.618,0,35.31-14.88,35.847-34.133h44.366c28.16,0,50.347-22.187,50.347-50.347
				V357.4v-17.067v-84.48C511,245.613,503.32,237.933,493.08,237.933z M417.133,289.133h34.133v51.2h-34.133V289.133z
				 M152.6,144.067v-46.08c0-2.56,1.707-5.12,5.12-5.12c0,0,4.432,0,11.947,0c2.583,0,5.525,0,8.783,0h161.883h11.095
				c2.56,0.001,5.119,1.707,5.119,5.12v46.08v28.16c0,2.56-1.707,5.12-5.12,5.12H157.72c-2.56,0-5.12-1.707-5.12-5.12v-11.093
				V144.067z M323.267,75.8H186.733V59.587c0-5.12,4.267-9.387,9.387-9.387h117.76c5.12,0,9.387,4.267,9.387,9.387V75.8z
				 M169.667,195.267H203.8v74.24l-17.067,23.04l-17.067-23.04V195.267z M306.2,195.267h34.133v74.24l-17.067,23.04l-17.067-23.04
				V195.267z M351.427,75.8h-11.093V59.587c0-14.507-11.947-26.453-26.453-26.453H196.12c-14.507,0-26.453,11.947-26.453,26.453
				V75.8H157.72c-11.947,0-22.187,10.24-22.187,22.187v0.853v45.227h-25.6v-128h290.133v128h-25.6h-0.853v-46.08
				C373.613,86.04,364.227,75.8,351.427,75.8z M459.8,37.4v85.333c0,11.947-9.387,21.333-21.333,21.333h-21.333v-128h21.333
				C450.413,16.067,459.8,25.453,459.8,37.4z M50.2,123.587V37.4c0-11.947,9.387-21.333,21.333-21.333h21.333v128H71.533
				C59.587,144.067,50.2,134.68,50.2,123.587z M92.867,264.621v24.512H68.354C71.459,277.184,80.917,267.726,92.867,264.621z
				 M33.133,306.2h59.733v34.133H33.133V306.2z M16.067,426.52V357.4h76.8v102.4h-43.52C30.573,459.8,16.067,445.293,16.067,426.52z
				 M399.213,474.307c0,10.24-8.533,19.627-19.627,19.627H129.56c-10.24,0-19.627-8.533-19.627-19.627V357.4v-17.067v-51.2v-128
				h25.6v11.947c0,10.286,6.962,19.301,17.067,21.61v77.377c0,1.707,0.853,3.413,1.707,5.12l25.6,34.133
				c1.707,2.56,4.267,3.413,6.827,3.413s5.12-0.853,6.827-3.413l25.6-34.133c0.853-1.707,1.707-3.413,1.707-5.12v-76.8h68.267v76.8
				c0,1.707,0.853,3.413,1.707,5.12l25.6,34.133c1.707,2.56,4.267,3.413,6.827,3.413s5.12-0.853,6.827-3.413l25.6-34.133
				c0.853-1.707,1.707-3.413,1.707-5.12v-77.444c9.593-2.424,16.941-11.476,16.213-22.396v-11.093h25.6V474.307z M493.933,426.52
				c0,18.773-15.36,33.28-33.28,33.28h-43.52V357.4h34.133h17.067h25.6V426.52z M468.333,340.333v-68.267v-16.213
				c0-0.853,0-0.853,0.853-0.853h23.893c0.853,0,0.853,0,0.853,0.853v84.48H468.333z"/>
		</g>
	</g>
</g>
<g>
</g>
<g>
</g>
<g>
</g>
<g>
</g>
<g>
</g>
<g>
</g>
<g>
</g>
<g>
</g>
<g>
</g>
<g>
</g>
<g>
</g>
<g>
</g>
<g>
</g>
<g>
</g>
<g>
</g>
</svg>
