<?xml version="1.0" encoding="iso-8859-1"?>
<!-- Generator: Adobe Illustrator 19.0.0, SVG Export Plug-In . SVG Version: 6.00 Build 0)  -->
<svg version="1.1" id="Layer_1" xmlns="http://www.w3.org/2000/svg" xmlns:xlink="http://www.w3.org/1999/xlink" x="0px" y="0px"
	 viewBox="0 0 512 512" style="enable-background:new 0 0 512 512;" xml:space="preserve">
<g transform="translate(1 1)">
	<g>
		<g>
			<path d="M502.467,357.4h-25.6v-34.133v-85.333V191c0-92.16-74.24-166.4-166.4-166.4c-7.749,0-15.512,0.711-24.539,2.119
				c-8.678-1.387-17.581-2.119-26.661-2.119c-7.749,0-15.512,0.711-24.539,2.119c-8.678-1.387-17.581-2.119-26.661-2.119
				c-92.16,0-166.4,74.24-166.4,166.4v149.333H7.533c-5.12,0-8.533,3.413-8.533,8.533v99.84c0,20.48,16.213,36.693,36.693,36.693
				h57.173c0.809,0,1.569-0.117,2.286-0.317c2.052,0.208,4.136,0.317,6.247,0.317h315.733h26.453
				c37.547,0,67.413-29.867,67.413-67.413v-52.053C511,360.813,507.587,357.4,502.467,357.4z M288.431,45.152
				C357.458,58.452,408.6,120.257,408.6,191v38.4h-34.133V191c0-1.832-0.04-3.655-0.098-5.472c-0.009-0.261-0.019-0.521-0.03-0.782
				C372.128,124.422,338.085,72.481,288.431,45.152z M459.8,314.733h-42.667h-42.667v-68.267h42.667H459.8V314.733z M374.606,429.04
				c-0.035-0.45-0.069-0.9-0.09-1.354c-0.03-0.669-0.05-1.342-0.05-2.02V331.8H408.6v34.133V467.48
				c-18.372-3.994-32.256-19.204-33.956-37.93C374.629,429.381,374.619,429.21,374.606,429.04z M425.667,331.8H459.8v25.6h-34.133
				V331.8z M459.8,191v38.4h-34.133V191c0-1.832-0.04-3.655-0.098-5.472c-0.009-0.261-0.019-0.521-0.03-0.782
				c-2.222-60.622-36.587-112.783-86.64-140.003C407.485,57.844,459.8,118.607,459.8,191z M35.693,468.333
				c-11.093,0-19.627-8.533-19.627-19.627V357.4h25.6v68.267c0,16.809,6.755,31.87,17.722,42.667H35.693z M101.4,468.333
				c-1.702,0-3.374-0.106-5.02-0.291c-0.563-0.24-1.163-0.433-1.807-0.562c-19.824-3.304-34.849-20.2-35.792-39.852
				c-0.028-0.65-0.048-1.303-0.048-1.961v-76.8V191c0-81.92,67.413-149.333,149.333-149.333c7.168,0,14.222,0.527,21.132,1.524
				c0.815,0.476,1.738,0.831,2.761,1.036c67.126,10.389,118.535,66.427,124.796,133.075c0.017,0.185,0.034,0.37,0.05,0.555
				c0.08,0.889,0.152,1.779,0.216,2.672c0.028,0.402,0.053,0.806,0.078,1.209c0.046,0.724,0.09,1.448,0.126,2.175
				c0.03,0.635,0.051,1.273,0.074,1.91c0.019,0.529,0.042,1.057,0.055,1.587c0.029,1.194,0.046,2.391,0.046,3.592v46.933v85.333
				v102.4c0,1.045,0.026,2.083,0.078,3.113c0.044,0.89,0.116,1.769,0.198,2.645c0.013,0.135,0.017,0.272,0.031,0.406
				c0.082,0.824,0.191,1.636,0.306,2.446c0.027,0.193,0.045,0.389,0.074,0.581c0.087,0.573,0.197,1.137,0.3,1.703
				c0.08,0.444,0.15,0.892,0.24,1.333c0.048,0.235,0.108,0.464,0.159,0.698c2.496,11.553,8.272,21.801,16.338,29.742H101.4z
				 M493.933,417.987c0,28.16-23.04,50.347-50.347,50.347h-17.92v-93.867h42.667h25.6V417.987z"/>
			<path d="M300.227,314.733h-184.32c-12.8,0-23.04,10.24-23.04,23.04v60.587c0,19.627,16.213,35.84,35.84,35.84h158.72
				c19.627,0,35.84-16.213,35.84-35.84v-60.587C323.267,324.973,313.027,314.733,300.227,314.733z M115.907,331.8h183.467
				c3.413,0,5.973,2.56,5.973,5.973V357.4H109.933v-19.627C109.933,334.36,112.493,331.8,115.907,331.8z M286.573,417.133H128.707
				c-10.24,0-18.773-8.533-18.773-18.773v-23.893H152.6v17.067c0,5.12,3.413,8.533,8.533,8.533s8.533-3.413,8.533-8.533v-17.067
				h135.68v23.893C305.347,408.6,296.813,417.133,286.573,417.133z"/>
			<path d="M197.827,235.373c1.707,1.707,3.413,2.56,5.973,2.56s4.267-0.853,5.973-2.56l59.733-59.733
				c3.413-3.413,3.413-8.533,0-11.947l-59.733-59.733c-3.413-3.413-8.533-3.413-11.947,0l-59.733,59.733
				c-3.413,3.413-3.413,8.533,0,11.947L197.827,235.373z M203.8,121.88l47.787,47.787L203.8,217.453l-47.787-47.787L203.8,121.88z"
				/>
			<path d="M229.4,169.667c0-5.12-3.413-8.533-8.533-8.533h-34.133c-5.12,0-8.533,3.413-8.533,8.533s3.413,8.533,8.533,8.533h34.133
				C225.987,178.2,229.4,174.787,229.4,169.667z"/>
		</g>
	</g>
</g>
<g>
</g>
<g>
</g>
<g>
</g>
<g>
</g>
<g>
</g>
<g>
</g>
<g>
</g>
<g>
</g>
<g>
</g>
<g>
</g>
<g>
</g>
<g>
</g>
<g>
</g>
<g>
</g>
<g>
</g>
</svg>
