<?xml version="1.0" encoding="iso-8859-1"?>
<!-- Generator: Adobe Illustrator 19.0.0, SVG Export Plug-In . SVG Version: 6.00 Build 0)  -->
<svg version="1.1" id="Layer_1" xmlns="http://www.w3.org/2000/svg" xmlns:xlink="http://www.w3.org/1999/xlink" x="0px" y="0px"
	 viewBox="0 0 512 512" style="enable-background:new 0 0 512 512;" xml:space="preserve">
<g transform="translate(1)">
	<g>
		<g>
			<path d="M434.2,477.867c5.12,0,8.533-3.413,8.533-8.533s-3.413-8.533-8.533-8.533s-8.533,3.413-8.533,8.533
				S429.08,477.867,434.2,477.867z"/>
			<path d="M487.107,196.267H22.893C10.093,196.267-1,207.36-1,220.16v44.373v17.92c0,51.2,41.813,93.013,93.013,93.013h21.333
				l-26.324,52.648c-3.566-0.94-7.324-1.448-11.223-1.448c-23.893,0-42.667,18.773-42.667,42.667
				C33.133,493.227,51.907,512,75.8,512c23.893,0,42.667-18.773,42.667-42.667c0-13.899-6.36-26.057-16.378-33.803l8.698-17.397
				h288.427l8.698,17.397c-10.018,7.746-16.378,19.904-16.378,33.803c0,23.893,18.773,42.667,42.667,42.667
				s42.667-18.773,42.667-42.667c0-23.893-18.773-42.667-42.667-42.667c-3.898,0-7.656,0.508-11.223,1.448l-26.324-52.648h21.333
				c51.2,0,93.013-41.813,93.013-93.013v-17.92V220.16C511,207.36,499.907,196.267,487.107,196.267z M75.8,494.933
				c-14.507,0-25.6-11.093-25.6-25.6c0-14.507,11.093-25.6,25.6-25.6s25.6,11.093,25.6,25.6
				C101.4,483.84,90.307,494.933,75.8,494.933z M459.8,469.333c0,14.507-11.093,25.6-25.6,25.6c-14.507,0-25.6-11.093-25.6-25.6
				c0-14.507,11.093-25.6,25.6-25.6C448.707,443.733,459.8,454.827,459.8,469.333z M16.067,220.16c0-3.413,3.413-6.827,6.827-6.827
				h464.213c3.413,0,6.827,3.413,6.827,6.827v27.307H16.067V220.16z M390.68,401.067H119.32l12.8-25.6h245.76L390.68,401.067z
				 M493.933,282.453c0,41.813-34.133,75.947-75.947,75.947H92.013c-41.813,0-75.947-34.133-75.947-75.947v-17.92h477.867V282.453z"
				/>
			<path d="M33.133,179.2c5.12,0,8.533-3.413,8.533-8.533v-8.533c0-5.12-3.413-8.533-8.533-8.533c-5.12,0-8.533,3.413-8.533,8.533
				v8.533C24.6,175.787,28.013,179.2,33.133,179.2z"/>
			<path d="M58.733,162.133v8.533c0,5.12,3.413,8.533,8.533,8.533s8.533-3.413,8.533-8.533v-8.533c0-5.12-3.413-8.533-8.533-8.533
				S58.733,157.013,58.733,162.133z"/>
			<path d="M92.867,162.133v8.533c0,5.12,3.413,8.533,8.533,8.533s8.533-3.413,8.533-8.533v-8.533c0-5.12-3.413-8.533-8.533-8.533
				S92.867,157.013,92.867,162.133z"/>
			<path d="M127,162.133v8.533c0,5.12,3.413,8.533,8.533,8.533s8.533-3.413,8.533-8.533v-8.533c0-5.12-3.413-8.533-8.533-8.533
				S127,157.013,127,162.133z"/>
			<path d="M161.133,162.133v8.533c0,5.12,3.413,8.533,8.533,8.533s8.533-3.413,8.533-8.533v-8.533c0-5.12-3.413-8.533-8.533-8.533
				S161.133,157.013,161.133,162.133z"/>
			<path d="M195.267,162.133v8.533c0,5.12,3.413,8.533,8.533,8.533c5.12,0,8.533-3.413,8.533-8.533v-8.533
				c0-5.12-3.413-8.533-8.533-8.533C198.68,153.6,195.267,157.013,195.267,162.133z"/>
			<path d="M229.4,170.667c0,5.12,3.413,8.533,8.533,8.533s8.533-3.413,8.533-8.533v-8.533c0-5.12-3.413-8.533-8.533-8.533
				s-8.533,3.413-8.533,8.533V170.667z"/>
			<path d="M272.067,179.2c5.12,0,8.533-3.413,8.533-8.533v-8.533c0-5.12-3.413-8.533-8.533-8.533c-5.12,0-8.533,3.413-8.533,8.533
				v8.533C263.533,175.787,266.947,179.2,272.067,179.2z"/>
			<path d="M297.667,162.133v8.533c0,5.12,3.413,8.533,8.533,8.533s8.533-3.413,8.533-8.533v-8.533c0-5.12-3.413-8.533-8.533-8.533
				S297.667,157.013,297.667,162.133z"/>
			<path d="M331.8,162.133v8.533c0,5.12,3.413,8.533,8.533,8.533c5.12,0,8.533-3.413,8.533-8.533v-8.533
				c0-5.12-3.413-8.533-8.533-8.533C335.213,153.6,331.8,157.013,331.8,162.133z"/>
			<path d="M365.933,162.133v8.533c0,5.12,3.413,8.533,8.533,8.533s8.533-3.413,8.533-8.533v-8.533c0-5.12-3.413-8.533-8.533-8.533
				S365.933,157.013,365.933,162.133z"/>
			<path d="M400.067,162.133v8.533c0,5.12,3.413,8.533,8.533,8.533s8.533-3.413,8.533-8.533v-8.533c0-5.12-3.413-8.533-8.533-8.533
				S400.067,157.013,400.067,162.133z"/>
			<path d="M434.2,162.133v8.533c0,5.12,3.413,8.533,8.533,8.533s8.533-3.413,8.533-8.533v-8.533c0-5.12-3.413-8.533-8.533-8.533
				S434.2,157.013,434.2,162.133z"/>
			<path d="M468.333,170.667c0,5.12,3.413,8.533,8.533,8.533s8.533-3.413,8.533-8.533v-8.533c0-5.12-3.413-8.533-8.533-8.533
				s-8.533,3.413-8.533,8.533V170.667z"/>
			<path d="M75.8,136.533h119.467c18.773,0,34.133-15.36,34.133-34.133c0-18.773-15.36-34.133-34.133-34.133H75.8
				c-18.773,0-34.133,15.36-34.133,34.133C41.667,121.173,57.027,136.533,75.8,136.533z M75.8,85.333h119.467
				c9.387,0,17.067,7.68,17.067,17.067c0,9.387-7.68,17.067-17.067,17.067H75.8c-9.387,0-17.067-7.68-17.067-17.067
				C58.733,93.013,66.413,85.333,75.8,85.333z"/>
			<path d="M314.733,136.533H434.2c18.773,0,34.133-15.36,34.133-34.133c0-18.773-15.36-34.133-34.133-34.133H314.733
				c-18.773,0-34.133,15.36-34.133,34.133C280.6,121.173,295.96,136.533,314.733,136.533z M314.733,85.333H434.2
				c9.387,0,17.067,7.68,17.067,17.067c0,9.387-7.68,17.067-17.067,17.067H314.733c-9.387,0-17.067-7.68-17.067-17.067
				C297.667,93.013,305.347,85.333,314.733,85.333z"/>
			<path d="M135.533,51.2c2.56,0,4.267-0.853,5.973-2.56s2.56-3.413,2.56-5.973s-0.853-4.267-2.56-5.973
				c-2.56-3.413-8.533-3.413-11.947,0c-1.707,1.707-2.56,3.413-2.56,5.973s0.853,4.267,2.56,5.973S132.973,51.2,135.533,51.2z"/>
			<path d="M169.667,51.2c5.12,0,8.533-3.413,8.533-8.533V8.533c0-5.12-3.413-8.533-8.533-8.533s-8.533,3.413-8.533,8.533v34.133
				C161.133,47.787,164.547,51.2,169.667,51.2z"/>
			<path d="M101.4,51.2c5.12,0,8.533-3.413,8.533-8.533V8.533c0-5.12-3.413-8.533-8.533-8.533s-8.533,3.413-8.533,8.533v34.133
				C92.867,47.787,96.28,51.2,101.4,51.2z"/>
			<path d="M135.533,25.6c5.12,0,8.533-3.413,8.533-8.533V8.533c0-5.12-3.413-8.533-8.533-8.533S127,3.413,127,8.533v8.533
				C127,22.187,130.413,25.6,135.533,25.6z"/>
			<path d="M371.053,16.213c0.853,0.853,2.56,0.853,3.413,0.853c2.56,0,4.267-0.853,5.973-2.56c0.853-0.853,1.707-1.707,1.707-2.56
				C383,11.093,383,9.387,383,8.533c0-2.56-0.853-4.267-2.56-5.973c-3.413-3.413-8.533-3.413-11.947,0
				c-0.853,0.853-1.707,1.707-1.707,2.56c-0.853,0.853-0.853,2.56-0.853,3.413c0,2.56,0.853,4.267,2.56,5.973
				C369.347,15.36,370.2,16.213,371.053,16.213z"/>
			<path d="M340.333,51.2c5.12,0,8.533-3.413,8.533-8.533V8.533c0-5.12-3.413-8.533-8.533-8.533c-5.12,0-8.533,3.413-8.533,8.533
				v34.133C331.8,47.787,335.213,51.2,340.333,51.2z"/>
			<path d="M408.6,51.2c5.12,0,8.533-3.413,8.533-8.533V8.533c0-5.12-3.413-8.533-8.533-8.533s-8.533,3.413-8.533,8.533v34.133
				C400.067,47.787,403.48,51.2,408.6,51.2z"/>
			<path d="M374.467,51.2c5.12,0,8.533-3.413,8.533-8.533v-8.533c0-5.12-3.413-8.533-8.533-8.533s-8.533,3.413-8.533,8.533v8.533
				C365.933,47.787,369.347,51.2,374.467,51.2z"/>
			<path d="M75.8,460.8c-5.12,0-8.533,3.413-8.533,8.533s3.413,8.533,8.533,8.533s8.533-3.413,8.533-8.533S80.92,460.8,75.8,460.8z"
				/>
		</g>
	</g>
</g>
<g>
</g>
<g>
</g>
<g>
</g>
<g>
</g>
<g>
</g>
<g>
</g>
<g>
</g>
<g>
</g>
<g>
</g>
<g>
</g>
<g>
</g>
<g>
</g>
<g>
</g>
<g>
</g>
<g>
</g>
</svg>
