<?xml version="1.0" encoding="iso-8859-1"?>
<!-- Generator: Adobe Illustrator 19.0.0, SVG Export Plug-In . SVG Version: 6.00 Build 0)  -->
<svg version="1.1" id="Layer_1" xmlns="http://www.w3.org/2000/svg" xmlns:xlink="http://www.w3.org/1999/xlink" x="0px" y="0px"
	 viewBox="0 0 512.853 512.853" style="enable-background:new 0 0 512.853 512.853;" xml:space="preserve">
<g transform="translate(1 1)">
	<g>
		<g>
			<path d="M476.867,339.929v-41.835h5.12c16.213,0,29.013-12.8,29.013-29.013v-61.44c0-16.213-12.8-29.013-29.013-29.013h-5.12
				v-25.6h5.12c16.213,0,29.013-12.8,29.013-29.013v-61.44c0-16.213-12.8-29.013-29.013-29.013h-5.12V23.32
				c0-12.8-11.093-23.893-23.893-23.893h-20.48c-12.8,0-23.893,11.093-23.893,23.893v10.24H101.4V23.32
				c0-12.8-11.093-23.893-23.893-23.893h-20.48c-12.8,0-23.893,11.093-23.893,23.893v10.24h-5.12C11.8,33.56-1,46.36-1,62.573v61.44
				c0,16.213,12.8,29.013,29.013,29.013h5.12v25.6h-5.12C11.8,178.627-1,191.427-1,207.64v61.44c0,16.213,12.8,29.013,29.013,29.013
				h5.12v41.857C14.283,340.858-1,356.692-1,375.747v14.507c0,19.055,15.283,34.889,34.133,35.796v61.484
				c0,12.8,11.093,23.893,23.893,23.893h20.48c12.8,0,23.893-11.093,23.893-23.893v-61.44h307.2v61.44
				c0,12.8,11.093,23.893,23.893,23.893h20.48c12.8,0,23.893-11.093,23.893-23.893v-61.484
				c18.852-0.907,34.158-16.741,34.987-35.796v-14.507C511.853,356.406,496.107,340.392,476.867,339.929z M101.4,339.907v-41.813
				h307.2v41.813H101.4z M459.8,339.053h-34.133v-40.96H459.8V339.053z M459.8,178.627h-34.133v-25.6H459.8V178.627z M408.6,178.627
				H101.4v-25.6h307.2V178.627z M425.667,23.32c0-3.413,3.413-6.827,6.827-6.827h20.48c3.413,0,6.827,3.413,6.827,6.827v10.24
				h-34.133V23.32z M50.2,23.32c0-3.413,3.413-6.827,6.827-6.827h20.48c3.413,0,6.827,3.413,6.827,6.827v10.24H50.2V23.32z
				 M28.013,135.96c-6.827,0-11.947-5.12-11.947-11.947v-61.44c0-6.827,5.12-11.947,11.947-11.947h5.12H101.4h307.2h68.267h5.12
				c6.827,0,11.947,5.12,11.947,11.947v61.44c0,6.827-5.12,11.947-11.947,11.947h-5.12H408.6H101.4H33.133H28.013z M50.2,153.027
				h34.133v25.6H50.2V153.027z M28.013,281.027c-6.827,0-11.947-5.12-11.947-11.947v-61.44c0-6.827,5.12-11.947,11.947-11.947
				c0,0,1.782,0,5.12,0c10.241,0,35.148,0,68.267,0c84.55,0,222.65,0,307.2,0c7.553,0,14.688,0,21.31,0c31.877,0,52.077,0,52.077,0
				c6.827,0,11.947,5.12,11.947,11.947v61.44c0,6.827-5.12,11.947-11.947,11.947h-5.12H408.6H101.4H33.133H28.013z M84.333,298.093
				V338.2H50.2v-40.107H84.333z M84.333,487.533c0,3.413-3.413,6.827-6.827,6.827h-20.48c-3.413,0-6.827-3.413-6.827-6.827v-61.44
				h34.133V487.533z M459.8,487.533c0,3.413-3.413,6.827-6.827,6.827h-20.48c-3.413,0-6.827-3.413-6.827-6.827v-61.44H459.8V487.533
				z M494.787,390.253c0,10.24-8.533,18.773-18.773,18.773H408.6H101.4H34.84c-10.24,0-18.773-8.533-18.773-17.92V376.6
				c0-10.24,8.533-19.627,18.773-19.627h441.173c10.24,0,18.773,8.533,18.773,18.773V390.253z"/>
			<path d="M169.667,93.293c0-5.12-3.413-8.533-8.533-8.533H92.867c-5.12,0-8.533,3.413-8.533,8.533c0,5.12,3.413,8.533,8.533,8.533
				h68.267C166.253,101.827,169.667,98.413,169.667,93.293z"/>
			<path d="M246.467,101.827h42.667c5.12,0,8.533-3.413,8.533-8.533c0-5.12-3.413-8.533-8.533-8.533h-42.667
				c-5.12,0-8.533,3.413-8.533,8.533C237.933,98.413,241.347,101.827,246.467,101.827z"/>
			<path d="M331.8,101.827h85.333c5.12,0,8.533-3.413,8.533-8.533c0-5.12-3.413-8.533-8.533-8.533H331.8
				c-5.12,0-8.533,3.413-8.533,8.533C323.267,98.413,326.68,101.827,331.8,101.827z"/>
			<path d="M203.8,101.827c5.12,0,8.533-3.413,8.533-8.533c0-5.12-3.413-8.533-8.533-8.533c-5.12,0-8.533,3.413-8.533,8.533
				C195.267,98.413,198.68,101.827,203.8,101.827z"/>
			<path d="M348.867,246.893h68.267c5.12,0,8.533-3.413,8.533-8.533s-3.413-8.533-8.533-8.533h-68.267
				c-5.12,0-8.533,3.413-8.533,8.533S343.747,246.893,348.867,246.893z"/>
			<path d="M203.8,246.893h59.733c5.12,0,8.533-3.413,8.533-8.533s-3.413-8.533-8.533-8.533H203.8c-5.12,0-8.533,3.413-8.533,8.533
				S198.68,246.893,203.8,246.893z"/>
			<path d="M127,238.36c0-5.12-3.413-8.533-8.533-8.533h-25.6c-5.12,0-8.533,3.413-8.533,8.533s3.413,8.533,8.533,8.533h25.6
				C123.587,246.893,127,243.48,127,238.36z"/>
			<path d="M306.2,246.893c5.12,0,8.533-3.413,8.533-8.533s-3.413-8.533-8.533-8.533s-8.533,3.413-8.533,8.533
				S301.08,246.893,306.2,246.893z"/>
			<path d="M161.133,246.893c5.12,0,8.533-3.413,8.533-8.533s-3.413-8.533-8.533-8.533s-8.533,3.413-8.533,8.533
				S156.013,246.893,161.133,246.893z"/>
			<path d="M135.533,374.893H92.867c-5.12,0-8.533,3.413-8.533,8.533s3.413,8.533,8.533,8.533h42.667
				c5.12,0,8.533-3.413,8.533-8.533S140.653,374.893,135.533,374.893z"/>
			<path d="M229.4,374.893h-51.2c-5.12,0-8.533,3.413-8.533,8.533s3.413,8.533,8.533,8.533h51.2c5.12,0,8.533-3.413,8.533-8.533
				S234.52,374.893,229.4,374.893z"/>
			<path d="M374.467,374.893h-102.4c-5.12,0-8.533,3.413-8.533,8.533s3.413,8.533,8.533,8.533h102.4c5.12,0,8.533-3.413,8.533-8.533
				S379.587,374.893,374.467,374.893z"/>
			<path d="M414.573,374.893c-4.267,1.707-6.827,6.827-5.12,11.093c0.853,4.267,5.973,6.827,11.093,5.12
				c4.267-1.707,6.827-6.827,5.12-11.093C423.96,375.747,418.84,373.187,414.573,374.893z"/>
		</g>
	</g>
</g>
<g>
</g>
<g>
</g>
<g>
</g>
<g>
</g>
<g>
</g>
<g>
</g>
<g>
</g>
<g>
</g>
<g>
</g>
<g>
</g>
<g>
</g>
<g>
</g>
<g>
</g>
<g>
</g>
<g>
</g>
</svg>
