<?xml version="1.0" encoding="iso-8859-1"?>
<!-- Generator: Adobe Illustrator 19.0.0, SVG Export Plug-In . SVG Version: 6.00 Build 0)  -->
<svg version="1.1" id="Layer_1" xmlns="http://www.w3.org/2000/svg" xmlns:xlink="http://www.w3.org/1999/xlink" x="0px" y="0px"
	 viewBox="0 0 512.222 512.222" style="enable-background:new 0 0 512.222 512.222;" xml:space="preserve">
<g transform="translate(1 1)">
	<g>
		<g>
			<path d="M502.467,64.817l-35.84-52.907c-0.853-2.56-4.267-4.267-6.827-4.267s-5.973,1.707-7.68,4.267l-34.987,53.76
				c-13.653,20.48-11.093,47.787,5.973,64.853c0,0,12.8,13.653,35.84,13.653c0.853,0,2.56,0,4.267,0
				c7.68,0,20.48-1.707,33.28-14.507C513.56,112.604,516.12,85.297,502.467,64.817z M483.693,118.577
				c-11.093,10.24-23.04,8.533-23.04,8.533c-0.853,0-0.853,0-1.707,0c-15.36,0-23.04-7.68-23.893-8.533
				c-11.093-11.947-12.8-30.72-3.413-44.373l28.16-42.667l27.307,43.52C496.493,88.711,494.787,107.484,483.693,118.577z"/>
			<path d="M390.761,197.03l4.186-4.212c5.12-5.12,7.68-11.947,7.68-19.627c0-7.68-2.56-14.507-7.68-19.627l-21.333-21.333
				c-10.24-10.24-28.16-10.24-38.4,0l-4.369,4.369c-10.131-7.083-18.522-11.836-23.791-14.511v-10.339
				c0-16.384-11.302-30.382-26.453-34.562v-9.811h8.533c5.12,0,8.533-3.413,8.533-8.533s-3.413-8.533-8.533-8.533H280.6v-8.533
				h8.533c5.12,0,8.533-3.413,8.533-8.533c0-5.12-3.413-8.533-8.533-8.533H280.6v-9.387c0-9.387-7.68-16.213-16.213-16.213H160.28
				c-9.387,0-16.213,7.68-16.213,16.213v9.387h-8.533c-5.12,0-8.533,3.413-8.533,8.533c0,5.12,3.413,8.533,8.533,8.533h8.533v8.533
				h-8.533c-5.12,0-8.533,3.413-8.533,8.533s3.413,8.533,8.533,8.533h8.533v10.057c-14.72,4.462-25.6,18.241-25.6,34.317v9.91
				c-5.51,2.739-15.04,8.072-26.644,16.353l-4.076-4.076c-10.24-11.093-27.307-11.093-38.4,0l-21.333,21.333
				c-11.093,10.24-11.093,27.307,0,38.4l4.872,4.872C10.296,232.792-1,271.559-1,314.844c0,44.345,12.195,84.117,35.134,119.32
				l-6.12,6.12c-5.12,5.12-7.68,11.947-7.68,19.627c0,7.68,2.56,14.507,7.68,19.627l21.333,21.333
				c5.12,5.12,11.947,7.68,19.627,7.68s14.507-2.56,19.627-7.68l6.616-6.616c16.194,10.666,27.617,16.002,28.371,16.002l1.707,0.853
				h174.08l2.56-0.853c0,0,11.673-5.189,27.103-15.564l6.177,6.177c5.973,5.12,12.8,7.68,19.627,7.68s14.507-2.56,19.627-7.68
				l20.48-20.48c5.12-5.12,7.68-11.947,7.68-19.627c0-7.68-2.56-14.507-7.68-19.627l-5.878-5.878
				c24.145-35.473,36.598-75.609,36.598-120.415C425.667,271.73,414.025,231.722,390.761,197.03z M408.6,314.844
				c0,39.253-10.24,75.947-31.573,106.667l-104.96-104.96l106.667-106.667C398.36,240.604,408.6,276.444,408.6,314.844z
				 M362.52,143.324l21.333,21.333c2.56,2.56,3.413,4.267,3.413,7.68s-1.707,5.973-3.413,7.68L260.12,303.751l-35.413-35.413
				l120.747-120.747l-0.946-0.736l3.506-3.531C351.427,139.058,358.253,139.058,362.52,143.324z M161.133,16.177h102.4v59.733
				h-102.4V16.177z M135.533,111.751c0-10.24,8.533-18.773,18.773-18.773H270.36c10.24,0,18.773,8.533,18.773,18.773v6.827h-153.6
				V111.751z M128.707,135.644H295.96c3.361,1.68,11.69,5.849,22.533,13.307L211.905,255.539L104.813,149.298
				C116.76,141.617,125.293,137.351,128.707,135.644z M16.067,314.844c0-38.182,10.128-72.988,28.699-104.421L151.32,316.977
				L97.778,370.52l-50.991,50.991C26.307,389.937,16.067,354.098,16.067,314.844z M75.8,488.924c-3.413,4.267-10.24,4.267-14.507,0
				L39.96,467.591c-2.56-2.56-3.413-5.12-3.413-7.68c0-3.413,1.707-5.973,3.413-7.68l4.267-4.267l119.425-118.655l35.879,35.879
				l0.003,0.003L75.8,488.924z M295.96,494.044H128.707c-3.413-1.707-11.093-5.12-21.333-11.947l104.533-104.533l104.871,104.872
				C306.799,489.032,299.315,492.367,295.96,494.044z M383,466.738l-21.333,21.333c-4.267,4.267-10.24,4.267-14.507,0l-3.893-3.893
				l0.48-0.373L212.333,352.391l-0.427,0.427l-35.841-35.841l0.428-0.425l-133.12-133.12l-0.351,0.502l-3.062-3.062
				c-4.267-4.267-4.267-10.24,0-14.507l21.333-21.333c2.56-2.56,5.12-3.413,7.68-3.413s5.12,0.853,6.827,3.413l307.2,307.2
				C387.267,456.498,387.267,462.471,383,466.738z"/>
		</g>
	</g>
</g>
<g>
</g>
<g>
</g>
<g>
</g>
<g>
</g>
<g>
</g>
<g>
</g>
<g>
</g>
<g>
</g>
<g>
</g>
<g>
</g>
<g>
</g>
<g>
</g>
<g>
</g>
<g>
</g>
<g>
</g>
</svg>
