<?xml version="1.0" encoding="iso-8859-1"?>
<!-- Generator: Adobe Illustrator 19.0.0, SVG Export Plug-In . SVG Version: 6.00 Build 0)  -->
<svg version="1.1" id="Layer_1" xmlns="http://www.w3.org/2000/svg" xmlns:xlink="http://www.w3.org/1999/xlink" x="0px" y="0px"
	 viewBox="0 0 512 512" style="enable-background:new 0 0 512 512;" xml:space="preserve">
<g transform="translate(1 1)">
	<g>
		<g>
			<path d="M495.38,349.59l-79.837-17.108V192.519c0-37.315-30.373-67.688-67.688-67.688h-19.092v-17.356h26.034
				c5.207,0,8.678-3.471,8.678-8.678s-3.471-8.678-8.678-8.678h-26.034V72.763c0-5.207-3.471-8.678-8.678-8.678
				c-5.207,0-8.678,3.471-8.678,8.678v17.356H155.203V72.763c0-5.207-3.471-8.678-8.678-8.678c-5.207,0-8.678,3.471-8.678,8.678
				v17.356h-26.034c-5.207,0-8.678,3.471-8.678,8.678s3.471,8.678,8.678,8.678h26.034v18.413
				c-53.555,6.185-98.881,39.3-122.128,85.722h-0.231l-0.987,2.467c-9.663,20.171-15.182,42.761-15.476,66.68L-1,281.034h0.022
				C-0.984,281.613-1,282.189-1,282.769v44.258c0,36.447,30.373,66.82,66.82,66.82h2.603c5.207,0,8.678-3.471,8.678-8.678
				c0-38.183,31.241-69.424,69.424-69.424c38.183,0,69.424,31.241,69.424,69.424c0,5.207,3.471,8.678,8.678,8.678h34.712h52.068
				v43.39c0,5.207,3.471,8.678,8.678,8.678c5.207,0,8.678-3.471,8.678-8.678v-8.678h17.356c5.207,0,8.678-3.471,8.678-8.678
				c0-5.207-3.471-8.678-8.678-8.678h-17.356v-17.356h34.712h8.678h6.075h113.681c10.414,0,19.092-8.678,19.092-18.224v-6.942
				C511,359.136,504.058,351.325,495.38,349.59z M155.203,107.475h156.203v17.356H156.071c-0.29,0-0.578,0.009-0.868,0.011V107.475z
				 M276.695,376.492v-43.39h17.356c5.207,0,8.678-3.471,8.678-8.678s-3.471-8.678-8.678-8.678h-17.356v-86.78h69.424v147.525
				H276.695z M363.475,376.492V228.098c0-8.678-7.81-16.488-16.488-16.488h-71.159c-8.678,0-16.488,7.81-16.488,16.488v148.393
				h-26.902c-4.339-43.39-40.786-78.102-85.912-78.969c-44.258,0-81.573,34.712-85.912,78.102
				c-25.166-2.603-44.258-24.298-44.258-49.464v-44.258c0-0.29,0.009-0.578,0.011-0.868h46.85c13.017,0,22.563-9.546,22.563-21.695
				v-25.166c0-13.017-9.546-22.563-22.563-22.563H35.274c24.199-41.537,69.203-69.424,120.797-69.424h191.783
				c27.77,0,50.332,22.563,50.332,50.332v164.014c0,5.584-2.131,10.526-5.647,14.097c-0.095,0.095-0.192,0.189-0.289,0.282
				c-0.314,0.306-0.641,0.599-0.975,0.884c-0.177,0.15-0.358,0.297-0.541,0.441c-0.301,0.238-0.61,0.466-0.926,0.686
				c-0.185,0.13-0.372,0.257-0.563,0.38c-0.386,0.249-0.781,0.487-1.186,0.709c-0.107,0.06-0.214,0.12-0.322,0.178
				c-2.805,1.472-6.032,2.302-9.51,2.302H363.475z M26.769,228.966h36.448c2.603,0,5.207,2.603,5.207,4.339v25.166
				c0,2.603-2.603,5.207-4.339,5.207H18.092C18.959,251.529,22.43,240.247,26.769,228.966z M493.644,374.756
				c0,0.868-0.868,1.736-1.736,1.736h-81.573c3.151-5.515,4.856-11.044,5.147-17.858c0.037-0.696,0.06-1.395,0.06-2.101v-6.942
				l76.366,16.488c0.868,0,1.736,0.868,1.736,1.736V374.756z"/>
			<path d="M146.525,333.102c-28.637,0-52.068,23.431-52.068,52.068s23.43,52.068,52.068,52.068
				c28.637,0,52.068-23.431,52.068-52.068S175.163,333.102,146.525,333.102z M146.525,419.881c-19.092,0-34.712-15.62-34.712-34.712
				s15.62-34.712,34.712-34.712c19.091,0,34.712,15.62,34.712,34.712S165.617,419.881,146.525,419.881z"/>
			<path d="M146.525,367.814c-9.546,0-17.356,7.81-17.356,17.356s7.81,17.356,17.356,17.356c9.546,0,17.356-7.81,17.356-17.356
				S156.071,367.814,146.525,367.814z"/>
			<path d="M210.742,210.742h-77.234c-13.017,0-22.563,10.414-22.563,22.563v25.166c0,13.017,10.414,22.563,22.563,22.563h77.234
				c13.017,0,22.563-9.546,22.563-22.563v-25.166C233.305,220.288,222.892,210.742,210.742,210.742z M216.817,259.339
				c0,2.603-2.603,5.207-5.207,5.207h-77.234c-2.603,0-5.207-2.603-5.207-5.207v-25.166c0-2.603,2.603-5.207,5.207-5.207h77.234
				c2.603,0,5.207,2.603,5.207,5.207V259.339z"/>
			<path d="M320.085,246.322h-17.356c-5.207,0-8.678,3.471-8.678,8.678s3.471,8.678,8.678,8.678h17.356
				c5.207,0,8.678-3.471,8.678-8.678S325.292,246.322,320.085,246.322z"/>
			<path d="M320.085,281.034h-17.356c-5.207,0-8.678,3.471-8.678,8.678s3.471,8.678,8.678,8.678h17.356
				c5.207,0,8.678-3.471,8.678-8.678S325.292,281.034,320.085,281.034z"/>
			<path d="M328.763,168.22H146.525c-5.207,0-8.678,3.471-8.678,8.678s3.471,8.678,8.678,8.678h182.237
				c5.207,0,8.678-3.471,8.678-8.678S333.969,168.22,328.763,168.22z"/>
		</g>
	</g>
</g>
<g>
</g>
<g>
</g>
<g>
</g>
<g>
</g>
<g>
</g>
<g>
</g>
<g>
</g>
<g>
</g>
<g>
</g>
<g>
</g>
<g>
</g>
<g>
</g>
<g>
</g>
<g>
</g>
<g>
</g>
</svg>
