<?xml version="1.0" encoding="iso-8859-1"?>
<!-- Generator: Adobe Illustrator 19.0.0, SVG Export Plug-In . SVG Version: 6.00 Build 0)  -->
<svg version="1.1" id="Layer_1" xmlns="http://www.w3.org/2000/svg" xmlns:xlink="http://www.w3.org/1999/xlink" x="0px" y="0px"
	 viewBox="0 0 512 512" style="enable-background:new 0 0 512 512;" xml:space="preserve">
<g transform="translate(1 1)">
	<g>
		<g>
			<path d="M408.6,323.267c0-5.12-3.413-8.533-8.533-8.533c-5.12,0-8.533,3.413-8.533,8.533s3.413,8.533,8.533,8.533
				C405.187,331.8,408.6,328.387,408.6,323.267z"/>
			<path d="M408.6,434.2c-5.12,0-8.533,3.413-8.533,8.533s3.413,8.533,8.533,8.533s8.533-3.413,8.533-8.533
				S413.72,434.2,408.6,434.2z"/>
			<path d="M92.867,297.667c-5.12,0-8.533,3.413-8.533,8.533s3.413,8.533,8.533,8.533c5.12,0,8.533-3.413,8.533-8.533
				S97.987,297.667,92.867,297.667z"/>
			<path d="M152.6,212.333c0-5.12-3.413-8.533-8.533-8.533c-5.12,0-8.533,3.413-8.533,8.533c0,5.12,3.413,8.533,8.533,8.533
				C149.187,220.867,152.6,217.453,152.6,212.333z"/>
			<path d="M118.467,391.533c-5.12,0-8.533,3.413-8.533,8.533c0,5.12,3.413,8.533,8.533,8.533s8.533-3.413,8.533-8.533
				C127,394.947,123.587,391.533,118.467,391.533z"/>
			<path d="M493.933,481.987v-240.71c0.63-1.677,0.589-3.508,0-5.253V28.013l14.507-14.507c3.413-3.413,3.413-8.533,0-11.947
				c-3.413-3.413-8.533-3.413-11.947,0L485.4,12.653L474.307,1.56c-3.413-3.413-8.533-3.413-11.947,0
				c-3.413,3.413-3.413,8.533,0,11.947l14.507,14.507v5.12H256.91c-1.745-0.589-3.577-0.63-5.253,0H33.133v-5.12L47.64,13.507
				c3.413-3.413,3.413-8.533,0-11.947s-8.533-3.413-11.947,0L24.6,12.653L13.507,1.56c-3.413-3.413-8.533-3.413-11.947,0
				s-3.413,8.533,0,11.947l14.507,14.507v206.78c-0.589,1.757-0.63,3.737,0,5.522v241.671L1.56,496.493
				c-3.413,3.413-3.413,8.533,0,11.947c1.707,1.707,3.413,2.56,5.973,2.56s4.267-0.853,5.973-2.56L24.6,497.347l11.093,11.093
				c1.707,1.707,3.413,2.56,5.973,2.56s4.267-0.853,5.973-2.56c3.413-3.413,3.413-8.533,0-11.947l-14.507-14.507V240.999
				L246.467,59.271v110.999c-29.155,4.075-51.2,28.753-51.2,59.131v21.709c-27.719,4.727-51.2,13.673-51.2,29.491
				c0,1.763,0.297,3.438,0.853,5.034c0,0.668,0,1.347,0,1.793l14.507,73.387c1.291,5.81,3.074,11.132,5.712,16.335
				c-1.522,5.977-2.299,12.487-2.299,19.505c0,18.773,5.12,34.133,14.507,46.08c-5.973,0.853-12.8,0-19.627-5.973
				c-2.56-2.56-5.973-2.56-9.387-0.853s-5.12,5.12-4.267,8.533C150.893,485.4,203.8,511,248.173,511
				c48.64,0,87.04-36.693,87.04-83.627c0-12.82-1.167-23.509-2.876-32.292c8.675-9.645,15.089-21.268,17.383-34.268l14.507-73.387
				c0-0.853,0-2.56,0-3.413v-0.853c-0.037-0.187-0.096-0.353-0.141-0.534c0.086-0.664,0.141-1.337,0.141-2.026
				c0-15.691-22.544-24.619-49.493-29.375V229.4c0-30.378-22.045-55.056-51.2-59.131V60.124l213.333,181.728v240.134l-14.507,14.507
				c-3.413,3.413-3.413,8.533,0,11.947c1.707,1.707,3.413,2.56,5.973,2.56s4.267-0.853,5.973-2.56l11.093-11.093l11.093,11.093
				c1.707,1.707,3.413,2.56,5.973,2.56s4.267-0.853,5.973-2.56c3.413-3.413,3.413-8.533,0-11.947L493.933,481.987z M33.133,50.2
				h197.862L33.133,218.749V50.2z M195.267,268.37v24.527c-19.531-3.567-31.262-8.469-34.133-12.297
				C163.987,276.795,175.864,271.931,195.267,268.37z M248.173,493.933c-29.867,0-64-12.8-79.36-34.133
				c11.947,1.707,23.04-2.56,29.013-5.12c1.707-1.707,3.413-4.267,3.413-6.827s-1.707-5.12-3.413-6.827
				c-11.947-10.24-17.92-23.893-17.92-42.667c0-5.114,0.482-9.821,1.437-14.133c0.928-1.016,1.61-2.322,1.977-3.787
				c0-2.56,0.853-4.267,1.707-5.973v-0.769c5.357-10.63,14.958-17.774,29.013-21.418c-3.413,16.213-6.827,41.813,5.973,55.467
				c0.853,1.707,3.413,2.56,5.973,2.56c9.387-0.853,23.04-3.413,32.427-11.093c3.413,9.387,6.827,23.04,6.827,35.84
				c0,3.413,1.707,5.973,5.12,7.68s6.827,0.853,9.387-0.853c0.146-0.293,0.959-1.1,2.241-2.352c0.587-0.574,1.264-1.232,2.037-1.992
				c0.457-0.449,0.952-0.941,1.464-1.453c0.851-0.85,1.766-1.777,2.744-2.793c3.973-4.125,8.87-9.581,13.642-16.08
				c1.428-1.944,2.844-3.981,4.221-6.104c0.918-1.415,1.818-2.869,2.693-4.358c2.186-3.723,4.211-7.668,5.945-11.802
				c1.707,8.533,3.413,18.773,3.413,32.427C318.147,464.92,288.28,493.933,248.173,493.933z M333.507,357.4
				c-1.707,5.973-3.413,11.947-6.827,17.067c-2.56-6.827-5.12-11.093-6.827-12.8c-2.029-2.029-4.595-2.968-7.271-2.853
				c-0.977-0.042-1.972,0.043-2.969,0.293c-3.413,0.853-5.973,4.267-5.973,7.68c0,18.351-12.229,35.883-22.344,47.821
				c-4.315-22.643-12.653-40.152-13.496-40.995c-1.375-2.062-3.313-3.553-5.796-4.062c-1.466-0.466-3.028-0.559-4.444-0.205
				c-2,0.4-3.619,1.368-4.781,2.717c-1.857,1.584-2.899,3.952-2.899,6.67c0,2.53-0.997,4.622-2.58,6.351
				c-4.501,4.08-12.373,5.865-17.047,6.449c-4.267-10.24-0.853-34.133,4.267-48.64c0.853-2.56,0-5.12-1.707-7.68
				c-1.707-2.56-5.12-3.413-7.68-3.413c-6.336,0.674-12.221,1.819-17.646,3.413h-0.274c-0.669,0.223-1.278,0.446-1.861,0.669
				c-1.819,0.588-3.581,1.232-5.29,1.926c-0.918,0.161-2.429,0.915-3.943,1.672c-1.707,0.853-3.413,1.707-5.12,2.56l-0.56,0.56
				c-5.907,3.588-10.906,7.987-14.962,13.148l-10.931-53.815c0.04,0.015,0.082,0.029,0.121,0.044
				c10.217,4.193,23.294,7.134,37.028,9.125c0.416,0.086,0.845,0.15,1.292,0.183c17.98,2.523,36.956,3.448,52.012,3.448
				c0.767,0,1.546-0.003,2.331-0.008c0.496-0.003,0.994-0.007,1.493-0.012c0.064-0.001,0.127-0.001,0.191-0.002
				c29.784-0.285,63.542-3.76,85.585-11.925L333.507,357.4z M347.16,280.6c-4.267,5.12-34.133,17.067-92.16,17.067
				c-16.16,0-30.421-0.873-42.667-2.274v-29.542c12.308-1.426,26.592-2.318,42.667-2.318
				C313.027,263.533,342.893,275.48,347.16,280.6z M297.667,229.4v19.392c-14.953-1.681-30.096-2.326-42.667-2.326
				c-12.465,0-27.617,0.634-42.667,2.284V229.4c0-20.963,14.452-37.981,34.133-41.841V203.8c0,5.12,3.413,8.533,8.533,8.533
				s8.533-3.413,8.533-8.533v-16.241C283.214,191.419,297.667,208.437,297.667,229.4z M278.003,50.2h198.864v169.402L278.003,50.2z"
				/>
		</g>
	</g>
</g>
<g>
</g>
<g>
</g>
<g>
</g>
<g>
</g>
<g>
</g>
<g>
</g>
<g>
</g>
<g>
</g>
<g>
</g>
<g>
</g>
<g>
</g>
<g>
</g>
<g>
</g>
<g>
</g>
<g>
</g>
</svg>
