<?xml version="1.0" encoding="iso-8859-1"?>
<!-- Generator: Adobe Illustrator 19.0.0, SVG Export Plug-In . SVG Version: 6.00 Build 0)  -->
<svg version="1.1" id="Layer_1" xmlns="http://www.w3.org/2000/svg" xmlns:xlink="http://www.w3.org/1999/xlink" x="0px" y="0px"
	 viewBox="0 0 512.455 512.455" style="enable-background:new 0 0 512.455 512.455;" xml:space="preserve">
<g transform="translate(1 1)">
	<g>
		<path d="M485.855,167.036h-3.413c14.507-14.507,23.893-30.72,27.307-47.787c2.56-14.507,0-29.013-8.533-40.96
			c0-1.707-2.56-9.387,3.413-34.987c2.56-9.387,0-17.92-6.827-24.747c-7.68-7.68-17.92-9.387-27.307-6.827
			c-9.387,3.413-16.213,11.093-17.92,20.48c-1.707,12.8-2.56,28.16-0.853,40.96c-0.853,0-1.707,0-0.853,0.853
			c-7.68-3.413-16.213-3.413-23.893,1.707c-7.68,4.267-11.947,12.8-11.947,22.187c0,8.533,5.12,17.067,12.8,22.187
			c4.267,2.56,9.387,7.68,15.36,12.8c-11.947,11.093-29.013,22.187-47.787,33.28c-4.267,2.56-9.387,3.413-14.507,5.12
			c-1.707,0.853-3.413,0.853-5.12,1.707v-56.32c0-5.12-3.413-8.533-8.533-8.533c-12.8,0-20.48,7.68-27.307,15.36
			c-18.773,21.333-15.36,65.707-12.8,87.04c-10.154,11.716-23.158,28.428-33.142,42.301c-6.914,0.743-12.342,1.696-17.204,3.779
			c-12.8,5.12-29.013,5.12-41.813,0c-4.641-1.989-10.319-2.945-16.62-3.674c-10.056-13.432-23.376-31.316-33.727-43.26
			c2.56-21.333,5.973-65.707-12.8-87.04c-6.827-7.68-14.507-15.36-27.307-15.36c-5.12,0-8.533,3.413-8.533,8.533v56.32
			c-1.707-0.853-3.413-1.707-5.12-1.707c-5.12-0.853-10.24-2.56-14.507-5.12c-19.627-11.093-35.84-22.187-47.787-33.28
			c5.973-5.973,11.093-10.24,15.36-12.8c7.68-5.12,12.8-13.653,12.8-23.04c0-9.387-4.267-17.067-11.947-22.187
			c-6.827-4.267-16.213-5.12-23.893-1.707c0,0.853-0.853,0.853-1.707,0.853c1.707-12.8,0.853-27.307-1.707-40.96
			c-1.707-9.387-8.533-17.92-17.92-20.48c-10.24-2.56-20.48,0-27.307,6.827c-5.973,6.827-8.533,16.213-6.827,24.747
			c5.973,26.453,4.267,33.28,3.413,34.987c-8.533,11.947-11.947,26.453-8.533,40.96c3.413,17.067,12.8,33.28,27.307,47.787h-2.56
			c-14.507,0-25.6,11.093-25.6,25.6s11.093,25.6,25.6,25.6h93.013c0.853,0,2.56,0,3.413,0c10.578,2.441,33.569,28.163,54.919,58.662
			c-2.855,6.627-4.734,14.273-5.638,22.798c-14.903-19.146-36.444-32.277-59.52-36.233c-13.653-2.56-29.013-2.56-44.373-1.707
			c-2.56,0-5.12,2.56-6.827,5.12s-0.853,5.973,0.853,8.533c0,0,13.653,18.773,20.48,37.547c8.533,25.6,27.307,44.373,50.347,52.907
			c11.947,4.267,30.72,5.973,46.08,5.973c2.077,0,4.155-0.003,6.232-0.195c0.474,0.921,0.95,1.842,1.448,2.755
			c8.422,15.159,18.499,36.967,18.761,56.401c-0.414,2.624-1.173,14.474,1.88,27.608c1.923,9.045,5.618,18.85,12.639,26.924
			c9.387,9.387,21.333,14.507,36.693,14.507s27.307-5.12,37.547-15.36c17.067-18.773,14.507-49.493,14.507-53.76
			c0-18.773,10.24-41.813,18.773-57.173c0.309-0.566,0.598-1.138,0.897-1.707c1.977,0,3.953,0,5.93,0
			c15.36,0,34.133-1.707,46.08-5.12c23.04-7.68,40.96-27.307,50.347-52.907c6.827-18.773,20.48-37.547,20.48-37.547
			c1.707-2.56,1.707-5.973,0.853-8.533c-0.853-2.56-3.413-5.12-6.827-5.12c-15.36-1.707-30.72-0.853-44.373,1.707
			c-22.833,3.914-43.663,16.813-58.694,35.631c-0.973-8.66-2.995-16.229-5.904-22.784c20.655-30.615,43.749-56.479,54.358-58.927
			c0.853,0,2.56,0,2.56,0h93.867c14.507,0,25.6-11.093,25.6-25.6S500.361,167.036,485.855,167.036z M289.588,431.569v0.853
			c0,0,1.422,14.725-3.171,28.227c-1.279,3.601-3.012,7.098-5.363,10.173v-107.52c0-24.747,18.773-46.08,42.667-50.347v0.853
			c0,17.92-5.12,35.84-13.653,52.053C300.681,382.929,289.588,408.529,289.588,431.569z M229.855,470.822
			c-10.239-14.505-8.534-38.395-8.533-38.4v0v0v-0.853v0c0-6.48-0.878-13.162-2.348-19.801c-0.327-1.475-0.683-2.948-1.065-4.416
			c-0.573-2.202-1.205-4.393-1.885-6.564c-0.227-0.724-0.459-1.445-0.696-2.164c-1.423-4.313-3.024-8.533-4.721-12.587
			c-0.283-0.676-0.568-1.347-0.856-2.013c-2.876-6.661-5.976-12.828-8.909-18.161c-4.383-7.57-7.635-15.515-9.872-23.655
			l-0.879-3.43c-0.126-0.531-0.262-1.06-0.38-1.591c-1.705-7.697-2.521-15.537-2.521-23.377v-0.853
			c23.893,4.267,42.667,24.747,42.667,50.347V470.822z M125.748,202.022c-1.707-0.853-5.973-0.853-6.827-0.853H25.055
			c-5.12,0-8.533-3.413-8.533-8.533s3.413-8.533,8.533-8.533h25.6c3.413,0,6.827-2.56,6.827-6.827c1.707-3.413,0-6.827-2.56-9.387
			c-21.333-16.213-34.133-33.28-38.4-52.907c-1.707-10.24,0-19.627,5.973-28.16c0.853,0,0.853-0.853,0.853-0.853
			c3.413-5.12,5.973-15.36-0.853-46.933c-0.853-2.56,0-5.973,2.56-8.533s5.973-3.413,9.387-1.707c1.707,0,5.973,1.707,6.827,6.827
			c3.413,19.627,1.707,43.52-2.56,52.053c-1.707,3.413-0.853,7.68,2.56,11.093c2.56,2.56,6.827,2.56,10.24,0
			c5.12-4.267,11.093-7.68,17.067-10.24c3.413-1.707,5.973-0.853,8.533,0c2.56,1.707,4.267,5.12,4.267,8.533
			c0,2.56-2.56,5.973-5.12,7.68c-9.387,5.973-19.627,16.213-24.747,21.333c-3.413,3.413-3.413,8.533,0,11.947
			c12.8,12.8,33.28,28.16,57.173,41.813c5.973,3.413,12.8,5.12,18.773,6.827c3.413,0.853,11.947,4.267,14.507,5.12
			s5.12,0.853,7.68-0.853c1.707-1.707,3.413-4.267,3.413-6.827v-57.173c1.707,1.707,3.413,3.413,5.973,5.973
			c12.8,14.507,12.8,49.493,8.533,77.653c-0.853,2.56,0,5.12,1.707,6.827c8.533,9.387,19.627,23.893,29.013,36.693
			c-4.267,1.707-8.533,4.267-11.947,7.68C172.681,242.982,145.375,207.142,125.748,202.022z M137.695,349.649
			c-17.92-5.973-32.427-22.187-40.107-42.667c-4.267-10.24-9.387-21.333-14.507-29.013c8.533,0,17.067,0.853,24.747,2.56
			c24.747,4.267,46.933,21.333,58.88,45.227l2.438,4.876l-28.038-16.823c-4.267-2.56-9.387-1.707-11.947,2.56
			s-1.707,9.387,2.56,11.947l42.667,25.6c0.398,0.398,0.987,0.607,1.671,0.72l0.036,0.134
			C161.588,354.769,146.228,352.209,137.695,349.649z M246.921,481.866V363.302c0-34.184-25.467-62.7-58.364-67.535
			c1.037-5.676,2.558-10.176,4.203-13.694c0.457-0.471,0.88-0.982,1.254-1.544c1.707-2.56,2.56-4.267,4.267-5.973
			c2.357-3.143,6.886-4.835,12.251-5.084c0.383,0.065,1.13,0.254,2.256,0.817c8.533,0.853,13.653,2.56,16.213,3.413
			c17.067,6.827,37.547,6.827,54.613,0c2.56-1.707,7.68-2.56,16.213-3.413c5.12-0.853,11.093,1.707,14.507,5.973
			c2.935,3.522,6.273,9.466,8.071,19.498c-32.923,4.812-58.418,33.339-58.418,67.542v118.564c-2.631,0.59-5.465,0.902-8.533,0.902
			C252.387,482.769,249.553,482.456,246.921,481.866z M402.228,280.529c8.533-1.707,17.067-2.56,25.6-2.56
			c-5.12,7.68-10.24,17.92-14.507,29.013c-7.68,20.48-22.187,35.84-40.107,42.667c-7.68,3.413-23.893,5.12-38.4,5.12l0.064-0.278
			c0.671-0.229,1.25-0.643,1.643-1.429l42.667-25.6c3.413-2.56,5.12-7.68,2.56-11.947c-2.56-3.413-7.68-5.12-11.947-2.56
			l-28.648,17.188l2.194-4.388C355.295,301.862,377.481,284.796,402.228,280.529z M485.855,201.169h-94.72c0,0-4.267,0-5.973,0.853
			c-19.402,5.061-47.132,40.965-60.13,59.923c-3.42-3.284-7.532-5.864-11.994-7.529c10.126-12.674,21.026-26.918,28.604-36.181
			c1.707-1.707,1.707-4.267,1.707-6.827c-4.267-28.16-4.267-63.147,8.533-77.653c2.56-2.56,4.267-4.267,5.973-5.973v56.32
			c0,2.56,1.707,5.12,3.413,6.827c1.707,1.707,5.12,1.707,7.68,0.853s11.093-4.267,14.507-5.12c5.973-1.707,12.8-3.413,18.773-6.827
			c23.893-13.653,44.373-28.16,57.173-41.813c3.413-3.413,3.413-8.533,0-11.947c-5.12-5.973-15.36-15.36-24.747-21.333
			c-3.413-1.707-5.12-5.12-5.12-8.533s1.707-5.973,4.267-7.68c0.853-0.853,4.267-2.56,7.68-0.853
			c5.973,2.56,11.947,5.973,17.067,10.24c2.56,2.56,6.827,2.56,10.24,0s4.267-6.827,2.56-10.24
			c-4.267-8.533-5.973-31.573-2.56-52.053c0.853-4.267,4.267-5.973,5.973-6.827c4.267-0.853,7.68,0,10.24,2.56
			c2.56,1.707,3.413,5.12,2.56,8.533c-6.827,31.573-3.413,41.813-0.853,46.933c0.853,0,0.853,0.853,0.853,0.853
			c5.973,8.533,7.68,17.92,5.973,28.16c-4.267,18.773-16.213,36.693-38.4,52.907c-2.56,1.707-3.413,5.973-2.56,9.387
			c0.853,3.413,4.267,5.973,7.68,5.973h25.6c5.12,0,8.533,3.413,8.533,8.533S490.975,201.169,485.855,201.169z"/>
	</g>
</g>
<g>
</g>
<g>
</g>
<g>
</g>
<g>
</g>
<g>
</g>
<g>
</g>
<g>
</g>
<g>
</g>
<g>
</g>
<g>
</g>
<g>
</g>
<g>
</g>
<g>
</g>
<g>
</g>
<g>
</g>
</svg>
