<?xml version="1.0" encoding="iso-8859-1"?>
<!-- Generator: Adobe Illustrator 19.0.0, SVG Export Plug-In . SVG Version: 6.00 Build 0)  -->
<svg version="1.1" id="Layer_1" xmlns="http://www.w3.org/2000/svg" xmlns:xlink="http://www.w3.org/1999/xlink" x="0px" y="0px"
	 viewBox="0 0 506.472 506.472" style="enable-background:new 0 0 506.472 506.472;" xml:space="preserve">
<g transform="translate(1 1)">
	<g>
		<g>
			<path d="M212.257,320.976c-4.414-1.766-9.71-0.883-12.359,3.531c-1.766,4.414-0.883,9.71,3.531,12.359
				c15.007,7.945,22.069,20.303,22.069,36.193c0,5.297,3.531,8.828,8.828,8.828s8.828-3.531,8.828-8.828
				C243.154,350.99,232.561,332.452,212.257,320.976z"/>
			<path d="M291.706,320.976c-20.303,12.359-30.897,30.014-30.897,52.083c0,5.297,3.531,8.828,8.828,8.828
				c5.297,0,8.828-3.531,8.828-8.828c0-15.007,7.062-27.365,22.069-36.193c4.414-2.648,6.179-7.945,3.531-12.359
				C301.416,320.093,296.119,318.328,291.706,320.976z"/>
			<path d="M473.554,161.197h-2.648c15.007-15.007,24.717-31.779,28.248-49.434c2.648-15.007,0-30.014-8.828-42.372
				c0-1.766-2.648-9.71,3.531-36.193c2.648-9.71,0-18.538-7.062-25.6c-7.945-7.945-18.538-10.593-28.248-7.062
				c-9.71,3.531-16.772,11.476-18.538,21.186c-2.648,13.241-3.531,29.131-1.766,42.372c-0.883,0-1.766,0-1.766-0.883
				c-7.945-3.531-16.772-3.531-24.717,1.766c-7.945,4.414-12.359,13.241-12.359,22.952c0,8.828,5.297,17.655,13.241,22.952
				c4.414,2.648,9.71,7.945,15.89,13.241c-12.359,11.476-30.014,22.952-49.435,34.428c-4.414,2.648-9.71,3.531-15.007,5.297
				c-1.765,0.883-3.531,0.883-5.297,1.766v-58.262c0-5.297-3.531-8.828-8.828-8.828c-13.241,0-21.186,7.945-28.248,15.89
				c-19.421,22.069-15.89,67.972-13.241,90.041c-2.648,3.531-5.297,7.062-8.828,10.593c-10.772,12.429-25.431,29.524-36.68,43.255
				h-22.556c-11.405-14.547-27.267-32.857-37.867-45.903l-6.179-7.062c2.648-22.069,6.179-67.972-13.241-90.041
				c-7.062-7.945-15.007-15.89-28.248-15.89c-5.297,0-8.828,3.531-8.828,8.828v58.262c-1.766-0.883-3.531-1.766-5.297-1.766
				c-5.297-0.883-10.593-2.648-15.007-5.297c-20.303-11.476-37.076-22.952-49.434-34.428c6.179-6.179,11.476-10.593,15.89-13.241
				c7.945-5.297,13.241-14.124,13.241-23.834c0-9.71-4.414-17.655-12.359-22.952c-7.062-4.414-16.772-5.297-24.717-1.766
				c0,0.883-0.883,0.883-1.766,0.883c1.766-13.241,0.883-28.248-1.766-42.372c-1.766-9.71-8.828-18.538-18.538-21.186
				c-10.593-2.648-21.186,0-28.248,7.062c-6.179,7.062-8.828,16.772-7.062,25.6c6.179,27.366,4.414,34.428,3.531,36.193
				C5.692,81.748,2.161,96.755,5.692,111.762c3.531,17.655,13.241,34.428,28.248,49.434h-2.648
				c-15.007,0-26.483,11.476-26.483,26.483s11.476,26.483,26.483,26.483h96.221c0,0,2.648,0,3.531,0
				c6.123,1.531,22.204,15.014,42.482,38.134c-4.374,1.869-8.352,4.537-11.585,7.77c-8.449,9.153-13.517,22.247-15.227,38.365
				c-15.417-19.806-37.701-33.39-61.573-37.482c-14.124-2.648-30.014-2.648-45.903-1.766c-2.648,0-5.297,2.648-7.062,5.297
				c-1.766,2.648-0.883,6.179,0.883,8.828c0,0,14.124,19.421,21.186,38.841c8.828,26.483,28.248,45.903,52.083,54.731
				c12.359,4.414,31.779,6.179,47.669,6.179c2.149,0,4.298-0.003,6.447-0.202c0.49,0.953,0.982,1.905,1.498,2.85
				c8.828,15.89,19.421,38.841,19.421,59.145c0,4.414-2.648,35.31,15.007,55.614c9.71,9.71,22.069,15.007,37.959,15.007h35.31
				c15.89,0,28.248-5.297,39.724-15.89c17.655-19.421,15.007-51.2,15.007-55.614c0-19.421,10.593-43.255,19.421-59.145
				c0.319-0.585,0.618-1.177,0.928-1.766c1.75,0,3.501,0,5.251,0c15.89,0,35.31-1.766,47.669-5.297
				c23.834-7.945,42.372-28.248,52.083-54.731c7.062-19.421,21.186-38.841,21.186-38.841c1.766-2.648,1.766-6.179,0.883-8.828
				c-0.883-2.648-3.531-5.297-7.062-5.297c-15.89-1.766-31.779-0.883-45.903,1.766c-23.186,3.975-44.383,16.898-59.862,35.786
				c-1.759-16.105-6.807-28.488-15.173-37.551c-3.336-3.336-7.465-6.07-12.005-7.945c20.762-23.012,36.675-36.432,42.019-37.959
				c0.883,0,2.648,0,2.648,0h97.103c15.007,0,26.483-11.476,26.483-26.483S488.561,161.197,473.554,161.197z M135.457,197.39
				c-2.648-0.883-6.179-0.883-7.062-0.883H31.292c-5.297,0-8.828-3.531-8.828-8.828s3.531-8.828,8.828-8.828h26.483
				c3.531,0,7.062-2.648,7.062-7.062c1.766-3.531,0-7.062-2.648-9.71c-22.069-16.772-35.31-34.428-39.724-54.731
				c-1.766-10.593,0-20.303,6.179-29.131c0.883,0,0.883-0.883,0.883-0.883c3.531-5.297,6.179-15.89-0.883-48.552
				c-0.883-2.648,0-6.179,2.648-8.828c2.648-2.648,6.179-3.531,9.71-1.766c1.766,0,6.179,1.766,7.062,7.062
				c4.414,20.303,1.766,45.021-2.648,53.848c-1.766,3.531-0.883,7.945,2.648,11.476c2.648,2.648,7.062,2.648,10.593,0
				c5.297-4.414,11.476-7.945,17.655-10.593c3.531-1.766,6.179-0.883,7.945,0c2.648,1.766,4.414,5.297,4.414,8.828
				c0,2.648-2.648,6.179-5.297,7.945c-9.71,6.179-20.303,16.772-25.6,22.069c-3.531,3.531-3.531,8.828,0,12.359
				c13.241,13.241,34.428,29.131,59.145,43.255c6.179,3.531,13.241,5.297,19.421,7.062c3.531,0.883,12.359,4.414,15.007,5.297
				c2.648,0.883,5.297,0.883,7.945-0.883c1.766-1.766,3.531-4.414,3.531-7.062V120.59c1.766,1.766,3.531,3.531,6.179,6.179
				c13.241,15.007,13.241,51.2,8.828,80.331c-0.883,2.648,0,5.297,1.766,7.062l8.828,10.593c7.546,7.546,16.682,19.07,25.144,29.284
				c-0.142-0.053-0.285-0.1-0.427-0.153c-5.458-2.339-12.297-3.301-19.903-4.102C178.964,232.875,151.172,201.755,135.457,197.39z
				 M112.506,350.107c-18.538-6.179-33.545-22.952-41.49-44.138c-4.414-10.593-9.71-22.069-15.007-30.014
				c8.828,0,17.655,0.883,25.6,2.648c25.6,4.414,48.552,22.069,60.91,46.786l2.522,5.044l-29.005-17.403
				c-4.414-2.648-9.71-1.766-12.359,2.648c-2.648,4.414-1.766,9.71,2.648,12.359l44.138,26.483c0.412,0.412,1.021,0.627,1.728,0.745
				l0.037,0.138C137.223,355.404,121.333,352.755,112.506,350.107z M421.471,278.604c8.828-1.766,17.655-2.648,26.483-2.648
				c-5.297,7.945-10.593,18.538-15.007,30.014c-7.945,21.186-22.952,37.076-41.49,44.138c-7.824,3.477-24.204,5.238-39.033,5.291
				c0.086-0.244,0.165-0.489,0.25-0.733c0.321-0.249,0.601-0.581,0.824-1.027l44.138-26.483c3.531-2.648,5.297-7.945,2.648-12.359
				c-2.648-3.531-7.945-5.297-12.359-2.648l-29.365,17.619c0.023-0.176,0.052-0.352,0.075-0.528l1.925-3.85
				C372.919,300.672,395.871,283.017,421.471,278.604z M340.257,313.031c0,18.538-5.297,37.076-14.124,53.848
				c-9.71,17.655-21.186,44.138-21.186,67.972v0.883c0,0,2.648,27.366-10.593,42.372c-6.179,6.179-14.124,9.71-24.717,9.71h-35.31
				c-10.593,0-18.538-3.531-24.717-9.71c-13.241-15.007-10.593-42.372-10.593-42.372v-0.883c0-23.835-11.476-50.317-21.186-67.972
				c-4.534-7.831-7.899-16.05-10.213-24.471l-0.91-3.548c-2.022-8.49-3.001-17.158-3.001-25.829v-1.766
				c0-22.069,6.179-33.545,10.593-38.841c3.531-3.531,7.945-5.297,13.241-5.297c0,0,0.883,0,1.766,0
				c8.828,0.883,14.124,2.648,16.772,3.531c8.828,3.531,18.538,5.297,28.248,5.297h1.766h31.779h1.766
				c7.283,0,14.565-0.993,21.476-2.979c2.303-0.662,4.566-1.434,6.772-2.317c3.531-1.766,8.828-2.648,17.655-3.531
				c5.297,0,10.593,1.766,14.124,5.297c4.414,5.297,10.593,16.772,10.593,38.841V313.031z M473.554,196.507h-97.986
				c0,0-4.414,0-6.179,0.883c-15.781,4.384-44.614,35.751-58.844,52.611c-6.821,0.765-12.969,1.749-17.956,3.886
				c-0.979,0.367-1.958,0.712-2.939,1.043c7.79-9.511,16.355-19.777,23.243-27.526c4.414-5.297,8.828-9.71,11.476-13.241
				c1.766-1.766,1.766-4.414,1.766-7.062c-4.414-29.131-4.414-65.324,8.828-80.331c2.648-2.648,4.414-4.414,6.179-6.179v58.262
				c0,2.648,0.883,5.297,3.531,7.062c1.766,1.766,5.297,1.766,7.945,0.883c2.648-0.883,11.476-4.414,15.007-5.297
				c6.179-1.766,13.241-3.531,19.421-7.062c24.717-14.124,45.903-29.131,59.145-43.255c3.531-3.531,3.531-8.828,0-12.359
				c-5.297-6.179-15.89-15.89-25.6-22.069c-3.531-1.766-5.297-5.297-5.297-8.828c0-3.531,1.766-6.179,4.414-7.945
				c0.883-0.883,4.414-2.648,7.945-0.883c6.179,2.648,12.359,6.179,17.655,10.593c2.648,2.648,7.062,2.648,10.593,0
				c3.531-2.648,4.414-7.062,2.648-10.593c-4.414-8.828-6.179-32.662-2.648-53.848c0.883-4.414,4.414-6.179,6.179-7.062
				c4.414-0.883,7.945,0,10.593,2.648c2.648,1.766,3.531,5.297,2.648,8.828c-6.179,32.662-3.531,43.255-0.883,48.552
				c0.883,0,0.883,0.883,0.883,0.883c6.179,8.828,7.945,18.538,6.179,29.131c-4.414,19.421-16.772,37.959-39.724,54.731
				c-2.648,1.766-3.531,6.179-2.648,9.71c0.883,3.531,4.414,6.179,7.945,6.179h26.483c5.297,0,8.828,3.531,8.828,8.828
				S478.85,196.507,473.554,196.507z"/>
		</g>
	</g>
</g>
<g>
</g>
<g>
</g>
<g>
</g>
<g>
</g>
<g>
</g>
<g>
</g>
<g>
</g>
<g>
</g>
<g>
</g>
<g>
</g>
<g>
</g>
<g>
</g>
<g>
</g>
<g>
</g>
<g>
</g>
</svg>
