<?xml version="1.0" encoding="iso-8859-1"?>
<!-- Generator: Adobe Illustrator 19.0.0, SVG Export Plug-In . SVG Version: 6.00 Build 0)  -->
<svg version="1.1" id="Layer_1" xmlns="http://www.w3.org/2000/svg" xmlns:xlink="http://www.w3.org/1999/xlink" x="0px" y="0px"
	 viewBox="0 0 512 512" style="enable-background:new 0 0 512 512;" xml:space="preserve">
<g transform="translate(1 1)">
	<g>
		<g>
			<path d="M475.16,152.6H434.2v-34.133h11.947c11.947,0,22.187-10.24,22.187-23.04V38.253c0-11.947-10.24-22.187-23.04-22.187
				H63.853c-11.947,0-22.187,10.24-22.187,22.187V96.28c0,11.947,10.24,22.187,22.187,22.187H75.8V152.6H34.84
				C15.213,152.6-1,168.813-1,188.44v269.653c0,19.627,16.213,35.84,35.84,35.84h440.32c19.627,0,35.84-16.213,35.84-35.84V188.44
				C511,168.813,494.787,152.6,475.16,152.6z M417.133,152.6H383v-34.133h34.133V152.6z M365.933,152.6H144.067v-34.133h221.867
				V152.6z M63.853,101.4c-2.56,0-5.12-2.56-5.12-5.973V38.253c0-2.56,2.56-5.12,5.12-5.12h382.293c2.56,0,5.12,2.56,5.12,5.12
				V96.28c0,2.56-2.56,5.12-5.973,5.12H434.2h-68.267H144.067H75.8H63.853z M92.867,118.467H127V152.6H92.867V118.467z
				 M493.933,458.093c0,10.24-8.533,18.773-18.773,18.773H34.84c-10.24,0-18.773-8.533-18.773-18.773V188.44
				c0-10.24,8.533-18.773,18.773-18.773H75.8h68.267h221.867H434.2h40.96c10.24,0,18.773,8.533,18.773,18.773V458.093z"/>
			<path d="M263.533,186.733C188.44,186.733,127,248.173,127,323.267S188.44,459.8,263.533,459.8s136.533-61.44,136.533-136.533
				S338.627,186.733,263.533,186.733z M263.533,442.733c-65.707,0-119.467-53.76-119.467-119.467S197.827,203.8,263.533,203.8
				S383,257.56,383,323.267S329.24,442.733,263.533,442.733z"/>
			<path d="M297.667,237.933H229.4v51.2h-51.2V357.4h51.2v51.2h68.267v-51.2h51.2v-68.267h-51.2V237.933z M331.8,306.2v34.133h-51.2
				v51.2h-34.133v-51.2h-51.2V306.2h51.2V255H280.6v51.2H331.8z"/>
			<path d="M459.8,195.267h-25.6c-5.12,0-8.533,3.413-8.533,8.533s3.413,8.533,8.533,8.533h25.6c5.12,0,8.533-3.413,8.533-8.533
				S464.92,195.267,459.8,195.267z"/>
			<path d="M400.067,195.267c-5.12,0-8.533,3.413-8.533,8.533s3.413,8.533,8.533,8.533c5.12,0,8.533-3.413,8.533-8.533
				S405.187,195.267,400.067,195.267z"/>
			<path d="M75.8,434.2H50.2c-5.12,0-8.533,3.413-8.533,8.533s3.413,8.533,8.533,8.533h25.6c5.12,0,8.533-3.413,8.533-8.533
				S80.92,434.2,75.8,434.2z"/>
			<path d="M109.933,434.2c-5.12,0-8.533,3.413-8.533,8.533s3.413,8.533,8.533,8.533s8.533-3.413,8.533-8.533
				S115.053,434.2,109.933,434.2z"/>
			<path d="M84.333,50.2c-5.12,0-8.533,3.413-8.533,8.533V75.8c0,5.12,3.413,8.533,8.533,8.533c5.12,0,8.533-3.413,8.533-8.533
				V58.733C92.867,53.613,89.453,50.2,84.333,50.2z"/>
			<path d="M118.467,50.2c-5.12,0-8.533,3.413-8.533,8.533V75.8c0,5.12,3.413,8.533,8.533,8.533S127,80.92,127,75.8V58.733
				C127,53.613,123.587,50.2,118.467,50.2z"/>
			<path d="M152.6,84.333c5.12,0,8.533-3.413,8.533-8.533V58.733c0-5.12-3.413-8.533-8.533-8.533c-5.12,0-8.533,3.413-8.533,8.533
				V75.8C144.067,80.92,147.48,84.333,152.6,84.333z"/>
			<path d="M186.733,84.333c5.12,0,8.533-3.413,8.533-8.533V58.733c0-5.12-3.413-8.533-8.533-8.533s-8.533,3.413-8.533,8.533V75.8
				C178.2,80.92,181.613,84.333,186.733,84.333z"/>
			<path d="M220.867,84.333c5.12,0,8.533-3.413,8.533-8.533V58.733c0-5.12-3.413-8.533-8.533-8.533s-8.533,3.413-8.533,8.533V75.8
				C212.333,80.92,215.747,84.333,220.867,84.333z"/>
			<path d="M255,84.333c5.12,0,8.533-3.413,8.533-8.533V58.733c0-5.12-3.413-8.533-8.533-8.533s-8.533,3.413-8.533,8.533V75.8
				C246.467,80.92,249.88,84.333,255,84.333z"/>
			<path d="M289.133,84.333c5.12,0,8.533-3.413,8.533-8.533V58.733c0-5.12-3.413-8.533-8.533-8.533s-8.533,3.413-8.533,8.533V75.8
				C280.6,80.92,284.013,84.333,289.133,84.333z"/>
			<path d="M323.267,84.333c5.12,0,8.533-3.413,8.533-8.533V58.733c0-5.12-3.413-8.533-8.533-8.533s-8.533,3.413-8.533,8.533V75.8
				C314.733,80.92,318.147,84.333,323.267,84.333z"/>
			<path d="M357.4,84.333c5.12,0,8.533-3.413,8.533-8.533V58.733c0-5.12-3.413-8.533-8.533-8.533s-8.533,3.413-8.533,8.533V75.8
				C348.867,80.92,352.28,84.333,357.4,84.333z"/>
			<path d="M391.533,84.333c5.12,0,8.533-3.413,8.533-8.533V58.733c0-5.12-3.413-8.533-8.533-8.533c-5.12,0-8.533,3.413-8.533,8.533
				V75.8C383,80.92,386.413,84.333,391.533,84.333z"/>
			<path d="M425.667,84.333c5.12,0,8.533-3.413,8.533-8.533V58.733c0-5.12-3.413-8.533-8.533-8.533s-8.533,3.413-8.533,8.533V75.8
				C417.133,80.92,420.547,84.333,425.667,84.333z"/>
		</g>
	</g>
</g>
<g>
</g>
<g>
</g>
<g>
</g>
<g>
</g>
<g>
</g>
<g>
</g>
<g>
</g>
<g>
</g>
<g>
</g>
<g>
</g>
<g>
</g>
<g>
</g>
<g>
</g>
<g>
</g>
<g>
</g>
</svg>
