<?xml version="1.0" encoding="iso-8859-1"?>
<!-- Generator: Adobe Illustrator 19.0.0, SVG Export Plug-In . SVG Version: 6.00 Build 0)  -->
<svg version="1.1" id="Layer_1" xmlns="http://www.w3.org/2000/svg" xmlns:xlink="http://www.w3.org/1999/xlink" x="0px" y="0px"
	 viewBox="0 0 512 512" style="enable-background:new 0 0 512 512;" xml:space="preserve">
<g transform="translate(1 1)">
	<g>
		<g>
			<path d="M474.307,135.533h-99.84V101.4H357.4v-9.387c0-32.427-26.453-58.88-58.88-58.88h-87.04
				c-32.427,0-58.88,26.453-58.88,58.88v9.387h-17.067v34.133h-99.84C15.213,135.533-1,151.747-1,172.227v65.707v202.24
				c0,20.48,16.213,36.693,36.693,36.693h438.613c20.48,0,36.693-16.213,36.693-36.693v-202.24v-65.707
				C511,151.747,494.787,135.533,474.307,135.533z M357.4,135.533h-51.2v-17.067h51.2V135.533z M306.2,101.4h-17.067v34.133h-68.267
				V101.4H203.8V87.747c0-1.707,3.413-2.56,3.413-3.413s1.707-1.707,4.267-0.853c28.16,11.947,59.733,11.947,88.747,0
				c1.707-0.853,3.413,0.853,4.267,0.853c0,0,1.707,1.707,1.707,3.413V101.4z M169.667,92.013c0-23.04,18.773-41.813,41.813-41.813
				h87.04c23.04,0,41.813,18.773,41.813,41.813v9.387h-17.067V87.747c0-6.827-3.413-13.653-10.24-17.92
				c-5.973-3.413-13.653-4.267-20.48-1.707c-24.747,10.24-51.2,10.24-75.947,0c-6.827-3.413-14.507-2.56-20.48,1.707
				c-5.973,3.413-9.387,10.24-9.387,17.92V101.4h-17.067V92.013z M152.6,118.467h51.2v17.067h-51.2V118.467z M16.067,172.227
				c0-11.093,8.533-19.627,19.627-19.627h99.84h85.333h68.267h85.333h99.84c11.093,0,19.627,8.533,19.627,19.627v48.64h-68.267
				v-20.48c0-11.947-10.24-22.187-22.187-22.187h-40.96c-11.947,0-22.187,10.24-22.187,22.187v20.48H169.667v-20.48
				c0-11.947-10.24-22.187-22.187-22.187h-40.96c-11.947,0-22.187,10.24-22.187,22.187v20.48H16.067V172.227z M357.4,237.933h51.2
				v20.48c0,2.56-2.56,5.12-5.12,5.12h-40.96c-2.56,0-5.12-2.56-5.12-5.12V237.933z M357.4,220.867v-20.48
				c0-2.56,2.56-5.12,5.12-5.12h40.96c2.56,0,5.12,2.56,5.12,5.12v20.48H357.4z M101.4,237.933h51.2v20.48
				c0,2.56-2.56,5.12-5.12,5.12h-40.96c-2.56,0-5.12-2.56-5.12-5.12V237.933z M101.4,220.867v-20.48c0-2.56,2.56-5.12,5.12-5.12
				h40.96c2.56,0,5.12,2.56,5.12,5.12v20.48H101.4z M493.933,440.173c0,11.093-8.533,19.627-19.627,19.627H35.693
				c-11.093,0-19.627-8.533-19.627-19.627v-202.24h68.267v20.48c0,11.947,10.24,22.187,22.187,22.187h40.96
				c11.947,0,22.187-10.24,22.187-22.187v-20.48h170.667v20.48c0,11.947,10.24,22.187,22.187,22.187h40.96
				c11.947,0,22.187-10.24,22.187-22.187v-20.48h68.267V440.173z"/>
			<path d="M365.08,326.68c0-10.24-8.533-19.627-19.627-19.627h-181.76c-10.24,0-19.627,8.533-19.627,19.627v79.36
				c0,10.24,8.533,19.627,19.627,19.627h182.613c10.24,0,19.627-9.387,18.773-19.627V326.68z M348.013,325.827v23.076
				c-4.641,0.36-7.68,3.668-7.68,8.497c0,4.829,3.039,8.137,7.68,8.497v34.205c-4.362,0.339-7.305,3.282-7.644,7.644h-34.205
				c-0.36-4.641-3.668-7.68-8.497-7.68s-8.137,3.039-8.497,7.68h-29.785l17.102-17.102c1.186,0.573,2.571,0.888,4.114,0.888
				c5.12,0,8.533-3.413,8.533-8.533c0-1.543-0.315-2.927-0.888-4.114l13.841-13.841c1.186,0.573,2.571,0.888,4.114,0.888
				c5.12,0,8.533-3.413,8.533-8.533c0-1.543-0.315-2.927-0.888-4.114l30.02-30.02h1.589
				C346.307,323.267,348.013,324.12,348.013,325.827z M275.598,323.267h44.131l-84.48,84.48h-44.131L275.598,323.267z
				 M161.133,405.187V383c5.12,0,8.533-3.413,8.533-8.533s-3.413-8.533-8.533-8.533V331.8c5.12,0,8.533-3.413,8.533-8.533H203.8
				c0,5.12,3.413,8.533,8.533,8.533c5.12,0,8.533-3.413,8.533-8.533h30.595l-17.953,17.953c-1.185-0.572-2.568-0.886-4.109-0.886
				c-5.12,0-8.533,3.413-8.533,8.533c0,1.541,0.314,2.924,0.886,4.109l-13.844,13.844c-1.185-0.572-2.568-0.886-4.109-0.886
				c-5.12,0-8.533,3.413-8.533,8.533c0,1.541,0.314,2.924,0.886,4.109l-29.171,29.171h-3.289
				C162.84,407.747,161.133,406.893,161.133,405.187z"/>
			<path d="M186.733,357.4c5.12,0,8.533-3.413,8.533-8.533c0-5.12-3.413-8.533-8.533-8.533s-8.533,3.413-8.533,8.533
				C178.2,353.987,181.613,357.4,186.733,357.4z"/>
			<path d="M323.267,374.467c-5.12,0-8.533,3.413-8.533,8.533s3.413,8.533,8.533,8.533S331.8,388.12,331.8,383
				S328.387,374.467,323.267,374.467z"/>
		</g>
	</g>
</g>
<g>
</g>
<g>
</g>
<g>
</g>
<g>
</g>
<g>
</g>
<g>
</g>
<g>
</g>
<g>
</g>
<g>
</g>
<g>
</g>
<g>
</g>
<g>
</g>
<g>
</g>
<g>
</g>
<g>
</g>
</svg>
