<?xml version="1.0" encoding="iso-8859-1"?>
<!-- Generator: Adobe Illustrator 19.0.0, SVG Export Plug-In . SVG Version: 6.00 Build 0)  -->
<svg version="1.1" id="Layer_1" xmlns="http://www.w3.org/2000/svg" xmlns:xlink="http://www.w3.org/1999/xlink" x="0px" y="0px"
	 viewBox="0 0 513.465 513.465" style="enable-background:new 0 0 513.465 513.465;" xml:space="preserve">
<g transform="translate(1 1)">
	<g>
		<g>
			<path d="M164.228,415.412c2.56,3.413,8.533,4.267,11.947,0.853l45.227-39.253v32.427c0,46.933-38.4,85.333-85.333,85.333
				s-85.333-38.4-85.333-85.333v-60.82c19.681-5.078,34.133-27.428,34.133-54.38s-14.452-49.302-34.133-54.38v-61.46l22.187,8.32
				c1.707,0.853,2.56,0.853,3.413,0.853c3.413,0,6.827-1.707,7.68-5.973c1.707-4.267-0.853-9.387-5.12-11.093l-28.16-10.56v-24.213
				l22.187,8.32c1.707,0.853,2.56,0.853,3.413,0.853c3.413,0,6.827-1.707,7.68-5.973c1.707-4.267-0.853-9.387-5.12-11.093
				l-28.16-10.56V93.066l22.187,8.32c1.707,0.853,2.56,0.853,3.413,0.853c3.413,0,6.827-1.707,7.68-5.973
				c1.707-4.267-0.853-9.387-5.12-11.093l-28.16-10.56V8.372c0-5.12-3.413-8.533-8.533-8.533s-8.533,3.413-8.533,8.533v59.84
				l-23.04-8.64c-4.267-1.707-9.387,0.853-11.093,5.12s0.853,9.387,5.12,11.093l29.013,10.88v24.213l-23.04-8.64
				c-4.267-1.707-9.387,0.853-11.093,5.12s0.853,9.387,5.12,11.093l29.013,10.88v24.213l-23.04-8.64
				c-4.267-1.707-9.387,0.853-11.093,5.12c-1.707,4.267,0.853,9.387,5.12,11.093l29.013,10.88v67.86
				c-19.681,5.078-34.133,27.428-34.133,54.38s14.452,49.302,34.133,54.38v60.82c0,56.32,46.08,102.4,102.4,102.4
				s102.4-46.08,103.253-102.4v-69.12l-74.24,63.147C161.668,406.879,160.815,411.999,164.228,415.412z M16.601,294.239
				c0-20.48,11.947-38.4,25.6-38.4c13.653,0,25.6,17.92,25.6,38.4c0,20.48-11.947,38.4-25.6,38.4
				C28.548,332.639,16.601,314.719,16.601,294.239z"/>
			<path d="M349.401,68.106c0,5.12,3.413,8.533,8.533,8.533s8.533-3.413,8.533-8.533s-3.413-8.533-8.533-8.533
				S349.401,62.986,349.401,68.106z"/>
			<path d="M511.535,311.306l-59.733-119.467c-0.082-0.123-0.186-0.235-0.276-0.354c-1.594-38.44-10.055-70.809-21.168-97.321
				c-0.14-0.716-0.38-1.44-0.742-2.164c-26.453-60.587-64.853-89.6-66.56-90.453c-3.413-2.56-6.827-2.56-10.24,0
				c-1.311,0.983-14.716,11.172-30.725,31.027c-11.814,14.521-25.037,34.23-35.835,59.427c-0.073,0.293-0.137,0.585-0.197,0.877
				c-11.537,27.121-20.332,60.455-21.774,100.238l-59.096,118.191c-1.707,3.413-1.707,6.827,0.853,9.387
				c1.707,2.56,4.267,3.413,6.827,3.413c0.853,0,1.707,0,2.56,0l66.126-20.289c4.941,12.824,10.596,24.239,16.524,34.313
				l-40.836,122.509c-1.707,6.827-2.56,12.8-0.853,17.92c5.12,19.627,22.187,33.28,41.813,33.28
				c23.893,0,42.667-18.773,42.667-42.667v-17.067c0-9.387,7.68-17.067,17.067-17.067s17.067,7.68,17.067,17.067v17.067
				c0,23.893,18.773,42.667,42.667,42.667c19.627,0,36.693-13.653,40.96-33.28c1.707-5.973,0.853-11.947-0.853-17.92
				l-40.528-121.584c6.053-10.175,11.838-21.741,16.887-34.766l66.307,19.816c0.853,0,1.707,0,2.56,0c2.56,0,5.12-0.853,7.68-3.413
				C512.388,318.132,513.241,314.719,511.535,311.306z M434.675,210.348c-0.001,0.039-0.002,0.078-0.003,0.117
				c-0.605,28.565-5.653,55.586-14.444,80.362c0,0.328,0,0.657,0.002,0.983c-5.577,15.513-12.294,28.944-19.291,40.408
				c-1.76,0.655-3.397,2.024-4.605,3.835c-15.146,24.401-31.944,38.84-39.773,44.966c-12.406-10.187-41.637-37.71-59.852-86.293
				c0.55-1.558,0.388-2.944-0.215-4.753c-9.387-26.453-14.507-55.467-14.507-86.187c0-1.707,0-4.267,0-5.973v-1.707
				c0-0.582-0.393-1.557-0.645-2.391c1.208-32.524,7.72-60.489,16.592-83.987c16.042,11.302,37.737,18.111,60.001,18.111
				c22.264,0,43.959-6.809,60.001-18.111c9.85,26.089,16.799,57.68,16.799,94.911C434.735,206.549,434.714,208.451,434.675,210.348z
				 M410.841,92.852c-12.8,11.093-32.427,17.92-52.907,17.92c-20.48,0-40.107-6.827-52.907-17.92
				c0.057-0.127,0.115-0.249,0.172-0.375c15.899-34.104,35.913-56.736,47.748-68.314c1.896-1.838,3.582-3.409,4.986-4.697
				C368.175,28.852,392.068,52.746,410.841,92.852z M276.015,288.266l-46.933,13.653l35.84-71.68
				c0.623,7.472,1.589,14.714,2.81,21.815c0.026,0.162,0.054,0.32,0.081,0.482c0.009,0.05,0.017,0.1,0.025,0.149
				c1.796,11.062,4.171,21.428,6.982,31.127C275.213,285.297,275.61,286.781,276.015,288.266z M441.561,466.612
				c0.853,3.413,1.707,5.973,0.853,8.533c-2.56,11.093-12.8,19.627-24.747,19.627c-14.507,0-25.6-11.093-25.6-25.6v-17.067
				c0-18.773-15.36-34.133-34.133-34.133c-18.773,0-34.133,15.36-34.133,34.133v17.067c0,14.507-11.093,25.6-25.6,25.6
				c-11.947,0-22.187-8.533-25.6-18.773c0-2.56,0-5.12,0.853-8.533l36.693-110.08c21.333,29.013,41.813,41.813,42.667,42.667
				c3.413,1.707,6.827,1.707,9.387,0c0.656,0,12.909-8.076,28.229-24.98c4.641-5.001,9.555-10.826,14.502-17.497L441.561,466.612z
				 M439.855,288.266c0.405-1.485,0.802-2.97,1.196-4.456c2.81-9.698,5.185-20.065,6.981-31.126c0.009-0.05,0.017-0.1,0.026-0.15
				c0.026-0.161,0.055-0.319,0.08-0.48c1.221-7.1,2.188-14.343,2.81-21.815l35.84,71.68L439.855,288.266z"/>
			<path d="M357.935,161.972c0-5.12-3.413-8.533-8.533-8.533s-8.533,3.413-8.533,8.533s-3.413,8.533-8.533,8.533
				c-5.12,0-8.533-3.413-8.533-8.533s-3.413-8.533-8.533-8.533s-8.533,3.413-8.533,8.533c0,14.507,11.093,25.6,25.6,25.6
				C346.841,187.572,357.935,176.479,357.935,161.972z"/>
			<path d="M357.935,272.906c-5.12,0-8.533,3.413-8.533,8.533s-3.413,8.533-8.533,8.533c-5.12,0-8.533-3.413-8.533-8.533
				s-3.413-8.533-8.533-8.533s-8.533,3.413-8.533,8.533c0,14.507,11.093,25.6,25.6,25.6c14.507,0,25.6-11.093,25.6-25.6
				C366.468,276.319,363.055,272.906,357.935,272.906z"/>
			<path d="M400.601,213.172c-5.12,0-8.533,3.413-8.533,8.533s-3.413,8.533-8.533,8.533s-8.533-3.413-8.533-8.533
				s-3.413-8.533-8.533-8.533s-8.533,3.413-8.533,8.533c0,14.507,11.093,25.6,25.6,25.6c14.507,0,25.6-11.093,25.6-25.6
				C409.135,216.586,405.721,213.172,400.601,213.172z"/>
		</g>
	</g>
</g>
<g>
</g>
<g>
</g>
<g>
</g>
<g>
</g>
<g>
</g>
<g>
</g>
<g>
</g>
<g>
</g>
<g>
</g>
<g>
</g>
<g>
</g>
<g>
</g>
<g>
</g>
<g>
</g>
<g>
</g>
</svg>
