<?xml version="1.0" encoding="iso-8859-1"?>
<!-- Generator: Adobe Illustrator 19.0.0, SVG Export Plug-In . SVG Version: 6.00 Build 0)  -->
<svg version="1.1" id="Layer_1" xmlns="http://www.w3.org/2000/svg" xmlns:xlink="http://www.w3.org/1999/xlink" x="0px" y="0px"
	 viewBox="0 0 512.427 512.427" style="enable-background:new 0 0 512.427 512.427;" xml:space="preserve">
<g transform="translate(1 1)">
	<g>
		<path d="M484.423,451.693c-28.16-59.733-73.387-104.96-133.12-133.12c-1.839-0.92-3.677-1.09-5.383-0.657l-33.938-17.195
			l23.108-23.108c49.493-49.493,49.493-131.413,0-180.907L274.503,36.12c-49.493-49.493-131.413-49.493-180.907,0l-61.44,61.44
			c-9.387,9.387-9.387,24.747,0,34.133l2.56,2.56c9.387,9.387,24.747,9.387,34.133,0l12.739-12.739l18.347,18.347l-5.486,5.486
			c-3.413,3.413-3.413,8.533,0,11.947c1.707,1.707,3.413,2.56,5.973,2.56c1.707,0,4.267-0.853,5.973-2.56l5.486-5.486l12.373,12.373
			l-5.913,5.913c-3.413,3.413-3.413,8.533,0,11.947c1.707,1.707,3.413,2.56,5.973,2.56c1.707,0,4.267-0.853,5.973-2.56l5.913-5.913
			l11.947,11.947l-5.913,5.913c-3.413,3.413-3.413,8.533,0,11.947c1.707,1.707,3.413,2.56,5.973,2.56s4.267-0.853,5.973-2.56
			l5.913-5.913l11.947,11.947l-5.913,5.913c-3.413,3.413-3.413,8.533,0,11.947c1.707,1.707,3.413,2.56,5.973,2.56
			s4.267-0.853,5.973-2.56l5.913-5.913l12.373,12.373l-5.486,5.486c-3.413,3.413-3.413,8.533,0,11.947
			c1.707,1.707,3.413,2.56,5.973,2.56c1.707,0,4.267-0.853,5.973-2.56l5.486-5.486l12.373,12.373l-5.913,5.913
			c-3.413,3.413-3.413,8.533,0,11.947c1.707,1.707,3.413,2.56,5.973,2.56s4.267-0.853,5.973-2.56l5.913-5.913l17.493,17.493
			l-13.166,13.166c-4.267,4.267-6.827,10.24-6.827,17.067s2.56,12.8,6.827,17.067l2.56,2.56c5.12,4.267,11.093,6.827,17.067,6.827
			c6.013,0,11.363-1.989,15.469-5.961l24.638,48.628l0.257-0.257c28.3,54.288,70.88,95.001,127.743,121.43
			c0.853,0.853,2.56,0.853,3.413,0.853c2.56,0,4.267-0.853,5.973-2.56l48.64-47.787C485.276,458.52,486.129,455.107,484.423,451.693
			z M244.697,260.486l5.913-5.913c3.413-3.413,3.413-8.533,0-11.947s-8.533-3.413-11.947,0l-5.913,5.913l-12.373-12.373l6.339-6.339
			c3.413-3.413,3.413-8.533,0-11.947s-8.533-3.413-11.947,0l-6.339,6.339l-12.373-12.373l5.913-5.913
			c3.413-3.413,3.413-8.533,0-11.947s-8.533-3.413-11.947,0l-5.913,5.913l-11.947-11.947l5.913-5.913
			c3.413-3.413,3.413-8.533,0-11.947s-8.533-3.413-11.947,0l-5.913,5.913l-11.947-11.947l5.913-5.913
			c3.413-3.413,3.413-8.533,0-11.947c-3.413-3.413-8.533-3.413-11.947,0l-5.913,5.913L123.95,139.74l6.339-6.34
			c3.413-3.413,3.413-8.533,0-11.947s-8.533-3.413-11.947,0l-6.339,6.339l-18.347-18.347l36.633-36.633
			c14.507-14.507,34.133-22.187,54.613-22.187s39.253,7.68,52.907,21.333l60.587,60.587c14.507,14.507,22.187,34.133,22.187,54.613
			c0,20.48-7.68,40.107-22.187,54.613L262.19,277.98L244.697,260.486z M262.556,328.813c-3.413,2.56-7.68,2.56-10.24,0l-2.56-2.56
			c-0.853-1.707-1.707-3.413-1.707-5.12s0-3.413,1.707-5.12l62.293-61.44c17.92-17.92,27.307-40.96,27.307-66.56
			c0-25.6-9.387-48.64-27.307-66.56l-60.587-60.587c-17.92-17.92-41.813-27.307-66.56-27.307c-25.6,0-48.64,9.387-65.707,28.16
			l-61.44,61.44c-3.413,2.56-7.68,2.56-10.24,0l-2.56-2.56c-2.56-3.413-2.56-7.68,0-10.24l61.44-60.587
			c43.52-43.52,113.493-43.52,157.013,0l60.587,60.587c43.52,43.52,43.52,113.493,0,157.013l-26.174,26.174l-1.133-0.574
			L264.263,325.4l0.574,1.133L262.556,328.813z M300.956,312.6l32.427,16.213l-31.573,31.573l-16.213-32.427L300.956,312.6z
			 M426.396,492.653c-52.053-25.6-91.307-64.853-116.907-116.053l39.821-39.821c51.769,25.606,90.833,64.758,116.339,116.621
			L426.396,492.653z"/>
	</g>
</g>
<g>
</g>
<g>
</g>
<g>
</g>
<g>
</g>
<g>
</g>
<g>
</g>
<g>
</g>
<g>
</g>
<g>
</g>
<g>
</g>
<g>
</g>
<g>
</g>
<g>
</g>
<g>
</g>
<g>
</g>
</svg>
