<?xml version="1.0" encoding="iso-8859-1"?>
<!-- Generator: Adobe Illustrator 19.0.0, SVG Export Plug-In . SVG Version: 6.00 Build 0)  -->
<svg version="1.1" id="Layer_1" xmlns="http://www.w3.org/2000/svg" xmlns:xlink="http://www.w3.org/1999/xlink" x="0px" y="0px"
	 viewBox="0 0 512 512" style="enable-background:new 0 0 512 512;" xml:space="preserve">
<g transform="translate(1 1)">
	<g>
		<g>
			<path d="M341.575,362.055c-8.378-7.447-12.102-17.687-12.102-27.927V306.2c0-10.24,4.655-20.48,12.102-27.927l40.029-40.96
				c10.24-9.309,11.171-25.135,3.724-36.305c-4.655-6.516-12.102-10.24-20.48-11.171c-8.378,0-16.756,2.793-22.342,8.378
				l-40.96,40.96c-7.447,7.447-17.687,12.102-27.927,12.102h-27.927c-10.24,0-20.48-4.655-27.927-12.102l-40.96-40.96
				c-9.309-10.24-25.135-11.171-36.305-3.724c-6.516,4.655-10.24,12.102-11.171,20.48c0,8.378,2.793,16.756,8.378,22.342
				l40.96,40.96c8.378,7.447,12.102,17.687,12.102,27.927v27.927c0,10.24-4.655,20.48-12.102,27.927l-40.96,40.96
				c-10.24,9.309-11.171,25.135-3.724,36.305c4.655,6.516,12.102,11.171,20.48,12.102c0,0,0.931,0,1.862,0
				c7.447,0,14.895-2.793,20.48-8.378l40.96-40.96c7.447-8.378,17.687-12.102,27.927-12.102h27.927
				c10.24,0,20.48,4.655,27.927,12.102l40.96,40.029c9.309,10.24,25.135,11.171,36.305,3.724
				c6.516-4.655,12.102-12.102,12.102-20.48c0-8.378-2.793-16.756-8.378-22.342L341.575,362.055z M369.502,433.735
				c-3.724,2.793-9.309,1.862-13.033-1.862l-40.96-40.96c-11.171-10.24-26.065-16.756-41.891-16.756h-27.927
				c-15.826,0-30.72,5.585-41.891,16.756l-40.96,40.96c-1.862,1.862-4.655,2.793-7.447,2.793s-4.655-1.862-6.516-3.724
				c-2.793-3.724-1.862-9.309,1.862-13.033l40.96-40.96c10.24-11.171,16.756-26.065,16.756-41.891v-27.927
				c0-15.825-5.585-30.72-16.756-41.891l-40.96-41.891c-1.862-1.862-2.793-4.655-2.793-7.447c0-2.793,1.862-4.655,3.724-6.516
				c0.931-0.931,2.793-1.862,4.655-1.862c2.793,0,5.586,1.862,6.516,3.724l40.96,40.96c11.171,10.24,26.065,16.756,41.891,16.756
				h27.927c14.895,0,30.72-6.516,41.891-18.618l40.96-40.96c1.862-1.862,4.655-2.793,7.447-2.793s4.655,1.862,6.516,3.724
				c2.793,3.724,1.862,9.309-1.862,13.033l-40.96,40.96c-10.24,11.171-16.756,26.065-16.756,41.891v27.927
				c0,15.826,6.516,29.789,18.618,44.684l40.96,40.96c1.862,1.862,2.793,4.655,2.793,7.447S371.364,431.873,369.502,433.735z"/>
			<path d="M431.873,110.709V91.738C447.442,89.4,459.8,75.536,459.8,58.578V31.582C459.8,13.895,445.836-1,427.218-1h-82.851
				c-17.687,0-32.582,13.964-32.582,32.582v9.562c-0.6,1.275-0.931,2.755-0.931,4.401s0.331,3.126,0.931,4.401v9.562
				c0,15.867,11.241,29.479,26.996,32.114v19.086h-65.164V56.716C273.618,25.065,247.553-1,215.902-1h-89.367
				C94.884-1,68.818,25.065,68.818,56.716v55.179c-16.014,4.161-27.927,18.781-27.927,36.05v325.818
				c0,20.48,16.756,37.236,37.236,37.236h353.745c20.48,0,37.236-16.756,37.236-37.236V147.945
				C469.109,127.465,452.353,110.709,431.873,110.709z M343.436,17.618h83.782c7.447,0,13.964,6.516,13.964,13.964v4.655H329.473
				v-4.655C329.473,24.135,335.989,17.618,343.436,17.618z M329.473,58.578v-3.724h111.709v4.655
				c0,7.447-6.516,13.964-14.895,13.964h-82.851C335.989,73.473,329.473,66.956,329.473,58.578z M357.4,92.091h55.854v18.618H357.4
				V92.091z M87.436,56.716c0-21.411,17.687-39.098,39.098-39.098h89.367c21.411,0,39.098,17.687,39.098,39.098v53.993h-18.618
				V62.302c0-13.964-12.102-26.065-26.996-26.065H132.12c-13.964,0-26.065,12.102-26.065,26.065v48.407H87.436V56.716z
				 M217.764,110.709h-93.091V62.302c0-3.724,3.724-7.447,7.447-7.447h78.196c3.724,0,7.447,3.724,7.447,7.447V110.709z
				 M450.491,473.764c0,10.24-8.378,18.618-18.618,18.618H78.127c-10.24,0-18.618-8.378-18.618-18.618V147.945
				c0-10.24,8.378-18.618,18.618-18.618h46.545h93.091h55.855h65.164h93.091c10.24,0,18.618,8.378,18.618,18.618V473.764z"/>
			<path d="M272.687,287.582h-26.065c-10.24,0-19.549,8.378-19.549,19.549v26.065c0,10.24,9.309,19.549,19.549,19.549h26.065
				c10.24,0,19.549-9.309,19.549-19.549v-26.065C292.236,296.891,283.858,287.582,272.687,287.582z M273.618,333.196
				c0,0,0,0.931-0.931,0.931h-26.065c0,0-0.931,0-0.931-0.931v-26.065c0,0,0-0.931,0.931-0.931h26.065c0,0,0.931,0,0.931,0.931
				V333.196z"/>
		</g>
	</g>
</g>
<g>
</g>
<g>
</g>
<g>
</g>
<g>
</g>
<g>
</g>
<g>
</g>
<g>
</g>
<g>
</g>
<g>
</g>
<g>
</g>
<g>
</g>
<g>
</g>
<g>
</g>
<g>
</g>
<g>
</g>
</svg>
