<?xml version="1.0" encoding="iso-8859-1"?>
<!-- Generator: Adobe Illustrator 19.0.0, SVG Export Plug-In . SVG Version: 6.00 Build 0)  -->
<svg version="1.1" id="Layer_1" xmlns="http://www.w3.org/2000/svg" xmlns:xlink="http://www.w3.org/1999/xlink" x="0px" y="0px"
	 viewBox="0 0 512 512" style="enable-background:new 0 0 512 512;" xml:space="preserve">
<g transform="translate(1 1)">
	<g>
		<path d="M510.147,257.56c0-20.48-16.213-36.693-36.693-36.693h-32.467L423.761,152.6h0.199l-12.8-51.2h-0.319l-11.628-46.08
			c-5.973-23.04-26.453-39.253-50.347-39.253H161.133c-23.893,0-45.227,16.213-51.2,39.253l-41,165.547h-33.24
			C15.213,220.867-1,237.08-1,257.56v31.573h59.917c3.482,82.142,57.067,151.783,136.35,177.36v11.226
			c0,9.387,7.68,16.213,16.213,16.213h87.04c9.387,0,16.213-6.827,16.213-16.213v-11.226
			c79.283-25.577,132.868-95.218,136.35-177.36h59.064V257.56z M127,59.587c4.267-15.36,17.92-26.453,34.133-26.453h187.733
			c16.213,0,29.867,11.093,34.133,26.453l10.398,41.813H116.602L127,59.587z M112.493,118.467h285.013l4.267,17.067H108.227
			L112.493,118.467z M103.87,152.6H406.13l16.976,68.267H86.893L103.87,152.6z M297.667,476.867h-85.333v-34.133h85.333V476.867z
			 M314.733,447.875v-5.995c0-9.387-7.68-16.213-16.213-16.213h-87.04c-9.387,0-16.213,7.68-16.213,16.213v5.995
			c-69.572-23.669-115.89-85.997-119.262-158.742h357.99C430.623,361.878,384.305,424.206,314.733,447.875z M493.933,272.067H16.067
			V257.56c0-11.093,8.533-19.627,19.627-19.627h29.013h380.587h29.013c11.093,0,19.627,8.533,19.627,19.627V272.067z"/>
	</g>
</g>
<g>
</g>
<g>
</g>
<g>
</g>
<g>
</g>
<g>
</g>
<g>
</g>
<g>
</g>
<g>
</g>
<g>
</g>
<g>
</g>
<g>
</g>
<g>
</g>
<g>
</g>
<g>
</g>
<g>
</g>
</svg>
