<?xml version="1.0" encoding="iso-8859-1"?>
<!-- Generator: Adobe Illustrator 19.0.0, SVG Export Plug-In . SVG Version: 6.00 Build 0)  -->
<svg version="1.1" id="Layer_1" xmlns="http://www.w3.org/2000/svg" xmlns:xlink="http://www.w3.org/1999/xlink" x="0px" y="0px"
	 viewBox="0 0 511.147 511.147" style="enable-background:new 0 0 511.147 511.147;" xml:space="preserve">
<g transform="translate(1 1)">
	<g>
		<g>
			<path d="M400.397,458.947c-0.853,5.12,2.56,9.387,6.827,10.24l14.507,2.56l-12.8,12.8c-9.387,10.24-25.6,10.24-35.84,0
				c-10.24-9.387-10.24-25.6,0-35.84c0.297-0.297,0.558-0.611,0.804-0.931l76.095-76.095l-0.385-0.385
				c13.784-14.721,8.496-44.331-15.073-85.576c-22.187-38.4-57.173-82.773-99.84-125.44C268.741,93.628,190.109,37.951,146.679,37.8
				c1.285-10.105-2.03-20.628-9.962-28.56c-13.653-13.653-34.987-13.653-48.64,0s-13.653,34.987,0,48.64
				c6.827,6.827,15.36,10.24,23.893,10.24c1.274,0,2.568-0.086,3.869-0.238c-0.242,28.705,24.527,73.239,60.609,119.346
				l-61.547,61.547c-1.052,0.426-2.049,1.076-2.931,1.958c-9.387,9.387-26.453,9.387-35.84,0c-10.24-9.387-10.24-25.6,0-35.84
				l12.8-12.8l2.56,14.507c0.853,5.12,5.973,7.68,10.24,6.827c5.12-0.853,7.68-5.973,6.827-10.24l-8.533-46.08l-35.84,34.987
				c-16.213,17.067-16.213,44.373,0,60.587c7.68,8.533,18.773,12.8,29.867,12.8c2.36,0,4.719-0.205,7.046-0.592
				c-1.817,12.832,2.092,26.289,11.727,36.432c7.68,8.533,18.773,12.8,29.867,12.8c10.24,0,21.333-4.267,30.72-12.8l34.987-35.84
				l-46.08-9.387c-5.12-0.853-9.387,2.56-10.24,6.827c-0.853,5.12,2.56,9.387,6.827,10.24l14.507,2.56l-12.8,12.8
				c-9.387,10.24-25.6,10.24-35.84,0c-10.012-9.178-10.229-24.878-0.662-35.144l0.164,0.164l62.487-62.487
				c15.238,18.572,32.952,37.955,51.504,56.507c14.507,14.507,29.867,28.16,44.373,40.96l3.675,2.45
				c26.883,22.716,53.312,41.664,77.391,55.577c21.805,12.661,40.122,20.09,54.969,22.315l-56.391,56.391
				c-0.705,0.393-1.377,0.893-1.991,1.508c-9.387,10.24-25.6,10.24-35.84,0c-10.24-9.387-10.24-25.6,0-35.84l13.653-13.653
				l2.56,14.507c0.853,5.12,5.973,7.68,10.24,6.827c5.12-0.853,7.68-5.973,6.827-10.24l-9.387-46.08l-35.84,35.84
				c-16.213,17.067-16.213,43.52,0,60.587c7.68,8.533,18.773,12.8,29.867,12.8c2.36,0,4.719-0.205,7.046-0.592
				c-1.817,12.832,2.092,26.289,11.727,36.432c7.68,8.533,18.773,12.8,29.867,12.8s21.333-4.267,29.867-13.653l35.84-34.987
				l-46.08-9.387C405.517,451.267,401.251,454.68,400.397,458.947z M256.15,249.799c-0.147-0.145-0.295-0.289-0.442-0.434
				c-1.549-1.524-3.096-3.057-4.643-4.605c-16.505-16.505-31.227-32.55-44.21-47.869l92.85-46.851
				c8.533,7.68,16.213,15.36,23.893,23.04c20.48,20.48,39.253,40.96,56.32,62.293l-89.6,46.08
				C278.471,271.088,267.268,260.721,256.15,249.799z M100.024,45.933c-6.827-6.827-6.827-17.067,0-23.893
				c3.413-3.413,7.68-5.12,11.947-5.12c4.267,0,8.533,1.707,11.947,5.12c6.827,6.827,6.827,17.067,0,23.893
				S106.851,52.76,100.024,45.933z M136.717,57.88c0.44-0.44,0.865-0.889,1.277-1.345c1.913-1.511,4.888-2.069,8.963-2.069
				c22.948,0,75.426,27.124,139.2,82.88l-90.376,46.136C143.934,118.98,124.89,69.707,136.717,57.88z M304.286,293.488
				l86.953-44.428c11.543,15.423,21.52,30.377,29.638,44.34c22.187,39.253,23.04,59.733,17.067,65.707s-26.453,5.12-65.707-17.067
				C351.131,329.769,328.046,313.255,304.286,293.488z"/>
			<path d="M190.477,100.547c-3.413-3.413-8.533-3.413-11.947,0s-3.413,8.533,0,11.947s8.533,3.413,11.947,0
				S193.891,103.96,190.477,100.547z"/>
		</g>
	</g>
</g>
<g>
</g>
<g>
</g>
<g>
</g>
<g>
</g>
<g>
</g>
<g>
</g>
<g>
</g>
<g>
</g>
<g>
</g>
<g>
</g>
<g>
</g>
<g>
</g>
<g>
</g>
<g>
</g>
<g>
</g>
</svg>
