<?xml version="1.0" encoding="iso-8859-1"?>
<!-- Generator: Adobe Illustrator 19.0.0, SVG Export Plug-In . SVG Version: 6.00 Build 0)  -->
<svg version="1.1" id="Layer_1" xmlns="http://www.w3.org/2000/svg" xmlns:xlink="http://www.w3.org/1999/xlink" x="0px" y="0px"
	 viewBox="0 0 504.446 504.446" style="enable-background:new 0 0 504.446 504.446;" xml:space="preserve">
<g transform="translate(2 1)">
	<g>
		<g>
			<path d="M498.249,407.341c-2.518-0.839-5.875-1.679-8.393,0c-6.743,3.034-14.569,5.659-22.662,6.902v-58.102h26.02
				c5.036,0,8.393-3.357,8.393-8.393v-33.574c0-5.036-3.357-8.393-8.393-8.393h-25.18V146.305h8.393
				c3.357,0,5.875-1.679,7.554-5.036c0.839-2.518,0.839-5.875-0.839-8.393L407.6,23.761c-1.679-1.679-4.197-3.357-6.715-3.357
				h-58.754h-58.754h-58.754h-58.754h-58.754c-2.518,0-5.036,0.839-6.715,2.518L16.466,132.036
				c-1.679,3.357-2.518,6.715-0.839,9.233c1.679,3.357,4.197,5.036,7.554,5.036h8.393V305.78H6.393
				c-5.036,0-8.393,3.357-8.393,8.393v33.574c0,5.036,3.357,8.393,8.393,8.393h25.18v58.878c-7.133-0.476-14.374-2.432-20.984-6.838
				c-2.518-1.679-5.875-2.518-8.393-0.839C-0.321,409.02-2,411.538-2,414.895v58.754c0,5.036,3.357,8.393,8.393,8.393h486.82
				c2.518,0,4.197-0.839,6.715-3.357c1.679-1.679,2.518-3.357,2.518-5.875v-58.754C502.446,411.538,500.767,409.02,498.249,407.341z
				 M348.846,407.341c-2.103,0.996-4.356,1.947-6.715,2.823v-54.023h74.702v45.05C393.76,394.848,366.587,399.152,348.846,407.341z
				 M81.934,356.141h67.148v50.837c-19.59-8.557-45.93-12.245-67.148-5.968V356.141z M182.656,414.895
				c-5.875,0.839-11.751,0-16.787-0.839v-57.915h16.787V414.895z M199.443,356.141h92.328v52.039l-0.839-0.839
				c-22.662-10.911-60.433-13.43-82.256,0c-2.86,1.505-5.965,2.872-9.233,4.039V356.141z M308.557,414.056v-57.915h16.787v57.915
				C319.469,414.895,313.593,414.895,308.557,414.056z M451.246,414.632c-5.836-0.707-11.532-2.471-16.787-5.648v-52.842h16.787
				V414.632z M451.246,305.78H191.049V146.305h50.361h58.754h58.754h58.754h33.574V305.78z M161.478,37.19l63.919,92.328h-38.352
				L123.127,37.19H161.478z M278.987,37.19l63.919,92.328h-38.352L240.635,37.19H278.987z M460.479,129.518h-0.839h-37.577
				L358.143,37.19h38.545L460.479,129.518z M401.725,129.518h-38.416L299.389,37.19h38.545L401.725,129.518z M220.233,37.19
				l63.919,92.328h-38.545l-63.79-92.328H220.233z M106.944,43.285l59.7,86.233H39.967L106.944,43.285z M48.361,146.305h125.902
				V305.78h-16.787V179.879c0-5.036-3.357-8.393-8.393-8.393H73.541c-5.036,0-8.393,3.357-8.393,8.393V305.78H48.361V146.305z
				 M81.934,255.42h16.787c5.036,0,8.393-3.357,8.393-8.393s-3.357-8.393-8.393-8.393H81.934v-50.361h58.754V305.78H81.934V255.42z
				 M14.787,322.567h25.18h33.574h75.541h33.574h276.984h25.18v16.787H458.8h-33.574h-91.489h-33.574H191.049h-33.574H73.541H39.967
				h-25.18V322.567z M65.148,356.141v52.313c-4.33,1.84-10.185,3.938-16.787,5.287v-57.6H65.148z M484.82,465.256H15.626v-36.092
				c17.626,5.875,38.61,4.197,60.433-5.875c0-0.839,0.839-0.839,0.839-0.839c15.108-10.072,43.646-9.233,66.308,0
				c3.427,2.412,7.048,4.316,10.792,5.791c0.04,0.027,0.079,0.058,0.119,0.084c0.062,0.014,0.123,0.027,0.185,0.041
				c20.951,8.103,45.751,2.591,62.766-5.916c16.787-10.911,47.843-8.393,66.308,0c14.945,9.964,32.811,11.163,49.263,7.938
				c0.94-0.126,1.87-0.255,2.776-0.384c0.793-0.159,1.526-0.408,2.194-0.735c6.684-1.692,13.052-4.065,18.79-6.819
				c17.071-8.129,45.95-10.747,64.528-1.754c0.035,0.024,0.066,0.052,0.102,0.075c0.023,0,0.04,0.007,0.062,0.008
				c0.254,0.124,0.5,0.257,0.75,0.386c0.219,0.218,0.429,0.445,0.866,0.445c19.305,13.43,42.807,12.59,62.111,5.875V465.256z"/>
			<path d="M392.492,171.485H249.803c-5.036,0-8.393,3.357-8.393,8.393v33.574v58.754c0,5.036,3.357,8.393,8.393,8.393h142.689
				c5.036,0,8.393-3.357,8.393-8.393v-58.754v-33.574C400.885,174.843,397.528,171.485,392.492,171.485z M258.197,188.272h125.902
				v16.787H258.197V188.272z M258.197,263.813v-41.967h50.361v16.787c0,5.036,3.357,8.393,8.393,8.393
				c5.036,0,8.393-3.357,8.393-8.393v-16.787h58.754v41.967H258.197z"/>
		</g>
	</g>
</g>
<g>
</g>
<g>
</g>
<g>
</g>
<g>
</g>
<g>
</g>
<g>
</g>
<g>
</g>
<g>
</g>
<g>
</g>
<g>
</g>
<g>
</g>
<g>
</g>
<g>
</g>
<g>
</g>
<g>
</g>
</svg>
