<?xml version="1.0" encoding="iso-8859-1"?>
<!-- Generator: Adobe Illustrator 19.0.0, SVG Export Plug-In . SVG Version: 6.00 Build 0)  -->
<svg version="1.1" id="Layer_1" xmlns="http://www.w3.org/2000/svg" xmlns:xlink="http://www.w3.org/1999/xlink" x="0px" y="0px"
	 viewBox="0 0 505.173 505.173" style="enable-background:new 0 0 505.173 505.173;" xml:space="preserve">
<g transform="translate(1 2)">
	<g>
		<g>
			<path d="M421.415,356.4l-78.879-78.135l0.372-0.372L319.015,254l-11.947-11.947L63.015-2l-5.12,11.093
				C38.269,51.76,47.655,102.96,80.935,136.24l165.575,166.371l-4.295,4.295c-11.093,10.24-11.093,27.307,0,38.4l1.707,2.56
				c4.267,4.267,9.387,5.973,14.507,5.973c5.973,0,11.093-1.707,14.507-5.973l5.484-5.484c8.51,3.509,29.042,14.145,37.183,34.497
				c2.56,6.827,7.68,11.947,14.507,13.653c7.68,2.56,23.04,10.24,29.013,34.133l11.093,57.173c0.853,4.267,4.267,8.533,7.68,10.24
				c5.973,3.413,20.48,11.093,36.693,11.093c11.093,0,22.187-3.413,31.573-14.507l0.853-0.853l0.853-1.707
				C448.722,483.547,476.029,411.013,421.415,356.4z M68.989,27.867L294.269,254l-35.84,35.84L92.882,124.293
				C68.135,98.693,58.749,62,68.989,27.867z M256.722,335.92l-2.56-2.56c-4.267-4.267-4.267-10.24,0-14.507l52.907-52.907
				l11.947,11.947l-58.027,58.027C259.282,337.627,258.429,337.627,256.722,335.92z M432.509,478.427
				c-13.653,14.507-35.84,4.267-45.227-0.853L376.189,420.4c-8.533-32.427-29.013-43.52-40.96-46.933
				c-1.707,0-3.413-1.707-4.267-3.413c-8.533-22.187-26.453-34.133-39.253-40.96l39.253-39.253l78.507,78.507
				C452.989,411.867,435.922,469.04,432.509,478.427z"/>
			<path d="M395.815,422.107c0,5.12,3.413,8.533,8.533,8.533c5.12,0,8.533-3.413,8.533-8.533s-3.413-8.533-8.533-8.533
				C399.229,413.573,395.815,416.987,395.815,422.107z"/>
			<path d="M344.615,336.773c-5.12,0-8.533,3.413-8.533,8.533s3.413,8.533,8.533,8.533c5.12,0,8.533-3.413,8.533-8.533
				S349.735,336.773,344.615,336.773z"/>
		</g>
	</g>
</g>
<g>
</g>
<g>
</g>
<g>
</g>
<g>
</g>
<g>
</g>
<g>
</g>
<g>
</g>
<g>
</g>
<g>
</g>
<g>
</g>
<g>
</g>
<g>
</g>
<g>
</g>
<g>
</g>
<g>
</g>
</svg>
