<?xml version="1.0" encoding="iso-8859-1"?>
<!-- Generator: Adobe Illustrator 19.0.0, SVG Export Plug-In . SVG Version: 6.00 Build 0)  -->
<svg version="1.1" id="Layer_1" xmlns="http://www.w3.org/2000/svg" xmlns:xlink="http://www.w3.org/1999/xlink" x="0px" y="0px"
	 viewBox="0 0 512 512" style="enable-background:new 0 0 512 512;" xml:space="preserve">
<g transform="translate(1 1)">
	<g>
		<path d="M441.88,43.373C427.373,26.307,406.04,16.067,383,16.067h-34.133C348.867,6.68,341.187-1,331.8-1H178.2
			c-9.387,0-17.067,7.68-17.067,17.067H127c-23.04,0-44.373,10.24-58.88,27.307c-14.507,17.067-19.627,40.96-15.36,64l23.04,115.2
			c10.098,43.5,31.513,70.021,59.733,74.43v53.57c0,28.274,17.741,52.479,42.667,62.105v38.588h-29.013
			c-11.947,0-22.187,9.387-22.187,22.187v20.48H84.333c-5.12,0-8.533,3.413-8.533,8.533S79.213,511,84.333,511H127h255.147H383
			h42.667c5.12,0,8.533-3.413,8.533-8.533s-3.413-8.533-8.533-8.533h-43.52v-20.48c0-11.947-9.387-22.187-22.187-22.187H331.8
			v-38.588c24.925-9.626,42.667-33.831,42.667-62.105v-53.442c29.585-3.706,50.37-27.011,59.733-66.025l23.04-123.733
			C461.507,84.333,456.387,60.44,441.88,43.373z M178.2,16.067h153.6v17.067H178.2V16.067z M306.2,118.467v17.067H203.8v-17.067
			H306.2z M323.267,152.6h51.2c5.12,0,8.533,3.413,8.533,8.533s-3.413,8.533-8.533,8.533H135.533c-5.12,0-8.533-3.413-8.533-8.533
			s3.413-8.533,8.533-8.533h51.2H323.267z M323.267,340.333v-42.667H357.4v42.667H323.267z M306.2,400.067h-42.667V357.4H306.2
			V400.067z M203.8,357.4h42.667v42.667H203.8V357.4z M152.6,237.933h34.133V280.6H152.6V237.933z M246.467,186.733v34.133H203.8
			v-34.133H246.467z M323.267,280.6v-42.667H357.4V280.6H323.267z M306.2,280.6h-42.667v-42.667H306.2V280.6z M263.533,220.867
			v-34.133H306.2v34.133H263.533z M246.467,237.933V280.6H203.8v-42.667H246.467z M186.733,297.667v42.667H152.6v-42.667H186.733z
			 M203.8,297.667h42.667v42.667H203.8V297.667z M263.533,340.333v-42.667H306.2v42.667H263.533z M357.4,220.867h-34.133v-34.133
			H357.4V220.867z M186.733,186.733v34.133H152.6v-34.133H186.733z M153.081,357.4h33.652v40.218
			C169.024,391.828,155.699,376.314,153.081,357.4z M360.813,468.333c2.56,0,5.12,1.707,5.12,5.12v20.48H144.067v-20.48
			c0-2.56,1.707-5.12,5.12-5.12H178.2h153.6H360.813z M314.733,417.133v34.133H195.267v-34.133h6.827h105.813H314.733z
			 M323.267,397.618V357.4h33.652C354.301,376.314,340.976,391.828,323.267,397.618z M440.173,104.813l-23.04,122.88
			c-4.646,21.68-16.319,47.573-42.667,52.184v-93.144c14.507,0,25.6-11.093,25.6-25.6c0-14.507-11.093-25.6-25.6-25.6h-51.2v-17.067
			c0-9.387-7.68-17.067-17.067-17.067h-42.667V84.333H280.6c5.12,0,8.533-3.413,8.533-8.533s-3.413-8.533-8.533-8.533h-51.2
			c-5.12,0-8.533,3.413-8.533,8.533s3.413,8.533,8.533,8.533h17.067V101.4H203.8c-9.387,0-17.067,7.68-17.067,17.067v17.067h-51.2
			c-14.507,0-25.6,11.093-25.6,25.6c0,14.507,11.093,25.6,25.6,25.6v92.85c-27.132-6.632-38.785-44.12-42.667-60.423l-23.04-115.2
			C66.413,86.04,70.68,67.267,80.92,54.467C92.867,40.813,109.08,33.133,127,33.133h34.133c0,9.387,7.68,17.067,17.067,17.067h153.6
			c9.387,0,17.067-7.68,17.067-17.067H383c17.92,0,34.133,7.68,45.227,21.333C439.32,67.267,443.587,86.04,440.173,104.813z"/>
	</g>
</g>
<g>
</g>
<g>
</g>
<g>
</g>
<g>
</g>
<g>
</g>
<g>
</g>
<g>
</g>
<g>
</g>
<g>
</g>
<g>
</g>
<g>
</g>
<g>
</g>
<g>
</g>
<g>
</g>
<g>
</g>
</svg>
