<?xml version="1.0" encoding="iso-8859-1"?>
<!-- Generator: Adobe Illustrator 19.0.0, SVG Export Plug-In . SVG Version: 6.00 Build 0)  -->
<svg version="1.1" id="Layer_1" xmlns="http://www.w3.org/2000/svg" xmlns:xlink="http://www.w3.org/1999/xlink" x="0px" y="0px"
	 viewBox="0 0 512.427 512.427" style="enable-background:new 0 0 512.427 512.427;" xml:space="preserve">
<g transform="translate(1 1)">
	<g>
		<g>
			<path d="M510.573,273.133l-25.6-51.2c-0.853-0.853-1.707-1.707-2.56-2.56l-41.813-33.28L364.653,67.48
				c-1.707-2.56-4.267-4.267-6.827-4.267s-5.12,0.853-6.827,4.267l-66.56,92.16l-57.352,21.13l-23.714-45.023
				c-1.707-2.987-4.907-4.48-8-4.48c-0.387,0-0.772,0.023-1.152,0.07c-2.661,0.327-5.088,1.797-6.208,4.41l-38.492,73.078
				L75.373,67.48c-2.56-5.973-12.8-5.973-15.36,0L0.28,186.947c-0.344,0.688-0.579,1.412-0.722,2.148
				c-0.032,0.139-0.057,0.284-0.075,0.439c-0.093,0.658-0.109,1.322-0.056,1.98v304.404c-0.758,2.232-0.484,4.756,0.853,6.762
				c0.24,0.361,0.502,0.699,0.776,1.023c1.176,1.625,2.946,2.793,5.197,3.243c0,0,0.853,0,1.707,0h375.467h119.467
				c5.12,0,8.533-3.413,8.533-8.533V276.547C511.427,274.84,511.427,273.987,510.573,273.133z M214.467,195.48l20.482,39.014
				l8.531,16.453L229.827,264.6l-11.093-11.093c-1.707-1.707-3.413-2.56-5.973-2.56c-2.56,0-4.267,0.853-5.973,2.56L195.693,264.6
				L184.6,253.507c-3.413-3.413-8.533-3.413-11.947,0L161.56,264.6l-13.653-13.653l47.787-92.16l18.352,35.393
				C214.178,194.61,214.322,195.045,214.467,195.48z M129.133,247.533c-0.306,0.613-0.527,1.253-0.673,1.906L16.493,463.194V211.693
				l11.093,11.093c3.413,3.413,8.533,3.413,11.947,0l11.093-11.093l11.093,11.093c1.707,1.707,3.413,2.56,5.973,2.56
				c1.707,0,3.413-0.853,5.12-2.56l19.627-12.8l11.947,11.947c1.707,1.707,4.267,2.56,6.827,2.56s4.267-1.707,5.973-3.413
				l10.846-16.269l11.815,22.38L129.133,247.533z M117.187,190.36l-8.533,12.8l-9.387-9.387c-3.413-2.56-7.68-3.413-11.093-0.853
				l-19.627,12.8L56.6,193.773c-1.707-1.707-3.413-2.56-5.973-2.56s-4.267,0.853-5.973,2.56L33.56,204.867l-15.36-15.36
				L67.693,90.52L117.187,190.36z M139.417,266.35l16.17,16.17c3.413,3.413,8.533,3.413,11.947,0l11.093-11.093l11.093,11.093
				c3.413,3.413,8.533,3.413,11.947,0l11.093-11.093l11.093,11.093c1.707,1.707,3.413,2.56,5.973,2.56s4.267-0.853,5.973-2.56
				l15.975-15.975L369.027,489.88H22.467L139.417,266.35z M494.36,489.88h-8.533c0-5.12-3.413-8.533-8.533-8.533
				s-8.533,3.413-8.533,8.533h-34.133c0-5.12-3.413-8.533-8.533-8.533s-8.533,3.413-8.533,8.533h-28.688l-36.081-68.882
				c3.117-1.201,5.036-4.08,5.036-7.918c0-5.12-3.413-8.533-8.533-8.533c-1.732,0-3.262,0.398-4.537,1.113l-45.329-86.538
				c4.367-0.546,7.199-3.783,7.199-8.442c0-5.12-3.413-8.533-8.533-8.533c-2.614,0-4.779,0.894-6.276,2.447l-28.89-55.154
				c-0.146-0.653-0.367-1.293-0.673-1.906l-16.199-30.755c0.275,0.021,0.554,0.035,0.839,0.035c5.12,0,8.533-3.413,8.533-8.533
				s-3.413-8.533-8.533-8.533c-3.507,0-6.211,1.602-7.568,4.256l-4.613-8.759l29.341-11.219c0.55,4.361,3.785,7.188,8.441,7.188
				c5.12,0,8.533-3.413,8.533-8.533c0-1.8-0.43-3.383-1.199-4.687l12.292-4.7c1.707,0,3.413-0.853,4.267-2.56l22.977-31.715
				c1.232,0.642,2.692,0.995,4.33,0.995c5.12,0,8.533-3.413,8.533-8.533c0-2.748-0.991-4.997-2.693-6.498l11.674-16.114
				c1.076,3.413,4.045,5.545,8.086,5.545c5.12,0,8.533-3.413,8.533-8.533c0-5.034-3.303-8.41-8.28-8.523l7.427-10.251l40.461,61.91
				c-3.372,1.094-5.475,4.05-5.475,8.063c0,5.12,3.413,8.533,8.533,8.533c2.583,0,4.73-0.871,6.226-2.39L427.8,195.48
				c0,0.853,0.853,0.853,1.707,1.707l40.96,33.28l23.893,47.787V489.88z"/>
			<path d="M25.027,29.08h25.6c5.12,0,8.533-3.413,8.533-8.533s-3.413-8.533-8.533-8.533h-25.6c-5.12,0-8.533,3.413-8.533,8.533
				S19.907,29.08,25.027,29.08z"/>
			<path d="M93.293,29.08c5.12,0,8.533-3.413,8.533-8.533s-3.413-8.533-8.533-8.533c-5.12,0-8.533,3.413-8.533,8.533
				S88.173,29.08,93.293,29.08z"/>
			<path d="M468.76,88.813h25.6c5.12,0,8.533-3.413,8.533-8.533s-3.413-8.533-8.533-8.533h-25.6c-5.12,0-8.533,3.413-8.533,8.533
				S463.64,88.813,468.76,88.813z"/>
			<path d="M426.093,88.813c5.12,0,8.533-3.413,8.533-8.533s-3.413-8.533-8.533-8.533s-8.533,3.413-8.533,8.533
				S420.973,88.813,426.093,88.813z"/>
			<path d="M204.227,97.347h51.2c18.773,0,34.133-15.36,34.133-34.133c0-12.8-6.827-23.893-17.067-29.867
				C269.933,16.28,255.427,3.48,238.36,3.48c-16.213,0-29.867,11.093-33.28,25.6h-0.853c-18.773,0-34.133,15.36-34.133,34.133
				C170.093,81.987,185.453,97.347,204.227,97.347z M204.227,46.147h17.067v-8.533c0-9.387,7.68-17.067,17.067-17.067
				s17.067,7.68,17.067,17.067v6.827L261.4,47c6.827,2.56,11.093,9.387,11.093,16.213c0,9.387-7.68,17.067-17.067,17.067h-51.2
				c-9.387,0-17.067-7.68-17.067-17.067S194.84,46.147,204.227,46.147z"/>
			<path d="M374.893,122.947c-5.12,0-8.533,3.413-8.533,8.533c0,5.12,3.413,8.533,8.533,8.533s8.533-3.413,8.533-8.533
				C383.427,126.36,380.013,122.947,374.893,122.947z"/>
			<path d="M323.693,174.147c-5.12,0-8.533,3.413-8.533,8.533s3.413,8.533,8.533,8.533s8.533-3.413,8.533-8.533
				S328.813,174.147,323.693,174.147z"/>
			<path d="M349.293,148.547c-5.12,0-8.533,3.413-8.533,8.533s3.413,8.533,8.533,8.533s8.533-3.413,8.533-8.533
				S354.413,148.547,349.293,148.547z"/>
			<path d="M374.893,174.147c-5.12,0-8.533,3.413-8.533,8.533s3.413,8.533,8.533,8.533s8.533-3.413,8.533-8.533
				S380.013,174.147,374.893,174.147z"/>
			<path d="M272.493,225.347c-5.12,0-8.533,3.413-8.533,8.533c0,5.12,3.413,8.533,8.533,8.533c5.12,0,8.533-3.413,8.533-8.533
				C281.027,228.76,277.613,225.347,272.493,225.347z"/>
			<path d="M323.693,225.347c-5.12,0-8.533,3.413-8.533,8.533c0,5.12,3.413,8.533,8.533,8.533s8.533-3.413,8.533-8.533
				C332.227,228.76,328.813,225.347,323.693,225.347z"/>
			<path d="M298.093,199.747c-5.12,0-8.533,3.413-8.533,8.533s3.413,8.533,8.533,8.533s8.533-3.413,8.533-8.533
				S303.213,199.747,298.093,199.747z"/>
			<path d="M349.293,199.747c-5.12,0-8.533,3.413-8.533,8.533s3.413,8.533,8.533,8.533s8.533-3.413,8.533-8.533
				S354.413,199.747,349.293,199.747z"/>
			<path d="M374.893,225.347c-5.12,0-8.533,3.413-8.533,8.533c0,5.12,3.413,8.533,8.533,8.533s8.533-3.413,8.533-8.533
				C383.427,228.76,380.013,225.347,374.893,225.347z"/>
			<path d="M426.093,225.347c-5.12,0-8.533,3.413-8.533,8.533c0,5.12,3.413,8.533,8.533,8.533s8.533-3.413,8.533-8.533
				C434.627,228.76,431.213,225.347,426.093,225.347z"/>
			<path d="M400.493,199.747c-5.12,0-8.533,3.413-8.533,8.533s3.413,8.533,8.533,8.533c5.12,0,8.533-3.413,8.533-8.533
				S405.613,199.747,400.493,199.747z"/>
			<path d="M323.693,276.547c-5.12,0-8.533,3.413-8.533,8.533s3.413,8.533,8.533,8.533s8.533-3.413,8.533-8.533
				S328.813,276.547,323.693,276.547z"/>
			<path d="M298.093,250.947c-5.12,0-8.533,3.413-8.533,8.533s3.413,8.533,8.533,8.533s8.533-3.413,8.533-8.533
				S303.213,250.947,298.093,250.947z"/>
			<path d="M349.293,250.947c-5.12,0-8.533,3.413-8.533,8.533s3.413,8.533,8.533,8.533s8.533-3.413,8.533-8.533
				S354.413,250.947,349.293,250.947z"/>
			<path d="M374.893,276.547c-5.12,0-8.533,3.413-8.533,8.533s3.413,8.533,8.533,8.533s8.533-3.413,8.533-8.533
				S380.013,276.547,374.893,276.547z"/>
			<path d="M426.093,276.547c-5.12,0-8.533,3.413-8.533,8.533s3.413,8.533,8.533,8.533s8.533-3.413,8.533-8.533
				S431.213,276.547,426.093,276.547z"/>
			<path d="M400.493,250.947c-5.12,0-8.533,3.413-8.533,8.533s3.413,8.533,8.533,8.533c5.12,0,8.533-3.413,8.533-8.533
				S405.613,250.947,400.493,250.947z"/>
			<path d="M451.693,250.947c-5.12,0-8.533,3.413-8.533,8.533s3.413,8.533,8.533,8.533c5.12,0,8.533-3.413,8.533-8.533
				S456.813,250.947,451.693,250.947z"/>
			<path d="M477.293,293.613c5.12,0,8.533-3.413,8.533-8.533s-3.413-8.533-8.533-8.533s-8.533,3.413-8.533,8.533
				S472.173,293.613,477.293,293.613z"/>
			<path d="M323.693,327.747c-5.12,0-8.533,3.413-8.533,8.533s3.413,8.533,8.533,8.533s8.533-3.413,8.533-8.533
				S328.813,327.747,323.693,327.747z"/>
			<path d="M349.293,302.147c-5.12,0-8.533,3.413-8.533,8.533s3.413,8.533,8.533,8.533s8.533-3.413,8.533-8.533
				S354.413,302.147,349.293,302.147z"/>
			<path d="M374.893,327.747c-5.12,0-8.533,3.413-8.533,8.533s3.413,8.533,8.533,8.533s8.533-3.413,8.533-8.533
				S380.013,327.747,374.893,327.747z"/>
			<path d="M426.093,327.747c-5.12,0-8.533,3.413-8.533,8.533s3.413,8.533,8.533,8.533s8.533-3.413,8.533-8.533
				S431.213,327.747,426.093,327.747z"/>
			<path d="M400.493,302.147c-5.12,0-8.533,3.413-8.533,8.533s3.413,8.533,8.533,8.533c5.12,0,8.533-3.413,8.533-8.533
				S405.613,302.147,400.493,302.147z"/>
			<path d="M451.693,302.147c-5.12,0-8.533,3.413-8.533,8.533s3.413,8.533,8.533,8.533c5.12,0,8.533-3.413,8.533-8.533
				S456.813,302.147,451.693,302.147z"/>
			<path d="M477.293,327.747c-5.12,0-8.533,3.413-8.533,8.533s3.413,8.533,8.533,8.533s8.533-3.413,8.533-8.533
				S482.413,327.747,477.293,327.747z"/>
			<path d="M349.293,353.347c-5.12,0-8.533,3.413-8.533,8.533s3.413,8.533,8.533,8.533s8.533-3.413,8.533-8.533
				S354.413,353.347,349.293,353.347z"/>
			<path d="M374.893,378.947c-5.12,0-8.533,3.413-8.533,8.533s3.413,8.533,8.533,8.533s8.533-3.413,8.533-8.533
				S380.013,378.947,374.893,378.947z"/>
			<path d="M426.093,378.947c-5.12,0-8.533,3.413-8.533,8.533s3.413,8.533,8.533,8.533s8.533-3.413,8.533-8.533
				S431.213,378.947,426.093,378.947z"/>
			<path d="M400.493,353.347c-5.12,0-8.533,3.413-8.533,8.533s3.413,8.533,8.533,8.533c5.12,0,8.533-3.413,8.533-8.533
				S405.613,353.347,400.493,353.347z"/>
			<path d="M451.693,353.347c-5.12,0-8.533,3.413-8.533,8.533s3.413,8.533,8.533,8.533c5.12,0,8.533-3.413,8.533-8.533
				S456.813,353.347,451.693,353.347z"/>
			<path d="M477.293,378.947c-5.12,0-8.533,3.413-8.533,8.533s3.413,8.533,8.533,8.533s8.533-3.413,8.533-8.533
				S482.413,378.947,477.293,378.947z"/>
			<path d="M374.893,430.147c-5.12,0-8.533,3.413-8.533,8.533s3.413,8.533,8.533,8.533s8.533-3.413,8.533-8.533
				S380.013,430.147,374.893,430.147z"/>
			<path d="M426.093,430.147c-5.12,0-8.533,3.413-8.533,8.533s3.413,8.533,8.533,8.533s8.533-3.413,8.533-8.533
				S431.213,430.147,426.093,430.147z"/>
			<path d="M400.493,404.547c-5.12,0-8.533,3.413-8.533,8.533c0,5.12,3.413,8.533,8.533,8.533c5.12,0,8.533-3.413,8.533-8.533
				C409.027,407.96,405.613,404.547,400.493,404.547z"/>
			<path d="M451.693,404.547c-5.12,0-8.533,3.413-8.533,8.533c0,5.12,3.413,8.533,8.533,8.533c5.12,0,8.533-3.413,8.533-8.533
				C460.227,407.96,456.813,404.547,451.693,404.547z"/>
			<path d="M477.293,430.147c-5.12,0-8.533,3.413-8.533,8.533s3.413,8.533,8.533,8.533s8.533-3.413,8.533-8.533
				S482.413,430.147,477.293,430.147z"/>
			<path d="M400.493,455.747c-5.12,0-8.533,3.413-8.533,8.533s3.413,8.533,8.533,8.533c5.12,0,8.533-3.413,8.533-8.533
				S405.613,455.747,400.493,455.747z"/>
			<path d="M451.693,455.747c-5.12,0-8.533,3.413-8.533,8.533s3.413,8.533,8.533,8.533c5.12,0,8.533-3.413,8.533-8.533
				S456.813,455.747,451.693,455.747z"/>
			<path d="M263.96,387.48c0-5.12-3.413-8.533-8.533-8.533c-42.667,0-76.8,34.133-76.8,76.8c0,5.12,3.413,8.533,8.533,8.533
				s8.533-3.413,8.533-8.533c0-33.28,26.453-59.733,59.733-59.733C260.547,396.013,263.96,392.6,263.96,387.48z"/>
			<path d="M212.76,361.88c5.12,0,8.533-3.413,8.533-8.533c0-9.387,7.68-17.067,17.067-17.067c5.12,0,8.533-3.413,8.533-8.533
				s-3.413-8.533-8.533-8.533c-18.773,0-34.133,15.36-34.133,34.133C204.227,358.467,207.64,361.88,212.76,361.88z"/>
			<path d="M272.493,421.613c-18.773,0-34.133,15.36-34.133,34.133c0,5.12,3.413,8.533,8.533,8.533s8.533-3.413,8.533-8.533
				c0-9.387,7.68-17.067,17.067-17.067c5.12,0,8.533-3.413,8.533-8.533S277.613,421.613,272.493,421.613z"/>
			<path d="M144.493,319.213c-5.12,0-8.533,3.413-8.533,8.533s3.413,8.533,8.533,8.533c9.387,0,17.067,7.68,17.067,17.067
				c0,5.12,3.413,8.533,8.533,8.533s8.533-3.413,8.533-8.533C178.627,334.573,163.267,319.213,144.493,319.213z"/>
			<path d="M110.36,421.613c-5.12,0-8.533,3.413-8.533,8.533s3.413,8.533,8.533,8.533c9.387,0,17.067,7.68,17.067,17.067
				c0,5.12,3.413,8.533,8.533,8.533s8.533-3.413,8.533-8.533C144.493,436.973,129.133,421.613,110.36,421.613z"/>
			<path d="M127.427,370.413c-5.12,0-8.533,3.413-8.533,8.533s3.413,8.533,8.533,8.533c9.387,0,17.067,7.68,17.067,17.067
				c0,5.12,3.413,8.533,8.533,8.533c5.12,0,8.533-3.413,8.533-8.533C161.56,385.773,146.2,370.413,127.427,370.413z"/>
		</g>
	</g>
</g>
<g>
</g>
<g>
</g>
<g>
</g>
<g>
</g>
<g>
</g>
<g>
</g>
<g>
</g>
<g>
</g>
<g>
</g>
<g>
</g>
<g>
</g>
<g>
</g>
<g>
</g>
<g>
</g>
<g>
</g>
</svg>
