<?xml version="1.0" encoding="iso-8859-1"?>
<!-- Generator: Adobe Illustrator 19.0.0, SVG Export Plug-In . SVG Version: 6.00 Build 0)  -->
<svg version="1.1" id="Layer_1" xmlns="http://www.w3.org/2000/svg" xmlns:xlink="http://www.w3.org/1999/xlink" x="0px" y="0px"
	 viewBox="0 0 512 512" style="enable-background:new 0 0 512 512;" xml:space="preserve">
<g transform="translate(1 1)">
	<g>
		<g>
			<path d="M476.013,156.867h-7.68v-49.493c0-29.013-23.893-52.907-52.907-52.907h-235.52C150.893,54.467,127,78.36,127,107.373
				v21.049l-36.984-12.328c-1.315-1.094-3.034-1.751-5.042-1.867c-0.64-0.134-1.281-0.134-1.921-0.027H7.533
				c-5.12,0-8.533,3.413-8.533,8.533V447c0,5.12,3.413,8.533,8.533,8.533h76.8c0.853,0,1.707,0,2.56,0l128-34.133h261.12
				c19.627,0,34.987-15.36,34.987-34.987v-194.56C511,172.227,495.64,156.867,476.013,156.867z M144.067,107.373
				c0-19.627,16.213-35.84,35.84-35.84h235.52c19.627,0,35.84,16.213,35.84,35.84v49.493H434.2v-44.373
				c0-12.8-11.093-23.893-24.747-23.893H185.027c-12.8,0-23.893,11.093-23.893,23.893v25.6l-17.067-5.12V107.373z M178.2,112.493
				c0-3.413,3.413-6.827,6.827-6.827h225.28c3.413,0,6.827,3.413,6.827,6.827v44.373h-204.8L178.2,145.489V112.493z M16.067,412.867
				h25.6c5.12,0,8.533-3.413,8.533-8.533c0-5.12-3.413-8.533-8.533-8.533h-25.6v-17.067h25.6c5.12,0,8.533-3.413,8.533-8.533
				s-3.413-8.533-8.533-8.533h-25.6V344.6h25.6c5.12,0,8.533-3.413,8.533-8.533s-3.413-8.533-8.533-8.533h-25.6v-17.067h25.6
				c5.12,0,8.533-3.413,8.533-8.533s-3.413-8.533-8.533-8.533h-25.6v-17.067h25.6c5.12,0,8.533-3.413,8.533-8.533
				s-3.413-8.533-8.533-8.533h-25.6V242.2h25.6c5.12,0,8.533-3.413,8.533-8.533s-3.413-8.533-8.533-8.533h-25.6v-17.067h25.6
				c5.12,0,8.533-3.413,8.533-8.533S46.787,191,41.667,191h-25.6v-17.067h25.6c5.12,0,8.533-3.413,8.533-8.533
				c0-5.12-3.413-8.533-8.533-8.533h-25.6v-25.6H75.8v307.2H16.067V412.867z M92.867,134.68L203.8,171.373V406.04L92.867,435.907
				V134.68z M493.933,386.413c0,10.24-8.533,17.92-17.92,17.92H220.867v-230.4h196.267h51.2h7.68c10.24,0,17.92,8.533,17.92,17.92
				V386.413z"/>
			<path d="M323.267,284.867H306.2c-9.387,0-17.067,7.68-17.067,17.067V319c0,9.387,7.68,17.067,17.067,17.067h17.067
				c9.387,0,17.067-7.68,17.067-17.067v-17.067C340.333,292.547,332.653,284.867,323.267,284.867z M323.267,319H306.2v-17.067
				h17.067V319z"/>
			<path d="M314.733,259.267c5.12,0,8.533-3.413,8.533-8.533s-3.413-8.533-8.533-8.533s-8.533,3.413-8.533,8.533
				S309.613,259.267,314.733,259.267z"/>
			<path d="M417.133,233.667h-51.2c-5.12,0-8.533,3.413-8.533,8.533v93.867c0,5.12,3.413,8.533,8.533,8.533h51.2
				c5.12,0,8.533-3.413,8.533-8.533V242.2C425.667,237.08,422.253,233.667,417.133,233.667z M408.6,327.533h-34.133v-76.8H408.6
				V327.533z"/>
			<path d="M439.32,199.533H275.48c-11.093,0-20.48,9.387-20.48,20.48v138.24c0,11.093,9.387,20.48,20.48,20.48h163.84
				c11.093,0,20.48-9.387,20.48-20.48v-138.24C459.8,208.92,450.413,199.533,439.32,199.533z M442.733,358.253
				c0,1.707-1.707,3.413-3.413,3.413H275.48c-1.707,0-3.413-1.707-3.413-3.413v-138.24c0-1.707,1.707-3.413,3.413-3.413h163.84
				c1.707,0,3.413,1.707,3.413,3.413V358.253z"/>
		</g>
	</g>
</g>
<g>
</g>
<g>
</g>
<g>
</g>
<g>
</g>
<g>
</g>
<g>
</g>
<g>
</g>
<g>
</g>
<g>
</g>
<g>
</g>
<g>
</g>
<g>
</g>
<g>
</g>
<g>
</g>
<g>
</g>
</svg>
