<?xml version="1.0" encoding="iso-8859-1"?>
<!-- Generator: Adobe Illustrator 19.0.0, SVG Export Plug-In . SVG Version: 6.00 Build 0)  -->
<svg version="1.1" id="Layer_1" xmlns="http://www.w3.org/2000/svg" xmlns:xlink="http://www.w3.org/1999/xlink" x="0px" y="0px"
	 viewBox="0 0 512 512" style="enable-background:new 0 0 512 512;" xml:space="preserve">
<g transform="translate(1 1)">
	<g>
		<g>
			<path d="M502.467,54.68h-87.04H263.533h-99.669L88.6,12.867c-2.56-1.707-5.973-1.707-8.533,0l-76.8,42.667
				C0.707,57.24-1,59.8-1,63.213V489.88c0,3.413,1.707,5.12,4.267,6.827s5.973,1.707,8.533,0L84.333,456.6l72.533,40.96
				c1.707,0.853,2.56,0.853,4.267,0.853h341.333c5.12,0,8.533-3.413,8.533-8.533v-43.52v-88.747v-294.4
				C511,58.093,507.587,54.68,502.467,54.68z M493.933,71.747v270.669c-17.878-14.629-33.381-23.946-43.52-30.029
				c-12.8-7.68-27.307-11.093-41.813-11.093c-18.773,0-40.96,4.267-52.907,6.827c-7.68,1.707-15.36,2.56-21.333,0.853
				c-29.867-6.827-28.16-36.693-28.16-40.96v-25.6c0-11.947,5.973-23.893,11.093-31.573c9.387-13.653,14.507-29.013,14.507-45.227
				c0-32.952,43.738-77.035,63.657-93.867H493.933z M369.347,71.747c-20.48,20.48-54.613,59.733-54.613,93.867
				c0,11.947-3.413,23.893-11.093,34.987c-9.387,13.653-14.507,27.307-14.507,40.96v24.747c-1.707,17.067,5.12,50.347,41.813,58.88
				c9.387,2.56,18.773,2.56,29.013,0c10.24-1.707,31.573-5.973,48.64-5.973c11.947,0,23.04,2.56,33.28,8.533
				c11.947,5.973,30.72,17.92,52.053,37.547v48.64l-63.147-41.813c-19.627-14.507-37.547-18.773-51.2-18.773
				c-9.387,0-17.067,1.707-22.187,3.413c-5.973,2.56-11.947,5.973-18.773,11.947c-27.307,23.893-73.387,18.773-74.24,18.773h-0.853
				c-47.787,0-78.507,7.68-93.867,12.8v-38.4h42.667c16.213,0,29.013-5.12,37.547-14.507c15.36-17.067,13.653-40.96,13.653-45.227
				c0-58.88-8.533-78.507-9.387-80.213l-0.853-1.707c-9.387-12.8-8.533-24.747,1.707-34.987c11.093-10.24,17.92-23.04,21.333-37.547
				c4.267-23.04,4.267-58.88,4.267-75.947H369.347z M259.267,143.427c-2.56,11.093-7.68,21.333-16.213,29.013
				c-7.68,7.68-23.893,28.16-4.267,57.173c1.707,3.413,7.68,23.04,7.68,72.533V303c0,0,1.707,20.48-9.387,32.427
				c-5.12,5.973-13.653,9.387-24.747,9.387h-42.667V71.747H263.7C263.91,87.801,263.796,122.723,259.267,143.427z M16.067,68.333
				l61.059-34.346c1.446,2.275,3.988,3.626,7.208,3.626c3.219,0,5.762-1.351,7.208-3.626L152.6,68.333v276.48v82.773v47.787
				l-59.733-33.451v-3.243c0-5.12-3.413-8.533-8.533-8.533c-5.12,0-8.533,3.413-8.533,8.533v3.243l-59.733,33.451V68.333z
				 M493.933,481.347H169.667v-61.841c11.134-4.387,40.807-14.106,93.013-14.106c5.973,0.853,55.467,4.267,87.04-23.04
				c4.267-4.267,8.533-6.827,12.8-8.533c12.8-5.12,33.28-5.973,58.027,12.8l73.387,48.463V481.347z"/>
			<path d="M378.733,147.693c-12.8,15.36-16.213,35.84-8.533,54.613c6.513,17.098,20.797,28.75,38.4,31.267v34.44
				c0,5.12,3.413,8.533,8.533,8.533s8.533-3.413,8.533-8.533v-33.775c16.706-2.413,30.873-13.566,38.4-29.372
				c8.533-19.627,5.973-40.96-7.68-57.173l-20.48-24.747c-5.12-5.973-11.093-8.533-17.92-8.533s-13.653,3.413-17.92,8.533
				L378.733,147.693z M412.867,134.04c0.853-2.56,3.413-2.56,4.267-2.56s3.413,0,5.12,1.707l20.48,24.747
				c9.387,10.24,11.093,25.6,5.12,38.4c-4.67,10.008-12.48,16.865-22.187,19.389v-24.509c0-5.12-3.413-8.533-8.533-8.533
				s-8.533,3.413-8.533,8.533v24.769c-10.627-2.705-18.508-9.927-23.04-20.503c-5.12-12.8-2.56-27.307,5.973-37.547L412.867,134.04z
				"/>
			<path d="M84.333,304.707c5.12,0,8.533-3.413,8.533-8.533v-17.92c0-5.12-3.413-8.533-8.533-8.533c-5.12,0-8.533,3.413-8.533,8.533
				v17.92C75.8,301.293,79.213,304.707,84.333,304.707z"/>
			<path d="M84.333,411.373c5.12,0,8.533-3.413,8.533-8.533v-17.92c0-5.12-3.413-8.533-8.533-8.533c-5.12,0-8.533,3.413-8.533,8.533
				v17.92C75.8,407.96,79.213,411.373,84.333,411.373z"/>
			<path d="M84.333,358.467c5.12,0,8.533-4.267,8.533-8.533v-17.92c0-5.12-3.413-8.533-8.533-8.533c-5.12,0-8.533,3.413-8.533,8.533
				v17.92C75.8,355.053,79.213,358.467,84.333,358.467z"/>
			<path d="M84.333,144.28c5.12,0,8.533-3.413,8.533-8.533v-17.92c0-5.12-3.413-8.533-8.533-8.533c-5.12,0-8.533,3.413-8.533,8.533
				v17.92C75.8,140.867,79.213,144.28,84.333,144.28z"/>
			<path d="M84.333,198.04c5.12,0,8.533-4.267,8.533-8.533v-17.92c0-5.12-3.413-8.533-8.533-8.533c-5.12,0-8.533,3.413-8.533,8.533
				v17.92C75.8,194.627,79.213,198.04,84.333,198.04z"/>
			<path d="M84.333,250.947c5.12,0,8.533-3.413,8.533-8.533v-17.067c0-5.12-3.413-8.533-8.533-8.533
				c-5.12,0-8.533,3.413-8.533,8.533v17.067C75.8,247.533,79.213,250.947,84.333,250.947z"/>
			<path d="M84.333,91.373c5.12,0,8.533-4.267,8.533-8.533V64.92c0-5.12-3.413-8.533-8.533-8.533c-5.12,0-8.533,3.413-8.533,8.533
				v17.92C75.8,87.96,79.213,91.373,84.333,91.373z"/>
			<path d="M406.04,407.107c-3.413-3.413-8.533-3.413-11.947,0l-15.36,15.36l-15.36-15.36c-3.413-3.413-8.533-3.413-11.947,0
				c-3.413,3.413-3.413,8.533,0,11.947l15.36,15.36l-15.36,15.36c-3.413,3.413-3.413,8.533,0,11.947
				c1.707,1.707,3.413,2.56,5.973,2.56s4.267-0.853,5.973-2.56l15.36-15.36l15.36,15.36c1.707,1.707,3.413,2.56,5.973,2.56
				s4.267-0.853,5.973-2.56c3.413-3.413,3.413-8.533,0-11.947l-15.36-15.36l15.36-15.36
				C409.453,415.64,409.453,410.52,406.04,407.107z"/>
		</g>
	</g>
</g>
<g>
</g>
<g>
</g>
<g>
</g>
<g>
</g>
<g>
</g>
<g>
</g>
<g>
</g>
<g>
</g>
<g>
</g>
<g>
</g>
<g>
</g>
<g>
</g>
<g>
</g>
<g>
</g>
<g>
</g>
</svg>
