<?xml version="1.0" encoding="iso-8859-1"?>
<!-- Generator: Adobe Illustrator 19.0.0, SVG Export Plug-In . SVG Version: 6.00 Build 0)  -->
<svg version="1.1" id="Layer_1" xmlns="http://www.w3.org/2000/svg" xmlns:xlink="http://www.w3.org/1999/xlink" x="0px" y="0px"
	 viewBox="0 0 512 512" style="enable-background:new 0 0 512 512;" xml:space="preserve">
<g transform="translate(1 1)">
	<g>
		<g>
			<path d="M37.316,152.6v23.04v91.307v201.387h187.733v-23.04v-91.307V152.6H37.316z M54.382,214.893l153.6,146.773v44.373
				l-153.6-145.92V214.893z M207.982,451.267h-153.6V283.16l153.6,145.92V451.267z M54.382,191.853v-22.187h153.6v168.107
				L54.382,191.853z"/>
			<path d="M494.702,267.8l-56.32-87.893l-57.173,87.04c-6.154,9.378-9.792,19.964-11.017,30.72h-17.142V109.933h-8.533V-1h-93.867
				H11.716v110.933H3.182V511h247.467h102.4V314.733h17.217c1.796,14.72,8.089,28.719,18.623,39.253
				c0.853,0.853,17.067,20.48,48.64,20.48c0.853,0,1.707,0,3.413,0c8.533,0,28.16-1.707,46.08-19.627
				C510.062,331.8,513.476,295.107,494.702,267.8z M327.449,16.067v93.867h-59.733V16.067H327.449z M28.782,16.067h221.867v93.867
				h-59.733V99.847c15.648-5.776,25.6-26.546,25.6-41.113c0-18.773-15.36-34.133-34.133-34.133
				c-18.773,0-34.133,15.36-34.133,34.133c0,14.567,9.952,35.338,25.6,41.113v10.087h-68.267V99.847
				c15.648-5.776,25.6-26.546,25.6-41.113c0-18.773-15.36-34.133-34.133-34.133c-18.773,0-34.133,15.36-34.133,34.133
				c0,14.567,9.952,35.338,25.6,41.113v10.087H28.782V16.067z M182.382,84.333c-8.533,0-17.067-15.36-17.067-25.6
				c0-9.387,7.68-17.067,17.067-17.067c9.387,0,17.067,7.68,17.067,17.067C199.449,68.973,190.916,84.333,182.382,84.333z
				 M97.049,84.333c-8.533,0-17.067-15.36-17.067-25.6c0-9.387,7.68-17.067,17.067-17.067c9.387,0,17.067,7.68,17.067,17.067
				C114.116,68.973,105.582,84.333,97.049,84.333z M20.249,493.933V127h230.4v366.933H20.249z M335.982,493.933h-68.267V127h68.267
				V493.933z M475.076,342.893c-17.067,16.213-34.987,14.507-35.84,14.507h-0.853c-23.893,0-35.84-13.653-36.693-14.507
				c-7.978-7.978-12.902-17.817-14.641-28.16h18.621c4.92,14.679,21.737,25.6,36.127,25.6c17.067,0,30.72-15.36,30.72-34.133
				s-13.653-34.133-30.72-34.133c-14.39,0-31.207,10.921-36.127,25.6h-18.613c1.247-7.382,4.116-14.651,8.66-21.333l42.667-65.707
				l42.667,66.56C494.702,297.667,492.142,325.827,475.076,342.893z M421.316,306.2c0-8.533,12.8-17.067,20.48-17.067
				s13.653,7.68,13.653,17.067s-5.973,17.067-13.653,17.067C434.116,323.267,421.316,314.733,421.316,306.2z"/>
			<path d="M299.289,146.627c-3.413-3.413-8.533-3.413-11.947,0s-3.413,8.533,0,11.947l17.067,17.067
				c1.707,1.707,3.413,2.56,5.973,2.56s4.267-0.853,5.973-2.56c3.413-3.413,3.413-8.533,0-11.947L299.289,146.627z"/>
			<path d="M299.289,189.293c-3.413-3.413-8.533-3.413-11.947,0s-3.413,8.533,0,11.947l17.067,17.067
				c1.707,1.707,3.413,2.56,5.973,2.56s4.267-0.853,5.973-2.56c3.413-3.413,3.413-8.533,0-11.947L299.289,189.293z"/>
			<path d="M299.289,231.96c-3.413-3.413-8.533-3.413-11.947,0s-3.413,8.533,0,11.947l17.067,17.067
				c1.707,1.707,3.413,2.56,5.973,2.56s4.267-0.853,5.973-2.56c3.413-3.413,3.413-8.533,0-11.947L299.289,231.96z"/>
			<path d="M299.289,274.627c-3.413-3.413-8.533-3.413-11.947,0s-3.413,8.533,0,11.947l17.067,17.067
				c1.707,1.707,3.413,2.56,5.973,2.56s4.267-0.853,5.973-2.56c3.413-3.413,3.413-8.533,0-11.947L299.289,274.627z"/>
			<path d="M299.289,317.293c-3.413-3.413-8.533-3.413-11.947,0s-3.413,8.533,0,11.947l17.067,17.067
				c1.707,1.707,3.413,2.56,5.973,2.56s4.267-0.853,5.973-2.56c3.413-3.413,3.413-8.533,0-11.947L299.289,317.293z"/>
			<path d="M299.289,359.96c-3.413-3.413-8.533-3.413-11.947,0s-3.413,8.533,0,11.947l17.067,17.067
				c1.707,1.707,3.413,2.56,5.973,2.56s4.267-0.853,5.973-2.56c3.413-3.413,3.413-8.533,0-11.947L299.289,359.96z"/>
			<path d="M299.289,402.627c-3.413-3.413-8.533-3.413-11.947,0c-3.413,3.413-3.413,8.533,0,11.947l17.067,17.067
				c1.707,1.707,3.413,2.56,5.973,2.56s4.267-0.853,5.973-2.56c3.413-3.413,3.413-8.533,0-11.947L299.289,402.627z"/>
			<path d="M299.289,445.293c-3.413-3.413-8.533-3.413-11.947,0c-3.413,3.413-3.413,8.533,0,11.947l17.067,17.067
				c1.707,1.707,3.413,2.56,5.973,2.56s4.267-0.853,5.973-2.56c3.413-3.413,3.413-8.533,0-11.947L299.289,445.293z"/>
		</g>
	</g>
</g>
<g>
</g>
<g>
</g>
<g>
</g>
<g>
</g>
<g>
</g>
<g>
</g>
<g>
</g>
<g>
</g>
<g>
</g>
<g>
</g>
<g>
</g>
<g>
</g>
<g>
</g>
<g>
</g>
<g>
</g>
</svg>
