<?xml version="1.0" encoding="iso-8859-1"?>
<!-- Generator: Adobe Illustrator 19.0.0, SVG Export Plug-In . SVG Version: 6.00 Build 0)  -->
<svg version="1.1" id="Layer_1" xmlns="http://www.w3.org/2000/svg" xmlns:xlink="http://www.w3.org/1999/xlink" x="0px" y="0px"
	 viewBox="0 0 510.293 510.293" style="enable-background:new 0 0 510.293 510.293;" xml:space="preserve">
<g transform="translate(1 2)">
	<g>
		<g>
			<path d="M416.28,277.893v-70.791l4.267-5.156c12.8-15.36,16.213-35.84,8.533-54.613c-6.827-17.92-22.187-29.867-40.96-31.573
				c-1.707,0-4.267,0-5.973,0h-0.853c-19.627,0-36.693,11.947-45.227,29.867c-8.533,18.773-5.973,40.107,7.68,56.32l4.267,5.156
				v70.791H288.28v-70.791l4.267-5.156c7.407-8.888,11.663-19.492,12.453-30.486c21.796-23.909,24.732-59.666,7.174-86.421
				L254.147-2L196.12,84.187c-17.537,27.558-14.63,63.28,7.095,86.388c0.558,11.173,4.731,22.108,12.532,31.372l4.267,5.156v70.791
				H160.28v-70.791l4.267-5.156c12.8-15.36,16.213-35.84,8.533-54.613c-6.827-17.92-22.187-29.867-40.96-31.573
				c-1.707,0-4.267,0-5.973,0h-0.853c-19.627,0-36.693,11.947-45.227,29.867c-8.533,18.773-5.973,40.107,7.68,56.32l4.267,5.156
				v70.791H57.88v230.4h392.533v-230.4H416.28z M351.427,153.307c5.973-12.8,17.067-20.48,30.72-20.48c1.707,0,2.56,0,4.267-0.853
				c12.8,1.707,22.187,9.387,27.307,21.333c4.751,11.877,2.88,25.217-4.23,35.26L386.413,215.6c-0.853,2.56-3.413,2.56-4.267,2.56
				c-0.069,0-0.166-0.001-0.256-0.002c-1.029-0.017-3.302-0.215-4.864-2.558l-22.986-27.042
				C346.922,178.481,346.036,164.858,351.427,153.307z M365.08,227.644c0.39,0.419,0.784,0.82,1.184,1.202
				c4.158,4.249,9.664,6.381,15.883,6.381s11.725-2.132,15.883-6.381c0.399-0.382,0.794-0.783,1.184-1.202v50.25H365.08V227.644z
				 M281.49,188.567L258.413,215.6c-0.853,2.56-3.413,2.56-4.267,2.56c-0.069,0-0.166-0.001-0.256-0.002
				c-1.029-0.017-3.302-0.215-4.864-2.558l-22.986-27.042c-4.146-5.868-6.19-12.932-6.093-20.1l0.032-0.738
				c0.011-0.334,0.03-0.669,0.051-1.003c0.033-0.556,0.081-1.113,0.14-1.672c0.047-0.439,0.097-0.878,0.16-1.316
				c0.044-0.312,0.095-0.624,0.147-0.935c0.117-0.688,0.241-1.375,0.397-2.059c0.002-0.009,0.005-0.019,0.007-0.028
				c0.58-2.523,1.428-5.007,2.545-7.401c5.562-11.917,15.564-19.389,27.936-20.363c0.138-0.01,0.274-0.024,0.413-0.033
				c0.782-0.052,1.571-0.084,2.371-0.084c1.707,0,2.56,0,4.267,0c19.627,1.707,29.867,18.773,29.867,34.133l0.05,1.096
				C288.119,175.395,285.737,182.568,281.49,188.567z M210.627,94.427l43.52-65.707l43.52,64.853
				c11.093,16.213,11.947,36.693,3.413,52.907c-6.827-17.067-22.187-29.013-40.96-30.72c-1.707,0-4.267,0-5.973,0h-0.853
				c-14.941,0-28.394,6.928-37.732,18.14c-0.042,0.05-0.083,0.101-0.125,0.151c-0.31,0.374-0.616,0.753-0.916,1.136
				c-0.108,0.138-0.214,0.278-0.322,0.417c-0.228,0.297-0.455,0.595-0.677,0.897c-0.195,0.264-0.385,0.531-0.574,0.798
				c-0.125,0.177-0.252,0.353-0.376,0.532c-2.075,2.993-3.864,6.181-5.358,9.501C199.533,131.12,199.533,110.64,210.627,94.427z
				 M237.08,227.644c0.39,0.419,0.784,0.82,1.184,1.202c4.158,4.249,9.664,6.381,15.883,6.381c6.219,0,11.725-2.132,15.883-6.381
				c0.399-0.382,0.794-0.783,1.184-1.202v50.25H237.08V227.644z M95.427,153.307c5.973-12.8,17.067-20.48,30.72-20.48
				c1.707,0,2.56,0,4.267-0.853c12.8,1.707,22.187,9.387,27.307,21.333c4.751,11.877,2.88,25.217-4.23,35.26L130.413,215.6
				c-0.853,2.56-3.413,2.56-4.267,2.56c-0.069,0-0.166-0.001-0.256-0.002c-1.029-0.017-3.302-0.215-4.864-2.558l-22.986-27.042
				C90.922,178.481,90.036,164.858,95.427,153.307z M109.08,227.644c4.927,5.293,10.615,7.583,17.067,7.583s12.14-2.29,17.067-7.583
				v50.25H109.08V227.644z M433.347,491.227h-358.4V294.96h17.067h68.267h59.733h68.267h59.733h68.267h17.067V491.227z"/>
			<path d="M92.013,474.16H416.28V312.027H92.013V474.16z M291.805,329.093h52.664l-128,128h-52.664L291.805,329.093z
				 M399.213,329.093v17.067c-5.12,0-8.533,3.413-8.533,8.533s3.413,8.533,8.533,8.533v34.133c-5.12,0-8.533,3.413-8.533,8.533
				s3.413,8.533,8.533,8.533v34.133c-5.12,0-8.533,3.413-8.533,8.533h-34.133c0-5.12-3.413-8.533-8.533-8.533
				c-5.12,0-8.533,3.413-8.533,8.533h-34.133c0-5.12-3.413-8.533-8.533-8.533s-8.533,3.413-8.533,8.533h-34.133
				c0-4.014-2.104-6.97-5.478-8.064l14.48-14.48c1.094,3.374,4.05,5.478,8.064,5.478c5.12,0,8.533-3.413,8.533-8.533
				c0-4.014-2.104-6.97-5.478-8.064l14.48-14.48c1.094,3.374,4.05,5.478,8.064,5.478c5.12,0,8.533-3.413,8.533-8.533
				c0-4.014-2.104-6.97-5.478-8.064l14.48-14.48c1.094,3.374,4.05,5.478,8.064,5.478c5.12,0,8.533-3.413,8.533-8.533
				c0-4.014-2.104-6.97-5.478-8.064l14.48-14.48c1.094,3.374,4.05,5.478,8.064,5.478c5.12,0,8.533-3.413,8.533-8.533
				c0-4.014-2.104-6.97-5.478-8.064l14.48-14.48c1.094,3.374,4.05,5.478,8.064,5.478c5.12,0,8.533-3.413,8.533-8.533H399.213z
				 M151.747,329.093c0,5.12,3.413,8.533,8.533,8.533c5.12,0,8.533-3.413,8.533-8.533h34.133c0,5.12,3.413,8.533,8.533,8.533
				s8.533-3.413,8.533-8.533h34.133c0,4.008,2.098,6.962,5.463,8.059l-14.471,14.471c-1.097-3.365-4.051-5.464-8.059-5.464
				c-5.12,0-8.533,3.413-8.533,8.533c0,4.008,2.098,6.962,5.464,8.059l-14.471,14.471c-1.097-3.365-4.051-5.464-8.059-5.464
				c-5.12,0-8.533,3.413-8.533,8.533c0,4.008,2.098,6.962,5.464,8.059l-14.471,14.471c-1.097-3.365-4.051-5.464-8.059-5.464
				c-5.12,0-8.533,3.413-8.533,8.533c0,4.008,2.098,6.962,5.464,8.059l-14.471,14.471c-1.097-3.365-4.051-5.464-8.059-5.464
				c-5.12,0-8.533,3.413-8.533,8.533c0,4.008,2.098,6.962,5.464,8.059l-14.471,14.471c-1.097-3.365-4.051-5.464-8.059-5.464
				c-5.12,0-8.533,3.413-8.533,8.533H109.08v-17.067c5.12,0,8.533-3.413,8.533-8.533s-3.413-8.533-8.533-8.533v-34.133
				c5.12,0,8.533-3.413,8.533-8.533s-3.413-8.533-8.533-8.533v-34.133c5.12,0,8.533-3.413,8.533-8.533H151.747z"/>
			<path d="M373.613,371.76c-5.12,0-8.533,3.413-8.533,8.533s3.413,8.533,8.533,8.533s8.533-3.413,8.533-8.533
				S378.733,371.76,373.613,371.76z"/>
			<path d="M322.413,422.96c-5.12,0-8.533,3.413-8.533,8.533s3.413,8.533,8.533,8.533s8.533-3.413,8.533-8.533
				S327.533,422.96,322.413,422.96z"/>
			<path d="M373.613,422.96c-5.12,0-8.533,3.413-8.533,8.533s3.413,8.533,8.533,8.533s8.533-3.413,8.533-8.533
				S378.733,422.96,373.613,422.96z"/>
			<path d="M348.013,397.36c-5.12,0-8.533,3.413-8.533,8.533s3.413,8.533,8.533,8.533c5.12,0,8.533-3.413,8.533-8.533
				S353.133,397.36,348.013,397.36z"/>
			<path d="M134.68,414.427c5.12,0,8.533-3.413,8.533-8.533s-3.413-8.533-8.533-8.533s-8.533,3.413-8.533,8.533
				S129.56,414.427,134.68,414.427z"/>
			<path d="M185.88,363.227c5.12,0,8.533-3.413,8.533-8.533s-3.413-8.533-8.533-8.533s-8.533,3.413-8.533,8.533
				S180.76,363.227,185.88,363.227z"/>
			<path d="M134.68,363.227c5.12,0,8.533-3.413,8.533-8.533s-3.413-8.533-8.533-8.533s-8.533,3.413-8.533,8.533
				S129.56,363.227,134.68,363.227z"/>
			<path d="M160.28,388.827c5.12,0,8.533-3.413,8.533-8.533s-3.413-8.533-8.533-8.533c-5.12,0-8.533,3.413-8.533,8.533
				S155.16,388.827,160.28,388.827z"/>
		</g>
	</g>
</g>
<g>
</g>
<g>
</g>
<g>
</g>
<g>
</g>
<g>
</g>
<g>
</g>
<g>
</g>
<g>
</g>
<g>
</g>
<g>
</g>
<g>
</g>
<g>
</g>
<g>
</g>
<g>
</g>
<g>
</g>
</svg>
