<?xml version="1.0" encoding="iso-8859-1"?>
<!-- Generator: Adobe Illustrator 19.0.0, SVG Export Plug-In . SVG Version: 6.00 Build 0)  -->
<svg version="1.1" id="Layer_1" xmlns="http://www.w3.org/2000/svg" xmlns:xlink="http://www.w3.org/1999/xlink" x="0px" y="0px"
	 viewBox="0 0 512 512" style="enable-background:new 0 0 512 512;" xml:space="preserve">
<g transform="translate(1 1)">
	<g>
		<g>
			<path d="M120.492,185.576C53.671,185.576-1,240.247-1,307.068c0,63.903,50.003,116.688,112.814,121.176v69.739
				c0,5.207,3.471,8.678,8.678,8.678s8.678-3.471,8.678-8.678v-69.739c62.811-4.488,112.814-57.273,112.814-121.176
				C241.983,240.247,187.312,185.576,120.492,185.576z M129.169,410.836v-30.873l23.431-23.43c3.471-3.471,3.471-8.678,0-12.149
				c-3.471-3.471-8.678-3.471-12.149,0l-19.959,19.959l-19.959-19.959c-3.471-3.471-8.678-3.471-12.149,0s-3.471,8.678,0,12.149
				l23.43,23.43v30.873c-53.254-4.447-95.458-49.416-95.458-103.768c0-57.275,46.861-104.136,104.136-104.136
				c57.275,0,104.136,46.861,104.136,104.136C224.627,361.42,182.424,406.388,129.169,410.836z"/>
			<path d="M467.61,127.434c-3.471-37.315-29.505-50.332-53.803-50.332c-32.976,0-51.2,19.959-57.275,28.637
				c-20.827,2.603-36.448,21.695-36.448,44.258c0,24.298,19.092,44.258,41.654,44.258h100.664c17.356,0,31.241-14.753,31.241-33.844
				C493.644,143.922,482.363,130.037,467.61,127.434z M462.403,176.898H361.739c-13.885,0-24.298-12.149-24.298-26.902
				c0-14.753,11.281-26.902,24.298-26.902c3.471,0,6.075-1.736,7.81-4.339c0-1.736,13.017-24.298,44.258-24.298
				c13.017,0,36.447,5.207,36.447,40.786c0,5.207,3.471,8.678,8.678,8.678h3.471c7.81,0,13.885,6.942,13.885,16.488
				C476.288,169.956,470.214,176.898,462.403,176.898z"/>
			<path d="M85.78,480.627c-5.207,0-8.678,3.471-8.678,8.678v8.678c0,5.207,3.471,8.678,8.678,8.678s8.678-3.471,8.678-8.678v-8.678
				C94.458,484.098,90.986,480.627,85.78,480.627z"/>
			<path d="M51.068,480.627c-5.207,0-8.678,3.471-8.678,8.678v8.678c0,5.207,3.471,8.678,8.678,8.678s8.678-3.471,8.678-8.678
				v-8.678C59.746,484.098,56.275,480.627,51.068,480.627z"/>
			<path d="M16.356,480.627c-5.207,0-8.678,3.471-8.678,8.678v8.678c0,5.207,3.471,8.678,8.678,8.678
				c5.207,0,8.678-3.471,8.678-8.678v-8.678C25.034,484.098,21.563,480.627,16.356,480.627z"/>
			<path d="M224.627,480.627c-5.207,0-8.678,3.471-8.678,8.678v8.678c0,5.207,3.471,8.678,8.678,8.678s8.678-3.471,8.678-8.678
				v-8.678C233.305,484.098,229.834,480.627,224.627,480.627z"/>
			<path d="M189.915,480.627c-5.207,0-8.678,3.471-8.678,8.678v8.678c0,5.207,3.471,8.678,8.678,8.678
				c5.207,0,8.678-3.471,8.678-8.678v-8.678C198.593,484.098,195.122,480.627,189.915,480.627z"/>
			<path d="M155.203,480.627c-5.207,0-8.678,3.471-8.678,8.678v8.678c0,5.207,3.471,8.678,8.678,8.678s8.678-3.471,8.678-8.678
				v-8.678C163.881,484.098,160.41,480.627,155.203,480.627z"/>
			<path d="M502.322,480.627c-5.207,0-8.678,3.471-8.678,8.678v8.678c0,5.207,3.471,8.678,8.678,8.678
				c5.207,0,8.678-3.471,8.678-8.678v-8.678C511,484.098,507.529,480.627,502.322,480.627z"/>
			<path d="M467.61,480.627c-5.207,0-8.678,3.471-8.678,8.678v8.678c0,5.207,3.471,8.678,8.678,8.678s8.678-3.471,8.678-8.678
				v-8.678C476.288,484.098,472.817,480.627,467.61,480.627z"/>
			<path d="M259.339,480.627c-5.207,0-8.678,3.471-8.678,8.678v8.678c0,5.207,3.471,8.678,8.678,8.678s8.678-3.471,8.678-8.678
				v-8.678C268.017,484.098,264.546,480.627,259.339,480.627z"/>
			<path d="M346.119,480.627c-5.207,0-8.678,3.471-8.678,8.678v8.678c0,5.207,3.471,8.678,8.678,8.678s8.678-3.471,8.678-8.678
				v-8.678C354.797,484.098,351.325,480.627,346.119,480.627z"/>
			<path d="M380.831,480.627c-5.207,0-8.678,3.471-8.678,8.678v8.678c0,5.207,3.471,8.678,8.678,8.678s8.678-3.471,8.678-8.678
				v-8.678C389.508,484.098,386.037,480.627,380.831,480.627z"/>
			<path d="M458.932,463.271c5.207,0,8.678-3.471,9.546-8.678v-15.62c0-19.668-16.014-35.954-35.58-36.425v-17.378h17.356
				c5.207,0,8.678-3.471,8.678-8.678c0-5.207-3.471-8.678-8.678-8.678h-17.356v-17.356h17.356c5.207,0,8.678-3.471,8.678-8.678
				s-3.471-8.678-8.678-8.678h-17.356v-8.678c0-5.207-3.471-8.678-8.678-8.678s-8.678,3.471-8.678,8.678v8.678H311.407v-8.678
				c0-5.207-3.471-8.678-8.678-8.678s-8.678,3.471-8.678,8.678v8.678h-17.356c-5.207,0-8.678,3.471-8.678,8.678
				s3.471,8.678,8.678,8.678h17.356v17.356h-17.356c-5.207,0-8.678,3.471-8.678,8.678c0,5.207,3.471,8.678,8.678,8.678h17.356
				v17.401c-19.17,0.922-34.712,17.025-34.712,36.403v15.62c0,5.207,3.471,8.678,8.678,8.678h26.034v34.712
				c0,5.207,3.471,8.678,8.678,8.678s8.678-3.471,8.678-8.678v-34.712h104.136v34.712c0,5.207,3.471,8.678,8.678,8.678
				s8.678-3.471,8.678-8.678v-34.712H458.932z M311.407,402.525v-17.356h104.136v17.356H311.407z M415.542,350.458v17.356H311.407
				v-17.356H415.542z M276.695,438.973c0-10.414,8.678-19.092,19.091-19.092h135.376c10.414,0,19.091,8.678,19.091,19.092v6.942
				H276.695V438.973z"/>
			<path d="M241.983,3.339c-22.898,0-42.605,12.324-52.966,30.771c-9.453-13.337-24.995-22.093-42.492-22.093
				c-5.207,0-8.678,3.471-8.678,8.678c0,5.207,3.471,8.678,8.678,8.678c19.091,0,34.712,15.62,34.712,34.712
				c0,5.207,3.471,8.678,8.678,8.678c5.207,0,8.678-3.471,8.678-8.678c0-24.298,19.092-43.39,43.39-43.39
				c5.207,0,8.678-3.471,8.678-8.678S247.19,3.339,241.983,3.339z"/>
		</g>
	</g>
</g>
<g>
</g>
<g>
</g>
<g>
</g>
<g>
</g>
<g>
</g>
<g>
</g>
<g>
</g>
<g>
</g>
<g>
</g>
<g>
</g>
<g>
</g>
<g>
</g>
<g>
</g>
<g>
</g>
<g>
</g>
</svg>
