<?xml version="1.0" encoding="iso-8859-1"?>
<!-- Generator: Adobe Illustrator 19.0.0, SVG Export Plug-In . SVG Version: 6.00 Build 0)  -->
<svg version="1.1" id="Layer_1" xmlns="http://www.w3.org/2000/svg" xmlns:xlink="http://www.w3.org/1999/xlink" x="0px" y="0px"
	 viewBox="0 0 512 512" style="enable-background:new 0 0 512 512;" xml:space="preserve">
<g transform="translate(1 1)">
	<g>
		<path d="M493.08,41.667h-49.493c-9.387,0-17.92,8.533-17.92,17.92v7.68h-34.133V34.84c0-10.24-8.533-18.773-18.773-18.773h-0.853
			h-48.64h-34.133h-51.2h-17.067h-34.133h-17.067H137.24c-10.24,0-18.773,8.533-18.773,18.773v32.427H84.333v-7.68
			c0-9.387-8.533-17.92-17.92-17.92H16.92C7.533,41.667-1,50.2-1,59.587v340.48v17.067v16.213c0,9.387,8.533,17.92,17.92,17.92
			h104.763l-10.043,28.16c-0.853,3.413,0,7.68,1.707,10.24s5.12,4.267,8.533,4.267h37.547c4.267,0,8.533-2.56,10.24-6.827
			l12.733-35.84h145.201l12.733,35.84c1.707,4.267,5.973,6.827,10.24,6.827h37.547c3.413,0,6.827-1.707,8.533-4.267
			c2.56-3.413,2.56-6.827,1.707-10.24l-10.043-28.16H493.08c9.387,0,17.92-8.533,17.92-17.92v-16.213v-17.067V59.587
			C511,50.2,502.467,41.667,493.08,41.667z M425.667,84.333V101.4h-34.133V84.333H425.667z M139.943,400.067h-55.61v-281.6h34.133
			v237.227c0,10.24,8.533,18.773,18.773,18.773h11.833L139.943,400.067z M220.867,374.467h17.067h51.2h11.183l9.095,25.6H200.589
			l9.095-25.6H220.867z M360.927,374.467h11.833c10.24,0,18.773-8.533,18.773-19.627V118.467h34.133v281.6h-55.61L360.927,374.467z
			 M372.76,33.133c0.853,0,1.707,0.853,0.853,1.707v320c0,0.853-0.853,1.707-1.707,1.707h-31.573V33.133H372.76z M323.267,33.133
			v323.413h-34.133V33.133H323.267z M272.067,33.133v323.413h-34.133V33.133H272.067z M220.867,33.133v323.413h-34.133V33.133
			H220.867z M135.533,34.84c0-0.853,0.853-1.707,1.707-1.707h32.427v323.413H137.24c-0.853,0-1.707-0.853-1.707-1.707V118.467v-51.2
			V34.84z M118.467,84.333V101.4H84.333V84.333H118.467z M16.067,59.587l0.853-0.853h49.493l0.853,0.853v7.68v51.2v281.6h-51.2
			V59.587z M16.92,434.2l-0.853-0.853v-16.213h68.267h49.493l-1.572,4.491L127.77,434.2H16.92z M155.16,476.867h-24.747l9.173-25.6
			h0.213l8.96-25.599l18.347-51.201h2.56h17.067h5.12l-9.173,25.6h-0.213l-8.959,25.598L155.16,476.867z M188.462,434.2
			l6.063-17.067h120.949l6.063,17.067H188.462z M379.587,476.867H354.84l-18.348-51.202l-8.959-25.598h-0.213l-9.173-25.6h5.12
			h19.627l18.346,51.198l8.961,25.602h0.213L379.587,476.867z M493.933,433.347c0,0,0,0.853-0.853,0.853H382.23l-4.482-12.568
			l-1.574-4.498h49.493h68.267V433.347z M442.733,400.067v-281.6v-51.2v-7.68c0,0,0.853-0.853,0.853-0.853h49.493l0.853,0.853
			v340.48H442.733z"/>
	</g>
</g>
<g>
</g>
<g>
</g>
<g>
</g>
<g>
</g>
<g>
</g>
<g>
</g>
<g>
</g>
<g>
</g>
<g>
</g>
<g>
</g>
<g>
</g>
<g>
</g>
<g>
</g>
<g>
</g>
<g>
</g>
</svg>
