<?xml version="1.0" encoding="iso-8859-1"?>
<!-- Generator: Adobe Illustrator 19.0.0, SVG Export Plug-In . SVG Version: 6.00 Build 0)  -->
<svg version="1.1" id="Layer_1" xmlns="http://www.w3.org/2000/svg" xmlns:xlink="http://www.w3.org/1999/xlink" x="0px" y="0px"
	 viewBox="0 0 512.012 512.012" style="enable-background:new 0 0 512.012 512.012;" xml:space="preserve">
<g transform="translate(1)">
	<g>
		<path d="M427.585,123.598V97.116c0-40.607-9.71-68.855-27.366-84.745C385.213-0.871,368.441,0.012,364.91,0.012
			c-15.114,0-28.874,8.982-36.165,14.774C308.03,0.026,286.223,0.012,285.461,0.012c-0.768,0-23.589,0.008-44.043,15.126
			c-7.194-6.2-20.591-15.126-35.406-15.126c-3.531,0-19.421-0.883-34.428,12.359c-18.538,15.89-27.366,45.021-27.366,84.745v26.483
			c0,1.71,0,41.528,44.138,98.587v25h-17.655c-38.841,0-70.621-31.779-70.621-70.621c0-5.297-3.531-8.828-8.828-8.828
			c-5.297,0-8.828,3.531-8.828,8.828c0,34.827,20.44,65.109,49.916,79.448c-29.475,14.339-49.916,44.622-49.916,79.448
			c0,5.297,3.531,8.828,8.828,8.828c5.297,0,8.828-3.531,8.828-8.828c0-38.841,31.779-70.621,70.621-70.621h17.655v26.818
			c-44.13,55.718-44.138,95.068-44.138,96.768v26.483c0,39.724,8.828,68.855,27.366,84.745
			c13.241,10.593,26.483,12.359,32.662,12.359c0.883,0,1.766,0,1.766,0c14.767,0,28.24-9.002,35.651-14.759
			c20.436,14.096,41.526,14.759,43.797,14.759c2.279,0,23.523-0.667,43.47-14.922c7.477,6.053,20.44,14.922,35.096,14.922
			c0.883,0,1.766,0,2.648,0c6.179,0,20.303-1.766,32.662-12.359c18.538-15.89,27.365-45.021,27.365-84.745v-26.483
			c0-1.71,0-41.528-44.138-98.587v-25h17.655v-17.655h-17.655v-25.703C427.584,165.173,427.585,125.31,427.585,123.598z
			 M364.91,17.667h0.883c0,0,11.476-0.883,22.069,8.828c14.124,12.359,21.186,36.193,21.186,70.621v26.483
			c0,0-0.883,36.193-42.372,88.276c0,0-0.883,0-1.766,0h-24.717c26.483-37.076,24.717-77.683,24.717-79.448v-35.31
			c0-30.014-7.062-52.966-22.069-70.621C349.02,22.081,356.965,17.667,364.91,17.667z M303.116,211.874h-35.31V79.461
			c0-9.71,7.945-17.655,17.655-17.655c9.71,0,17.655,7.945,17.655,17.655V211.874z M326.064,35.319
			c0.002,0.002,0.004,0.004,0.006,0.006c0.618,0.618,1.206,1.264,1.797,1.906c0.538,0.596,1.08,1.188,1.597,1.805
			c0.079,0.092,0.155,0.186,0.233,0.279c11.506,13.906,17.556,33.268,17.556,58.68v34.431c0,0.001,0,0.003,0,0.004v0.879
			c0,0,0.015,0.404,0.015,1.162c-0.036,4.93-0.616,18.215-5.536,34.177c-0.001,0.004-0.002,0.008-0.004,0.012
			c-0.103,0.333-0.211,0.67-0.317,1.006c-0.07,0.22-0.138,0.44-0.21,0.661c-0.059,0.182-0.121,0.365-0.181,0.547
			c-0.125,0.378-0.249,0.757-0.379,1.138c-0.022,0.065-0.045,0.13-0.067,0.194c-3.903,11.406-10.071,23.936-19.804,35.562V79.461
			c0-19.421-15.89-35.31-35.31-35.31c-19.421,0-35.31,15.89-35.31,35.31v128.307c-28.027-33.48-26.483-74.516-26.483-75.342v-35.31
			c0-1.587,0.034-3.141,0.081-4.682c0.015-0.479,0.032-0.954,0.052-1.427c0.047-1.152,0.11-2.287,0.183-3.412
			c0.058-0.873,0.125-1.734,0.199-2.586c0.061-0.722,0.126-1.441,0.199-2.152c0.095-0.914,0.196-1.821,0.308-2.71
			c0.009-0.071,0.019-0.141,0.028-0.212c7.933-61.517,58.304-62.268,60.744-62.268C285.461,17.667,308.41,17.667,326.064,35.319z
			 M161.875,97.116c0-34.428,7.062-58.262,20.303-70.621c8.828-7.945,17.655-8.828,21.186-8.828c0.883,0,1.766,0,1.766,0h0.883
			c7.945,0,15.89,4.414,22.069,8.828c-15.007,17.655-22.069,40.607-22.069,70.621v35.31c-0.883,1.766-1.766,42.372,24.717,79.448
			h-24.717c0,0-0.883,0-1.766,0c-41.49-52.083-42.372-88.276-42.372-88.276V97.116z M267.806,300.15h35.31v132.414
			c0,9.71-7.945,17.655-17.655,17.655c-9.71,0-17.655-7.945-17.655-17.655V300.15z M206.013,494.357h-0.883
			c0,0-11.476,0.883-22.069-8.828c-14.124-12.359-21.186-36.193-21.186-70.621v-26.483c0,0,0.883-36.193,42.372-88.276
			c0,0,0.883,0,1.766,0h24.32c-26.56,36.874-25.203,77.898-25.203,79.448v35.31c0,28.917,7.335,52.693,21.953,69.382
			c0.336,0.411,0.655,0.833,0.999,1.239C221.903,489.943,213.958,494.357,206.013,494.357z M224.717,432.089
			c-0.009-0.071-0.019-0.141-0.028-0.212c-0.113-0.889-0.214-1.795-0.308-2.71c-0.073-0.711-0.137-1.429-0.199-2.152
			c-0.074-0.852-0.141-1.712-0.199-2.586c-0.073-1.125-0.136-2.26-0.183-3.412c-0.02-0.472-0.037-0.948-0.052-1.427
			c-0.047-1.54-0.081-3.094-0.081-4.682v-35.31c0-0.819-1.514-41.165,26.483-73.779v126.745c0,19.421,15.89,35.31,35.31,35.31
			c19.421,0,35.31-15.89,35.31-35.31V304.257c28.027,33.48,26.483,74.516,26.483,75.342v35.31c0,1.444-0.031,2.856-0.066,4.265
			c-2.105,74.325-59.128,75.183-61.727,75.183C283.022,494.357,232.651,493.606,224.717,432.089z M409.048,414.909
			c0,33.545-7.945,58.262-21.186,70.621c-10.593,9.71-22.069,8.828-22.069,8.828h-0.883c-7.945,0-15.89-4.414-22.069-8.828
			c15.007-17.655,22.069-40.607,22.069-70.621v-35.31c0.883-1.766,1.766-42.372-24.717-79.448h24.717c0,0,0.883,0,1.766,0
			c41.49,52.083,42.372,88.276,42.372,88.276V414.909z M364.91,282.495h-41.49h-2.648h-21.186h-49.434h-4.414h-39.724V264.84H364.91
			V282.495z M206.013,247.185v-17.655h40.607h3.531h21.186h28.248h21.186h3.531h40.607v17.655H206.013z"/>
	</g>
</g>
<g>
</g>
<g>
</g>
<g>
</g>
<g>
</g>
<g>
</g>
<g>
</g>
<g>
</g>
<g>
</g>
<g>
</g>
<g>
</g>
<g>
</g>
<g>
</g>
<g>
</g>
<g>
</g>
<g>
</g>
</svg>
