<?xml version="1.0" encoding="iso-8859-1"?>
<!-- Generator: Adobe Illustrator 19.0.0, SVG Export Plug-In . SVG Version: 6.00 Build 0)  -->
<svg version="1.1" id="Layer_1" xmlns="http://www.w3.org/2000/svg" xmlns:xlink="http://www.w3.org/1999/xlink" x="0px" y="0px"
	 viewBox="0 0 512 512" style="enable-background:new 0 0 512 512;" xml:space="preserve">
<g transform="translate(1 1)">
	<g>
		<g>
			<path d="M484.547,169.667h-23.893c-11.947,0-22.187,10.24-22.187,22.187v3.413h-34.959c-3.86-19.681-20.878-34.133-41.841-34.133
				V35.693C361.667,15.213,345.453-1,324.973-1H39.96C19.48-1,3.267,15.213,3.267,35.693v438.613C3.267,494.787,19.48,511,39.96,511
				h285.013c20.48,0,36.693-16.213,36.693-36.693v-227.84c20.963,0,37.981-14.452,41.841-34.133H447c5.12,0,8.533-3.413,8.533-8.533
				v-11.947c0-2.56,2.56-5.12,5.12-5.12h23.893c2.56,0,5.12,2.56,5.12,5.12v58.027c0,2.56-2.56,5.12-5.12,5.12h-23.893
				c-2.56,0-5.12-2.56-5.12-5.12v-11.947c0-5.12-3.413-8.533-8.533-8.533c-5.12,0-8.533,3.413-8.533,8.533v11.947
				c0,11.947,10.24,22.187,22.187,22.187h23.893c11.947,0,22.187-10.24,22.187-22.187v-58.027
				C506.733,179.907,496.493,169.667,484.547,169.667z M344.6,474.307c0,11.093-8.533,19.627-19.627,19.627H39.96
				c-11.093,0-19.627-8.533-19.627-19.627V35.693c0-11.093,8.533-19.627,19.627-19.627h285.013c11.093,0,19.627,8.533,19.627,19.627
				v125.44h-17.067V69.827c0-20.48-16.213-36.693-36.693-36.693H74.093c-20.48,0-36.693,16.213-36.693,36.693v125.44
				c0,0.977,0.126,1.89,0.363,2.731c-0.239,1.924-0.363,3.863-0.363,5.803v236.373c0,20.48,16.213,36.693,36.693,36.693H290.84
				c20.48,0,36.693-16.213,36.693-36.693V246.467H344.6V474.307z M293.203,161.133c-3.552-77.887-55.357-93.043-57.829-93.867
				c-0.853,0-2.56,0-4.267,0c-1.285,0.642-33.025,9.993-48.646,50.968C166.8,77.26,134.9,67.909,132.973,67.267
				c-0.853,0-2.56,0-4.267,0c-1.653,0.826-53.738,16.063-57.012,94.554c-6.715,1.122-12.466,3.583-17.228,6.998V69.827
				C54.467,58.733,63,50.2,74.093,50.2H290.84c11.093,0,19.627,8.533,19.627,19.627v91.307H293.203z M80.067,246.467h230.4v193.707
				c0,11.093-8.533,19.627-19.627,19.627H74.093c-11.093,0-19.627-8.533-19.627-19.627V203.8c0-9.387,5.12-25.6,25.6-25.6
				c14.507,0,25.6,11.093,25.6,25.6c0,14.507-11.093,25.6-25.6,25.6c-5.12,0-8.533,3.413-8.533,8.533S74.947,246.467,80.067,246.467
				z M88.811,161.133c2.838-56.251,33.506-72.692,42.455-75.947c8.949,3.254,39.617,19.696,42.455,75.947H88.811z M276.122,161.133
				h-84.911c2.838-56.251,33.506-72.692,42.455-75.947C242.616,88.441,273.284,104.882,276.122,161.133z M361.667,229.4H114.2
				c5.12-6.827,8.533-16.213,8.533-25.6c0-9.387-3.413-18.773-8.533-25.6h247.467c14.507,0,25.6,11.093,25.6,25.6
				C387.267,218.307,376.173,229.4,361.667,229.4z"/>
			<path d="M131.267,118.467c-5.12,0-8.533,3.413-8.533,8.533s3.413,8.533,8.533,8.533c5.12,0,8.533-3.413,8.533-8.533
				S136.387,118.467,131.267,118.467z"/>
			<path d="M233.667,118.467c-5.12,0-8.533,3.413-8.533,8.533s3.413,8.533,8.533,8.533c5.12,0,8.533-3.413,8.533-8.533
				S238.787,118.467,233.667,118.467z"/>
			<path d="M182.467,425.667c5.12,0,8.533-3.413,8.533-8.533c0-33.28,26.453-59.733,59.733-59.733c5.12,0,8.533-3.413,8.533-8.533
				s-3.413-8.533-8.533-8.533c-42.667,0-76.8,34.133-76.8,76.8C173.933,422.253,177.347,425.667,182.467,425.667z"/>
			<path d="M208.067,323.267c5.12,0,8.533-3.413,8.533-8.533c0-9.387,7.68-17.067,17.067-17.067c5.12,0,8.533-3.413,8.533-8.533
				s-3.413-8.533-8.533-8.533c-18.773,0-34.133,15.36-34.133,34.133C199.533,319.853,202.947,323.267,208.067,323.267z"/>
			<path d="M233.667,417.133c0,5.12,3.413,8.533,8.533,8.533s8.533-3.413,8.533-8.533c0-9.387,7.68-17.067,17.067-17.067
				c5.12,0,8.533-3.413,8.533-8.533c0-5.12-3.413-8.533-8.533-8.533C249.027,383,233.667,398.36,233.667,417.133z"/>
			<path d="M139.8,297.667c9.387,0,17.067,7.68,17.067,17.067c0,5.12,3.413,8.533,8.533,8.533c5.12,0,8.533-3.413,8.533-8.533
				c0-18.773-15.36-34.133-34.133-34.133c-5.12,0-8.533,3.413-8.533,8.533S134.68,297.667,139.8,297.667z"/>
			<path d="M105.667,400.067c9.387,0,17.067,7.68,17.067,17.067c0,5.12,3.413,8.533,8.533,8.533c5.12,0,8.533-3.413,8.533-8.533
				c0-18.773-15.36-34.133-34.133-34.133c-5.12,0-8.533,3.413-8.533,8.533C97.133,396.653,100.547,400.067,105.667,400.067z"/>
			<path d="M122.733,348.867c9.387,0,17.067,7.68,17.067,17.067c0,5.12,3.413,8.533,8.533,8.533s8.533-3.413,8.533-8.533
				c0-18.773-15.36-34.133-34.133-34.133c-5.12,0-8.533,3.413-8.533,8.533C114.2,345.453,117.613,348.867,122.733,348.867z"/>
		</g>
	</g>
</g>
<g>
</g>
<g>
</g>
<g>
</g>
<g>
</g>
<g>
</g>
<g>
</g>
<g>
</g>
<g>
</g>
<g>
</g>
<g>
</g>
<g>
</g>
<g>
</g>
<g>
</g>
<g>
</g>
<g>
</g>
</svg>
