<?xml version="1.0" encoding="iso-8859-1"?>
<!-- Generator: Adobe Illustrator 19.0.0, SVG Export Plug-In . SVG Version: 6.00 Build 0)  -->
<svg version="1.1" id="Layer_1" xmlns="http://www.w3.org/2000/svg" xmlns:xlink="http://www.w3.org/1999/xlink" x="0px" y="0px"
	 viewBox="0 0 512 512" style="enable-background:new 0 0 512 512;" xml:space="preserve">
<g transform="translate(1 1)">
	<g>
		<g>
			<path d="M442.733,101.4h59.733c5.12,0,8.533-3.413,8.533-8.533c0-5.12-3.413-8.533-8.533-8.533h-59.733
				c-5.12,0-8.533,3.413-8.533,8.533C434.2,97.987,437.613,101.4,442.733,101.4z"/>
			<path d="M502.467,169.667h-25.6c-5.12,0-8.533,3.413-8.533,8.533s3.413,8.533,8.533,8.533h25.6c5.12,0,8.533-3.413,8.533-8.533
				S507.587,169.667,502.467,169.667z"/>
			<path d="M493.933,135.533c0-5.12-3.413-8.533-8.533-8.533h-59.733c-5.12,0-8.533,3.413-8.533,8.533s3.413,8.533,8.533,8.533
				H485.4C490.52,144.067,493.933,140.653,493.933,135.533z"/>
			<path d="M442.733,169.667c-5.12,0-8.533,3.413-8.533,8.533s3.413,8.533,8.533,8.533s8.533-3.413,8.533-8.533
				S447.853,169.667,442.733,169.667z"/>
			<path d="M67.267,400.067H7.533C2.413,400.067-1,403.48-1,408.6s3.413,8.533,8.533,8.533h59.733c5.12,0,8.533-3.413,8.533-8.533
				S72.387,400.067,67.267,400.067z"/>
			<path d="M7.533,331.8h25.6c5.12,0,8.533-3.413,8.533-8.533s-3.413-8.533-8.533-8.533h-25.6c-5.12,0-8.533,3.413-8.533,8.533
				S2.413,331.8,7.533,331.8z"/>
			<path d="M84.333,357.4H24.6c-5.12,0-8.533,3.413-8.533,8.533s3.413,8.533,8.533,8.533h59.733c5.12,0,8.533-3.413,8.533-8.533
				S89.453,357.4,84.333,357.4z"/>
			<path d="M67.267,331.8c5.12,0,8.533-3.413,8.533-8.533s-3.413-8.533-8.533-8.533s-8.533,3.413-8.533,8.533
				S62.147,331.8,67.267,331.8z"/>
			<path d="M186.733,237.933h-17.067c-5.12,0-8.533,3.413-8.533,8.533s3.413,8.533,8.533,8.533h17.067
				c5.12,0,8.533-3.413,8.533-8.533S191.853,237.933,186.733,237.933z"/>
			<path d="M237.933,237.933h-17.067c-5.12,0-8.533,3.413-8.533,8.533s3.413,8.533,8.533,8.533h17.067
				c5.12,0,8.533-3.413,8.533-8.533S243.053,237.933,237.933,237.933z"/>
			<path d="M340.333,237.933h-17.067c-5.12,0-8.533,3.413-8.533,8.533s3.413,8.533,8.533,8.533h17.067
				c5.12,0,8.533-3.413,8.533-8.533S345.453,237.933,340.333,237.933z"/>
			<path d="M289.133,237.933h-17.067c-5.12,0-8.533,3.413-8.533,8.533s3.413,8.533,8.533,8.533h17.067
				c5.12,0,8.533-3.413,8.533-8.533S294.253,237.933,289.133,237.933z"/>
			<path d="M340.333,323.267h-17.067c-5.12,0-8.533,3.413-8.533,8.533c0,5.12,3.413,8.533,8.533,8.533h17.067
				c5.12,0,8.533-3.413,8.533-8.533C348.867,326.68,345.453,323.267,340.333,323.267z"/>
			<path d="M289.133,323.267h-17.067c-5.12,0-8.533,3.413-8.533,8.533c0,5.12,3.413,8.533,8.533,8.533h17.067
				c5.12,0,8.533-3.413,8.533-8.533C297.667,326.68,294.253,323.267,289.133,323.267z"/>
			<path d="M186.733,323.267h-17.067c-5.12,0-8.533,3.413-8.533,8.533c0,5.12,3.413,8.533,8.533,8.533h17.067
				c5.12,0,8.533-3.413,8.533-8.533C195.267,326.68,191.853,323.267,186.733,323.267z"/>
			<path d="M237.933,323.267h-17.067c-5.12,0-8.533,3.413-8.533,8.533c0,5.12,3.413,8.533,8.533,8.533h17.067
				c5.12,0,8.533-3.413,8.533-8.533C246.467,326.68,243.053,323.267,237.933,323.267z"/>
			<path d="M237.933,408.6h-17.067c-5.12,0-8.533,3.413-8.533,8.533s3.413,8.533,8.533,8.533h17.067c5.12,0,8.533-3.413,8.533-8.533
				S243.053,408.6,237.933,408.6z"/>
			<path d="M186.733,408.6h-17.067c-5.12,0-8.533,3.413-8.533,8.533s3.413,8.533,8.533,8.533h17.067c5.12,0,8.533-3.413,8.533-8.533
				S191.853,408.6,186.733,408.6z"/>
			<path d="M340.333,408.6h-17.067c-5.12,0-8.533,3.413-8.533,8.533s3.413,8.533,8.533,8.533h17.067c5.12,0,8.533-3.413,8.533-8.533
				S345.453,408.6,340.333,408.6z"/>
			<path d="M289.133,408.6h-17.067c-5.12,0-8.533,3.413-8.533,8.533s3.413,8.533,8.533,8.533h17.067c5.12,0,8.533-3.413,8.533-8.533
				S294.253,408.6,289.133,408.6z"/>
			<path d="M352.28-1H157.72c-21.333,0-39.253,17.92-39.253,39.253v92.16c0,11.91,5.323,22.753,13.883,30.011
				c-8.488,6.682-13.883,17.062-13.883,28.869v285.013c0,20.48,16.213,36.693,36.693,36.693h199.68
				c20.48,0,36.693-16.213,36.693-36.693V189.293c0-11.892-5.474-22.338-14.069-29.014c8.55-7.257,14.069-18.033,14.069-29.866
				v-71.68V41.667v-3.413C391.533,16.92,373.613-1,352.28-1z M354.84,169.667c11.093,0,19.627,8.533,19.627,19.627v48.64
				c-5.12,0-8.533,3.413-8.533,8.533s3.413,8.533,8.533,8.533v68.267c-5.12,0-8.533,3.413-8.533,8.533
				c0,5.12,3.413,8.533,8.533,8.533V408.6c-5.12,0-8.533,3.413-8.533,8.533s3.413,8.533,8.533,8.533v48.64
				c0,11.093-8.533,19.627-19.627,19.627H155.16c-11.093,0-19.627-8.533-19.627-19.627v-48.64c5.12,0,8.533-3.413,8.533-8.533
				s-3.413-8.533-8.533-8.533v-68.267c5.12,0,8.533-3.413,8.533-8.533c0-5.12-3.413-8.533-8.533-8.533V255
				c5.12,0,8.533-3.413,8.533-8.533s-3.413-8.533-8.533-8.533v-48.64c0-11.093,8.533-19.627,19.627-19.627h2.56h3.413h187.733h3.413
				H354.84z M331.8,152.6H178.2v-5.12c0-25.6,20.48-46.08,46.08-46.08h61.44c25.6,0,46.08,20.48,46.08,46.08V152.6z
				 M374.467,130.413c0,11.947-10.24,22.187-22.187,22.187h-3.413v-5.12c0-34.987-28.16-63.147-63.147-63.147h-61.44
				c-34.987,0-63.147,28.16-63.147,63.147v5.12h-3.413c-11.947,0-22.187-10.24-22.187-22.187v-71.68h238.933V130.413z
				 M135.533,41.667v-3.413c0-11.947,10.24-22.187,22.187-22.187h194.56c11.947,0,22.187,10.24,22.187,22.187v3.413H135.533z"/>
		</g>
	</g>
</g>
<g>
</g>
<g>
</g>
<g>
</g>
<g>
</g>
<g>
</g>
<g>
</g>
<g>
</g>
<g>
</g>
<g>
</g>
<g>
</g>
<g>
</g>
<g>
</g>
<g>
</g>
<g>
</g>
<g>
</g>
</svg>
