<?xml version="1.0" encoding="iso-8859-1"?>
<!-- Generator: Adobe Illustrator 19.0.0, SVG Export Plug-In . SVG Version: 6.00 Build 0)  -->
<svg version="1.1" id="Layer_1" xmlns="http://www.w3.org/2000/svg" xmlns:xlink="http://www.w3.org/1999/xlink" x="0px" y="0px"
	 viewBox="0 0 512 512" style="enable-background:new 0 0 512 512;" xml:space="preserve">
<g transform="translate(1 1)">
	<g>
		<g>
			<path d="M493.933,344.367V37.012c0-3.413-1.707-5.973-5.12-6.827c-3.413-1.707-6.827-0.853-9.387,0.853l-51.2,40.96
				c-23.04,18.773-36.693,46.933-36.693,76.8v161.28H271.887l44.553-68.267c16.213-25.6,19.627-56.32,10.24-85.333l-21.333-62.293
				c-0.853-3.413-3.413-5.973-6.827-5.973c-3.413,0-6.827,1.707-8.533,4.267l-139.53,217.6H127h-8.533V209.385l16.213-40.96
				c0.853-1.707,0.853-4.267,0-5.973l-17.067-51.2c-0.853-3.413-4.267-5.973-7.68-5.973H75.8c-3.413,0-6.827,2.56-7.68,5.973
				l-17.067,51.2c-0.853,1.707-0.853,4.267,0,5.973l16.213,40.96v102.422C28.438,319.769-1,354.319-1,395.412
				c0,46.933,38.4,85.333,85.333,85.333H127h42.667h256c46.933,0,85.333-38.4,85.333-85.333
				C511,376.312,504.639,358.628,493.933,344.367z M408.6,148.798c0-24.747,11.093-48.64,30.72-64l37.547-29.867v272.213
				c-12.196-9.327-26.809-15.017-42.31-16.599c-0.144-0.015-0.289-0.029-0.434-0.043c-1.16-0.112-2.324-0.202-3.493-0.268
				c-0.293-0.017-0.585-0.039-0.879-0.053c-1.357-0.063-2.718-0.104-4.085-0.104H408.6V148.798z M295.107,117.225l15.36,45.227
				c8.533,23.04,5.12,48.64-8.533,69.973l-50.347,77.653H170.52L295.107,117.225z M84.373,398.008
				c0.007,0.224,0.021,0.446,0.029,0.67c0.01,0.265,0.022,0.529,0.035,0.793c0.008,0.164,0.013,0.328,0.022,0.492
				c0.011,0.212,0.018,0.425,0.031,0.636c0.012,0.205,0.031,0.408,0.045,0.612c0.044,0.661,0.091,1.321,0.15,1.977
				c0.013,0.14,0.03,0.278,0.043,0.418c0.013,0.14,0.029,0.278,0.043,0.418c0.005,0.054,0.011,0.109,0.017,0.163
				c0.054,0.53,0.107,1.061,0.171,1.589c0.007,0.054,0.015,0.108,0.021,0.163c2.136,17.44,9.517,33.387,20.69,45.904
				c3.536,4.01,7.434,7.671,11.632,10.935c-33.126-4.409-58.567-33.34-58.567-67.366c0-34.025,25.44-62.957,58.567-67.366
				c-4.198,3.264-8.096,6.926-11.633,10.936c-11.171,12.517-18.552,28.463-20.688,45.902c-0.007,0.054-0.015,0.108-0.021,0.163
				c-0.064,0.528-0.117,1.058-0.171,1.589c-0.006,0.055-0.011,0.109-0.017,0.163c-0.014,0.139-0.03,0.278-0.043,0.417
				c-0.013,0.14-0.03,0.278-0.043,0.418c-0.059,0.657-0.106,1.317-0.15,1.977c-0.014,0.204-0.033,0.407-0.045,0.612
				c-0.013,0.212-0.02,0.424-0.031,0.636c-0.009,0.164-0.014,0.328-0.022,0.492c-0.012,0.264-0.025,0.528-0.035,0.793
				c-0.008,0.224-0.023,0.446-0.029,0.67c-0.026,0.863-0.039,1.728-0.039,2.596S84.347,397.145,84.373,398.008z M83.48,204.265
				l-16.213-40.107l14.507-42.667h22.187l14.507,42.667l-16.213,40.107c-0.853,0.853-0.853,2.56-0.853,3.413v102.4H84.333v-102.4
				C84.333,206.825,84.333,205.118,83.48,204.265z M16.067,395.412c0-34.429,25.836-63.099,59.075-67.626
				c-20.313,15.635-33.475,40.162-33.475,67.626s13.161,51.991,33.474,67.626C41.903,458.511,16.067,429.841,16.067,395.412z
				 M425.667,463.678h-256c-37.547,0-68.267-30.72-68.267-68.267c0-32.373,22.845-59.652,53.204-66.56c0.331,0,0.555,0,0.555,0
				c4.446-0.741,8.89-1.48,12.777-1.663c0.577-0.015,1.15-0.044,1.73-0.044h87.04h143.36h25.6c1.244,0,2.485,0.038,3.721,0.106
				c0.228,0.012,0.453,0.037,0.68,0.052c1.035,0.068,2.069,0.15,3.097,0.265c0.167,0.018,0.331,0.044,0.497,0.064
				c1.115,0.134,2.225,0.288,3.329,0.476c0.061,0.01,0.121,0.022,0.182,0.033c16.164,2.808,31.025,11.462,41.401,24.604
				c0.494,0.742,1.066,1.325,1.683,1.801c8.578,11.414,13.677,25.572,13.677,40.866
				C493.933,432.958,463.213,463.678,425.667,463.678z"/>
			<path d="M331.8,386.878h-25.6v-25.6c0-5.12-3.413-8.533-8.533-8.533s-8.533,3.413-8.533,8.533v25.6h-25.6
				c-5.12,0-8.533,3.413-8.533,8.533s3.413,8.533,8.533,8.533h25.6v25.6c0,5.12,3.413,8.533,8.533,8.533s8.533-3.413,8.533-8.533
				v-25.6h25.6c5.12,0,8.533-3.413,8.533-8.533S336.92,386.878,331.8,386.878z"/>
			<path d="M169.667,361.279c-18.773,0-34.133,15.36-34.133,34.133c0,18.773,15.36,34.133,34.133,34.133
				c18.773,0,34.133-15.36,34.133-34.133C203.8,376.638,188.44,361.279,169.667,361.279z M169.667,412.479
				c-9.387,0-17.067-7.68-17.067-17.067s7.68-17.067,17.067-17.067s17.067,7.68,17.067,17.067S179.053,412.479,169.667,412.479z"/>
			<path d="M425.667,361.279c-18.773,0-34.133,15.36-34.133,34.133c0,18.773,15.36,34.133,34.133,34.133s34.133-15.36,34.133-34.133
				C459.8,376.638,444.44,361.279,425.667,361.279z M425.667,412.479c-9.387,0-17.067-7.68-17.067-17.067s7.68-17.067,17.067-17.067
				s17.067,7.68,17.067,17.067S435.053,412.479,425.667,412.479z"/>
			<path d="M442.733,190.612c5.12,0,8.533-3.413,8.533-8.533v-34.133c0-5.12-3.413-8.533-8.533-8.533s-8.533,3.413-8.533,8.533
				v34.133C434.2,187.198,437.613,190.612,442.733,190.612z"/>
			<path d="M258.413,231.572c1.707,0.853,3.413,1.707,5.12,1.707c2.56,0,5.12-1.707,6.827-4.267l17.067-25.6
				c2.56-4.267,1.707-9.387-2.56-11.947s-9.387-1.707-11.947,2.56l-17.067,25.6C253.293,223.892,254.147,229.012,258.413,231.572z"
				/>
		</g>
	</g>
</g>
<g>
</g>
<g>
</g>
<g>
</g>
<g>
</g>
<g>
</g>
<g>
</g>
<g>
</g>
<g>
</g>
<g>
</g>
<g>
</g>
<g>
</g>
<g>
</g>
<g>
</g>
<g>
</g>
<g>
</g>
</svg>
