<?xml version="1.0" encoding="iso-8859-1"?>
<!-- Generator: Adobe Illustrator 19.0.0, SVG Export Plug-In . SVG Version: 6.00 Build 0)  -->
<svg version="1.1" id="Layer_1" xmlns="http://www.w3.org/2000/svg" xmlns:xlink="http://www.w3.org/1999/xlink" x="0px" y="0px"
	 viewBox="0 0 512 512" style="enable-background:new 0 0 512 512;" xml:space="preserve">
<g transform="translate(1 1)">
	<g>
		<g>
			<path d="M284.128,375.136c3.172-5.177,5.005-11.252,5.005-17.736c0-6.339-1.757-12.286-4.8-17.387l67.946-67.946h22.187
				c14.507,0,25.6-11.093,25.6-25.6c0-14.507-11.093-25.6-25.6-25.6h-45.653l36.267-72.533c1.707-2.56,1.707-5.973,0-8.533
				s-5.12-4.267-7.68-4.267h-34.133v-17.067c0-37.547-30.72-68.267-68.267-68.267c-37.547,0-68.267,30.72-68.267,68.267v17.067
				H152.6c-2.56,0-5.973,1.707-7.68,3.413c-0.853,2.56-1.707,5.973,0,8.533l36.693,73.387h-46.08c-14.507,0-25.6,11.093-25.6,25.6
				c0,14.507,11.093,25.6,25.6,25.6h22.187l67.946,67.946c-3.043,5.101-4.8,11.048-4.8,17.387c0,6.271,1.721,12.157,4.704,17.222
				l-62.731,70.672c-3.413,3.413-2.56,8.533,0.853,11.947c1.707,1.707,4.267,2.56,5.973,2.56c2.56,0,5.12-0.853,5.973-3.413
				l61.876-69.709c5.122,3.078,11.105,4.855,17.484,4.855c6.173,0,11.972-1.669,16.983-4.566l62.377,70.273
				c0.853,1.707,3.413,2.56,5.973,2.56c1.707,0,4.267-0.853,5.973-1.707c3.413-3.413,4.267-8.533,0.853-11.947L284.128,375.136z
				 M203.8,118.467c0-28.16,23.04-51.2,51.2-51.2c28.16,0,51.2,23.04,51.2,51.2v17.067H203.8V118.467z M195.267,152.6h119.467
				h29.013l-12.8,25.6H179.053l-12.8-25.6H195.267z M187.587,195.267h134.827l-12.8,25.6H200.387L187.587,195.267z M127,246.467
				c0-5.12,3.413-8.533,8.533-8.533h59.733h119.467h59.733c5.12,0,8.533,3.413,8.533,8.533S379.587,255,374.467,255H135.533
				C130.413,255,127,251.587,127,246.467z M328.387,272.067l-56,56c-5.101-3.043-11.048-4.8-17.387-4.8s-12.286,1.757-17.387,4.8
				l-56-56H328.387z M243.3,369.775c-0.33-0.447-0.695-0.877-1.1-1.281c-0.164-0.164-0.336-0.31-0.507-0.454
				c-2.345-2.924-3.759-6.622-3.759-10.639c0-4.282,1.611-8.199,4.241-11.203c0.309-0.229,0.607-0.471,0.879-0.743
				c0.3-0.3,0.564-0.618,0.812-0.942c2.996-2.594,6.885-4.178,11.135-4.178s8.139,1.584,11.135,4.178
				c0.247,0.324,0.512,0.642,0.812,0.942c0.342,0.342,0.685,0.64,1.034,0.913c2.54,2.982,4.086,6.833,4.086,11.034
				c0,9.387-7.68,17.067-17.067,17.067C250.477,374.467,246.362,372.672,243.3,369.775z"/>
			<path d="M169.667,365.933c14.507,0,24.747-11.093,24.747-25.6c0-14.507-11.093-25.6-25.6-25.6h-76.8
				c-0.645,0-1.345,0.055-2.071,0.149c-6.041-5.391-13.991-8.683-22.675-8.683c-0.933,0-1.854,0.048-2.769,0.123l-13.471-47.15
				c9.837-5.882,14.853-17.401,11.974-28.919L49.347,180.76c-1.707-6.827-5.973-11.947-11.947-15.36s-12.8-4.267-19.627-2.56
				s-11.947,5.973-15.36,11.947s-4.267,12.8-2.56,19.627l13.653,49.493c3.025,9.83,11.413,16.968,21.003,18.469l14.117,49.411
				c-9.31,6.113-15.493,16.64-15.493,28.547c0,15.83,10.921,29.232,25.6,33.046v77.888c0,5.12,3.413,8.533,8.533,8.533
				s8.533-3.413,8.533-8.533v-77.888c5.38-1.398,10.253-4.085,14.27-7.706c0.984,0.159,1.94,0.261,2.796,0.261H127v85.333
				c0,5.12,3.413,8.533,8.533,8.533s8.533-3.413,8.533-8.533v-85.333H169.667z M29.72,239.64l-13.653-49.493
				c0-2.56,0-5.12,0.853-6.827c0.853-2.56,2.56-3.413,5.12-4.267c0.853,0,1.707,0,2.56,0c1.707,0,2.56,0,4.267,0.853
				c2.56,0.853,3.413,2.56,4.267,5.12l12.8,50.347c1.707,4.267-1.707,9.387-5.973,10.24S30.573,243.907,29.72,239.64z M50.2,340.333
				c0-9.387,7.68-17.067,17.067-17.067c4.445,0,8.495,1.736,11.54,4.547c0.334,0.76,0.753,1.52,1.26,2.28
				c0.924,0.616,1.731,1.462,2.392,2.522c1.189,2.323,1.875,4.942,1.875,7.718c0,9.387-7.68,17.067-17.067,17.067
				S50.2,349.72,50.2,340.333z M101.4,340.333c0-2.56,0-5.973-0.853-8.533h69.12c5.12,0,8.533,3.413,8.533,8.533
				s-3.413,8.533-8.533,8.533h-69.12C101.4,346.307,101.4,342.893,101.4,340.333z"/>
			<path d="M507.587,174.787c-3.413-5.973-8.533-10.24-15.36-11.947s-13.653-0.853-19.627,2.56
				c-5.973,3.413-10.24,8.533-11.947,15.36L447,230.253c-1.707,6.827-0.853,13.653,2.56,19.627c2.176,3.807,5.048,6.917,8.61,9.117
				l-13.503,47.262c-0.641-0.036-1.285-0.059-1.934-0.059c-8.745,0-16.747,3.336-22.804,8.794c-0.984-0.159-1.94-0.261-2.796-0.261
				h-76.8c-14.507,0-25.6,11.093-25.6,25.6c0,14.507,11.093,25.6,25.6,25.6h25.6v85.333c0,5.12,3.413,8.533,8.533,8.533
				s8.533-3.413,8.533-8.533v-85.333h34.133c0.848,0,1.797-0.1,2.802-0.256c4.017,3.619,8.888,6.305,14.265,7.702v77.888
				c0,5.12,3.413,8.533,8.533,8.533s8.533-3.413,8.533-8.533v-77.888c14.679-3.814,25.6-17.216,25.6-33.046
				c0-12.212-6.503-22.975-16.214-29.01l13.945-48.809c10.693-1.114,19.542-8.41,21.896-18.608l13.653-49.493
				C511.853,187.587,511,180.76,507.587,174.787z M340.333,348.867c-5.12,0-8.533-3.413-8.533-8.533s3.413-8.533,8.533-8.533h69.12
				c-0.853,2.56-0.853,5.973-0.853,8.533s0,5.973,0.853,8.533H340.333z M442.733,357.4c-4.445,0-8.495-1.736-11.54-4.547
				c-0.334-0.76-0.753-1.52-1.26-2.28c-0.924-0.616-1.731-1.462-2.392-2.522c-1.189-2.323-1.875-4.942-1.875-7.718
				c0-9.387,7.68-17.067,17.067-17.067s17.067,7.68,17.067,17.067S452.12,357.4,442.733,357.4z M493.933,190.147L480.28,239.64
				c-0.853,4.267-5.973,6.827-10.24,5.973c-2.56-0.853-4.267-2.56-5.973-4.267c-0.853-2.56-1.707-4.267-0.853-6.827l13.653-49.493
				c0.853-2.56,2.56-4.267,4.267-5.12c2.56-0.853,4.267-1.707,6.827-0.853c2.56,0.853,4.267,2.56,5.12,4.267
				C493.933,185.88,494.787,187.587,493.933,190.147z"/>
		</g>
	</g>
</g>
<g>
</g>
<g>
</g>
<g>
</g>
<g>
</g>
<g>
</g>
<g>
</g>
<g>
</g>
<g>
</g>
<g>
</g>
<g>
</g>
<g>
</g>
<g>
</g>
<g>
</g>
<g>
</g>
<g>
</g>
</svg>
