<?xml version="1.0" encoding="iso-8859-1"?>
<!-- Generator: Adobe Illustrator 19.0.0, SVG Export Plug-In . SVG Version: 6.00 Build 0)  -->
<svg version="1.1" id="Layer_1" xmlns="http://www.w3.org/2000/svg" xmlns:xlink="http://www.w3.org/1999/xlink" x="0px" y="0px"
	 viewBox="0 0 512 512" style="enable-background:new 0 0 512 512;" xml:space="preserve">
<g transform="translate(1 1)">
	<g>
		<g>
			<path d="M377.801,84.413l19.706-19.706c0.339-0.339,0.635-0.7,0.907-1.069c7.401,5.583,14.511,11.628,21.279,18.136
				c1.707,1.707,4.267,2.56,5.973,2.56c2.56,0,4.267-0.853,5.973-2.56c3.413-3.413,3.413-8.533,0-11.947
				C383.853,23.747,320.707-1,255-1S126.147,23.747,78.36,69.827c-3.413,3.413-3.413,8.533,0,11.947s8.533,3.413,11.947,0
				c5.262-5.06,10.734-9.834,16.384-14.336l20.243,20.242C60.406,130.219,16.067,204.747,16.067,289.133V306.2v102.4v17.067V472.6
				c0,21.333,17.067,38.4,38.4,38.4h401.067c21.333,0,38.4-17.067,38.4-38.4v-46.933V408.6V306.2v-17.067
				C493.933,202.541,447.244,126.331,377.801,84.413z M362.43,75.89c-29.947-15.199-63.471-24.26-98.897-25.52V16.232
				c43.271,1.507,84.982,14.451,120.909,37.645L362.43,75.89z M141.507,78.36l-21.073-21.073
				c37.058-25.332,80.688-39.475,126.033-41.055V50.37c-37.661,1.34-73.176,11.493-104.526,28.466
				C141.8,78.676,141.661,78.514,141.507,78.36z M33.133,323.267H178.2V408.6H33.133V323.267z M306.2,203.8
				c0-9.387,7.68-17.067,17.067-17.067s17.067,7.68,17.067,17.067c0,9.387-7.68,17.067-17.067,17.067S306.2,213.187,306.2,203.8z
				 M290.284,195.048c-0.549,2.054-0.904,4.184-1.057,6.367c-0.006,0.079-0.013,0.158-0.018,0.237
				c-0.045,0.711-0.075,1.426-0.075,2.148s0.03,1.437,0.075,2.148c0.005,0.079,0.012,0.158,0.018,0.237
				c0.153,2.184,0.508,4.313,1.057,6.368c0.748,2.916,1.822,5.725,3.116,8.314h-77.653h-29.013c-9.387,0-17.067-7.68-17.067-17.067
				c0-9.387,7.68-17.067,17.067-17.067H293.4C292.105,189.323,291.031,192.132,290.284,195.048z M195.267,306.2v-47.787
				c0-11.093,9.387-20.48,20.48-20.48h78.507c11.093,0,20.48,9.387,20.48,20.48V306.2v102.4v17.067v5.12
				c0,11.093-9.387,20.48-20.48,20.48h-78.507c-11.093,0-20.48-9.387-20.48-20.48v-5.12V408.6V306.2z M476.867,472.6
				c0,11.947-9.387,21.333-21.333,21.333H54.467c-11.947,0-21.333-9.387-21.333-21.333v-46.933H178.2v5.12
				c0,20.48,17.067,37.547,37.547,37.547h78.507c20.48,0,37.547-17.067,37.547-37.547v-5.12h145.067V472.6z M331.8,408.6v-85.333
				h145.067V408.6H331.8z M331.8,306.2v-47.787c0-7.547-2.324-14.627-6.276-20.564c17.73-1.173,31.876-16.036,31.876-34.05
				c0-18.773-15.36-34.133-34.133-34.133H186.733c-18.773,0-34.133,15.36-34.133,34.133c0,18.014,14.145,32.876,31.876,34.05
				c-3.952,5.937-6.276,13.016-6.276,20.564V306.2H33.133v-17.067c0-122.027,99.84-221.867,221.867-221.867
				s221.867,99.84,221.867,221.867V306.2H331.8z"/>
			<path d="M220.867,434.2c5.12,0,8.533-3.413,8.533-8.533V408.6c0-5.12-3.413-8.533-8.533-8.533c-5.12,0-8.533,3.413-8.533,8.533
				v17.067C212.333,430.787,215.747,434.2,220.867,434.2z"/>
			<path d="M220.867,374.467c5.12,0,8.533-3.413,8.533-8.533v-42.667c0-5.12-3.413-8.533-8.533-8.533
				c-5.12,0-8.533,3.413-8.533,8.533v42.667C212.333,371.053,215.747,374.467,220.867,374.467z"/>
			<path d="M220.867,289.133c5.12,0,8.533-3.413,8.533-8.533v-17.067c0-5.12-3.413-8.533-8.533-8.533
				c-5.12,0-8.533,3.413-8.533,8.533V280.6C212.333,285.72,215.747,289.133,220.867,289.133z"/>
		</g>
	</g>
</g>
<g>
</g>
<g>
</g>
<g>
</g>
<g>
</g>
<g>
</g>
<g>
</g>
<g>
</g>
<g>
</g>
<g>
</g>
<g>
</g>
<g>
</g>
<g>
</g>
<g>
</g>
<g>
</g>
<g>
</g>
</svg>
