<?xml version="1.0" encoding="iso-8859-1"?>
<!-- Generator: Adobe Illustrator 19.0.0, SVG Export Plug-In . SVG Version: 6.00 Build 0)  -->
<svg version="1.1" id="Layer_1" xmlns="http://www.w3.org/2000/svg" xmlns:xlink="http://www.w3.org/1999/xlink" x="0px" y="0px"
	 viewBox="0 0 511.657 511.657" style="enable-background:new 0 0 511.657 511.657;" xml:space="preserve">
<g transform="translate(1)">
	<g>
		<g>
			<path d="M438.124,289.962h29.867c3.413,0,6.827-1.707,8.533-5.12c1.707-3.413,1.707-6.827-0.853-9.387l-45.696-53.76h20.949
				c3.413,0,5.973-1.707,6.827-5.12c1.707-3.413,0.853-6.827-0.853-9.387l-43.68-53.76h20.64c3.413,0,5.973-1.707,7.68-5.12
				c1.707-3.413,0.853-6.827-0.853-9.387l-59.733-76.8c-3.413-4.267-10.24-4.267-13.653,0l-59.733,76.8
				c-1.707,2.56-2.56,6.827-0.853,9.387c1.707,3.413,4.267,5.12,7.68,5.12h19.554l-28.65,34.578l-29.185-61.149l35.722-35.722
				c3.413-3.413,3.413-8.533,0-11.947c-3.413-3.413-8.533-3.413-11.947,0l-28.16,28.16V42.495c0-5.12-3.413-8.533-8.533-8.533
				s-8.533,3.413-8.533,8.533v64.853l-28.16-28.16c-3.413-3.413-8.533-3.413-11.947,0s-3.413,8.533,0,11.947l35.708,35.708
				l-53.074,110.763l-40.661-50.044h21.333c3.413,0,5.973-1.707,7.68-5.12s0.853-6.827-0.853-9.387l-59.733-76.8
				c-3.413-4.267-10.24-4.267-13.653,0l-59.733,76.8c-1.707,2.56-2.56,6.827-0.853,9.387c1.707,3.413,4.267,5.12,7.68,5.12h20.48
				l-44.373,54.613c-1.707,2.56-2.56,5.12-0.853,8.533s4.267,5.12,7.68,5.12h21.803l-45.696,53.76
				c-1.707,2.56-2.56,5.973-0.853,9.387s4.267,5.12,7.68,5.12h30.72l-53.76,53.76c-2.56,2.56-2.56,5.973-1.707,9.387
				c0.853,3.413,4.267,5.12,7.68,5.12h76.8v102.4c0,5.12,3.413,8.533,8.533,8.533h51.2h58.027h2.56h116.907h2.56H442.39
				c2.56,0,5.973-1.707,6.827-3.413c1.707-2.56,1.707-5.973,0.853-8.533l-24.747-51.85v-81.27h59.733
				c3.413,0,6.827-1.707,7.68-5.973c1.707-3.413,0.853-6.827-1.707-9.387L438.124,289.962z M449.217,272.895h-28.704
				c-1.069-0.562-2.253-0.853-3.722-0.853h-71.233l-16.66-34.987l12.8-15.36h64L449.217,272.895z M374.124,81.749l42.667,54.613
				h-18.255c-1.228-0.604-2.578-0.853-3.932-0.853H352.79c-1.124,0-2.243,0.34-3.294,0.853h-18.039L374.124,81.749z
				 M357.057,153.428h34.133l41.813,51.2h-18.255c-1.228-0.604-2.578-0.853-3.932-0.853h-72.533c-1.124,0-2.243,0.34-3.294,0.853
				h-19.745L357.057,153.428z M182.972,267.267l-9.723-11.438h15.204L182.972,267.267z M118.124,115.882l42.667,54.613h-22.187
				H96.79H75.457L118.124,115.882z M101.057,187.562h34.133l41.813,51.2h-22.187H82.284h-23.04L101.057,187.562z M85.697,255.829
				h64.853l25.428,29.915c0.267,1.219,0.872,2.358,1.879,3.365l15.36,17.92h-23.893h-8.533H75.457H43.03L85.697,255.829z
				 M78.87,324.095h78.507l3.413,3.413l47.787,47.787h-64.853h-51.2H27.67L78.87,324.095z M225.019,392.362l-20.282,69.248
				l-16.64-61.568c-0.853-2.56-1.707-5.12-1.707-7.68H225.019z M101.057,392.362h34.133v93.867h-34.133V392.362z M152.257,392.362
				h16.796c0.205,4.399,0.928,8.6,1.978,12.8l21.768,81.067h-40.541V392.362z M216.257,486.229l1.111-3.87l27.902-94.263
				c0.507-1.521,0.701-3.038,0.427-4.38l18.347-63.886l48.64,166.4H216.257z M280.436,315.088l43.341,35.461
				c14.507,11.947,21.333,31.573,16.213,49.493l-16.504,62.032L280.436,315.088z M335.289,486.229l21.768-81.067
				c5.973-24.747-2.56-51.2-22.187-67.413l-64.113-52.456c-0.409-0.38-0.847-0.742-1.312-1.074l-0.282-0.23
				c-3.413-3.413-8.533-2.56-11.947,0.853c-0.734,0.734-1.26,1.55-1.616,2.408c-0.028,0.053-0.064,0.098-0.091,0.152v0.07
				c-0.284,0.755-0.432,1.54-0.455,2.337l-24.482,83.589l-49.303-49.303h30.72c3.413,0,5.973-1.707,8.533-4.267
				c1.707-3.413,1.707-6.827-0.853-9.387l-24.456-28.771l67.976-142.749l31.515,66.117c0.063,1.106,0.343,2.15,0.911,3.003
				l4.267,8.533c0.385,0.77,0.82,1.441,1.292,2.037l127.562,267.616H335.289z M408.257,403.455l-21.333-45.227h21.333V403.455z
				 M420.825,341.162c-1.169-0.55-2.525-0.853-4.034-0.853h-38.798l-23.495-50.347h58.88l51.2,51.2H420.825z"/>
			<path d="M15.724,51.029c18.773,0,34.133,15.36,34.133,34.133c0,5.12,3.413,8.533,8.533,8.533s8.533-3.413,8.533-8.533
				c0-23.893,18.773-42.667,42.667-42.667c5.12,0,8.533-3.413,8.533-8.533s-3.413-8.533-8.533-8.533
				c-22.517,0-41.895,12.118-52.083,30.258c-9.295-13.115-24.578-21.725-41.784-21.725c-5.12,0-8.533,3.413-8.533,8.533
				C7.19,47.615,10.604,51.029,15.724,51.029z"/>
			<path d="M339.99,25.428c5.12,0,8.533-3.413,8.533-8.533s-3.413-8.533-8.533-8.533c-5.12,0-8.533,3.413-8.533,8.533
				S334.87,25.428,339.99,25.428z"/>
			<path d="M502.124,42.495c-5.12,0-8.533,3.413-8.533,8.533s3.413,8.533,8.533,8.533s8.533-3.413,8.533-8.533
				S507.244,42.495,502.124,42.495z"/>
		</g>
	</g>
</g>
<g>
</g>
<g>
</g>
<g>
</g>
<g>
</g>
<g>
</g>
<g>
</g>
<g>
</g>
<g>
</g>
<g>
</g>
<g>
</g>
<g>
</g>
<g>
</g>
<g>
</g>
<g>
</g>
<g>
</g>
</svg>
