<?xml version="1.0" encoding="iso-8859-1"?>
<!-- Generator: Adobe Illustrator 19.0.0, SVG Export Plug-In . SVG Version: 6.00 Build 0)  -->
<svg version="1.1" id="Layer_1" xmlns="http://www.w3.org/2000/svg" xmlns:xlink="http://www.w3.org/1999/xlink" x="0px" y="0px"
	 viewBox="0 0 512 512" style="enable-background:new 0 0 512 512;" xml:space="preserve">
<g transform="translate(1 1)">
	<g>
		<g>
			<path d="M277.29,228.517H153.703c-5.297,0-8.828,3.531-8.828,8.828v105.931c0,5.297,3.531,8.828,8.828,8.828H277.29
				c5.297,0,8.828-3.531,8.828-8.828V237.345C286.117,232.048,282.586,228.517,277.29,228.517z M268.462,334.448H162.531v-88.276
				h105.931V334.448z"/>
			<path d="M189.014,34.31c-5.297,0-8.828,3.531-8.828,8.828v17.655c0,5.297,3.531,8.828,8.828,8.828
				c5.297,0,8.828-3.531,8.828-8.828V43.138C197.841,37.841,194.31,34.31,189.014,34.31z"/>
			<path d="M347.91,175.552h-26.483v-6.992c0.204-1.346,0.203-2.724-0.22-3.991c-0.32-1.562-0.994-2.903-1.959-3.967l-33.132-66.263
				V36.959C286.117,15.772,269.345-1,248.159-1h-65.324c-21.186,0-37.959,16.772-37.959,37.959v56.497l-34.428,68.855
				c-1.383,2.074-1.666,4.686-0.883,6.995v244.591v59.145c0,21.186,16.772,37.959,37.959,37.959h135.945
				c21.186,0,37.959-16.772,37.959-37.959v-50.317h26.483c29.131,0,52.966-23.834,52.966-52.966V228.517
				C400.876,199.386,377.041,175.552,347.91,175.552z M127.221,175.552H302.89v229.517H127.221V175.552z M321.428,228.517h26.483
				v141.241h-26.483V228.517z M162.531,36.959c0-11.476,8.828-20.303,20.303-20.303h65.324c11.476,0,20.303,8.828,20.303,20.303
				v50.317H162.531V36.959z M159,104.931h112.993l26.483,52.966H132.517L159,104.931z M302.89,473.041
				c0,10.593-8.828,20.303-20.303,20.303H147.524c-10.593,0-20.303-9.71-20.303-20.303v-50.317H302.89V473.041z M383.221,369.759
				c0,19.421-15.89,35.31-35.31,35.31h-26.483v-17.655h26.483c9.71,0,17.655-7.945,17.655-17.655V228.517
				c0-9.71-7.945-17.655-17.655-17.655h-26.483v-17.655h26.483c19.421,0,35.31,15.89,35.31,35.31V369.759z"/>
		</g>
	</g>
</g>
<g>
</g>
<g>
</g>
<g>
</g>
<g>
</g>
<g>
</g>
<g>
</g>
<g>
</g>
<g>
</g>
<g>
</g>
<g>
</g>
<g>
</g>
<g>
</g>
<g>
</g>
<g>
</g>
<g>
</g>
</svg>
