<?xml version="1.0" encoding="iso-8859-1"?>
<!-- Generator: Adobe Illustrator 19.0.0, SVG Export Plug-In . SVG Version: 6.00 Build 0)  -->
<svg version="1.1" id="Layer_1" xmlns="http://www.w3.org/2000/svg" xmlns:xlink="http://www.w3.org/1999/xlink" x="0px" y="0px"
	 viewBox="0 0 512 512" style="enable-background:new 0 0 512 512;" xml:space="preserve">
<g transform="translate(1 1)">
	<g>
		<g>
			<path d="M297.667,289.133c-23.893,0-42.667,18.773-42.667,42.667c0,23.893,18.773,42.667,42.667,42.667
				c23.893,0,42.667-18.773,42.667-42.667C340.333,307.907,321.56,289.133,297.667,289.133z M297.667,357.4
				c-14.507,0-25.6-11.093-25.6-25.6c0-14.507,11.093-25.6,25.6-25.6c4.061,0,7.855,0.87,11.212,2.441l-17.186,17.186
				c-3.413,3.413-3.413,8.533,0,11.947c1.707,1.707,3.413,2.56,5.973,2.56s4.267-0.853,5.973-2.56l17.186-17.186
				c1.57,3.358,2.441,7.151,2.441,11.212C323.267,346.307,312.173,357.4,297.667,357.4z"/>
			<path d="M190.147,374.467h11.093c10.24,0,19.627-9.387,18.773-19.627v-45.227c0-10.24-8.533-19.627-19.627-19.627h-11.093
				c-10.24,0-19.627,8.533-19.627,19.627v45.227C169.667,365.08,179.053,374.467,190.147,374.467z M186.733,308.76
				c0-0.853,0.853-2.56,2.56-2.56h11.093c0.853,0,2.56,0.853,2.56,2.56v45.227c0,0.853-0.853,2.56-2.56,2.56h-11.093
				c-0.853,0-2.56-0.853-2.56-2.56V308.76z"/>
			<path d="M400.92,220.867H383V147.48c0-20.48-17.067-37.547-37.547-37.547h-22.187V75.8h17.067V24.6
				c0-14.507-11.093-25.6-25.6-25.6s-25.6,11.093-25.6,25.6v51.2H306.2v34.133H164.547C144.067,109.933,127,127,127,147.48v22.187
				h-17.92c-9.387,0-16.213,7.68-16.213,16.213v44.373c0,9.387,7.68,16.213,16.213,16.213H127v25.6h-17.92
				c-9.387,0-16.213,7.68-16.213,16.213v44.373c0,9.387,7.68,16.213,16.213,16.213H127v124.587c0,20.48,17.067,37.547,37.547,37.547
				h180.907c20.48,0,37.547-17.067,37.547-37.547V297.667h17.92c9.387,0,16.213-6.827,16.213-16.213V237.08
				C417.133,227.693,409.453,220.867,400.92,220.867z M306.2,24.6c0-5.12,3.413-8.533,8.533-8.533s8.533,3.413,8.533,8.533v34.133
				H306.2V24.6z M109.933,229.4v-42.667H127V229.4H109.933z M109.933,331.8v-42.667H127V331.8H109.933z M365.933,473.453
				c0,11.093-9.387,20.48-20.48,20.48H164.547c-11.093,0-20.48-9.387-20.48-20.48V348.867v-76.8v-25.6v-76.8V147.48
				c0-11.093,9.387-20.48,20.48-20.48h180.907c11.093,0,20.48,9.387,20.48,20.48v73.387v76.8V473.453z M400.067,280.6H383v-42.667
				h17.067V280.6z"/>
			<path d="M169.667,272.067h170.667V152.6H169.667V272.067z M186.733,169.667h136.533V255H186.733V169.667z"/>
			<path d="M324.973,400.067H185.027c-8.533,0-15.36,6.827-15.36,15.36v37.547c0,8.533,6.827,15.36,15.36,15.36h139.947
				c8.533,0,15.36-6.827,15.36-15.36v-37.547C340.333,406.893,333.507,400.067,324.973,400.067z M323.267,451.267H186.733v-34.133
				h136.533V451.267z"/>
			<path d="M220.867,442.733h68.267c5.12,0,8.533-3.413,8.533-8.533s-3.413-8.533-8.533-8.533h-68.267
				c-5.12,0-8.533,3.413-8.533,8.533S215.747,442.733,220.867,442.733z"/>
			<path d="M252.44,189.293c-3.413-3.413-8.533-3.413-11.947,0l-34.133,34.133c-3.413,3.413-3.413,8.533,0,11.947
				c1.707,1.707,3.413,2.56,5.973,2.56s4.267-0.853,5.973-2.56l34.133-34.133C255.853,197.827,255.853,192.707,252.44,189.293z"/>
			<path d="M291.693,189.293l-34.133,34.133c-3.413,3.413-3.413,8.533,0,11.947c1.707,1.707,3.413,2.56,5.973,2.56
				s4.267-0.853,5.973-2.56l34.133-34.133c3.413-3.413,3.413-8.533,0-11.947S295.107,185.88,291.693,189.293z"/>
		</g>
	</g>
</g>
<g>
</g>
<g>
</g>
<g>
</g>
<g>
</g>
<g>
</g>
<g>
</g>
<g>
</g>
<g>
</g>
<g>
</g>
<g>
</g>
<g>
</g>
<g>
</g>
<g>
</g>
<g>
</g>
<g>
</g>
</svg>
