<?xml version="1.0" encoding="iso-8859-1"?>
<!-- Generator: Adobe Illustrator 19.0.0, SVG Export Plug-In . SVG Version: 6.00 Build 0)  -->
<svg version="1.1" id="Layer_1" xmlns="http://www.w3.org/2000/svg" xmlns:xlink="http://www.w3.org/1999/xlink" x="0px" y="0px"
	 viewBox="0 0 512 512" style="enable-background:new 0 0 512 512;" xml:space="preserve">
<g transform="translate(1 1)">
	<g>
		<path d="M357.827,318.147c0-8.272-3.559-15.872-9.193-21.338c5.137-5.39,8.34-12.63,8.34-20.475v-55.467h-0.853V170.52v-2.56
			L325.4,97.987c-3.205-8.013-10.925-13.015-19.627-13.595V67.267h3.413c7.68,0,13.653-5.973,13.653-12.8V12.653
			c0-7.68-5.973-13.653-12.8-13.653H199.96c-7.68,0-13.653,5.973-13.653,13.653v40.96c0,7.68,5.973,13.653,13.653,13.653h3.413
			v17.096c-8.996,0.303-16.344,5.352-20.48,13.624l-29.419,67.01c-0.426,0.687-0.766,1.432-0.986,2.247l-0.314,0.716v1.707v51.2
			v8.533v8.533v38.4c0,8.055,3.372,15.476,8.752,20.907c-5.379,5.431-8.752,12.852-8.752,20.907V344.6
			c0,8.055,3.372,15.476,8.752,20.907c-5.379,5.431-8.752,12.852-8.752,20.907v26.453c0,8.055,3.372,15.476,8.752,20.907
			c-5.379,5.431-8.752,12.852-8.752,20.907v26.453c0,16.213,13.653,29.867,29.867,29.867h145.067
			c16.213,0,29.867-13.653,30.72-29.867V454.68c0-8.242-3.533-15.818-9.132-21.28c5.279-5.396,8.718-12.66,9.132-20.534v-26.453
			c0-8.242-3.533-15.818-9.132-21.28c5.279-5.396,8.718-12.66,9.132-20.534V318.147z M182.04,424.813
			c-1.265,0-2.512,0.092-3.741,0.253c-5.128-1.657-9.059-6.501-9.059-11.347v-26.453c0-6.827,5.973-12.8,12.8-12.8h38.4v50.347
			H182.04z M182.04,356.547c-1.265,0-2.512,0.092-3.741,0.253c-5.128-1.657-9.059-6.501-9.059-11.347V319
			c0-6.827,5.973-12.8,12.8-12.8h38.4v50.347H182.04z M169.24,276.333v-38.4h51.2v50.347h-38.4c-1.261,0-2.505,0.092-3.73,0.252
			C173.177,286.854,169.24,281.875,169.24,276.333z M327.96,288.28h-90.453v-50.347H340.76v38.4c0,5.542-3.937,10.521-9.07,12.199
			C330.465,288.372,329.221,288.28,327.96,288.28z M237.507,220.867v-48.645c14.234-3.495,32.752-2.491,46.08,5.125
			c16.213,10.24,36.693,12.8,56.32,5.973v37.547H237.507z M203.373,16.067h8.533V24.6c0,5.12,3.413,8.533,8.533,8.533
			s8.533-3.413,8.533-8.533v-8.533h17.067V24.6c0,5.12,3.413,8.533,8.533,8.533c5.12,0,8.533-3.413,8.533-8.533v-8.533h17.067V24.6
			c0,5.12,3.413,8.533,8.533,8.533c5.12,0,8.533-3.413,8.533-8.533v-8.533h8.533V50.2h-102.4V16.067z M288.707,67.267v17.067H220.44
			V67.267H288.707z M198.253,104.813c0.853-1.707,3.413-3.413,5.973-3.413h99.84c2.56,0,5.12,0.853,5.973,3.413l27.414,61.095
			c-15.567,7.034-32.465,6.016-45.334-3.068c-22.187-12.8-57.173-12.8-76.8,0c-14.538,7.996-30.92,9.155-43.898,3.529
			L198.253,104.813z M169.24,183.32c15.728,5.505,34.35,4.468,51.2-3.739v41.286h-51.2V183.32z M169.24,481.987v-26.453
			c0-6.827,5.973-12.8,12.8-12.8h38.4v51.2h-38.4C175.213,493.933,169.24,487.96,169.24,481.987z M340.76,481.133
			c0,6.827-5.973,12.8-12.8,12.8h-90.453v-51.2h89.6c1.46,0,2.897-0.115,4.308-0.328c5.266,1.589,9.345,6.635,9.345,12.274V481.133z
			 M327.96,424.813h-90.453v-50.347h89.6c1.46,0,2.897-0.115,4.308-0.328c5.266,1.589,9.345,6.635,9.345,12.274v26.453
			c0,5.542-3.937,10.521-9.07,12.199C330.465,424.905,329.221,424.813,327.96,424.813z M327.96,356.547h-90.453V306.2h89.6
			c1.46,0,2.898-0.115,4.308-0.328c5.266,1.589,9.345,6.635,9.345,12.274V344.6c0,5.542-3.937,10.521-9.07,12.199
			C330.465,356.639,329.221,356.547,327.96,356.547z"/>
	</g>
</g>
<g>
</g>
<g>
</g>
<g>
</g>
<g>
</g>
<g>
</g>
<g>
</g>
<g>
</g>
<g>
</g>
<g>
</g>
<g>
</g>
<g>
</g>
<g>
</g>
<g>
</g>
<g>
</g>
<g>
</g>
</svg>
