<?xml version="1.0" encoding="iso-8859-1"?>
<!-- Generator: Adobe Illustrator 19.0.0, SVG Export Plug-In . SVG Version: 6.00 Build 0)  -->
<svg version="1.1" id="Layer_1" xmlns="http://www.w3.org/2000/svg" xmlns:xlink="http://www.w3.org/1999/xlink" x="0px" y="0px"
	 viewBox="0 0 512 512" style="enable-background:new 0 0 512 512;" xml:space="preserve">
<g transform="translate(1 1)">
	<g>
		<g>
			<path d="M483.693,357.4h-15.36v-25.6c0-128.226-90.997-233.684-204.809-238.726c0.001-0.07,0.009-0.137,0.009-0.208V70.68
				l11.093,11.093c1.707,1.707,3.413,2.56,5.973,2.56s4.267-0.853,5.973-2.56c3.413-3.413,3.413-8.533,0-11.947L275.48,58.733
				h22.187c5.12,0,8.533-3.413,8.533-8.533s-3.413-8.533-8.533-8.533H275.48l11.093-11.093c3.413-3.413,3.413-8.533,0-11.947
				s-8.533-3.413-11.947,0L263.533,29.72V7.533C263.533,2.413,260.12-1,255-1s-8.533,3.413-8.533,8.533V29.72l-11.093-11.093
				c-3.413-3.413-8.533-3.413-11.947,0s-3.413,8.533,0,11.947l11.093,11.093h-22.187c-5.12,0-8.533,3.413-8.533,8.533
				s3.413,8.533,8.533,8.533h22.187l-11.093,11.093c-3.413,3.413-3.413,8.533,0,11.947c1.707,1.707,3.413,2.56,5.973,2.56
				s4.267-0.853,5.973-2.56l11.093-11.093v22.187c0,0.071,0.007,0.138,0.009,0.208C132.664,98.116,41.667,203.574,41.667,331.8v25.6
				h-15.36C10.947,357.4-1,369.347-1,384.707v98.987C-1,499.053,10.947,511,26.307,511h457.387c15.36,0,27.307-11.947,27.307-27.307
				v-98.987C511,369.347,499.053,357.4,483.693,357.4z M109.933,374.467v119.467h-51.2V374.467H109.933z M383,357.4h-51.2V161.133
				c0-12.044-3.86-23.121-10.241-32.694C357.857,149.962,383,187.882,383,229.4V357.4z M246.467,110.631V357.4h-51.2V161.133
				C195.267,135.099,221.376,114.574,246.467,110.631z M263.533,110.631c25.091,3.943,51.2,24.468,51.2,50.503V357.4h-51.2V110.631z
				 M188.441,128.439c-6.381,9.573-10.241,20.65-10.241,32.694V357.4H127v-128C127,187.882,152.143,149.962,188.441,128.439z
				 M127,374.467h256v119.467H127V374.467z M400.067,374.467h51.2v119.467h-51.2V374.467z M451.267,331.8v25.6h-51.2v-128
				c0-25.296-8.207-49.549-22.18-70.417C422.622,199.738,451.267,262.148,451.267,331.8z M58.733,331.8
				c0-69.652,28.645-132.063,73.38-172.817c-13.973,20.867-22.18,45.121-22.18,70.417v128h-51.2V331.8z M16.067,483.693v-98.987
				c0-5.973,4.267-10.24,10.24-10.24h15.36v119.467h-15.36C20.333,493.933,16.067,489.667,16.067,483.693z M493.933,483.693
				c0,5.973-4.267,10.24-10.24,10.24h-15.36V374.467h15.36c5.973,0,10.24,4.267,10.24,10.24V483.693z"/>
			<path d="M356.547,461.507v-53.76c0-8.533-6.827-15.36-15.36-15.36H167.96c-8.533,0-15.36,6.827-15.36,15.36v53.76
				c0,8.533,6.827,15.36,15.36,15.36h174.08C350.573,476.867,357.4,470.04,356.547,461.507z M340.333,459.8H169.667v-51.2h170.667
				V459.8z"/>
			<path d="M237.933,442.733h34.133c5.12,0,8.533-3.413,8.533-8.533s-3.413-8.533-8.533-8.533h-34.133
				c-5.12,0-8.533,3.413-8.533,8.533S232.813,442.733,237.933,442.733z"/>
		</g>
	</g>
</g>
<g>
</g>
<g>
</g>
<g>
</g>
<g>
</g>
<g>
</g>
<g>
</g>
<g>
</g>
<g>
</g>
<g>
</g>
<g>
</g>
<g>
</g>
<g>
</g>
<g>
</g>
<g>
</g>
<g>
</g>
</svg>
