<?xml version="1.0" encoding="iso-8859-1"?>
<!-- Generator: Adobe Illustrator 19.0.0, SVG Export Plug-In . SVG Version: 6.00 Build 0)  -->
<svg version="1.1" id="Layer_1" xmlns="http://www.w3.org/2000/svg" xmlns:xlink="http://www.w3.org/1999/xlink" x="0px" y="0px"
	 viewBox="0 0 511.774 511.774" style="enable-background:new 0 0 511.774 511.774;" xml:space="preserve">
<g transform="translate(1 1)">
	<g>
		<g>
			<path d="M454.023,158.347c-11.947-29.013-34.133-59.733-62.293-87.893C329.437,8.16,262.023-17.44,234.717,9.867
				c-28.16,27.307-1.707,94.72,59.733,156.16c23.761,23.761,48.461,42.33,71.384,54.613H249.307
				c-0.442-21.816-5.946-55.889-29.097-82.773c-20.48-24.747-51.2-36.693-90.453-36.693c-9.387,0-41.813,1.707-64.853,23.893
				c-7.68,7.68-13.653,17.067-17.067,28.16c-2.56,7.68-0.853,16.213,4.267,23.04c4.267,5.973,11.947,10.24,20.48,10.24
				c11.093,0,20.48-6.827,23.893-17.92c0.853-2.56,2.56-5.12,4.267-6.827c8.533-7.68,23.893-9.387,29.013-9.387
				c23.893,0,41.813,5.973,52.053,19.627c12.958,14.322,16.102,35.177,16.407,48.64H135.73c-12.8,0-23.04,10.24-23.04,23.04v28.16
				v187.733v28.16c0,12.8,10.24,23.04,23.04,23.04h295.253c12.8,0,23.04-10.24,23.04-23.04v-28.16V271.84v-46.233
				C466.009,211.633,466.264,187.725,454.023,158.347z M306.397,154.934C249.223,97.76,228.743,38.88,245.81,21.814
				c4.267-4.267,10.24-5.973,17.92-5.973c26.453,0,71.68,22.187,116.053,67.413c26.453,26.453,46.933,55.467,58.027,81.92
				c9.387,23.04,10.24,41.813,1.707,50.347c-2.666,2.539-6.226,4.24-10.532,5.12h-16.136
				C386.04,216.545,346.016,194.553,306.397,154.934z M89.65,149.814c-4.267,3.413-6.827,7.68-8.533,12.8
				c-1.707,4.267-5.12,6.827-8.533,6.827c-2.56,0-5.12-1.707-7.68-3.413c-0.853-0.853-1.707-3.413-0.853-6.827
				c2.56-8.533,6.827-15.36,12.8-21.333c8.19-8.19,18.165-12.968,27.307-15.754v18.204C98.834,142.469,93.664,145.513,89.65,149.814
				z M121.223,135.953v-17.245c3.959-0.408,6.99-0.468,8.533-0.468c11.742,0,22.575,1.212,32.464,3.636l-5.496,16.478
				c-8.235-2.003-17.235-3.047-26.968-3.047C128.041,135.307,124.986,135.45,121.223,135.953z M172.835,143.991l5.569-16.695
				c11.681,5.083,21.665,12.299,29.86,21.664c1.315,1.544,2.556,3.116,3.736,4.708l-10.991,14.648
				c-1.888-2.858-4.004-5.629-6.399-8.263C188.625,153.365,181.314,148.006,172.835,143.991z M209.477,185.467l11.979-15.965
				c8.566,18.094,10.941,37.038,11.554,51.138h-17.067C215.44,211.074,214.042,198.239,209.477,185.467z M129.757,288.907h307.2
				v153.6h-307.2V288.907z M437.81,487.734c0,3.413-2.56,5.973-5.973,5.973H135.73c-3.413,0-5.973-2.56-5.973-5.12v-29.013H437.81
				V487.734z M129.757,271.84v-28.16c0-3.413,2.56-5.973,5.973-5.973h62.293h51.2H437.81v34.133H129.757z"/>
			<path d="M283.357,305.974c-57.173,0-102.4,26.453-102.4,59.733s45.227,59.733,102.4,59.733s102.4-26.453,102.4-59.733
				S340.53,305.974,283.357,305.974z M283.357,408.374c-46.08,0-85.333-19.627-85.333-42.667c0-23.04,39.253-42.667,85.333-42.667
				c46.08,0,85.333,19.627,85.333,42.667C368.69,388.747,329.437,408.374,283.357,408.374z"/>
			<path d="M308.957,357.174h-51.2c-5.12,0-8.533,3.413-8.533,8.533s3.413,8.533,8.533,8.533h51.2c5.12,0,8.533-3.413,8.533-8.533
				S314.077,357.174,308.957,357.174z"/>
			<path d="M366.983,95.2c-17.067-16.213-34.133-29.867-49.493-38.4c-18.773-11.093-32.427-11.947-40.107-4.267
				c-17.92,17.92,17.92,64,42.667,88.747c19.627,20.48,53.76,47.787,75.947,47.787c5.12,0,9.387-1.707,13.653-5.12
				C427.57,166.027,391.73,119.947,366.983,95.2z M395.997,172c-4.267,1.707-29.867-7.68-64.853-42.667
				C297.01,94.347,286.77,68.747,288.477,64.48c0.853,0,0.853,0,1.707,0c7.68,0,32.427,11.093,63.147,42.667
				C387.463,142.134,397.703,167.734,395.997,172z"/>
		</g>
	</g>
</g>
<g>
</g>
<g>
</g>
<g>
</g>
<g>
</g>
<g>
</g>
<g>
</g>
<g>
</g>
<g>
</g>
<g>
</g>
<g>
</g>
<g>
</g>
<g>
</g>
<g>
</g>
<g>
</g>
<g>
</g>
</svg>
