<?xml version="1.0" encoding="iso-8859-1"?>
<!-- Generator: Adobe Illustrator 19.0.0, SVG Export Plug-In . SVG Version: 6.00 Build 0)  -->
<svg version="1.1" id="Capa_1" xmlns="http://www.w3.org/2000/svg" xmlns:xlink="http://www.w3.org/1999/xlink" x="0px" y="0px"
	 viewBox="0 0 60 60" style="enable-background:new 0 0 60 60;" xml:space="preserve">
<g>
	<path d="M60,16.5c0-2.757-2.243-5-5-5H44.949c-0.503-5.046-4.773-9-9.949-9H25c-5.177,0-9.446,3.954-9.949,9H5
		c-2.757,0-5,2.243-5,5v7c0,1.116,0.38,2.136,1,2.969V52.5c0,2.757,2.243,5,5,5h48c2.757,0,5-2.243,5-5V26.469
		c0.62-0.833,1-1.854,1-2.969V16.5z M25,4.5h10c4.072,0,7.444,3.059,7.938,7H40.91c-0.478-2.833-2.942-5-5.91-5H25
		c-2.967,0-5.431,2.167-5.91,5h-2.028C17.556,7.559,20.928,4.5,25,4.5z M38.874,11.5H21.126c0.445-1.723,2.013-3,3.874-3h10
		C36.86,8.5,38.428,9.777,38.874,11.5z M2,16.5c0-1.654,1.346-3,3-3h10h4h22h4h10c1.654,0,3,1.346,3,3v7
		c0,0.654-0.216,1.256-0.573,1.749l-0.18,0.206C56.667,26.119,55.849,26.5,55,26.5H35v-1c0-2.757-2.243-5-5-5s-5,2.243-5,5v1H5
		c-0.849,0-1.667-0.381-2.247-1.044l-0.18-0.206C2.216,24.756,2,24.154,2,23.5V16.5z M30,28.5c-1.654,0-3-1.346-3-3s1.346-3,3-3
		s3,1.346,3,3S31.654,28.5,30,28.5z M27,29.474c0.838,0.635,1.87,1.026,3,1.026s2.162-0.391,3-1.026V31.5c0,1.654-1.346,3-3,3
		s-3-1.346-3-3V29.474z M54,55.5H6c-1.654,0-3-1.346-3-3V28.076C3.614,28.346,4.288,28.5,5,28.5h20v3c0,2.757,2.243,5,5,5
		s5-2.243,5-5v-3h20c0.712,0,1.386-0.154,2-0.424V52.5C57,54.154,55.654,55.5,54,55.5z"/>
	<path d="M9.23,50.862c-0.683,0.823-1.777,0.823-2.46,0c-0.352-0.426-0.982-0.484-1.408-0.132c-0.425,0.353-0.484,0.983-0.132,1.408
		C5.958,53.017,6.942,53.5,8,53.5s2.042-0.483,2.77-1.362c0.353-0.425,0.293-1.056-0.132-1.408
		C10.214,50.378,9.583,50.436,9.23,50.862z"/>
	<path d="M9.23,45.862c-0.683,0.823-1.777,0.823-2.46,0c-0.352-0.426-0.982-0.483-1.408-0.132c-0.425,0.353-0.484,0.983-0.132,1.408
		C5.958,48.017,6.942,48.5,8,48.5s2.042-0.483,2.77-1.362c0.353-0.425,0.293-1.056-0.132-1.408
		C10.214,45.378,9.583,45.436,9.23,45.862z"/>
	<path d="M9.23,40.862c-0.683,0.823-1.777,0.823-2.46,0c-0.352-0.425-0.982-0.483-1.408-0.132c-0.425,0.353-0.484,0.983-0.132,1.408
		C5.958,43.017,6.942,43.5,8,43.5s2.042-0.483,2.77-1.362c0.353-0.425,0.293-1.056-0.132-1.408
		C10.214,40.378,9.583,40.437,9.23,40.862z"/>
	<path d="M9.23,35.862c-0.683,0.823-1.777,0.823-2.46,0c-0.352-0.425-0.982-0.484-1.408-0.132c-0.425,0.353-0.484,0.983-0.132,1.408
		C5.958,38.017,6.942,38.5,8,38.5s2.042-0.483,2.77-1.362c0.353-0.425,0.293-1.056-0.132-1.408
		C10.214,35.378,9.583,35.437,9.23,35.862z"/>
	<path d="M9.23,30.862c-0.683,0.823-1.777,0.823-2.46,0c-0.352-0.425-0.982-0.484-1.408-0.132c-0.425,0.353-0.484,0.983-0.132,1.408
		C5.958,33.017,6.942,33.5,8,33.5s2.042-0.483,2.77-1.362c0.353-0.425,0.293-1.056-0.132-1.408
		C10.214,30.378,9.583,30.436,9.23,30.862z"/>
	<path d="M9,24.5c1.058,0,2.042-0.483,2.77-1.362c0.353-0.425,0.293-1.056-0.132-1.408c-0.424-0.351-1.055-0.293-1.408,0.132
		c-0.683,0.823-1.777,0.823-2.46,0c-0.353-0.426-0.982-0.484-1.408-0.132c-0.425,0.353-0.484,0.983-0.132,1.408
		C6.958,24.017,7.942,24.5,9,24.5z"/>
	<path d="M9,18.5c1.058,0,2.042-0.483,2.77-1.362c0.353-0.425,0.293-1.056-0.132-1.408c-0.424-0.352-1.055-0.293-1.408,0.132
		c-0.683,0.823-1.777,0.823-2.46,0c-0.353-0.425-0.982-0.484-1.408-0.132c-0.425,0.353-0.484,0.983-0.132,1.408
		C6.958,18.017,7.942,18.5,9,18.5z"/>
	<path d="M21.23,50.862c-0.683,0.823-1.777,0.823-2.46,0c-0.352-0.426-0.982-0.484-1.408-0.132
		c-0.425,0.353-0.484,0.983-0.132,1.408C17.958,53.017,18.942,53.5,20,53.5s2.042-0.483,2.77-1.362
		c0.353-0.425,0.293-1.056-0.132-1.408C22.214,50.378,21.583,50.436,21.23,50.862z"/>
	<path d="M21.23,45.862c-0.683,0.823-1.777,0.823-2.46,0c-0.352-0.426-0.982-0.483-1.408-0.132
		c-0.425,0.353-0.484,0.983-0.132,1.408C17.958,48.017,18.942,48.5,20,48.5s2.042-0.483,2.77-1.362
		c0.353-0.425,0.293-1.056-0.132-1.408C22.214,45.378,21.583,45.436,21.23,45.862z"/>
	<path d="M21.23,40.862c-0.683,0.823-1.777,0.823-2.46,0c-0.352-0.425-0.982-0.483-1.408-0.132
		c-0.425,0.353-0.484,0.983-0.132,1.408C17.958,43.017,18.942,43.5,20,43.5s2.042-0.483,2.77-1.362
		c0.353-0.425,0.293-1.056-0.132-1.408C22.214,40.378,21.583,40.437,21.23,40.862z"/>
	<path d="M21.23,35.862c-0.683,0.823-1.777,0.823-2.46,0c-0.352-0.425-0.982-0.484-1.408-0.132
		c-0.425,0.353-0.484,0.983-0.132,1.408C17.958,38.017,18.942,38.5,20,38.5s2.042-0.483,2.77-1.362
		c0.353-0.425,0.293-1.056-0.132-1.408C22.214,35.378,21.583,35.437,21.23,35.862z"/>
	<path d="M21.23,30.862c-0.683,0.823-1.777,0.823-2.46,0c-0.352-0.425-0.982-0.484-1.408-0.132
		c-0.425,0.353-0.484,0.983-0.132,1.408C17.958,33.017,18.942,33.5,20,33.5s2.042-0.483,2.77-1.362
		c0.353-0.425,0.293-1.056-0.132-1.408C22.214,30.378,21.583,30.436,21.23,30.862z"/>
	<path d="M20,24.5c1.058,0,2.042-0.483,2.77-1.362c0.353-0.425,0.293-1.056-0.132-1.408c-0.424-0.351-1.055-0.293-1.408,0.132
		c-0.683,0.823-1.777,0.823-2.46,0c-0.352-0.426-0.982-0.484-1.408-0.132c-0.425,0.353-0.484,0.983-0.132,1.408
		C17.958,24.017,18.942,24.5,20,24.5z"/>
	<path d="M20,18.5c1.058,0,2.042-0.483,2.77-1.362c0.353-0.425,0.293-1.056-0.132-1.408c-0.424-0.352-1.055-0.293-1.408,0.132
		c-0.683,0.823-1.777,0.823-2.46,0c-0.352-0.425-0.982-0.484-1.408-0.132c-0.425,0.353-0.484,0.983-0.132,1.408
		C17.958,18.017,18.942,18.5,20,18.5z"/>
	<path d="M41.23,50.862c-0.683,0.823-1.777,0.823-2.46,0c-0.353-0.426-0.983-0.484-1.408-0.132s-0.484,0.983-0.132,1.408
		C37.958,53.017,38.942,53.5,40,53.5s2.042-0.483,2.77-1.362c0.353-0.425,0.293-1.056-0.132-1.408
		C42.214,50.378,41.583,50.436,41.23,50.862z"/>
	<path d="M41.23,45.862c-0.683,0.823-1.777,0.823-2.46,0c-0.353-0.426-0.983-0.483-1.408-0.132
		c-0.425,0.353-0.484,0.983-0.132,1.408C37.958,48.017,38.942,48.5,40,48.5s2.042-0.483,2.77-1.362
		c0.353-0.425,0.293-1.056-0.132-1.408C42.214,45.378,41.583,45.436,41.23,45.862z"/>
	<path d="M41.23,40.862c-0.683,0.823-1.777,0.823-2.46,0c-0.353-0.425-0.983-0.483-1.408-0.132
		c-0.425,0.353-0.484,0.983-0.132,1.408C37.958,43.017,38.942,43.5,40,43.5s2.042-0.483,2.77-1.362
		c0.353-0.425,0.293-1.056-0.132-1.408C42.214,40.378,41.583,40.437,41.23,40.862z"/>
	<path d="M31.23,50.862c-0.683,0.823-1.777,0.823-2.46,0c-0.352-0.426-0.983-0.484-1.408-0.132s-0.484,0.983-0.132,1.408
		C27.958,53.017,28.942,53.5,30,53.5s2.042-0.483,2.77-1.362c0.353-0.425,0.293-1.056-0.132-1.408
		C32.215,50.378,31.584,50.436,31.23,50.862z"/>
	<path d="M31.23,45.862c-0.683,0.823-1.777,0.823-2.46,0c-0.352-0.426-0.983-0.483-1.408-0.132
		c-0.425,0.353-0.484,0.983-0.132,1.408C27.958,48.017,28.942,48.5,30,48.5s2.042-0.483,2.77-1.362
		c0.353-0.425,0.293-1.056-0.132-1.408C32.215,45.378,31.584,45.436,31.23,45.862z"/>
	<path d="M31.23,40.862c-0.683,0.823-1.777,0.823-2.46,0c-0.352-0.425-0.983-0.483-1.408-0.132
		c-0.425,0.353-0.484,0.983-0.132,1.408C27.958,43.017,28.942,43.5,30,43.5s2.042-0.483,2.77-1.362
		c0.353-0.425,0.293-1.056-0.132-1.408C32.215,40.378,31.584,40.437,31.23,40.862z"/>
	<path d="M41.23,35.862c-0.683,0.823-1.777,0.823-2.46,0c-0.353-0.425-0.983-0.484-1.408-0.132
		c-0.425,0.353-0.484,0.983-0.132,1.408C37.958,38.017,38.942,38.5,40,38.5s2.042-0.483,2.77-1.362
		c0.353-0.425,0.293-1.056-0.132-1.408C42.214,35.378,41.583,35.437,41.23,35.862z"/>
	<path d="M41.23,30.862c-0.683,0.823-1.777,0.823-2.46,0c-0.353-0.425-0.983-0.484-1.408-0.132
		c-0.425,0.353-0.484,0.983-0.132,1.408C37.958,33.017,38.942,33.5,40,33.5s2.042-0.483,2.77-1.362
		c0.353-0.425,0.293-1.056-0.132-1.408C42.214,30.378,41.583,30.436,41.23,30.862z"/>
	<path d="M40,24.5c1.058,0,2.042-0.483,2.77-1.362c0.353-0.425,0.293-1.056-0.132-1.408c-0.424-0.351-1.055-0.293-1.408,0.132
		c-0.683,0.823-1.777,0.823-2.46,0c-0.353-0.426-0.983-0.484-1.408-0.132s-0.484,0.983-0.132,1.408
		C37.958,24.017,38.942,24.5,40,24.5z"/>
	<path d="M40,18.5c1.058,0,2.042-0.483,2.77-1.362c0.353-0.425,0.293-1.056-0.132-1.408c-0.424-0.352-1.055-0.293-1.408,0.132
		c-0.683,0.823-1.777,0.823-2.46,0c-0.353-0.425-0.983-0.484-1.408-0.132s-0.484,0.983-0.132,1.408
		C37.958,18.017,38.942,18.5,40,18.5z"/>
	<path d="M30,18.5c1.058,0,2.042-0.483,2.77-1.362c0.353-0.425,0.293-1.056-0.132-1.408c-0.423-0.352-1.054-0.293-1.408,0.132
		c-0.683,0.823-1.777,0.823-2.46,0c-0.352-0.425-0.983-0.484-1.408-0.132s-0.484,0.983-0.132,1.408
		C27.958,18.017,28.942,18.5,30,18.5z"/>
	<path d="M53.23,50.862c-0.683,0.823-1.777,0.823-2.46,0c-0.353-0.426-0.983-0.484-1.408-0.132s-0.484,0.983-0.132,1.408
		C49.958,53.017,50.942,53.5,52,53.5s2.042-0.483,2.77-1.362c0.353-0.425,0.293-1.056-0.132-1.408
		C54.214,50.378,53.583,50.436,53.23,50.862z"/>
	<path d="M53.23,45.862c-0.683,0.823-1.777,0.823-2.46,0c-0.353-0.426-0.983-0.483-1.408-0.132
		c-0.425,0.353-0.484,0.983-0.132,1.408C49.958,48.017,50.942,48.5,52,48.5s2.042-0.483,2.77-1.362
		c0.353-0.425,0.293-1.056-0.132-1.408C54.214,45.378,53.583,45.436,53.23,45.862z"/>
	<path d="M53.23,40.862c-0.683,0.823-1.777,0.823-2.46,0c-0.353-0.425-0.983-0.483-1.408-0.132
		c-0.425,0.353-0.484,0.983-0.132,1.408C49.958,43.017,50.942,43.5,52,43.5s2.042-0.483,2.77-1.362
		c0.353-0.425,0.293-1.056-0.132-1.408C54.214,40.378,53.583,40.437,53.23,40.862z"/>
	<path d="M53.23,35.862c-0.683,0.823-1.777,0.823-2.46,0c-0.353-0.425-0.983-0.484-1.408-0.132
		c-0.425,0.353-0.484,0.983-0.132,1.408C49.958,38.017,50.942,38.5,52,38.5s2.042-0.483,2.77-1.362
		c0.353-0.425,0.293-1.056-0.132-1.408C54.214,35.378,53.583,35.437,53.23,35.862z"/>
	<path d="M53.23,30.862c-0.683,0.823-1.777,0.823-2.46,0c-0.353-0.425-0.983-0.484-1.408-0.132
		c-0.425,0.353-0.484,0.983-0.132,1.408C49.958,33.017,50.942,33.5,52,33.5s2.042-0.483,2.77-1.362
		c0.353-0.425,0.293-1.056-0.132-1.408C54.214,30.378,53.583,30.436,53.23,30.862z"/>
	<path d="M51,24.5c1.058,0,2.042-0.483,2.77-1.362c0.353-0.425,0.293-1.056-0.132-1.408c-0.424-0.351-1.055-0.293-1.408,0.132
		c-0.683,0.823-1.777,0.823-2.46,0c-0.352-0.426-0.982-0.484-1.408-0.132c-0.425,0.353-0.484,0.983-0.132,1.408
		C48.958,24.017,49.942,24.5,51,24.5z"/>
	<path d="M51,18.5c1.058,0,2.042-0.483,2.77-1.362c0.353-0.425,0.293-1.056-0.132-1.408c-0.424-0.352-1.055-0.293-1.408,0.132
		c-0.683,0.823-1.777,0.823-2.46,0c-0.352-0.425-0.982-0.484-1.408-0.132c-0.425,0.353-0.484,0.983-0.132,1.408
		C48.958,18.017,49.942,18.5,51,18.5z"/>
	<path d="M14,31.5c-0.552,0-1,0.448-1,1v20c0,0.552,0.448,1,1,1s1-0.448,1-1v-20C15,31.948,14.552,31.5,14,31.5z"/>
	<path d="M46,31.5c-0.552,0-1,0.448-1,1v20c0,0.552,0.448,1,1,1s1-0.448,1-1v-20C47,31.948,46.552,31.5,46,31.5z"/>
</g>
<g>
</g>
<g>
</g>
<g>
</g>
<g>
</g>
<g>
</g>
<g>
</g>
<g>
</g>
<g>
</g>
<g>
</g>
<g>
</g>
<g>
</g>
<g>
</g>
<g>
</g>
<g>
</g>
<g>
</g>
</svg>
