<?xml version="1.0" encoding="iso-8859-1"?>
<!-- Generator: Adobe Illustrator 19.0.0, SVG Export Plug-In . SVG Version: 6.00 Build 0)  -->
<svg version="1.1" id="Capa_1" xmlns="http://www.w3.org/2000/svg" xmlns:xlink="http://www.w3.org/1999/xlink" x="0px" y="0px"
	 viewBox="0 0 60.001 60.001" style="enable-background:new 0 0 60.001 60.001;" xml:space="preserve">
<g>
	<path d="M59.978,28.692c-0.113-1.063-0.633-2.017-1.498-2.714l-5.479-4.055v-9.923h-8v4.003L30.06,4.947L1.562,25.001
		c-0.847,0.651-1.39,1.594-1.528,2.653c-0.138,1.06,0.145,2.109,0.796,2.956c1.346,1.748,3.86,2.076,5.569,0.762l0.602-0.417v2.397
		c-1.178,0.564-2,1.758-2,3.149s0.822,2.585,2,3.149v3.702c-1.178,0.564-2,1.758-2,3.149s0.822,2.585,2,3.149v3.702
		c-1.178,0.564-2,1.758-2,3.149c0,1.93,1.57,3.5,3.5,3.5h14.5h2h10h2h14.5c1.93,0,3.5-1.57,3.5-3.5c0-1.758-1.308-3.204-3-3.449
		V49.95c1.692-0.245,3-1.691,3-3.449s-1.308-3.204-3-3.449V39.95c1.692-0.245,3-1.691,3-3.449s-1.308-3.204-3-3.449v-1.907
		l1.507,1.099c0.734,0.586,1.613,0.87,2.488,0.87c1.168,0,2.327-0.508,3.117-1.485C59.784,30.798,60.092,29.755,59.978,28.692z
		 M47.001,14.001h4v6.442l-4-2.96V14.001z M23.001,50.001v3h-14v-3H23.001z M9.001,43.001v-3h14v3H9.001z M8.501,45.001h14.5v3
		h-14.5c-0.827,0-1.5-0.673-1.5-1.5S7.674,45.001,8.501,45.001z M23.001,58.001h-14.5c-0.827,0-1.5-0.673-1.5-1.5s0.673-1.5,1.5-1.5
		h14.5V58.001z M35.001,58.001h-10v-4v-1v-3v-1v-5v-1v-3h10v3v1v5v1v3v1V58.001z M37.001,43.001v-3h13v3H37.001z M37.001,53.001v-3
		h13v3H37.001z M53.001,56.501c0,0.827-0.673,1.5-1.5,1.5h-14.5v-3h14.5C52.328,55.001,53.001,55.674,53.001,56.501z M53.001,46.501
		c0,0.827-0.673,1.5-1.5,1.5h-14.5v-3h14.5C52.328,45.001,53.001,45.674,53.001,46.501z M53.001,36.501c0,0.827-0.673,1.5-1.5,1.5
		h-14.5h-14h-14.5c-0.827,0-1.5-0.673-1.5-1.5s0.673-1.5,1.5-1.5h15.5h12h15.5C52.328,35.001,53.001,35.674,53.001,36.501z
		 M34.001,33.001h-3v-3h3V33.001z M34.001,28.001h-3v-3h3V28.001z M29.001,28.001h-3v-3h3V28.001z M26.001,30.001h3v3h-3V30.001z
		 M40.001,30.001h10v3h-14v-10h-12v10h-15v-3h11c0.553,0,1-0.447,1-1s-0.447-1-1-1h-8.74l4.327-3h5.413v-2h-2.528l4.327-3h13.929
		l2.396,1.748l1.716,1.252h-1.839v2h4.58l4.112,3h-7.692c-0.553,0-1,0.447-1,1S39.448,30.001,40.001,30.001z M25.684,18.001
		l4.258-2.952l4.046,2.952H25.684z M57.556,30.373c-0.692,0.856-1.955,0.993-2.813,0.299l-2.8-2.043l-0.856-0.628h-0.004l-4.111-3
		h0.002l-9.594-7H37.38l-7.41-5.407l-7.797,5.407h0l-10.096,7h0.002L7.69,28.044l-0.006,0.001l-0.354,0.249l-2.11,1.463
		c-0.876,0.672-2.134,0.508-2.805-0.365c-0.326-0.424-0.467-0.949-0.398-1.479c0.069-0.53,0.341-1.001,0.729-1.302L30.031,7.414
		l14.97,11.077v0l2.197,1.626l10.06,7.444c0.415,0.335,0.676,0.813,0.731,1.344C58.046,29.435,57.892,29.957,57.556,30.373z"/>
	<circle cx="27.001" cy="49.001" r="1"/>
	<path d="M47.001,11.001c0.26,0,0.52-0.11,0.71-0.29c0.18-0.19,0.29-0.45,0.29-0.71s-0.11-0.521-0.29-0.71
		c-0.37-0.37-1.05-0.37-1.42,0c-0.181,0.189-0.29,0.45-0.29,0.71s0.109,0.52,0.29,0.71C46.48,10.89,46.741,11.001,47.001,11.001z"/>
	<path d="M51.001,11.001c0.553,0,1-0.447,1-1v-4c0-0.553-0.447-1-1-1s-1,0.447-1,1v4C50.001,10.553,50.448,11.001,51.001,11.001z"/>
	<path d="M51.001,4.001c0.553,0,1-0.447,1-1v-2c0-0.553-0.447-1-1-1s-1,0.447-1,1v2C50.001,3.553,50.448,4.001,51.001,4.001z"/>
	<path d="M47.001,8.001c0.553,0,1-0.447,1-1v-2c0-0.553-0.447-1-1-1s-1,0.447-1,1v2C46.001,7.553,46.448,8.001,47.001,8.001z"/>
	<path d="M47.001,3.001c0.553,0,1-0.447,1-1v-1c0-0.553-0.447-1-1-1s-1,0.447-1,1v1C46.001,2.553,46.448,3.001,47.001,3.001z"/>
</g>
<g>
</g>
<g>
</g>
<g>
</g>
<g>
</g>
<g>
</g>
<g>
</g>
<g>
</g>
<g>
</g>
<g>
</g>
<g>
</g>
<g>
</g>
<g>
</g>
<g>
</g>
<g>
</g>
<g>
</g>
</svg>
