<?xml version="1.0" encoding="iso-8859-1"?>
<!-- Generator: Adobe Illustrator 19.0.0, SVG Export Plug-In . SVG Version: 6.00 Build 0)  -->
<svg version="1.1" id="Capa_1" xmlns="http://www.w3.org/2000/svg" xmlns:xlink="http://www.w3.org/1999/xlink" x="0px" y="0px"
	 viewBox="0 0 60 60" style="enable-background:new 0 0 60 60;" xml:space="preserve">
<g>
	<path d="M41.134,13.188c4.837-3.365,8.734-4.863,11.213-5.456c-0.129,0.489-0.281,1.006-0.46,1.551
		c-0.647,1.974-2.053,5.238-5.074,9.583c-0.315,0.453-0.203,1.077,0.25,1.392c0.175,0.121,0.373,0.179,0.57,0.179
		c0.316,0,0.628-0.15,0.822-0.429c2.501-3.597,4.345-7.09,5.332-10.101c0.192-0.584,0.354-1.14,0.493-1.666
		c0.19-0.724-0.012-1.468-0.541-1.992c-0.526-0.521-1.271-0.715-1.983-0.518c-2.568,0.706-6.694,2.287-11.765,5.814
		c-0.453,0.315-0.565,0.938-0.25,1.392S40.682,13.503,41.134,13.188z"/>
	<path d="M27.237,38.951l-5.568-0.619l-0.619-5.569c-0.061-0.548-0.551-0.945-1.104-0.883c-0.549,0.061-0.944,0.555-0.884,1.104
		l0.569,5.122l-5.122-0.569c-0.539-0.058-1.043,0.335-1.104,0.883c-0.061,0.549,0.335,1.043,0.884,1.104l5.569,0.619l0.619,5.569
		c0.057,0.512,0.49,0.89,0.993,0.89c0.036,0,0.074-0.002,0.111-0.006c0.549-0.061,0.944-0.555,0.884-1.104l-0.569-5.122l5.121,0.569
		c0.037,0.004,0.074,0.006,0.111,0.006c0.503,0,0.937-0.378,0.993-0.89C28.182,39.506,27.786,39.011,27.237,38.951z"/>
	<path d="M18.753,47.435l-5.569-0.619l-0.619-5.569c-0.061-0.548-0.552-0.951-1.104-0.883c-0.549,0.061-0.944,0.555-0.884,1.104
		l0.569,5.122l-5.122-0.569c-0.538-0.06-1.043,0.334-1.104,0.883c-0.061,0.549,0.335,1.043,0.884,1.104l5.569,0.619l0.619,5.569
		c0.057,0.512,0.49,0.89,0.993,0.89c0.036,0,0.074-0.002,0.111-0.006c0.549-0.061,0.944-0.555,0.884-1.104l-0.569-5.122l5.122,0.569
		c0.037,0.004,0.074,0.006,0.111,0.006c0.503,0,0.937-0.378,0.993-0.89C19.697,47.991,19.302,47.496,18.753,47.435z"/>
	<path d="M34.198,18.809c-1.874,0-3.632,0.726-4.949,2.043l-3.533,3.533c-0.001,0.001-0.002,0.001-0.003,0.002
		s-0.001,0.002-0.002,0.003l-3.674,3.674c-0.341,0.34-0.528,0.792-0.528,1.272c0,0.481,0.188,0.934,0.528,1.274l7.353,7.353
		c0.351,0.351,0.812,0.526,1.272,0.526c0.461,0,0.923-0.175,1.274-0.526l7.212-7.212c2.729-2.729,2.729-7.169,0-9.899
		C37.831,19.535,36.073,18.809,34.198,18.809z M30.663,36.409l-7.071-7.071l2.829-2.829l7.071,7.071L30.663,36.409z M37.735,29.337
		l-2.829,2.829l-7.071-7.071l2.829-2.829c0.939-0.939,2.195-1.457,3.535-1.457c1.341,0,2.596,0.518,3.536,1.457
		C39.684,24.216,39.684,27.388,37.735,29.337z"/>
	<path d="M58.441,51.336l-7.646-7.645c-0.697-0.698-1.581-1.166-2.554-1.354c-1.339-0.258-2.412-0.784-3.189-1.561l-5.136-5.136
		l4.649-4.649C60.462,15.095,59.06,2.407,58.992,1.874l-0.098-0.769l-0.769-0.098C57.597,0.942,44.904-0.46,29.009,15.435
		l-4.682,4.682l-5.135-5.135c-0.777-0.777-1.303-1.85-1.562-3.19c-0.188-0.973-0.656-1.856-1.354-2.554L8.497,1.46
		c-0.995-0.995-2.384-1.529-3.79-1.453c-1.41,0.071-2.73,0.739-3.623,1.833C-0.516,3.799-0.307,6.797,1.56,8.664l7.645,7.644
		c0.697,0.698,1.58,1.167,2.555,1.355c1.339,0.258,2.412,0.784,3.189,1.561l5.136,5.136L9.45,34.993
		C1.322,43.122-1.629,52.906,2.734,57.267c1.363,1.363,3.255,2.012,5.461,2.012c4.854,0,11.225-3.141,16.813-8.729l10.667-10.667
		l5.135,5.136c0.777,0.777,1.303,1.85,1.562,3.19c0.188,0.973,0.656,1.855,1.354,2.554l7.778,7.778
		C52.439,59.476,53.715,60,55.039,60c0.085,0,0.169-0.002,0.254-0.006c1.41-0.071,2.73-0.739,3.623-1.833
		C60.517,56.202,60.308,53.204,58.441,51.336z M16.362,17.81c-1.064-1.065-2.486-1.775-4.224-2.111
		c-0.58-0.112-1.105-0.39-1.519-0.804L2.974,7.25c-1.149-1.15-1.3-2.972-0.341-4.146c0.544-0.666,1.316-1.057,2.175-1.1
		C4.859,2.002,4.91,2.001,4.961,2.001c0.796,0,1.562,0.313,2.122,0.874l7.778,7.778c0.415,0.415,0.693,0.94,0.806,1.52
		c0.336,1.739,1.046,3.161,2.11,4.225l5.135,5.135l-0.908,0.908l-0.507,0.506L16.362,17.81z M23.593,49.136
		c-7.09,7.091-15.996,10.168-19.445,6.718c-1.61-1.61-1.865-4.46-0.717-8.025c1.221-3.792,3.86-7.848,7.434-11.42l10.634-10.633l0,0
		l1.591-1.591l7.334-7.334C38.346,8.927,45.396,5.581,49.913,4.17c3.354-1.048,5.847-1.213,7.086-1.213c0.015,0,0.03,0,0.045,0
		c0.009,2.988-0.96,13.687-13.894,26.62L23.593,49.136z M57.367,56.896c-0.544,0.666-1.316,1.057-2.176,1.1
		c-0.846,0.044-1.679-0.274-2.274-0.87l-7.778-7.778c-0.415-0.415-0.693-0.94-0.806-1.519c-0.336-1.74-1.046-3.161-2.11-4.225
		l-5.135-5.135l1.414-1.415l5.136,5.136c1.064,1.065,2.486,1.775,4.224,2.111c0.58,0.112,1.104,0.39,1.52,0.805l7.646,7.645
		C58.176,53.901,58.326,55.722,57.367,56.896z"/>
	<circle cx="46" cy="14" r="1"/>
	<circle cx="44" cy="16" r="1"/>
	<circle cx="42" cy="18" r="1"/>
</g>
<g>
</g>
<g>
</g>
<g>
</g>
<g>
</g>
<g>
</g>
<g>
</g>
<g>
</g>
<g>
</g>
<g>
</g>
<g>
</g>
<g>
</g>
<g>
</g>
<g>
</g>
<g>
</g>
<g>
</g>
</svg>
