<?xml version="1.0" encoding="iso-8859-1"?>
<!-- Generator: Adobe Illustrator 19.0.0, SVG Export Plug-In . SVG Version: 6.00 Build 0)  -->
<svg version="1.1" id="Capa_1" xmlns="http://www.w3.org/2000/svg" xmlns:xlink="http://www.w3.org/1999/xlink" x="0px" y="0px"
	 viewBox="0 0 60 60" style="enable-background:new 0 0 60 60;" xml:space="preserve">
<g>
	<path d="M29.084,28.069l-2.772,2.772c-2.012,2.012-2.021,5.294-0.019,7.316c0.976,0.984,2.275,1.53,3.66,1.537
		c0.009,0,0.018,0,0.026,0c1.375,0,2.67-0.533,3.676-1.528c0.987-0.978,1.532-2.281,1.536-3.671
		c0.004-1.391-0.535-2.698-1.519-3.681l-2.744-2.744C30.435,27.577,29.574,27.577,29.084,28.069z M33.191,34.49
		c-0.002,0.854-0.337,1.655-0.972,2.282c-0.601,0.595-1.396,0.922-2.241,0.922c-0.005,0-0.011,0-0.016,0
		c-0.851-0.004-1.649-0.34-2.248-0.944c-1.23-1.242-1.226-3.258,0.011-4.495l2.28-2.28l2.253,2.252
		C32.862,32.832,33.193,33.635,33.191,34.49z"/>
	<path d="M58.935,31.304c0.019-0.059,0.048-0.112,0.057-0.175c0.004-0.032,0.102-0.799,0.167-2.072
		c0.027-0.552-0.396-1.021-0.948-1.049c-0.54-0.022-1.021,0.396-1.05,0.948c-0.025,0.491-0.055,0.897-0.082,1.212
		C56.734,30.069,56.376,30,56,30h-0.308C54.016,19.196,45.665,10.574,35,8.487V7h1.446C37.303,7,38,6.303,38,5.446V1.554
		C38,0.697,37.303,0,36.446,0H23.554C22.697,0,22,0.697,22,1.554v3.893C22,6.303,22.697,7,23.554,7H25v1.487
		C14.335,10.574,5.984,19.196,4.308,30H4c-0.376,0-0.734,0.069-1.079,0.167c-0.027-0.314-0.057-0.72-0.082-1.212
		c-0.028-0.552-0.491-0.969-1.05-0.948c-0.552,0.028-0.976,0.498-0.948,1.049c0.065,1.272,0.163,2.04,0.167,2.072
		c0.008,0.063,0.038,0.117,0.057,0.176C0.41,32.016,0,32.958,0,34c0,2.206,1.794,4,4,4h0.308C6.238,50.444,17.023,60,30,60
		s23.762-9.556,25.692-22H56c2.206,0,4-1.794,4-4C60,32.958,59.59,32.016,58.935,31.304z M24,5V2h1v1c0,0.552,0.447,1,1,1
		s1-0.448,1-1V2h2v1c0,0.552,0.447,1,1,1s1-0.448,1-1V2h2v1c0,0.552,0.447,1,1,1s1-0.448,1-1V2h1v3h-1H25H24z M27,8V7h6v1H27z M4,36
		c-1.103,0-2-0.897-2-2s0.897-2,2-2V36z M30,58C16.767,58,6,47.233,6,34s10.767-24,24-24s24,10.767,24,24S43.233,58,30,58z M56,36
		v-4c1.103,0,2,0.897,2,2S57.103,36,56,36z"/>
	<path d="M3.912,14.239c0.133,0.06,0.271,0.088,0.407,0.088c0.383,0,0.747-0.221,0.914-0.592c0.264-0.589,0.553-1.161,0.858-1.698
		c0.273-0.48,0.105-1.09-0.374-1.364c-0.48-0.273-1.091-0.106-1.364,0.375c-0.338,0.593-0.656,1.223-0.946,1.87
		C3.182,13.422,3.407,14.014,3.912,14.239z"/>
	<path d="M7.557,9.308c0.271,0,0.54-0.109,0.737-0.324c0.425-0.463,0.878-0.899,1.347-1.296c0.422-0.356,0.475-0.987,0.118-1.409
		C9.402,5.858,8.771,5.804,8.35,6.161c-0.533,0.451-1.049,0.946-1.53,1.472C6.446,8.04,6.474,8.672,6.881,9.045
		C7.073,9.221,7.315,9.308,7.557,9.308z"/>
	<path d="M12.345,5.77c0.144,0,0.29-0.031,0.429-0.097c0.554-0.263,1.139-0.499,1.738-0.7c0.523-0.176,0.806-0.743,0.63-1.266
		c-0.176-0.524-0.742-0.803-1.267-0.63C13.2,3.303,12.54,3.568,11.914,3.867C11.415,4.104,11.203,4.7,11.44,5.199
		C11.612,5.559,11.971,5.77,12.345,5.77z"/>
	<path d="M18.084,4.167c0.039,0,0.079-0.002,0.119-0.007c0.614-0.073,1.256-0.122,1.907-0.145c0.552-0.02,0.983-0.482,0.964-1.034
		c-0.019-0.54-0.462-0.965-0.998-0.965c-0.012,0-0.023,0-0.036,0c-0.706,0.025-1.404,0.078-2.073,0.157
		c-0.549,0.065-0.94,0.563-0.875,1.112C17.152,3.793,17.584,4.167,18.084,4.167z"/>
	<path d="M1.782,26.003c0.015,0,0.029,0.001,0.044,0.001c0.532,0,0.975-0.42,0.998-0.957c0.026-0.621,0.068-1.274,0.13-1.952
		c0.05-0.55-0.356-1.036-0.906-1.086c-0.545-0.041-1.036,0.356-1.086,0.906c-0.063,0.71-0.107,1.395-0.136,2.045
		C0.803,25.513,1.23,25.979,1.782,26.003z"/>
	<path d="M2.331,20.024c0.066,0.014,0.134,0.02,0.199,0.02c0.466,0,0.883-0.327,0.979-0.801c0.126-0.625,0.273-1.255,0.444-1.884
		c0.145-0.533-0.17-1.083-0.703-1.227c-0.53-0.144-1.082,0.169-1.227,0.703c-0.177,0.648-0.336,1.325-0.476,2.011
		C1.439,19.387,1.789,19.914,2.331,20.024z"/>
	<path d="M54.767,13.735c0.167,0.371,0.531,0.592,0.914,0.592c0.136,0,0.275-0.028,0.407-0.088c0.505-0.226,0.73-0.817,0.505-1.321
		c-0.29-0.647-0.608-1.277-0.946-1.87c-0.274-0.481-0.886-0.648-1.364-0.375c-0.479,0.273-0.647,0.884-0.374,1.364
		C54.214,12.575,54.503,13.146,54.767,13.735z"/>
	<path d="M56.046,17.358c0.171,0.629,0.318,1.26,0.444,1.884c0.097,0.474,0.514,0.801,0.979,0.801c0.065,0,0.133-0.006,0.199-0.02
		c0.542-0.11,0.892-0.637,0.782-1.179c-0.14-0.686-0.299-1.363-0.476-2.011c-0.146-0.533-0.7-0.847-1.227-0.703
		C56.216,16.276,55.901,16.825,56.046,17.358z"/>
	<path d="M51.706,8.984c0.197,0.215,0.467,0.324,0.737,0.324c0.241,0,0.483-0.087,0.676-0.263c0.407-0.374,0.435-1.006,0.062-1.413
		c-0.481-0.525-0.997-1.021-1.53-1.472c-0.422-0.356-1.052-0.303-1.409,0.118c-0.356,0.422-0.304,1.053,0.118,1.409
		C50.828,8.084,51.281,8.521,51.706,8.984z"/>
	<path d="M57.046,23.095c0.062,0.677,0.104,1.331,0.13,1.952c0.023,0.537,0.466,0.957,0.998,0.957c0.015,0,0.029,0,0.044-0.001
		c0.552-0.023,0.979-0.49,0.956-1.042c-0.028-0.65-0.072-1.335-0.136-2.045c-0.05-0.55-0.536-0.945-1.086-0.906
		C57.402,22.059,56.996,22.545,57.046,23.095z"/>
	<path d="M39.89,4.016c0.651,0.022,1.293,0.071,1.907,0.145c0.04,0.004,0.08,0.007,0.119,0.007c0.5,0,0.932-0.374,0.992-0.881
		c0.065-0.549-0.326-1.046-0.875-1.112c-0.669-0.08-1.367-0.132-2.073-0.157c-0.59-0.021-1.015,0.413-1.034,0.965
		S39.338,3.996,39.89,4.016z"/>
	<path d="M45.488,4.973c0.6,0.201,1.185,0.437,1.738,0.7c0.139,0.066,0.285,0.097,0.429,0.097c0.374,0,0.732-0.21,0.904-0.57
		c0.237-0.499,0.025-1.095-0.474-1.333C47.46,3.568,46.8,3.303,46.125,3.076c-0.522-0.172-1.09,0.107-1.267,0.63
		C44.683,4.23,44.965,4.797,45.488,4.973z"/>
	<path d="M46.303,41.577l0.002,0C43.373,47.879,37.029,52,30,52s-13.373-4.121-16.305-10.422l0.002,0
		c-0.247-0.53-0.477-1.093-0.681-1.673l-1.888,0.662c0.001,0.001,0.001,0.002,0.001,0.003C13.936,48.603,21.519,54,30,54
		s16.064-5.397,18.87-13.431c0,0,0,0,0,0c0-0.001,0-0.001,0.001-0.002l-1.888-0.662C46.779,40.484,46.55,41.047,46.303,41.577z"/>
	<path d="M13.282,27.37l-0.009-0.003C15.949,20.621,22.535,16,30,16s14.051,4.621,16.727,11.367l-0.009,0.003
		c0.411,1.032,0.729,2.105,0.944,3.19l1.962-0.385C47.8,20.802,39.546,14,30,14s-17.8,6.802-19.624,16.175l1.962,0.385
		C12.554,29.476,12.871,28.402,13.282,27.37z"/>
</g>
<g>
</g>
<g>
</g>
<g>
</g>
<g>
</g>
<g>
</g>
<g>
</g>
<g>
</g>
<g>
</g>
<g>
</g>
<g>
</g>
<g>
</g>
<g>
</g>
<g>
</g>
<g>
</g>
<g>
</g>
</svg>
