<?xml version="1.0" encoding="iso-8859-1"?>
<!-- Generator: Adobe Illustrator 19.0.0, SVG Export Plug-In . SVG Version: 6.00 Build 0)  -->
<svg version="1.1" id="Capa_1" xmlns="http://www.w3.org/2000/svg" xmlns:xlink="http://www.w3.org/1999/xlink" x="0px" y="0px"
	 viewBox="0 0 58.941 58.941" style="enable-background:new 0 0 58.941 58.941;" xml:space="preserve">
<g>
	<path d="M58.281,44.139L47.932,33.79c0.312-1.346,0.49-2.73,0.503-4.144c0.011-0.059,0.035-0.113,0.035-0.175
		s-0.025-0.116-0.035-0.175c-0.014-1.543-0.225-3.052-0.595-4.513c-0.002-0.077,0.006-0.153-0.014-0.23
		c-0.018-0.066-0.058-0.117-0.087-0.175c-0.408-1.473-0.992-2.884-1.744-4.214c-0.021-0.065-0.03-0.132-0.065-0.193
		c-0.042-0.073-0.104-0.123-0.16-0.181c-0.633-1.061-1.372-2.063-2.215-2.997l1.037-1.037l1.092,1.092
		c0.284,0.284,0.656,0.425,1.029,0.425c0.373,0,0.746-0.142,1.03-0.425l2.183-2.184c0.275-0.275,0.427-0.641,0.427-1.029
		c0-0.389-0.151-0.755-0.427-1.03l-3.597-3.597C46.055,8.732,45.689,8.58,45.3,8.58c0,0,0,0,0,0c-0.39,0-0.755,0.151-1.03,0.427
		l-2.182,2.183c-0.275,0.274-0.427,0.64-0.428,1.029c0,0.39,0.151,0.755,0.427,1.031l1.092,1.092l-1.037,1.037
		c-0.925-0.834-1.917-1.566-2.967-2.194c-0.061-0.061-0.117-0.127-0.195-0.172c-0.067-0.039-0.139-0.049-0.21-0.071
		c-1.318-0.744-2.717-1.324-4.175-1.731c-0.065-0.034-0.123-0.078-0.197-0.098c-0.087-0.024-0.174-0.017-0.26-0.016
		c-1.435-0.362-2.918-0.569-4.434-0.587c-0.077-0.019-0.15-0.047-0.233-0.047s-0.156,0.028-0.233,0.047
		c-1.394,0.017-2.76,0.192-4.087,0.5L14.802,0.66c-0.879-0.88-2.311-0.88-3.189,0L0.66,11.613c-0.879,0.879-0.879,2.31,0,3.189
		l10.349,10.349c-0.312,1.345-0.49,2.728-0.503,4.141c-0.011,0.06-0.036,0.115-0.036,0.178s0.025,0.118,0.036,0.178
		c0.014,1.551,0.227,3.067,0.601,4.533c0.004,0.069-0.006,0.136,0.013,0.205c0.018,0.068,0.054,0.125,0.085,0.185
		c0.412,1.482,1.003,2.901,1.762,4.239c0.019,0.053,0.024,0.108,0.053,0.158c0.048,0.083,0.108,0.156,0.174,0.22
		c0.773,1.289,1.689,2.501,2.771,3.597c0.028,0.038,0.043,0.082,0.077,0.116c0.035,0.035,0.079,0.05,0.118,0.078
		c1.122,1.105,2.363,2.04,3.685,2.822c0.046,0.039,0.08,0.087,0.133,0.118c0.064,0.037,0.132,0.061,0.2,0.083
		c1.341,0.756,2.764,1.34,4.249,1.747c0.046,0.02,0.084,0.053,0.134,0.066c0.086,0.023,0.174,0.035,0.259,0.035
		c0.002,0,0.005-0.001,0.007-0.001c1.464,0.367,2.975,0.577,4.522,0.587c0.042,0.005,0.078,0.024,0.121,0.024
		s0.08-0.019,0.121-0.024c1.433-0.009,2.835-0.189,4.198-0.506l10.349,10.349c0.439,0.44,1.017,0.66,1.595,0.66
		s1.155-0.22,1.595-0.66l10.953-10.953C59.161,46.449,59.161,45.019,58.281,44.139z M45.299,10.805l2.828,2.829l-1.414,1.414
		l-2.828-2.829L45.299,10.805z M42.763,40.012c-0.104,0.132-0.211,0.261-0.319,0.39c-0.094,0.111-0.198,0.216-0.295,0.325
		l-2.072-2.072c-0.391-0.391-1.023-0.391-1.414,0s-0.391,1.023,0,1.414l2.072,2.072c-0.113,0.1-0.221,0.207-0.336,0.304
		c-0.127,0.107-0.256,0.213-0.386,0.316c-0.251,0.199-0.509,0.387-0.768,0.571c-0.145,0.102-0.289,0.206-0.437,0.303l-1.471-2.548
		c-0.277-0.479-0.888-0.644-1.366-0.366c-0.479,0.276-0.642,0.888-0.366,1.366l1.469,2.545c-0.032,0.016-0.062,0.034-0.094,0.05
		c-0.009,0.005-0.019,0.009-0.028,0.013c-0.688,0.336-1.401,0.625-2.132,0.867l-0.76-2.836c-0.143-0.533-0.688-0.853-1.225-0.707
		c-0.534,0.143-0.85,0.691-0.707,1.225l0.764,2.853c-0.792,0.161-1.603,0.251-2.422,0.298v-2.933c0-0.552-0.448-1-1-1s-1,0.448-1,1
		v2.933c-0.816-0.047-1.624-0.136-2.413-0.296l0.764-2.852c0.143-0.533-0.173-1.082-0.707-1.225
		c-0.533-0.143-1.082,0.173-1.225,0.707l-0.762,2.844c-0.774-0.256-1.526-0.568-2.255-0.933l1.472-2.549
		c0.276-0.478,0.112-1.09-0.366-1.366c-0.479-0.277-1.09-0.112-1.366,0.366l-1.476,2.557c-0.674-0.446-1.311-0.956-1.924-1.501
		l2.072-2.072c0.391-0.39,0.391-1.023,0-1.414s-1.023-0.391-1.414,0l-2.072,2.072c-0.545-0.612-1.055-1.248-1.501-1.922l2.554-1.474
		c0.479-0.276,0.642-0.888,0.366-1.366c-0.277-0.478-0.888-0.644-1.366-0.366l-2.547,1.47c-0.366-0.728-0.677-1.48-0.934-2.254
		l2.838-0.76c0.534-0.143,0.85-0.691,0.707-1.225s-0.69-0.852-1.225-0.707l-2.847,0.763c-0.161-0.792-0.251-1.602-0.298-2.42h2.924
		c0.552,0,1-0.448,1-1s-0.448-1-1-1h-2.924c0.048-0.821,0.138-1.633,0.3-2.428l2.842,0.762c0.087,0.023,0.174,0.035,0.259,0.035
		c0.442,0,0.846-0.295,0.965-0.742c0.143-0.533-0.173-1.082-0.707-1.225l-2.825-0.757c0.242-0.729,0.53-1.44,0.865-2.126
		c0.005-0.009,0.009-0.019,0.013-0.028c0.016-0.033,0.035-0.064,0.052-0.097l2.535,1.464c0.158,0.091,0.33,0.134,0.499,0.134
		c0.346,0,0.682-0.179,0.867-0.5c0.276-0.479,0.112-1.09-0.366-1.366l-2.539-1.466c0.097-0.147,0.2-0.29,0.302-0.434
		c0.184-0.26,0.371-0.518,0.571-0.768c0.103-0.13,0.209-0.259,0.316-0.386c0.097-0.115,0.204-0.223,0.304-0.336l2.064,2.064
		c0.195,0.195,0.451,0.293,0.707,0.293s0.512-0.098,0.707-0.293c0.391-0.391,0.391-1.023,0-1.414l-2.063-2.063
		c0.11-0.098,0.215-0.202,0.328-0.297c0.127-0.106,0.254-0.212,0.384-0.314c0.252-0.201,0.512-0.389,0.774-0.575
		c0.146-0.102,0.29-0.207,0.439-0.305l1.465,2.537c0.186,0.321,0.521,0.5,0.867,0.5c0.169,0,0.341-0.043,0.499-0.134
		c0.478-0.276,0.642-0.888,0.366-1.366l-1.462-2.533c0.029-0.014,0.056-0.031,0.084-0.045c0.012-0.006,0.024-0.011,0.037-0.017
		c0.688-0.336,1.4-0.624,2.13-0.865l0.755,2.82c0.12,0.447,0.523,0.742,0.965,0.742c0.085,0,0.172-0.011,0.259-0.035
		c0.534-0.143,0.85-0.691,0.707-1.225l-0.76-2.836c0.791-0.161,1.6-0.25,2.418-0.297v2.916c0,0.552,0.448,1,1,1s1-0.448,1-1v-2.916
		c0.821,0.048,1.633,0.138,2.427,0.3l-0.76,2.837c-0.143,0.533,0.173,1.082,0.707,1.225c0.086,0.023,0.174,0.035,0.259,0.035
		c0.441,0,0.846-0.295,0.965-0.742l0.758-2.828c0.772,0.256,1.523,0.567,2.25,0.933l-1.465,2.537
		c-0.276,0.478-0.112,1.09,0.366,1.366c0.157,0.091,0.33,0.134,0.499,0.134c0.346,0,0.682-0.179,0.867-0.5l1.469-2.544
		c0.673,0.446,1.308,0.955,1.92,1.5l-2.064,2.063c-0.391,0.39-0.391,1.023,0,1.414c0.195,0.195,0.451,0.293,0.707,0.293
		s0.512-0.098,0.707-0.293l2.063-2.063c0.545,0.612,1.054,1.247,1.499,1.921l-2.547,1.47c-0.479,0.276-0.642,0.888-0.366,1.366
		c0.186,0.321,0.521,0.5,0.867,0.5c0.169,0,0.342-0.043,0.499-0.134l2.539-1.466c0.365,0.727,0.677,1.479,0.933,2.252l-2.834,0.759
		c-0.534,0.143-0.85,0.691-0.707,1.225c0.12,0.447,0.523,0.742,0.965,0.742c0.085,0,0.172-0.011,0.259-0.035l2.842-0.761
		c0.161,0.792,0.25,1.601,0.298,2.42H43.47c-0.552,0-1,0.448-1,1s0.448,1,1,1h2.924c-0.047,0.816-0.136,1.623-0.296,2.412
		l-2.847-0.763c-0.536-0.146-1.083,0.174-1.225,0.707c-0.143,0.534,0.173,1.082,0.707,1.225l2.83,0.758
		c-0.243,0.736-0.533,1.454-0.872,2.147c-0.003,0.007-0.006,0.014-0.01,0.021c-0.014,0.029-0.031,0.057-0.046,0.086l-2.542-1.468
		c-0.479-0.277-1.09-0.113-1.366,0.366c-0.276,0.478-0.112,1.09,0.366,1.366l2.546,1.47c-0.101,0.154-0.208,0.303-0.314,0.453
		C43.145,39.509,42.96,39.764,42.763,40.012z M2.074,13.027L13.026,2.074c0.05-0.05,0.115-0.075,0.181-0.075
		s0.131,0.025,0.181,0.075l9.584,9.584c-0.001,0-0.002,0.001-0.003,0.001c-0.638,0.233-1.263,0.497-1.872,0.798
		c-0.014,0.007-0.028,0.013-0.042,0.02c-0.296,0.147-0.589,0.298-0.877,0.461c-0.069,0.022-0.141,0.032-0.207,0.069
		c-0.078,0.045-0.133,0.11-0.193,0.17c-0.137,0.082-0.275,0.161-0.41,0.246c-0.043,0.027-0.087,0.051-0.13,0.078
		c-0.502,0.323-0.988,0.672-1.46,1.044c-0.071,0.056-0.147,0.105-0.218,0.161c-0.462,0.374-0.906,0.774-1.337,1.195
		c-0.064,0.04-0.132,0.069-0.188,0.125c-0.054,0.054-0.083,0.122-0.122,0.184c-0.425,0.434-0.829,0.883-1.206,1.35
		c-0.055,0.068-0.102,0.141-0.156,0.21c-0.374,0.475-0.725,0.964-1.05,1.469c-0.026,0.04-0.048,0.082-0.074,0.123
		c-0.086,0.136-0.166,0.276-0.249,0.415c-0.057,0.059-0.12,0.111-0.163,0.185c-0.036,0.062-0.045,0.13-0.066,0.196
		c-0.167,0.295-0.323,0.595-0.473,0.898c-0.006,0.013-0.012,0.025-0.018,0.038c-0.301,0.611-0.567,1.237-0.8,1.876
		c0,0-0.001,0.001-0.001,0.002l-9.584-9.584C1.974,13.288,1.974,13.126,2.074,13.027z M56.867,45.915L45.915,56.867
		c-0.1,0.1-0.262,0.1-0.361,0l-9.584-9.584c0,0,0.001-0.001,0.002-0.001c0.64-0.233,1.266-0.498,1.876-0.8
		c0.012-0.006,0.025-0.012,0.038-0.018c0.298-0.148,0.592-0.3,0.882-0.464c0.069-0.022,0.138-0.046,0.203-0.084
		c0.054-0.031,0.089-0.08,0.135-0.12c0.158-0.094,0.317-0.185,0.473-0.284c0.04-0.025,0.083-0.048,0.123-0.074
		c0.505-0.325,0.994-0.675,1.469-1.05c0.069-0.054,0.142-0.101,0.21-0.156c0.487-0.395,0.958-0.815,1.41-1.261
		c0.037-0.028,0.081-0.043,0.115-0.077c0.035-0.035,0.05-0.08,0.079-0.119c0.442-0.449,0.859-0.915,1.251-1.398
		c0.055-0.068,0.102-0.141,0.156-0.21c0.374-0.475,0.725-0.965,1.05-1.469c0.026-0.04,0.048-0.082,0.073-0.122
		c0.083-0.131,0.159-0.265,0.239-0.398c0.066-0.063,0.124-0.136,0.172-0.219c0.028-0.049,0.033-0.104,0.052-0.155
		c0.172-0.303,0.333-0.61,0.487-0.922c0.006-0.013,0.012-0.026,0.018-0.038c0.301-0.61,0.566-1.236,0.799-1.875
		c0-0.001,0.001-0.002,0.001-0.003l9.584,9.584C56.967,45.653,56.967,45.815,56.867,45.915z"/>
	<path d="M12.47,15.462v-3h3c0.552,0,1-0.448,1-1s-0.448-1-1-1h-3v-3c0-0.552-0.448-1-1-1s-1,0.448-1,1v3h-3c-0.552,0-1,0.448-1,1
		s0.448,1,1,1h3v3c0,0.552,0.448,1,1,1S12.47,16.014,12.47,15.462z"/>
	<path d="M51.47,46.462h-3v-3c0-0.552-0.448-1-1-1s-1,0.448-1,1v3h-3c-0.552,0-1,0.448-1,1s0.448,1,1,1h3v3c0,0.552,0.448,1,1,1
		s1-0.448,1-1v-3h3c0.552,0,1-0.448,1-1S52.023,46.462,51.47,46.462z"/>
	<path d="M32.954,31.389c0.319-0.574,0.517-1.225,0.517-1.927c0-1.858-1.28-3.411-3-3.858v-6.142c0-0.552-0.448-1-1-1s-1,0.448-1,1
		v6.142c-1.72,0.447-3,2-3,3.858c0,2.206,1.794,4,4,4c0.775,0,1.492-0.231,2.105-0.614l4.272,3.396
		c0.184,0.146,0.404,0.217,0.622,0.217c0.294,0,0.586-0.129,0.783-0.377c0.344-0.433,0.272-1.062-0.16-1.405L32.954,31.389z
		 M27.47,29.462c0-1.103,0.897-2,2-2s2,0.897,2,2s-0.897,2-2,2S27.47,30.565,27.47,29.462z"/>
</g>
<g>
</g>
<g>
</g>
<g>
</g>
<g>
</g>
<g>
</g>
<g>
</g>
<g>
</g>
<g>
</g>
<g>
</g>
<g>
</g>
<g>
</g>
<g>
</g>
<g>
</g>
<g>
</g>
<g>
</g>
</svg>
