<?xml version="1.0" encoding="iso-8859-1"?>
<!-- Generator: Adobe Illustrator 19.0.0, SVG Export Plug-In . SVG Version: 6.00 Build 0)  -->
<svg version="1.1" id="Capa_1" xmlns="http://www.w3.org/2000/svg" xmlns:xlink="http://www.w3.org/1999/xlink" x="0px" y="0px"
	 viewBox="0 0 58.941 58.941" style="enable-background:new 0 0 58.941 58.941;" xml:space="preserve">
<g>
	<path d="M58.281,44.139l-10.36-10.36c0.311-1.341,0.485-2.706,0.502-4.076c0.019-0.077,0.047-0.15,0.047-0.232
		c0-0.083-0.028-0.156-0.047-0.233c-0.054-4.469-1.686-8.91-4.87-12.445l1.038-1.038l1.093,1.093
		c0.284,0.283,0.656,0.425,1.029,0.425c0.373,0,0.746-0.142,1.029-0.426l2.184-2.184c0.275-0.275,0.427-0.641,0.427-1.029
		c0-0.389-0.151-0.755-0.427-1.03l-3.598-3.598c-0.549-0.55-1.509-0.551-2.059,0l-2.184,2.184c-0.567,0.567-0.567,1.49,0,2.059
		l1.092,1.092l-1.039,1.039c-3.518-3.165-7.933-4.792-12.379-4.859c-0.093-0.029-0.187-0.058-0.289-0.058s-0.196,0.03-0.289,0.058
		c-1.351,0.02-2.697,0.193-4.019,0.499L14.802,0.66c-0.879-0.88-2.311-0.88-3.189,0L0.66,11.613c-0.879,0.879-0.879,2.31,0,3.189
		l10.36,10.36c-0.311,1.341-0.485,2.706-0.502,4.076c-0.019,0.077-0.047,0.15-0.047,0.233c0,0.082,0.028,0.156,0.047,0.232
		c0.058,4.781,1.897,9.544,5.537,13.183c3.654,3.654,8.44,5.495,13.239,5.54c0.06,0.011,0.114,0.036,0.177,0.036
		s0.118-0.025,0.177-0.036c1.389-0.013,2.772-0.19,4.132-0.505l10.36,10.36c0.439,0.44,1.017,0.66,1.595,0.66s1.155-0.22,1.595-0.66
		l10.952-10.953C59.161,46.449,59.161,45.019,58.281,44.139z M45.299,10.805l2.828,2.828l-1.415,1.415l-2.828-2.828L45.299,10.805z
		 M11.659,22.972l-9.584-9.584c-0.1-0.1-0.1-0.262,0-0.361L13.026,2.074c0.05-0.05,0.115-0.075,0.181-0.075s0.131,0.025,0.181,0.075
		l9.584,9.584c-0.046,0.017-0.089,0.041-0.136,0.058c-0.529,0.197-1.049,0.42-1.562,0.666c-0.094,0.045-0.19,0.085-0.283,0.131
		c-0.52,0.26-1.029,0.547-1.529,0.858c-0.078,0.048-0.16,0.09-0.237,0.14c-0.49,0.315-0.966,0.658-1.431,1.023
		c-0.074,0.058-0.153,0.108-0.227,0.167c-0.522,0.421-1.029,0.87-1.514,1.355s-0.934,0.992-1.355,1.514
		c-0.058,0.073-0.108,0.152-0.166,0.225c-0.365,0.466-0.709,0.943-1.024,1.433c-0.048,0.075-0.089,0.155-0.136,0.231
		c-0.312,0.502-0.601,1.013-0.862,1.536c-0.045,0.089-0.083,0.182-0.126,0.272c-0.248,0.518-0.473,1.042-0.671,1.576
		C11.698,22.887,11.675,22.928,11.659,22.972z M12.553,30.471h2.917c0.552,0,1-0.448,1-1s-0.448-1-1-1h-2.917
		c0.069-1.171,0.253-2.334,0.562-3.474c0.073-0.267,0.154-0.531,0.239-0.794c0.055-0.17,0.116-0.338,0.177-0.506
		c0.153-0.424,0.323-0.84,0.508-1.249c0.086-0.19,0.17-0.381,0.263-0.568c0.112-0.224,0.231-0.444,0.353-0.663
		c0.13-0.234,0.267-0.464,0.409-0.692c0.115-0.186,0.228-0.373,0.35-0.555c0.239-0.353,0.493-0.699,0.762-1.037
		c0.093-0.118,0.189-0.233,0.285-0.349c0.319-0.381,0.649-0.757,1.007-1.115c0.358-0.358,0.734-0.689,1.116-1.008
		c0.115-0.096,0.23-0.191,0.347-0.284c0.34-0.27,0.688-0.526,1.043-0.766c0.179-0.12,0.364-0.232,0.548-0.345
		c0.229-0.142,0.46-0.279,0.694-0.41c0.219-0.122,0.439-0.241,0.664-0.353c0.186-0.093,0.375-0.176,0.564-0.261
		c0.413-0.187,0.832-0.359,1.26-0.513c0.164-0.059,0.329-0.119,0.494-0.173c0.266-0.087,0.534-0.169,0.805-0.242
		c1.137-0.308,2.298-0.492,3.467-0.561v2.909c0,0.552,0.448,1,1,1s1-0.448,1-1v-2.909c4.007,0.234,7.947,1.861,11.002,4.916
		c3.055,3.055,4.681,6.995,4.915,11.002h-2.917c-0.552,0-1,0.448-1,1s0.448,1,1,1h2.917c-0.069,1.171-0.253,2.334-0.562,3.474
		c-0.073,0.267-0.153,0.531-0.239,0.793c-0.056,0.171-0.117,0.341-0.178,0.511c-0.151,0.418-0.319,0.829-0.501,1.232
		c-0.088,0.195-0.174,0.391-0.27,0.584c-0.111,0.222-0.229,0.441-0.35,0.658c-0.132,0.237-0.271,0.472-0.415,0.704
		c-0.11,0.178-0.218,0.358-0.335,0.532c-0.242,0.359-0.501,0.709-0.773,1.053c-0.092,0.117-0.187,0.231-0.283,0.346
		c-0.32,0.382-0.65,0.758-1.009,1.116c-0.358,0.358-0.734,0.689-1.116,1.008c-0.115,0.096-0.23,0.191-0.347,0.284
		c-0.34,0.27-0.688,0.526-1.043,0.766c-0.179,0.121-0.364,0.232-0.548,0.346c-0.229,0.142-0.46,0.279-0.694,0.409
		c-0.22,0.122-0.44,0.242-0.665,0.354c-0.184,0.092-0.371,0.174-0.558,0.258c-0.416,0.189-0.839,0.362-1.27,0.517
		c-0.162,0.058-0.324,0.117-0.487,0.17c-0.268,0.087-0.538,0.17-0.81,0.244c-1.136,0.308-2.297,0.492-3.465,0.56v-2.926
		c0-0.552-0.448-1-1-1s-1,0.448-1,1v2.926c-4.007-0.235-7.947-1.861-11.002-4.916C14.414,38.418,12.788,34.478,12.553,30.471z
		 M56.867,45.915L45.915,56.867c-0.1,0.1-0.262,0.1-0.361,0l-9.584-9.584c0.046-0.017,0.088-0.04,0.134-0.057
		c0.53-0.197,1.051-0.421,1.565-0.667c0.093-0.044,0.188-0.084,0.281-0.13c0.52-0.26,1.029-0.547,1.528-0.858
		c0.078-0.048,0.16-0.091,0.238-0.14c0.49-0.315,0.965-0.658,1.43-1.022c0.074-0.058,0.154-0.108,0.227-0.167
		c0.522-0.421,1.029-0.87,1.514-1.355c0.485-0.485,0.934-0.992,1.356-1.514c0.056-0.07,0.104-0.146,0.159-0.217
		c0.367-0.469,0.713-0.948,1.03-1.442c0.047-0.073,0.087-0.151,0.133-0.225c0.313-0.504,0.604-1.017,0.865-1.542
		c0.044-0.089,0.082-0.18,0.125-0.27c0.248-0.518,0.474-1.043,0.672-1.577c0.016-0.044,0.039-0.085,0.055-0.13l9.584,9.584
		C56.967,45.653,56.967,45.815,56.867,45.915z"/>
	<path d="M12.471,15.462v-3h3c0.552,0,1-0.448,1-1s-0.448-1-1-1h-3v-3c0-0.552-0.448-1-1-1s-1,0.448-1,1v3h-3c-0.552,0-1,0.448-1,1
		s0.448,1,1,1h3v3c0,0.552,0.448,1,1,1S12.471,16.014,12.471,15.462z"/>
	<path d="M51.471,46.462h-3v-3c0-0.552-0.448-1-1-1s-1,0.448-1,1v3h-3c-0.552,0-1,0.448-1,1s0.448,1,1,1h3v3c0,0.552,0.448,1,1,1
		s1-0.448,1-1v-3h3c0.552,0,1-0.448,1-1S52.023,46.462,51.471,46.462z"/>
	<path d="M29.471,40.462c0.847,0,1.358,0,3.832-10.025c0.124-0.644,0.125-1.298,0.006-1.944l-0.013-0.058
		c-2.467-9.973-2.979-9.973-3.825-9.973s-1.358,0-3.838,10.031c-0.119,0.646-0.117,1.3,0.018,1.995
		C28.112,40.462,28.623,40.462,29.471,40.462z M27.587,28.915c0.599-2.422,1.333-5.125,1.884-6.898
		c0.549,1.765,1.278,4.453,1.876,6.867c0.069,0.391,0.066,0.785,0.003,1.124c-0.598,2.42-1.329,5.122-1.879,6.895
		c-0.549-1.769-1.277-4.457-1.868-6.843C27.527,29.661,27.525,29.257,27.587,28.915z"/>
</g>
<g>
</g>
<g>
</g>
<g>
</g>
<g>
</g>
<g>
</g>
<g>
</g>
<g>
</g>
<g>
</g>
<g>
</g>
<g>
</g>
<g>
</g>
<g>
</g>
<g>
</g>
<g>
</g>
<g>
</g>
</svg>
