<?xml version="1.0" encoding="iso-8859-1"?>
<!-- Generator: Adobe Illustrator 19.0.0, SVG Export Plug-In . SVG Version: 6.00 Build 0)  -->
<svg version="1.1" id="Capa_1" xmlns="http://www.w3.org/2000/svg" xmlns:xlink="http://www.w3.org/1999/xlink" x="0px" y="0px"
	 viewBox="0 0 59.541 59.541" style="enable-background:new 0 0 59.541 59.541;" xml:space="preserve">
<g>
	<path d="M37.232,49.379c0.78,0.78,0.78,2.049,0,2.829c-0.78,0.779-2.05,0.779-2.829,0l-1.414,1.414
		c0.78,0.78,1.804,1.169,2.828,1.169c1.024,0,2.049-0.39,2.829-1.169c1.56-1.56,1.56-4.097,0-5.657L37.232,49.379z"/>
	<path d="M58.333,28.495l-1.31-1.31l0.684-0.684c0.391-0.391,0.391-1.023,0-1.414s-1.023-0.391-1.414,0L56,25.379v-2.586
		c0-0.552-0.448-1-1-1s-1,0.448-1,1v1.368l-3.302-3.302l-5.063-4.941c-0.866-0.845-1.594-1.816-2.166-2.87l0.124,0.037
		c1.577,0.634,3.393,0.499,4.868-0.368c1.407-0.827,2.319-2.207,2.502-3.784C50.987,8.724,51,8.51,51,8.293v-1
		c0-3.033-2.467-5.5-5.5-5.5S40,4.261,40,7.293c0,0.915,0.091,1.824,0.268,2.714l-13.97-4.168L12.433,1.506
		c-1.514-0.473-3.084-0.712-4.668-0.712c-1.77,0-3.398,0.602-4.706,1.603L1.707,1.045c-0.391-0.391-1.023-0.391-1.414,0
		s-0.391,1.023,0,1.414l1.346,1.346C0.616,5.12,0,6.767,0,8.558c0,0.898,0.108,1.798,0.323,2.674
		c0.507,2.071,1.587,3.948,3.123,5.426L8.68,21.7l-0.387,0.387c-0.391,0.391-0.391,1.023,0,1.414
		C8.488,23.696,8.744,23.793,9,23.793s0.512-0.098,0.707-0.293l0.413-0.413l4.481,4.316l-0.496,0.496
		c-0.391,0.391-0.391,1.023,0,1.414c0.195,0.195,0.451,0.293,0.707,0.293s0.512-0.098,0.707-0.293l0.523-0.523l4.389,4.227
		l-0.861,0.861c-0.391,0.391-0.391,1.023,0,1.414c0.195,0.195,0.451,0.293,0.707,0.293s0.512-0.098,0.707-0.293l0.888-0.888
		l9.876,9.511c-0.565,0.334-1.102,0.735-1.588,1.221c-0.363,0.363-0.679,0.755-0.958,1.165l-4.823-1.809l-1.328,3.984
		c-0.175,0.524,0.108,1.09,0.632,1.265c0.526,0.177,1.091-0.109,1.265-0.632l0.672-2.016l2.675,1.003
		c-1.006,2.822-0.391,6.098,1.865,8.353c1.56,1.56,3.608,2.339,5.657,2.339c2.049,0,4.098-0.78,5.657-2.339
		c1.747-1.747,2.514-4.107,2.304-6.393l6.888,7.101c0.78,0.78,1.804,1.169,2.828,1.169s2.049-0.39,2.829-1.169
		c1.56-1.56,1.56-4.098-0.011-5.667l-7.886-7.649l0.007-0.007l-7.172-6.97l-0.014,0.014L9.086,5.678
		c-0.931-0.898-2.25-1.09-3.341-0.595l-1.26-1.26c0.932-0.647,2.061-1.03,3.279-1.03c1.381,0,2.751,0.209,4.071,0.622l13.878,4.337
		l15.212,4.539c0.721,1.893,1.847,3.63,3.313,5.06l5.055,4.933l3.51,3.51H51c-0.552,0-1,0.448-1,1s0.448,1,1,1h2.586l-0.293,0.293
		c-0.391,0.391-0.391,1.023,0,1.414c0.195,0.195,0.451,0.293,0.707,0.293s0.512-0.098,0.707-0.293l0.902-0.902l1.31,1.31
		c0.488,0.489,0.691,1.083,0.603,1.767c-0.09,0.697-0.475,1.416-1.083,2.024c-1.11,1.11-1.624,1.133-1.754,1.115
		c-0.34-0.05-0.726-0.727-1.022-1.271C53.869,33.36,54,33.092,54,32.793c0-0.552-0.448-1-1-1h-3.414l1.707,1.707
		c0.155,0.155,0.367,0.545,0.553,0.89c0.504,0.931,1.195,2.206,2.55,2.403c1.053,0.151,2.156-0.38,3.457-1.68
		c0.918-0.918,1.505-2.048,1.652-3.181C59.673,30.639,59.256,29.418,58.333,28.495z M4.833,15.218
		c-1.263-1.216-2.151-2.759-2.568-4.461C2.089,10.037,2,9.297,2,8.558c0-1.239,0.397-2.386,1.065-3.327l1.241,1.241
		c-0.56,1.112-0.39,2.486,0.54,3.45l7.687,7.925l-2.439,2.439L4.833,15.218z M11.535,21.673l2.391-2.39l4.332,4.465l-2.241,2.241
		L11.535,21.673z M17.457,27.376l2.193-2.193l4.242,4.373l-2.046,2.046L17.457,27.376z M33.683,43.002L23.287,32.99l1.998-1.998
		l10.758,11.09l-0.014,0.014l0.743,0.765c-1.014-0.121-2.045-0.048-3.037,0.217C33.715,43.054,33.706,43.025,33.683,43.002z
		 M45.578,43.862l-2.549,2.549l-4.178-4.307l2.42-2.42L45.578,43.862z M40.061,55.036c-2.339,2.338-6.146,2.339-8.486,0
		c-1.683-1.684-2.135-4.122-1.395-6.232l2.469,0.926c0.116,0.043,0.234,0.064,0.351,0.064c0.405,0,0.786-0.248,0.937-0.649
		c0.194-0.517-0.068-1.093-0.585-1.288l-2.176-0.816c0.133-0.164,0.248-0.338,0.4-0.49c1.17-1.169,2.707-1.754,4.243-1.754
		c1.536,0,3.073,0.585,4.243,1.754C42.399,48.891,42.399,52.697,40.061,55.036z M54.91,52.915c0.779,0.78,0.779,2.048,0,2.829
		c-0.781,0.779-2.049,0.778-2.818,0.011l-7.671-7.907l2.592-2.592L54.91,52.915z M6.968,6.816c0.259,0,0.521,0.1,0.728,0.299
		l32.139,31.176l-2.377,2.377L6.283,8.531C5.887,8.121,5.881,7.494,6.271,7.104C6.463,6.912,6.714,6.816,6.968,6.816z M42,7.293
		c0-1.93,1.57-3.5,3.5-3.5s3.5,1.57,3.5,3.5v1c0,0.139-0.008,0.275-0.023,0.41c-0.112,0.963-0.655,1.777-1.529,2.291
		c-0.952,0.559-2.125,0.644-3.139,0.224l-1.821-0.549C42.167,9.579,42,8.441,42,7.293z"/>
</g>
<g>
</g>
<g>
</g>
<g>
</g>
<g>
</g>
<g>
</g>
<g>
</g>
<g>
</g>
<g>
</g>
<g>
</g>
<g>
</g>
<g>
</g>
<g>
</g>
<g>
</g>
<g>
</g>
<g>
</g>
</svg>
