<?xml version="1.0" encoding="iso-8859-1"?>
<!-- Generator: Adobe Illustrator 19.0.0, SVG Export Plug-In . SVG Version: 6.00 Build 0)  -->
<svg version="1.1" id="Capa_1" xmlns="http://www.w3.org/2000/svg" xmlns:xlink="http://www.w3.org/1999/xlink" x="0px" y="0px"
	 viewBox="0 0 59 59" style="enable-background:new 0 0 59 59;" xml:space="preserve">
<g>
	<path d="M52.124,24.958c-3.957-0.911-5.549-14.419-5.624-22.719L46.488,2.09c-0.138-1.067-0.948-1.895-2.017-2.06
		c-0.981-0.152-1.914,0.288-2.426,1.102c-0.063,0.033-0.131,0.055-0.188,0.102C39.004,3.628,34.5,5,29.5,5
		c-4.704,0-9.334-1.417-12.387-3.79c-0.048-0.038-0.105-0.051-0.158-0.078c-0.511-0.814-1.441-1.255-2.426-1.102
		c-1.069,0.165-1.879,0.992-2.017,2.061L12.5,2.238c-0.073,8.3-1.664,21.808-5.624,22.719C6.066,25.145,5.5,25.854,5.5,26.682
		v24.785C5.5,55.621,8.879,59,13.033,59h8.102c1.759,0,3.472-0.62,4.823-1.746c0.933-0.777,2.058-1.183,3.199-1.254h0.687
		c1.141,0.071,2.266,0.477,3.199,1.254C34.394,58.38,36.107,59,37.865,59h8.102c4.154,0,7.533-3.379,7.533-7.533V26.682
		C53.5,25.854,52.934,25.145,52.124,24.958z M51.5,26.862V27h-18v-7h13c0.068,0,0.128-0.026,0.192-0.039
		C47.728,23.444,49.253,26.225,51.5,26.862z M29.155,54H27.5v-1h4v1h-1.655C29.614,53.99,29.386,53.99,29.155,54z M27.5,43v-2h4v2
		H27.5z M31.5,45v2h-4v-2H31.5z M27.5,39v-2h4v2H27.5z M27.5,35v-2h4v2H27.5z M27.5,49h4v2h-4V49z M31.5,31h-4v-2h4V31z M31.5,23h-4
		v-2h4V23z M27.5,25h4v2h-4V25z M31.5,17v2h-4v-2H31.5z M44.167,2.007c0.137,0.021,0.307,0.097,0.333,0.25
		C44.512,3.655,44.652,11.51,46.174,18H33.5v-2.289C38.892,12.348,43.139,3.47,43.703,2.25C43.826,1.985,44.067,1.993,44.167,2.007z
		 M40.195,4.683C37.377,9.628,33.138,15,29.5,15c-3.666,0-7.941-5.455-10.758-10.431C21.842,6.118,25.658,7,29.5,7
		C33.558,7,37.235,6.187,40.195,4.683z M14.495,2.345c0.031-0.242,0.201-0.318,0.338-0.339c0.1-0.013,0.341-0.022,0.463,0.243
		c0.565,1.22,4.811,10.099,10.204,13.462V18H12.827C14.348,11.52,14.486,3.69,14.495,2.345z M7.5,26.862
		c2.248-0.637,3.773-3.42,4.809-6.9C12.373,19.974,12.432,20,12.5,20h13v7h-18V26.862z M21.135,57h-8.102
		C9.983,57,7.5,54.518,7.5,51.467V29h18v26.147c-0.281,0.177-0.562,0.353-0.823,0.571C23.685,56.545,22.427,57,21.135,57z
		 M51.5,51.467c0,3.051-2.482,5.533-5.533,5.533h-8.102c-1.292,0-2.55-0.456-3.542-1.282c-0.261-0.217-0.542-0.394-0.823-0.571V29
		h18V51.467z"/>
	<path d="M8.5,50h16V34h-16V50z M10.5,48v-7.826l5.3,4.543l0.741,0.565l5.959-5.108V48H10.5z M22.5,36v1.54l-6,5.143l-6-5.143V36
		H22.5z"/>
	<path d="M50.5,47.986V34h-16v16h13.986C49.597,50,50.5,49.097,50.5,47.986z M48.5,36v1.54l-6,5.143l-6-5.143V36H48.5z M36.5,40.174
		l5.3,4.543l0.741,0.565l5.959-5.108v7.812c0,0.008-0.006,0.014-0.014,0.014H36.5V40.174z"/>
	<circle cx="16.5" cy="39" r="1"/>
	<circle cx="42.5" cy="39" r="1"/>
	<path d="M17.207,21.293c-0.391-0.391-1.023-0.391-1.414,0L15,22.086l-0.793-0.793c-0.391-0.391-1.023-0.391-1.414,0
		s-0.391,1.023,0,1.414l0.793,0.793l-0.793,0.793c-0.391,0.391-0.391,1.023,0,1.414C12.988,25.903,13.244,26,13.5,26
		s0.512-0.098,0.707-0.293L15,24.914l0.793,0.793C15.988,25.903,16.244,26,16.5,26s0.512-0.098,0.707-0.293
		c0.391-0.391,0.391-1.023,0-1.414L16.414,23.5l0.793-0.793C17.598,22.317,17.598,21.684,17.207,21.293z"/>
	<path d="M23.414,23.5l0.793-0.793c0.391-0.391,0.391-1.023,0-1.414s-1.023-0.391-1.414,0L22,22.086l-0.793-0.793
		c-0.391-0.391-1.023-0.391-1.414,0s-0.391,1.023,0,1.414l0.793,0.793l-0.793,0.793c-0.391,0.391-0.391,1.023,0,1.414
		C19.988,25.903,20.244,26,20.5,26s0.512-0.098,0.707-0.293L22,24.914l0.793,0.793C22.988,25.903,23.244,26,23.5,26
		s0.512-0.098,0.707-0.293c0.391-0.391,0.391-1.023,0-1.414L23.414,23.5z"/>
	<path d="M39.207,21.293c-0.391-0.391-1.023-0.391-1.414,0L37,22.086l-0.793-0.793c-0.391-0.391-1.023-0.391-1.414,0
		s-0.391,1.023,0,1.414l0.793,0.793l-0.793,0.793c-0.391,0.391-0.391,1.023,0,1.414C34.988,25.903,35.244,26,35.5,26
		s0.512-0.098,0.707-0.293L37,24.914l0.793,0.793C37.988,25.903,38.244,26,38.5,26s0.512-0.098,0.707-0.293
		c0.391-0.391,0.391-1.023,0-1.414L38.414,23.5l0.793-0.793C39.598,22.317,39.598,21.684,39.207,21.293z"/>
	<path d="M46.207,21.293c-0.391-0.391-1.023-0.391-1.414,0L44,22.086l-0.793-0.793c-0.391-0.391-1.023-0.391-1.414,0
		s-0.391,1.023,0,1.414l0.793,0.793l-0.793,0.793c-0.391,0.391-0.391,1.023,0,1.414C41.988,25.903,42.244,26,42.5,26
		s0.512-0.098,0.707-0.293L44,24.914l0.793,0.793C44.988,25.903,45.244,26,45.5,26s0.512-0.098,0.707-0.293
		c0.391-0.391,0.391-1.023,0-1.414L45.414,23.5l0.793-0.793C46.598,22.317,46.598,21.684,46.207,21.293z"/>
</g>
<g>
</g>
<g>
</g>
<g>
</g>
<g>
</g>
<g>
</g>
<g>
</g>
<g>
</g>
<g>
</g>
<g>
</g>
<g>
</g>
<g>
</g>
<g>
</g>
<g>
</g>
<g>
</g>
<g>
</g>
</svg>
