<?xml version="1.0" encoding="iso-8859-1"?>
<!-- Generator: Adobe Illustrator 19.0.0, SVG Export Plug-In . SVG Version: 6.00 Build 0)  -->
<svg version="1.1" id="Capa_1" xmlns="http://www.w3.org/2000/svg" xmlns:xlink="http://www.w3.org/1999/xlink" x="0px" y="0px"
	 viewBox="0 0 60 60" style="enable-background:new 0 0 60 60;" xml:space="preserve">
<g>
	<path d="M47.515,29.099c-0.513-0.203-1.095,0.052-1.296,0.565c-0.202,0.514,0.051,1.094,0.565,1.296
		C53.807,33.717,58,38.042,58,42.529c0,7.995-12.561,14.5-28,14.5s-28-6.505-28-14.5c0-4.524,4.247-8.871,11.361-11.626
		c0.515-0.2,0.771-0.779,0.571-1.294c-0.199-0.515-0.778-0.771-1.294-0.571C4.725,32.104,0,37.147,0,42.529
		c0,9.252,13.178,16.5,30,16.5s30-7.248,30-16.5C60,37.108,55.45,32.213,47.515,29.099z"/>
	<path d="M4,42.529c0,7.366,13.702,12.5,26,12.5s26-5.134,26-12.5c0-3.705-3.422-7.089-9.636-9.529
		c-0.514-0.203-1.094,0.051-1.296,0.565s0.051,1.095,0.565,1.296C50.95,36.95,54,39.745,54,42.529c0,5.397-11.664,10.5-24,10.5
		s-24-5.103-24-10.5c0-2.784,3.049-5.579,8.365-7.667c0.514-0.202,0.767-0.782,0.565-1.296c-0.202-0.514-0.781-0.768-1.296-0.565
		C7.421,35.441,4,38.825,4,42.529z"/>
	<path d="M8,42.529c0,4.692,13.312,8.5,22,8.5c12.144,0,22-5.144,22-8.5c0-2.31-3.949-4.617-7.644-6.006
		c-0.518-0.194-1.094,0.067-1.288,0.584s0.067,1.094,0.584,1.288C48.437,40.194,50,42.082,50,42.529c0,1.571-8.299,6.5-20,6.5
		s-20-4.929-20-6.5c0-0.402,1.276-2.04,5.384-3.752c0.51-0.212,0.751-0.798,0.538-1.308c-0.212-0.509-0.797-0.752-1.308-0.538
		C13.063,37.578,8,39.894,8,42.529z"/>
	<path d="M19,44.971c0.552,0,1-0.448,1-1c0-2.792,0.277-5.082,0.71-7h18.579c0.433,1.918,0.71,4.208,0.71,7c0,0.552,0.448,1,1,1
		s1-0.448,1-1c0-10.489-3.609-14.633-5.766-17.108l-0.31-0.356C35.328,25.813,35,24.915,35,23.976v-4.005h-4v-6.586l2.293,2.293
		c0.195,0.195,0.451,0.293,0.707,0.293s0.512-0.098,0.707-0.293c0.391-0.391,0.391-1.023,0-1.414l-2.293-2.293H34
		c0.552,0,1-0.448,1-1s-0.448-1-1-1h-1.586l2.293-2.293c0.391-0.391,0.391-1.023,0-1.414s-1.023-0.391-1.414,0L31,8.557V1.971
		c0-0.552-0.448-1-1-1s-1,0.448-1,1v6.586l-2.293-2.293c-0.391-0.391-1.023-0.391-1.414,0s-0.391,1.023,0,1.414l2.293,2.293H26
		c-0.552,0-1,0.448-1,1s0.448,1,1,1h1.586l-2.293,2.293c-0.391,0.391-0.391,1.023,0,1.414c0.195,0.195,0.451,0.293,0.707,0.293
		s0.512-0.098,0.707-0.293L29,13.385v6.586h-4v4.005c0,0.939-0.328,1.837-0.925,2.531l-0.309,0.356
		C21.609,29.338,18,33.481,18,43.971C18,44.523,18.448,44.971,19,44.971z M25.274,28.176l0.317-0.366
		C26.5,26.755,27,25.393,27,23.976v-2.005h6v2.005c0,1.417,0.5,2.779,1.408,3.834l0.318,0.366c1.195,1.372,2.876,3.316,4.017,6.794
		H21.257C22.398,31.492,24.079,29.549,25.274,28.176z"/>
</g>
<g>
</g>
<g>
</g>
<g>
</g>
<g>
</g>
<g>
</g>
<g>
</g>
<g>
</g>
<g>
</g>
<g>
</g>
<g>
</g>
<g>
</g>
<g>
</g>
<g>
</g>
<g>
</g>
<g>
</g>
</svg>
