<?xml version="1.0" encoding="iso-8859-1"?>
<!-- Generator: Adobe Illustrator 19.0.0, SVG Export Plug-In . SVG Version: 6.00 Build 0)  -->
<svg version="1.1" id="Capa_1" xmlns="http://www.w3.org/2000/svg" xmlns:xlink="http://www.w3.org/1999/xlink" x="0px" y="0px"
	 viewBox="0 0 59 59" style="enable-background:new 0 0 59 59;" xml:space="preserve">
<path d="M59,6.737c0-1.603-0.624-3.109-1.758-4.243C56.109,1.361,54.603,0.737,53,0.737c-1.269,0-2.475,0.397-3.486,1.123
	c-0.881-0.763-2.214-0.735-3.052,0.101l-1.066,1.067c-0.815,0.815-0.861,2.103-0.156,2.984l-7.354,7.354l-1.856,1.856l0,0
	L24.716,26.536l-0.579-0.579c-0.85-0.851-2.234-0.851-3.084,0l-1.994,1.994l-0.579-0.579c-0.822-0.825-2.262-0.825-3.084,0
	l-2.572,2.572c-0.412,0.412-0.64,0.96-0.64,1.543c0,0.538,0.202,1.042,0.556,1.44c-3.22,3.924-3,9.745,0.663,13.409
	c1.949,1.95,4.51,2.924,7.071,2.924c2.251,0,4.502-0.755,6.337-2.262c0.411,0.364,0.923,0.554,1.44,0.554
	c0.559,0,1.117-0.212,1.542-0.638l2.573-2.573c0.851-0.85,0.851-2.234,0-3.084l-0.579-0.579l1.994-1.994
	c0.85-0.85,0.85-2.233,0-3.084l-0.579-0.579l20.523-20.524c0.408,0.327,0.9,0.501,1.397,0.501c0.575,0,1.15-0.219,1.588-0.657
	l1.067-1.067c0.837-0.837,0.865-2.171,0.101-3.052C58.603,9.211,59,8.005,59,6.737z M14.816,44.921
	c-2.88-2.88-3.101-7.427-0.663-10.563l5.613,5.613l5.613,5.613C22.245,48.022,17.698,47.801,14.816,44.921z M30.952,42.927
	L28.379,45.5c-0.07,0.07-0.186,0.07-0.256,0L28,45.376L14.237,31.613c-0.044-0.044-0.054-0.094-0.054-0.127
	c0-0.034,0.01-0.084,0.054-0.128l2.572-2.573c0.088-0.087,0.168-0.087,0.256,0l0.579,0.579l0,0l0.49,0.49l12.818,12.817
	C31.022,42.742,31.022,42.856,30.952,42.927z M55.828,3.908C56.584,4.664,57,5.668,57,6.737c0,0.725-0.206,1.413-0.565,2.021
	L50.987,3.31C52.51,2.451,54.56,2.641,55.828,3.908z M52.293,13.101l-4.243,4.243l-5.657-5.657l4.242-4.243L52.293,13.101z
	 M39.587,14.493l1.393-1.392l5.656,5.657l-2.121,2.121l-5.657-5.657L39.587,14.493z M32.366,37.013c0.07,0.071,0.07,0.187,0,0.257
	l-1.993,1.993l-9.9-9.899l1.994-1.994c0.07-0.07,0.186-0.07,0.256,0l0.579,0.579l0,0l8.485,8.485l0,0L32.366,37.013z M26.13,27.95
	l11.313-11.314l5.657,5.657L31.787,33.607L26.13,27.95z M56.362,11.86l-1.067,1.067c-0.095,0.095-0.251,0.095-0.347,0l-8.139-8.138
	c-0.095-0.096-0.095-0.252,0-0.347l1.065-1.066c0.049-0.048,0.112-0.072,0.175-0.072s0.126,0.023,0.174,0.071l8.139,8.138
	C56.458,11.608,56.458,11.764,56.362,11.86z M35.321,22.998l2.828-2.829l1.414,1.414l-2.828,2.829L35.321,22.998z M31.08,30.071
	l-1.414-1.414l2.828-2.828l1.414,1.414L31.08,30.071z M34.615,24.121c0.552,0,1,0.448,1,1s-0.448,1-1,1s-1-0.448-1-1
	S34.063,24.121,34.615,24.121z M10.293,46.556l-6.5,6.5c-0.391,0.391-0.391,1.023,0,1.414c0.195,0.195,0.451,0.293,0.707,0.293
	s0.512-0.098,0.707-0.293l6.5-6.5c0.391-0.391,0.391-1.023,0-1.414S10.684,46.166,10.293,46.556z M14,48.263c-0.553,0-1,0.448-1,1v8
	c0,0.552,0.447,1,1,1s1-0.448,1-1v-8C15,48.711,14.553,48.263,14,48.263z M10,43.263c0-0.552-0.447-1-1-1H1c-0.553,0-1,0.448-1,1
	s0.447,1,1,1h8C9.553,44.263,10,43.816,10,43.263z"/>
<g>
</g>
<g>
</g>
<g>
</g>
<g>
</g>
<g>
</g>
<g>
</g>
<g>
</g>
<g>
</g>
<g>
</g>
<g>
</g>
<g>
</g>
<g>
</g>
<g>
</g>
<g>
</g>
<g>
</g>
</svg>
