<?xml version="1.0" encoding="iso-8859-1"?>
<!-- Generator: Adobe Illustrator 19.0.0, SVG Export Plug-In . SVG Version: 6.00 Build 0)  -->
<svg version="1.1" id="Capa_1" xmlns="http://www.w3.org/2000/svg" xmlns:xlink="http://www.w3.org/1999/xlink" x="0px" y="0px"
	 viewBox="0 0 59 59" style="enable-background:new 0 0 59 59;" xml:space="preserve">
<g>
	<path d="M56.5,25.021V13.239C56.5,7.042,51.458,2,45.261,2H40.5V0h-22v2h-4.761C7.542,2,2.5,7.042,2.5,13.239v11.782
		c-1.119,0.105-2,1.039-2,2.184v4.59C0.5,33.011,1.489,34,2.705,34H5.5v2v18v0.125C5.5,56.813,7.687,59,10.375,59h38.25
		c2.688,0,4.875-2.187,4.875-4.875V54V36v-2h2.795c1.216,0,2.205-0.989,2.205-2.205v-4.59C58.5,26.059,57.619,25.126,56.5,25.021z
		 M20.5,2h18v2h-18V2z M13.739,4H18.5v2h22V4h4.761c5.094,0,9.239,4.145,9.239,9.239V25h-1v-2.716c0-1.355-0.826-2.521-2-3.022
		v-1.978c0-1.811-1.473-3.284-3.284-3.284H10.784C8.973,14,7.5,15.473,7.5,17.284v1.978c-1.174,0.501-2,1.667-2,3.022V25h-1V13.239
		C4.5,8.145,8.645,4,13.739,4z M36.689,23H22.311c-0.999,0-1.811,0.812-1.811,1.811V25h-13v-2.716C7.5,21.576,8.076,21,8.784,21
		h41.432c0.708,0,1.284,0.576,1.284,1.284V25h-13v-0.189C38.5,23.812,37.688,23,36.689,23z M27.5,31h4v1.118
		c0,0.486-0.396,0.882-0.882,0.882h-2.236c-0.486,0-0.882-0.396-0.882-0.882V31z M25.5,29h-3v-4h14v4h-3H25.5z M49.5,19h-40v-1.716
		C9.5,16.576,10.076,16,10.784,16h37.432c0.708,0,1.284,0.576,1.284,1.284V19z M2.705,32C2.592,32,2.5,31.908,2.5,31.795v-4.59
		C2.5,27.092,2.592,27,2.705,27H5.5v5H2.705z M7.5,38h44v14h-44V38z M51.5,54.125C51.5,55.71,50.21,57,48.625,57h-38.25
		C8.79,57,7.5,55.71,7.5,54.125V54h44V54.125z M51.5,36h-44v-2v-7h13v2.189c0,0.999,0.812,1.811,1.811,1.811H25.5v1.118
		c0,1.589,1.293,2.882,2.882,2.882h2.236c1.589,0,2.882-1.293,2.882-2.882V31h3.189c0.999,0,1.811-0.812,1.811-1.811V27h13v7V36z
		 M56.5,31.795c0,0.113-0.092,0.205-0.205,0.205H53.5v-5h2.795c0.113,0,0.205,0.092,0.205,0.205V31.795z"/>
	<path d="M34.5,27c0-0.552-0.448-1-1-1h-8c-0.552,0-1,0.448-1,1s0.448,1,1,1h8C34.052,28,34.5,27.552,34.5,27z"/>
</g>
<g>
</g>
<g>
</g>
<g>
</g>
<g>
</g>
<g>
</g>
<g>
</g>
<g>
</g>
<g>
</g>
<g>
</g>
<g>
</g>
<g>
</g>
<g>
</g>
<g>
</g>
<g>
</g>
<g>
</g>
</svg>
