<?xml version="1.0" encoding="iso-8859-1"?>
<!-- Generator: Adobe Illustrator 19.0.0, SVG Export Plug-In . SVG Version: 6.00 Build 0)  -->
<svg version="1.1" id="Capa_1" xmlns="http://www.w3.org/2000/svg" xmlns:xlink="http://www.w3.org/1999/xlink" x="0px" y="0px"
	 viewBox="0 0 60.001 60.001" style="enable-background:new 0 0 60.001 60.001;" xml:space="preserve">
<g>
	<path d="M43.208,24.708l-1.414-1.414l-5.707,5.707H23.915l-5.707-5.707l-1.414,1.414l5.707,5.707v12.172l-5.707,5.707l1.414,1.414
		l5.707-5.707h12.172l5.707,5.707l1.414-1.414L37.5,42.587V30.415L43.208,24.708z M35.5,42.001h-11v-11h11V42.001z"/>
	<path d="M49.5,13.001h-1v-4h-1.597l0.526-1.794l3.235-1.815c0.395-0.237,0.673-0.614,0.785-1.06
		c0.112-0.447,0.043-0.91-0.194-1.305l-1.313-2.188c-0.237-0.395-0.613-0.674-1.061-0.786c-0.447-0.111-0.91-0.042-1.284,0.183
		l-4.712,2.677l-1.971,6.089H38.5v4h-5.356l-3.291-7.24c-1.038-2.284-3.33-3.76-5.839-3.76h-8.1c-3.537,0-6.414,2.877-6.414,6.414
		v4.712c-1.723,0.445-3,2.013-3,3.874v39c0,2.206,1.794,4,4,4h39c2.206,0,4-1.794,4-4v-39C53.5,14.795,51.706,13.001,49.5,13.001z
		 M44.548,4.268l3.818-2.169l1.028,1.713l-3.655,2.05L44.82,9.001h-1.804L44.548,4.268z M40.5,11.001h5.817H46.5v2h-6V11.001z
		 M51.5,56.001c0,1.103-0.897,2-2,2h-39c-1.103,0-2-0.897-2-2v-39c0-1.103,0.897-2,2-2h1V8.415c0-2.434,1.98-4.414,4.414-4.414h8.1
		c1.727,0,3.304,1.016,4.019,2.588l3.824,8.412H38.5h10h1c1.103,0,2,0.897,2,2V56.001z"/>
	<path d="M26.111,7.944c-0.481-1.181-1.616-1.943-2.891-1.943h-6.598c-1.721,0-3.122,1.4-3.122,3.122v5.878h15.488L26.111,7.944z
		 M15.5,13.001V9.123c0-0.619,0.503-1.122,1.122-1.122h6.598c0.458,0,0.866,0.274,1.039,0.698l1.753,4.302H15.5z"/>
</g>
<g>
</g>
<g>
</g>
<g>
</g>
<g>
</g>
<g>
</g>
<g>
</g>
<g>
</g>
<g>
</g>
<g>
</g>
<g>
</g>
<g>
</g>
<g>
</g>
<g>
</g>
<g>
</g>
<g>
</g>
</svg>
