<?xml version="1.0" encoding="iso-8859-1"?>
<!-- Generator: Adobe Illustrator 19.0.0, SVG Export Plug-In . SVG Version: 6.00 Build 0)  -->
<svg version="1.1" id="Capa_1" xmlns="http://www.w3.org/2000/svg" xmlns:xlink="http://www.w3.org/1999/xlink" x="0px" y="0px"
	 viewBox="0 0 59.974 59.974" style="enable-background:new 0 0 59.974 59.974;" xml:space="preserve">
<path d="M56.341,43.894l-2.625-4.377c-2.491-4.151-5.539-7.01-9.884-9.269l-5.806-2.679c-2.798-1.456-4.164-3.093-5.219-6.26
	l-0.356-1.067c1-0.83,2.041-1.684,3.159-2.588l0.079-0.071c2.276-2.277-1.058-8.129-4.232-11.303
	c-3.415-3.416-8.494-5.652-10.606-3.536l-2.794,2.794l-1.79-1.97c-0.399-0.439-0.969-0.7-1.563-0.713
	c-0.585-0.005-1.175,0.219-1.594,0.639L9.125,7.477c-0.825,0.825-0.856,2.148-0.071,3.012l1.93,2.123l-5.554,5.554l-4.692,2.011
	c-0.271,0.116-0.479,0.329-0.586,0.601L0,21.224l0.167,0.382c0.162,0.369,1.657,3.315,1.955,3.901L2.4,26.055h2.451l-0.435,3.479
	l0.213,0.313c0.747,1.095,1.427,1.944,2.079,2.596c3.222,3.222,10.594,6.43,10.906,6.564l1.47,0.635l-0.074-1.599
	c-0.164-3.556,1.757-6.898,6.003-11.161l0.239,0.717c1.213,3.64,2.95,5.715,6.237,7.422l5.741,2.646
	c8.724,4.82,8.106,8.664,8.105,8.675l-0.038,0.152l0.01,0.156c0.314,4.732,2.646,5.92,4.902,7.069
	c0.521,0.266,1.061,0.54,1.588,0.863c0.731,0.447,1.245,0.974,1.525,1.566c0.56,1.184,1.681,1.904,2.949,1.904
	c0.044,0,0.088-0.001,0.133-0.002c1.281-0.051,2.365-0.841,2.829-2.063C60.173,53.513,61.038,48.661,56.341,43.894z M30.042,7.694
	c3.24,3.24,4.991,7.58,4.258,8.447c-8.322,6.726-13.077,10.575-15.84,15.741c-0.88-0.285-1.867-0.775-2.843-1.361l5.074-5.074
	l-1.414-1.414l-5.357,5.357c-0.38-0.277-0.741-0.558-1.081-0.839c-0.103-0.085-0.204-0.17-0.302-0.254
	c-0.101-0.086-0.2-0.172-0.296-0.258c-0.205-0.185-0.405-0.368-0.583-0.547c-0.03-0.03-0.057-0.064-0.086-0.094l3.172-3.693
	l-1.518-1.303l-2.958,3.444c-1.511-2.067-2.579-4.595-2.837-6.855l4.9-4.9l7.073-7.073l2.861-2.861
	C23.102,3.32,26.919,4.572,30.042,7.694z M10.533,9.143c-0.065-0.072-0.063-0.183,0.006-0.252l3.983-3.983
	c0.043-0.043,0.093-0.053,0.128-0.053c0.037-0.009,0.09,0.01,0.135,0.06l1.854,2.04l-4.241,4.241L10.533,9.143z M17.057,36.553
	c-2.257-1.067-6.761-3.351-8.936-5.524c-0.495-0.495-1.042-1.167-1.627-2l0.456-3.644c0.042-0.336-0.062-0.675-0.287-0.929
	c-0.224-0.254-0.547-0.4-0.887-0.4H3.628c-0.407-0.803-0.885-1.75-1.22-2.419l3.211-1.376c0.489,2.441,1.699,5.029,3.32,7.134
	l-0.02,0.023l0.305,0.356c0.063,0.077,0.129,0.149,0.193,0.225l0.061,0.071c0.25,0.292,0.504,0.579,0.765,0.839
	c0.227,0.227,0.478,0.459,0.743,0.695c0.183,0.163,0.379,0.325,0.576,0.489c0.067,0.055,0.131,0.11,0.199,0.165
	c0.589,0.478,1.226,0.945,1.895,1.39l0.499,0.338l0.005-0.005c1.185,0.746,2.425,1.382,3.575,1.769
	C17.393,34.675,17.155,35.607,17.057,36.553z M57.364,55.279c-0.255,0.672-0.811,0.765-1.038,0.774
	c-0.403,0.011-0.919-0.175-1.196-0.758c-0.45-0.951-1.221-1.765-2.29-2.418c-0.594-0.363-1.168-0.656-1.724-0.939
	c-2.127-1.084-3.542-1.804-3.805-5.296c0.164-1.055,0.22-5.567-9.18-10.758l-5.763-2.658c-2.798-1.455-4.164-3.093-5.22-6.259
	l-0.476-1.428l-0.125-0.125c1.269-1.182,2.674-2.43,4.257-3.78l0.103,0.309c1.213,3.639,2.949,5.714,6.236,7.422l5.785,2.669
	c3.987,2.078,6.786,4.704,9.071,8.513l2.688,4.48l0.15,0.192C58.639,49.019,58.309,52.788,57.364,55.279z"/>
<g>
</g>
<g>
</g>
<g>
</g>
<g>
</g>
<g>
</g>
<g>
</g>
<g>
</g>
<g>
</g>
<g>
</g>
<g>
</g>
<g>
</g>
<g>
</g>
<g>
</g>
<g>
</g>
<g>
</g>
</svg>
