<?xml version="1.0" encoding="iso-8859-1"?>
<!-- Generator: Adobe Illustrator 19.0.0, SVG Export Plug-In . SVG Version: 6.00 Build 0)  -->
<svg version="1.1" id="Capa_1" xmlns="http://www.w3.org/2000/svg" xmlns:xlink="http://www.w3.org/1999/xlink" x="0px" y="0px"
	 viewBox="0 0 60 60" style="enable-background:new 0 0 60 60;" xml:space="preserve">
<g>
	<path d="M38,12c0-4.411-3.589-8-8-8s-8,3.589-8,8s3.589,8,8,8S38,16.411,38,12z M24,12c0-3.309,2.691-6,6-6s6,2.691,6,6
		s-2.691,6-6,6S24,15.309,24,12z"/>
	<path d="M49.987,39.031c-0.616-0.255-1.318-0.115-1.788,0.356l-2.906,2.906L45,42.586l-3.707,3.707
		c-0.391,0.391-0.391,1.023,0,1.414C41.488,47.902,41.744,48,42,48s0.512-0.098,0.707-0.293L45,45.414V49c0,3.318-2.355,5-7,5
		c-2.757,0-5-2.243-5-5v-4.259c1.087,0.285,2.222,0.334,3.347,0.145C40.14,44.242,43,40.749,43,36.76v-8.212
		c0-0.666-0.397-1.261-1.013-1.517c-0.616-0.255-1.318-0.115-1.788,0.356l-2.906,2.906L37,30.586l-2.707,2.707
		c-0.391,0.391-0.391,1.023,0,1.414C34.488,34.902,34.744,35,35,35s0.512-0.098,0.707-0.293L37,33.414v3.468
		c0,1.008-0.685,1.902-1.593,2.079c-0.61,0.115-1.207-0.029-1.677-0.417C33.266,38.161,33,37.599,33,37V23.605
		c5.167-1.337,9-6.026,9-11.605c0-6.617-5.383-12-12-12S18,5.383,18,12c0,5.579,3.833,10.268,9,11.605V49c0,2.757-2.243,5-5,5
		c-4.645,0-7-1.682-7-5v-3.586l2.293,2.293C17.488,47.902,17.744,48,18,48s0.512-0.098,0.707-0.293c0.391-0.391,0.391-1.023,0-1.414
		l-3.961-3.961l-3.03-3.788c-0.41-0.514-1.077-0.707-1.695-0.487C9.401,38.274,9,38.839,9,39.496V49c0,8.119,7.003,11,13,11
		c3.07,0,5.924-1.251,8-3.471C32.076,58.749,34.93,60,38,60c5.997,0,13-2.881,13-11v-8.452C51,39.882,50.603,39.287,49.987,39.031z
		 M20,12c0-5.514,4.486-10,10-10s10,4.486,10,10s-4.486,10-10,10S20,17.514,20,12z M49,49c0,2.111-0.793,9-11,9
		c-2.851,0-5.475-1.321-7.2-3.625L30,53.306l-0.8,1.069C27.475,56.679,24.851,58,22,58c-2.581,0-11-0.649-11-9v-8.149l2,2.5V49
		c0,4.514,3.196,7,9,7c3.86,0,7-3.14,7-7V24h2v13c0,1.198,0.531,2.323,1.458,3.087c0.926,0.763,2.142,1.069,3.331,0.836
		C37.649,40.562,39,38.862,39,36.882v-5.468l2-2v7.346c0,3.026-2.145,5.671-4.988,6.154c-1.22,0.207-2.46,0.034-3.581-0.501
		L31,41.729V49c0,3.86,3.14,7,7,7c5.804,0,9-2.486,9-7v-5.586l2-2V49z"/>
</g>
<g>
</g>
<g>
</g>
<g>
</g>
<g>
</g>
<g>
</g>
<g>
</g>
<g>
</g>
<g>
</g>
<g>
</g>
<g>
</g>
<g>
</g>
<g>
</g>
<g>
</g>
<g>
</g>
<g>
</g>
</svg>
