<?xml version="1.0" encoding="iso-8859-1"?>
<!-- Generator: Adobe Illustrator 19.0.0, SVG Export Plug-In . SVG Version: 6.00 Build 0)  -->
<svg version="1.1" id="Capa_1" xmlns="http://www.w3.org/2000/svg" xmlns:xlink="http://www.w3.org/1999/xlink" x="0px" y="0px"
	 viewBox="0 0 59.023 59.023" style="enable-background:new 0 0 59.023 59.023;" xml:space="preserve">
<g>
	<path d="M12.623,13.863c-0.391-0.391-1.023-0.391-1.414,0s-0.391,1.023,0,1.414l4.95,4.95c0.195,0.195,0.451,0.293,0.707,0.293
		s0.512-0.098,0.707-0.293c0.391-0.391,0.391-1.023,0-1.414L12.623,13.863z"/>
	<path d="M57.163,47.25l-3.479-3.479c-0.529-0.529-1.39-0.53-1.919,0l-0.374,0.374L39.493,32.248l1.327-1.327
		c0.401-0.401,0.622-0.934,0.622-1.501c0-0.567-0.221-1.101-0.622-1.501l-1.946-1.946c-0.828-0.828-2.175-0.829-3.003,0
		l-1.327,1.327L16.054,8.81c-1.477-1.477-3.328-2.525-5.354-3.032C9.025,5.36,7.495,4.493,6.275,3.272L3.468,0.466L2.959,0
		L1.723,0.492L1.512,3.228c-0.364,4.727,1.351,9.36,4.703,12.713l19.843,19.843l-1.327,1.327c-0.401,0.401-0.622,0.935-0.622,1.501
		c0,0.567,0.221,1.101,0.622,1.501l1.947,1.947c0.414,0.414,0.958,0.62,1.501,0.62c0.544,0,1.088-0.207,1.502-0.621l1.327-1.327
		L42.904,52.63l-0.599,0.599c-0.526,0.529-0.526,1.389,0.001,1.918l3.481,3.481c0.264,0.263,0.611,0.395,0.958,0.395
		s0.695-0.132,0.96-0.396l9.457-9.458C57.692,48.641,57.692,47.78,57.163,47.25z M43.19,38.773l1.414,1.414l-5.657,5.657
		l-1.415-1.415L43.19,38.773z M36.119,43.016l-1.415-1.415l5.657-5.657l1.414,1.414L36.119,43.016z M46.018,41.602l1.414,1.414
		l-5.657,5.657l-1.414-1.414L46.018,41.602z M7.629,14.526C4.69,11.587,3.187,7.525,3.506,3.381l0.003-0.045L4.86,4.687
		c1.477,1.477,3.329,2.525,5.354,3.032c1.675,0.419,3.205,1.285,4.425,2.505l18.489,18.489l-5.657,5.657L7.629,14.526z
		 M28.267,40.646c-0.049,0.049-0.128,0.048-0.176,0l-1.947-1.947c-0.041-0.041-0.041-0.133,0-0.174l1.327-1.327l8.485-8.485
		l1.327-1.327c0.024-0.024,0.056-0.036,0.087-0.036c0.032,0,0.063,0.012,0.088,0.036l1.946,1.946c0.041,0.041,0.042,0.133,0,0.174
		l-5.57,5.57l-4.243,4.243l0,0L28.267,40.646z M35.25,36.49l2.829-2.828l0.869,0.869l-5.657,5.657l-0.868-0.868L35.25,36.49z
		 M43.19,50.087l5.657-5.657l1.129,1.129l-5.657,5.657L43.19,50.087z M46.746,56.759l-2.571-2.571l8.548-8.548l2.571,2.571
		L46.746,56.759z"/>
</g>
<g>
</g>
<g>
</g>
<g>
</g>
<g>
</g>
<g>
</g>
<g>
</g>
<g>
</g>
<g>
</g>
<g>
</g>
<g>
</g>
<g>
</g>
<g>
</g>
<g>
</g>
<g>
</g>
<g>
</g>
</svg>
