<?xml version="1.0" encoding="iso-8859-1"?>
<!-- Generator: Adobe Illustrator 19.0.0, SVG Export Plug-In . SVG Version: 6.00 Build 0)  -->
<svg version="1.1" id="Capa_1" xmlns="http://www.w3.org/2000/svg" xmlns:xlink="http://www.w3.org/1999/xlink" x="0px" y="0px"
	 viewBox="0 0 59 59" style="enable-background:new 0 0 59 59;" xml:space="preserve">
<g>
	<path d="M11.051,42c0.163,0,0.328-0.04,0.48-0.124c0.484-0.266,0.661-0.874,0.395-1.358c-2.649-4.823-0.421-14.206,1.229-16.875
		c0.29-0.47,0.145-1.086-0.325-1.376c-0.467-0.29-1.085-0.145-1.376,0.325c-1.791,2.898-4.459,13.106-1.28,18.89
		C10.356,41.813,10.698,42,11.051,42z"/>
	<path d="M44.077,39.881c-0.266,0.484-0.089,1.092,0.396,1.358c0.152,0.084,0.317,0.124,0.48,0.124c0.354,0,0.695-0.187,0.878-0.519
		c3.177-5.784,0.509-15.992-1.282-18.89c-0.291-0.469-0.909-0.615-1.376-0.325c-0.47,0.291-0.615,0.907-0.325,1.376
		C44.498,25.675,46.727,35.058,44.077,39.881z"/>
	<path d="M32.509,45.006c1.271-2.149,0.974-5.202-0.692-7.101c-1.164-1.328-2.343-3.735-1.352-7.661l0.887-3.511l-2.563,2.559
		c-0.223,0.222-5.442,5.51-5.183,11.929c0.077,1.91,0.856,3.654,2.138,4.786c0.881,0.778,1.948,1.195,3.039,1.195
		c0.118,0,0.237-0.005,0.356-0.015C30.571,47.068,31.736,46.314,32.509,45.006z M30.788,43.988c-0.448,0.757-1.024,1.14-1.814,1.206
		c-0.848,0.074-1.507-0.334-1.906-0.687c-0.861-0.761-1.408-2.02-1.463-3.368c-0.121-2.996,1.224-5.793,2.489-7.735
		c0.084,2.724,1.159,4.611,2.219,5.82C31.415,40.481,31.624,42.574,30.788,43.988z"/>
	<path d="M50.305,53c0-2.757-2.243-5-5-5c-2.414,0-4.434,1.721-4.899,4h-0.351c0-1.654-1.346-3-3-3h-2.1
		c3.074-1.92,4.468-3.914,6.163-7.281c1.929-3.832,3.979-12.206-3.959-25.239c-3.878-6.367-3.153-11.463-2.806-13.913
		c0.154-1.087,0.24-1.687-0.185-2.176C33.953,0.143,33.638,0,33.305,0H22.869c-0.333,0-0.648,0.143-0.864,0.391
		c-0.425,0.489-0.339,1.088-0.185,2.176c0.349,2.449,1.073,7.546-2.806,13.913c-7.938,13.033-5.888,21.408-3.959,25.239
		c1.696,3.367,3.089,5.361,6.164,7.281h-2.915c-1.654,0-3,1.346-3,3h-2.75c-1.654,0-3,1.346-3,3v1c0,1.654,1.346,3,3,3h30.75
		c0.895,0,1.69-0.401,2.24-1.024C48.188,57.848,50.305,55.675,50.305,53z M24.177,48.369c-4.061-2.061-5.393-3.692-7.334-7.549
		c-1.743-3.461-3.556-11.091,3.881-23.3c4.251-6.979,3.428-12.764,3.077-15.234C23.787,2.192,23.774,2.095,23.76,2h8.654
		c-0.014,0.095-0.027,0.192-0.04,0.286c-0.352,2.47-1.174,8.255,3.076,15.234c7.437,12.209,5.624,19.838,3.881,23.3
		c-1.941,3.857-3.273,5.488-7.333,7.548C31.183,48.782,30.252,49,29.305,49h-2.436C25.922,49,24.991,48.782,24.177,48.369z
		 M18.305,51h8.564h2.436h7.75c0.552,0,1,0.449,1,1h-20.75C17.305,51.449,17.753,51,18.305,51z M12.555,57c-0.552,0-1-0.449-1-1v-1
		c0-0.551,0.448-1,1-1h2.75h24.75h0.25h3c0.552,0,1,0.449,1,1v1c0,0.109-0.03,0.21-0.062,0.308c-0.018,0.05-0.037,0.1-0.063,0.15
		C44.011,56.776,43.688,57,43.305,57H12.555z M46.305,55.823V55c0-1.654-1.346-3-3-3h-0.829c0.413-1.164,1.525-2,2.829-2
		c1.654,0,3,1.346,3,3C48.305,54.3,47.474,55.41,46.305,55.823z"/>
</g>
<g>
</g>
<g>
</g>
<g>
</g>
<g>
</g>
<g>
</g>
<g>
</g>
<g>
</g>
<g>
</g>
<g>
</g>
<g>
</g>
<g>
</g>
<g>
</g>
<g>
</g>
<g>
</g>
<g>
</g>
</svg>
