<?xml version="1.0" encoding="iso-8859-1"?>
<!-- Generator: Adobe Illustrator 19.0.0, SVG Export Plug-In . SVG Version: 6.00 Build 0)  -->
<svg version="1.1" id="Capa_1" xmlns="http://www.w3.org/2000/svg" xmlns:xlink="http://www.w3.org/1999/xlink" x="0px" y="0px"
	 viewBox="0 0 56.42 56.42" style="enable-background:new 0 0 56.42 56.42;" xml:space="preserve">
<g>
	<path d="M51.922,33.42h-11v-2.382c0.734,0.84,1.8,1.382,3,1.382c2.206,0,4-1.794,4-4s-1.794-4-4-4c-1.2,0-2.266,0.542-3,1.382
		V23.42c0-0.552-0.448-1-1-1h-11c-0.552,0-1,0.448-1,1v10h-7.651L31.44,5.47c0.205-0.513-0.045-1.095-0.558-1.3l-8.717-3.483
		C17.243-1.281,11.639,1.124,9.672,6.046l-5.482,13.72c-0.953,2.384-0.92,4.997,0.092,7.356s2.883,4.184,5.267,5.137l8.326,3.327
		v11.221c0,5.3,4.313,9.612,9.613,9.612H43.31c5.3,0,9.612-4.312,9.612-9.612V34.42C52.922,33.868,52.474,33.42,51.922,33.42z
		 M43.922,26.42c1.103,0,2,0.897,2,2s-0.897,2-2,2s-2-0.897-2-2S42.819,26.42,43.922,26.42z M29.922,24.42h9v9h-9V24.42z
		 M6.119,26.334c-0.801-1.869-0.828-3.938-0.073-5.826l5.482-13.72c0.754-1.888,2.199-3.37,4.068-4.171
		c1.868-0.801,3.938-0.827,5.826-0.073l7.789,3.112L18.079,33.515l-7.789-3.112C8.403,29.648,6.921,28.203,6.119,26.334z
		 M50.922,46.808c0,4.197-3.415,7.612-7.612,7.612H27.487c-4.198,0-7.613-3.415-7.613-7.612V35.42h9.048h11h11V46.808z"/>
	<path d="M34.422,20.42c2.481,0,4.5-2.019,4.5-4.5c0-1.301-1.354-9.5-4.5-9.5s-4.5,8.199-4.5,9.5
		C29.922,18.401,31.941,20.42,34.422,20.42z M34.394,8.417c0.827,0.254,2.528,4.932,2.528,7.503c0,1.378-1.122,2.5-2.5,2.5
		s-2.5-1.122-2.5-2.5C31.922,13.349,33.624,8.671,34.394,8.417z"/>
	<path d="M29.922,50.42c-3.309,0-6-2.691-6-6c0-0.552-0.448-1-1-1s-1,0.448-1,1c0,4.411,3.589,8,8,8c0.552,0,1-0.448,1-1
		S30.474,50.42,29.922,50.42z"/>
	<circle cx="33.922" cy="26.42" r="1"/>
	<circle cx="36.922" cy="28.42" r="1"/>
	<circle cx="31.922" cy="29.42" r="1"/>
	<circle cx="34.922" cy="31.42" r="1"/>
</g>
<g>
</g>
<g>
</g>
<g>
</g>
<g>
</g>
<g>
</g>
<g>
</g>
<g>
</g>
<g>
</g>
<g>
</g>
<g>
</g>
<g>
</g>
<g>
</g>
<g>
</g>
<g>
</g>
<g>
</g>
</svg>
