<?xml version="1.0" encoding="iso-8859-1"?>
<!-- Generator: Adobe Illustrator 19.0.0, SVG Export Plug-In . SVG Version: 6.00 Build 0)  -->
<svg version="1.1" id="Capa_1" xmlns="http://www.w3.org/2000/svg" xmlns:xlink="http://www.w3.org/1999/xlink" x="0px" y="0px"
	 viewBox="0 0 60 60" style="enable-background:new 0 0 60 60;" xml:space="preserve">
<path d="M55.018,6.5h-0.061C54.342,3.223,47.74,0,37.018,0S19.694,3.223,19.078,6.5h-0.061c0,0.096,0.021,0.187,0.027,0.281
	C19.038,6.854,19.018,6.927,19.018,7v8.435l-2.746-2.747c-0.018-0.018-0.042-0.033-0.062-0.05c-0.02-0.021-0.036-0.046-0.057-0.067
	l-0.012,0.012c-1.265-1.01-5.116-1.006-7.831,1.71c-2.666,2.666-4.015,7.678-2.98,9.102l-0.019,0.019
	c0.024,0.024,0.054,0.04,0.079,0.064c0.014,0.016,0.024,0.039,0.039,0.054l13.588,13.588V53.5c0,4.009,6.897,6.5,18,6.5
	s18-2.491,18-6.5V7c0-0.073-0.021-0.146-0.027-0.219C54.997,6.687,55.018,6.596,55.018,6.5z M37.018,2
	C47.8,2,52.606,5.286,52.981,6.81C52.605,9.367,47.583,12,37.018,12S21.431,9.367,21.055,6.81C21.43,5.286,26.236,2,37.018,2z
	 M9.725,15.707c2.093-2.092,4.559-1.835,5.069-1.633c0.314,0.403,0.325,1.138,0.001,2.066c-0.415,1.191-1.32,2.542-2.484,3.706
	c-2.204,2.204-4.376,2.86-5.349,2.304C6.907,21.193,7.63,17.802,9.725,15.707z M48.018,56.853V52c0-0.552-0.448-1-1-1s-1,0.448-1,1
	v5c0,0.103,0.03,0.197,0.059,0.291c-1.176,0.219-2.533,0.392-4.059,0.515V49c0-0.552-0.448-1-1-1s-1,0.448-1,1v8.929
	c-0.639,0.028-1.306,0.047-2,0.057V56c0-0.552-0.448-1-1-1s-1,0.448-1,1v1.986c-1.057-0.015-2.069-0.045-3-0.102V51
	c0-0.552-0.448-1-1-1s-1,0.448-1,1v6.721c-1.999-0.203-3.648-0.506-5-0.868V44c0-0.552-0.448-1-1-1s-1,0.448-1,1v12.193
	c-2.093-0.855-3-1.865-3-2.693V36.705c0-0.265-0.105-0.52-0.293-0.707L8.938,24.211c1.512-0.358,3.194-1.358,4.787-2.951
	c1.39-1.39,2.44-2.974,2.958-4.461c0.08-0.229,0.145-0.453,0.198-0.673l2.43,2.43c0.286,0.286,0.715,0.371,1.09,0.217
	c0.374-0.155,0.617-0.52,0.617-0.924v-7.514c0.784,0.65,1.793,1.222,3,1.711V20c0,0.552,0.448,1,1,1s1-0.448,1-1v-7.28
	c0.92,0.261,1.921,0.485,3,0.668V27c0,0.552,0.448,1,1,1s1-0.448,1-1V13.676c1.828,0.211,3.831,0.324,6,0.324
	c0.342,0,0.667-0.011,1-0.016V17c0,0.552,0.448,1,1,1s1-0.448,1-1v-3.083c1.809-0.093,3.481-0.27,5-0.528V28c0,0.552,0.448,1,1,1
	s1-0.448,1-1V13c0-0.006-0.004-0.012-0.004-0.018c0.707-0.17,1.383-0.354,2.004-0.563V20c0,0.552,0.448,1,1,1s1-0.448,1-1v-8.405
	c0.771-0.38,1.444-0.799,2-1.26V53.5C53.018,54.555,51.553,55.906,48.018,56.853z"/>
<g>
</g>
<g>
</g>
<g>
</g>
<g>
</g>
<g>
</g>
<g>
</g>
<g>
</g>
<g>
</g>
<g>
</g>
<g>
</g>
<g>
</g>
<g>
</g>
<g>
</g>
<g>
</g>
<g>
</g>
</svg>
