<?xml version="1.0" encoding="iso-8859-1"?>
<!-- Generator: Adobe Illustrator 19.0.0, SVG Export Plug-In . SVG Version: 6.00 Build 0)  -->
<svg version="1.1" id="Capa_1" xmlns="http://www.w3.org/2000/svg" xmlns:xlink="http://www.w3.org/1999/xlink" x="0px" y="0px"
	 viewBox="0 0 60 60" style="enable-background:new 0 0 60 60;" xml:space="preserve">
<g>
	<path d="M47,10.5v-1H0v29v12h47v-1h13v-11v-28H47z M2,11.5h43v27H2V11.5z M33,48.5h-6h-6h-6H9H3H2v-1v-6v-1h1h6h6h6h6h6h6h6
		c-0.552,0-1,0.448-1,1c0,0.552,0.448,1,1,1v4c-0.552,0-1,0.448-1,1c0,0.552,0.448,1,1,1h-6H33z M58,47.5H47v-7h11V47.5z M47,38.5
		v-4h1.188c0.679,1.836,3.114,3,4.813,3c2.206,0,4-1.794,4-4s-1.794-4-4-4c-1.699,0-4.134,1.164-4.813,3H47v-6h1.188
		c0.679,1.836,3.114,3,4.813,3c2.206,0,4-1.794,4-4s-1.794-4-4-4c-1.699,0-4.134,1.164-4.813,3H47v-6h1.188
		c0.679,1.836,3.114,3,4.813,3c2.206,0,4-1.794,4-4s-1.794-4-4-4c-1.699,0-4.134,1.164-4.813,3H47v-4h11v26H47z M50,33.5
		c0-0.966,1.761-2,3-2c1.103,0,2,0.897,2,2s-0.897,2-2,2C51.761,35.5,50,34.466,50,33.5z M50,25.5c0-0.966,1.761-2,3-2
		c1.103,0,2,0.897,2,2s-0.897,2-2,2C51.761,27.5,50,26.466,50,25.5z M50,17.5c0-0.966,1.761-2,3-2c1.103,0,2,0.897,2,2s-0.897,2-2,2
		C51.761,19.5,50,18.466,50,17.5z"/>
	<circle cx="3" cy="41.5" r="1"/>
	<circle cx="9" cy="41.5" r="1"/>
	<circle cx="3" cy="47.5" r="1"/>
	<circle cx="9" cy="47.5" r="1"/>
	<circle cx="6" cy="44.5" r="1"/>
	<circle cx="15" cy="41.5" r="1"/>
	<circle cx="15" cy="47.5" r="1"/>
	<circle cx="12" cy="44.5" r="1"/>
	<circle cx="18" cy="44.5" r="1"/>
	<circle cx="21" cy="41.5" r="1"/>
	<circle cx="27" cy="41.5" r="1"/>
	<circle cx="21" cy="47.5" r="1"/>
	<circle cx="27" cy="47.5" r="1"/>
	<circle cx="24" cy="44.5" r="1"/>
	<circle cx="33" cy="41.5" r="1"/>
	<circle cx="33" cy="47.5" r="1"/>
	<circle cx="30" cy="44.5" r="1"/>
	<circle cx="36" cy="44.5" r="1"/>
	<circle cx="39" cy="41.5" r="1"/>
	<circle cx="39" cy="47.5" r="1"/>
	<circle cx="42" cy="44.5" r="1"/>
	<path d="M28.57,13.5H5v22h2.671H18.43H42v-22h-2.671H28.57z M7,33.5v-18h19.67l-17.1,18H7z M12.329,33.5l17.101-18h5.241
		l-17.101,18H12.329z M40,15.5v18H20.33l17.1-18H40z"/>
</g>
<g>
</g>
<g>
</g>
<g>
</g>
<g>
</g>
<g>
</g>
<g>
</g>
<g>
</g>
<g>
</g>
<g>
</g>
<g>
</g>
<g>
</g>
<g>
</g>
<g>
</g>
<g>
</g>
<g>
</g>
</svg>
