<?xml version="1.0" encoding="iso-8859-1"?>
<!-- Generator: Adobe Illustrator 19.0.0, SVG Export Plug-In . SVG Version: 6.00 Build 0)  -->
<svg version="1.1" id="Capa_1" xmlns="http://www.w3.org/2000/svg" xmlns:xlink="http://www.w3.org/1999/xlink" x="0px" y="0px"
	 viewBox="0 0 59 59" style="enable-background:new 0 0 59 59;" xml:space="preserve">
<g>
	<path d="M38,55c-3.531,0-6.451-2.63-6.925-6.032C32.341,50.223,34.081,51,36,51c0.552,0,1-0.447,1-1s-0.448-1-1-1
		c-2.757,0-5-2.243-5-5v-0.026C31.838,44.609,32.87,45,34,45c0.552,0,1-0.447,1-1s-0.448-1-1-1c-1.654,0-3-1.346-3-3
		c0-0.553-0.448-1-1-1s-1,0.447-1,1c0,1.654-1.346,3-3,3c-0.552,0-1,0.447-1,1s0.448,1,1,1c1.13,0,2.162-0.391,3-1.026V44
		c0,2.757-2.243,5-5,5c-0.552,0-1,0.447-1,1s0.448,1,1,1c1.919,0,3.659-0.777,4.925-2.032C28.451,52.37,25.531,55,22,55
		c-0.552,0-1,0.447-1,1s0.448,1,1,1c2.826,0,5.349-1.312,7-3.356V58c0,0.553,0.448,1,1,1s1-0.447,1-1v-4.356
		C32.651,55.688,35.174,57,38,57c0.552,0,1-0.447,1-1S38.552,55,38,55z"/>
	<path d="M22,31c2.826,0,5.349-1.312,7-3.356V32c0,0.553,0.448,1,1,1s1-0.447,1-1v-4.356C32.651,29.688,35.174,31,38,31
		c0.552,0,1-0.447,1-1s-0.448-1-1-1c-3.531,0-6.451-2.63-6.925-6.032C32.341,24.223,34.081,25,36,25c0.552,0,1-0.447,1-1
		s-0.448-1-1-1c-2.757,0-5-2.243-5-5v-0.026C31.838,18.609,32.87,19,34,19c0.552,0,1-0.447,1-1s-0.448-1-1-1c-1.654,0-3-1.346-3-3
		c0-0.553-0.448-1-1-1s-1,0.447-1,1c0,1.654-1.346,3-3,3c-0.552,0-1,0.447-1,1s0.448,1,1,1c1.13,0,2.162-0.391,3-1.026V18
		c0,2.757-2.243,5-5,5c-0.552,0-1,0.447-1,1s0.448,1,1,1c1.919,0,3.659-0.777,4.925-2.032C28.451,26.37,25.531,29,22,29
		c-0.552,0-1,0.447-1,1S21.448,31,22,31z"/>
	<path d="M19,16c-3.531,0-6.451-2.63-6.925-6.032C13.341,11.223,15.081,12,17,12c0.552,0,1-0.447,1-1s-0.448-1-1-1
		c-2.757,0-5-2.243-5-5V4.974C12.838,5.609,13.87,6,15,6c0.552,0,1-0.447,1-1s-0.448-1-1-1c-1.654,0-3-1.346-3-3
		c0-0.553-0.448-1-1-1s-1,0.447-1,1c0,1.654-1.346,3-3,3C6.448,4,6,4.447,6,5s0.448,1,1,1c1.13,0,2.162-0.391,3-1.026V5
		c0,2.757-2.243,5-5,5c-0.552,0-1,0.447-1,1s0.448,1,1,1c1.919,0,3.659-0.777,4.925-2.032C9.451,13.37,6.531,16,3,16
		c-0.552,0-1,0.447-1,1s0.448,1,1,1c2.826,0,5.349-1.312,7-3.356V19c0,0.553,0.448,1,1,1s1-0.447,1-1v-4.356
		C13.651,16.688,16.174,18,19,18c0.552,0,1-0.447,1-1S19.552,16,19,16z"/>
	<path d="M40,18c2.826,0,5.349-1.312,7-3.356V19c0,0.553,0.448,1,1,1s1-0.447,1-1v-4.356C50.651,16.688,53.174,18,56,18
		c0.552,0,1-0.447,1-1s-0.448-1-1-1c-3.531,0-6.451-2.63-6.925-6.032C50.341,11.223,52.081,12,54,12c0.552,0,1-0.447,1-1
		s-0.448-1-1-1c-2.757,0-5-2.243-5-5V4.974C49.838,5.609,50.87,6,52,6c0.552,0,1-0.447,1-1s-0.448-1-1-1c-1.654,0-3-1.346-3-3
		c0-0.553-0.448-1-1-1s-1,0.447-1,1c0,1.654-1.346,3-3,3c-0.552,0-1,0.447-1,1s0.448,1,1,1c1.13,0,2.162-0.391,3-1.026V5
		c0,2.757-2.243,5-5,5c-0.552,0-1,0.447-1,1s0.448,1,1,1c1.919,0,3.659-0.777,4.925-2.032C46.451,13.37,43.531,16,40,16
		c-0.552,0-1,0.447-1,1S39.448,18,40,18z"/>
	<path d="M56,41c-3.531,0-6.451-2.63-6.925-6.032C50.341,36.223,52.081,37,54,37c0.552,0,1-0.447,1-1s-0.448-1-1-1
		c-2.757,0-5-2.243-5-5v-0.026C49.838,30.609,50.87,31,52,31c0.552,0,1-0.447,1-1s-0.448-1-1-1c-1.654,0-3-1.346-3-3
		c0-0.553-0.448-1-1-1s-1,0.447-1,1c0,1.654-1.346,3-3,3c-0.552,0-1,0.447-1,1s0.448,1,1,1c1.13,0,2.162-0.391,3-1.026V30
		c0,2.757-2.243,5-5,5c-0.552,0-1,0.447-1,1s0.448,1,1,1c1.919,0,3.659-0.777,4.925-2.032C46.451,38.37,43.531,41,40,41
		c-0.552,0-1,0.447-1,1s0.448,1,1,1c2.826,0,5.349-1.312,7-3.356V44c0,0.553,0.448,1,1,1s1-0.447,1-1v-4.356
		C50.651,41.688,53.174,43,56,43c0.552,0,1-0.447,1-1S56.552,41,56,41z"/>
	<path d="M19,41c-3.531,0-6.451-2.63-6.925-6.032C13.341,36.223,15.081,37,17,37c0.552,0,1-0.447,1-1s-0.448-1-1-1
		c-2.757,0-5-2.243-5-5v-0.026C12.838,30.609,13.87,31,15,31c0.552,0,1-0.447,1-1s-0.448-1-1-1c-1.654,0-3-1.346-3-3
		c0-0.553-0.448-1-1-1s-1,0.447-1,1c0,1.654-1.346,3-3,3c-0.552,0-1,0.447-1,1s0.448,1,1,1c1.13,0,2.162-0.391,3-1.026V30
		c0,2.757-2.243,5-5,5c-0.552,0-1,0.447-1,1s0.448,1,1,1c1.919,0,3.659-0.777,4.925-2.032C9.451,38.37,6.531,41,3,41
		c-0.552,0-1,0.447-1,1s0.448,1,1,1c2.826,0,5.349-1.312,7-3.356V44c0,0.553,0.448,1,1,1s1-0.447,1-1v-4.356
		C13.651,41.688,16.174,43,19,43c0.552,0,1-0.447,1-1S19.552,41,19,41z"/>
</g>
<g>
</g>
<g>
</g>
<g>
</g>
<g>
</g>
<g>
</g>
<g>
</g>
<g>
</g>
<g>
</g>
<g>
</g>
<g>
</g>
<g>
</g>
<g>
</g>
<g>
</g>
<g>
</g>
<g>
</g>
</svg>
