<?xml version="1.0" encoding="iso-8859-1"?>
<!-- Generator: Adobe Illustrator 19.0.0, SVG Export Plug-In . SVG Version: 6.00 Build 0)  -->
<svg version="1.1" id="Capa_1" xmlns="http://www.w3.org/2000/svg" xmlns:xlink="http://www.w3.org/1999/xlink" x="0px" y="0px"
	 viewBox="0 0 59 59" style="enable-background:new 0 0 59 59;" xml:space="preserve">
<g>
	<path d="M39.137,2H19.863C15.252,2,11.5,5.752,11.5,10.363V26v8v15.637c0,4.611,3.752,8.363,8.363,8.363h19.273
		c4.611,0,8.363-3.752,8.363-8.363V34v-8V10.363C47.5,5.752,43.748,2,39.137,2z M18.5,26v-2h22v2v8v2h-22v-2V26z M40.5,16h-22
		v-2.752C18.5,10.906,20.406,9,22.748,9h13.504c2.342,0,4.248,1.906,4.248,4.248V16z M18.5,18h22v4h-22V18z M42.5,28h3v4h-3V28z
		 M18.5,44h22v2.752c0,2.342-1.906,4.248-4.248,4.248H22.748c-2.342,0-4.248-1.906-4.248-4.248V44z M40.5,42h-22v-4h22V42z M16.5,32
		h-3v-4h3V32z M45.5,49.637c0,3.509-2.854,6.363-6.363,6.363H19.863c-3.509,0-6.363-2.854-6.363-6.363V34h3v2v8v2.752
		c0,3.445,2.803,6.248,6.248,6.248h13.504c3.445,0,6.248-2.803,6.248-6.248V44v-8v-2h3V49.637z M45.5,26h-3v-2v-8v-2.752
		C42.5,9.803,39.697,7,36.252,7H22.748C19.303,7,16.5,9.803,16.5,13.248V16v8v2h-3V10.363C13.5,6.854,16.354,4,19.863,4h19.273
		c3.509,0,6.363,2.854,6.363,6.363V26z"/>
	<path d="M57.395,38.553c-0.585-1.171-0.895-2.481-0.895-3.789V10.877c0.586-0.242,1-0.819,1-1.491V4c0-2.206-1.794-4-4-4
		s-4,1.794-4,4v5.386c0,0.672,0.414,1.249,1,1.491v23.887c0,1.308-0.31,2.618-0.895,3.789C48.882,40,48.5,41.62,48.5,43.236V54
		c0,1.405,0.597,2.754,1.637,3.7c0.916,0.833,2.115,1.291,3.35,1.297c0.005,0,0.009,0.003,0.013,0.003
		c0.002,0,0.003-0.001,0.005-0.001c0.002,0,0.004,0.001,0.006,0.001c0.158,0,0.317-0.007,0.477-0.022
		c2.53-0.242,4.513-2.503,4.513-5.149V43.236C58.5,41.62,58.118,40,57.395,38.553z M51.5,4c0-1.103,0.897-2,2-2s2,0.897,2,2v5h-4V4z
		 M56.5,53.828c0,1.363-0.838,2.547-2,2.983V48c0-0.552-0.447-1-1-1s-1,0.448-1,1v8.825c-0.37-0.131-0.717-0.331-1.018-0.605
		C50.858,55.653,50.5,54.843,50.5,54V43.236c0-1.308,0.31-2.618,0.895-3.789C52.118,38,52.5,36.38,52.5,34.764V11h2v23.764
		c0,1.616,0.382,3.235,1.105,4.683c0.585,1.171,0.895,2.481,0.895,3.789V53.828z"/>
	<path d="M8.5,34.764V10.877c0.586-0.242,1-0.819,1-1.491V4c0-2.206-1.794-4-4-4s-4,1.794-4,4v5.386c0,0.673,0.414,1.249,1,1.491
		v23.887c0,1.308-0.309,2.618-0.895,3.789C0.882,40,0.5,41.619,0.5,43.236V54c0,1.405,0.597,2.754,1.637,3.7
		c0.916,0.833,2.115,1.291,3.349,1.297C5.491,58.997,5.495,59,5.5,59c0.002,0,0.003-0.001,0.005-0.001
		C5.507,58.999,5.509,59,5.511,59c0.159,0,0.317-0.007,0.477-0.022h0c2.53-0.242,4.512-2.503,4.512-5.149V43.236
		c0-1.617-0.382-3.236-1.105-4.683C8.809,37.382,8.5,36.072,8.5,34.764z M3.5,4c0-1.103,0.897-2,2-2s2,0.897,2,2v5h-4V4z
		 M8.5,53.828c0,1.363-0.838,2.547-2,2.984V48c0-0.552-0.448-1-1-1s-1,0.448-1,1v8.826c-0.37-0.131-0.716-0.332-1.018-0.606
		C2.858,55.652,2.5,54.843,2.5,54V43.236c0-1.308,0.309-2.618,0.895-3.789C4.118,38,4.5,36.381,4.5,34.764V11h2v23.764
		c0,1.617,0.382,3.236,1.105,4.683c0.585,1.17,0.895,2.48,0.895,3.789V53.828z"/>
</g>
<g>
</g>
<g>
</g>
<g>
</g>
<g>
</g>
<g>
</g>
<g>
</g>
<g>
</g>
<g>
</g>
<g>
</g>
<g>
</g>
<g>
</g>
<g>
</g>
<g>
</g>
<g>
</g>
<g>
</g>
</svg>
