<?xml version="1.0" encoding="iso-8859-1"?>
<!-- Generator: Adobe Illustrator 19.0.0, SVG Export Plug-In . SVG Version: 6.00 Build 0)  -->
<svg version="1.1" id="Capa_1" xmlns="http://www.w3.org/2000/svg" xmlns:xlink="http://www.w3.org/1999/xlink" x="0px" y="0px"
	 viewBox="0 0 60 60" style="enable-background:new 0 0 60 60;" xml:space="preserve">
<path d="M42.353,17.203V16c0-8.822-5.99-16-13.353-16S15.647,7.178,15.647,16v1.337C14.675,17.834,14,18.835,14,20
	c0,0.771,0.301,1.468,0.78,2c-0.48,0.532-0.78,1.229-0.78,2s0.301,1.468,0.78,2c-0.48,0.532-0.78,1.229-0.78,2s0.301,1.468,0.78,2
	c-0.48,0.532-0.78,1.229-0.78,2s0.301,1.468,0.78,2c-0.48,0.532-0.78,1.229-0.78,2s0.301,1.468,0.78,2
	c-0.48,0.532-0.78,1.229-0.78,2c0,0.473,0.12,0.915,0.316,1.313C8.989,42.537,5,47.307,5,53h2c0-5.054,3.773-9.234,8.647-9.898V44
	c0,8.822,5.99,16,13.353,16s13.353-7.178,13.353-16v-1.337C43.326,42.166,44,41.165,44,40c0-0.771-0.301-1.468-0.78-2
	c0.48-0.532,0.78-1.229,0.78-2s-0.301-1.468-0.78-2c0.48-0.532,0.78-1.229,0.78-2s-0.301-1.468-0.78-2c0.48-0.532,0.78-1.229,0.78-2
	s-0.301-1.468-0.78-2c0.48-0.532,0.78-1.229,0.78-2s-0.301-1.468-0.78-2c0.48-0.532,0.78-1.229,0.78-2
	c0-0.129-0.022-0.253-0.038-0.378C49.198,21.302,53,26.213,53,32h2C55,24.531,49.507,18.338,42.353,17.203z M17.647,16
	C17.647,8.28,22.74,2,29,2s11.353,6.28,11.353,14v1h-2.117v-1c0-6.58-3.711-11-9.235-11s-9.235,4.42-9.235,11v1h-2.117V16z
	 M32.117,17h-6.234v-1c0-2.43,1.224-4,3.117-4c1.778,0,3.117,2.427,3.117,4V17z M29,10c-3.013,0-5.117,2.467-5.117,6v1h-2.118v-1
	c0-5.467,2.84-9,7.235-9s7.235,3.533,7.235,9v1h-2.118v-1C34.117,13.554,32.124,10,29,10z M42,24c0,0.551-0.448,1-1,1H17
	c-0.552,0-1-0.449-1-1s0.448-1,1-1h24C41.552,23,42,23.449,42,24z M42,28c0,0.551-0.448,1-1,1H17c-0.552,0-1-0.449-1-1s0.448-1,1-1
	h24C41.552,27,42,27.449,42,28z M42,32c0,0.551-0.448,1-1,1H17c-0.552,0-1-0.449-1-1s0.448-1,1-1h24C41.552,31,42,31.449,42,32z
	 M42,36c0,0.551-0.448,1-1,1H17c-0.552,0-1-0.449-1-1s0.448-1,1-1h24C41.552,35,42,35.449,42,36z M42,40c0,0.551-0.448,1-1,1h-2.765
	h-4.118H23.883h-4.118H17c-0.552,0-1-0.449-1-1s0.448-1,1-1h24C41.552,39,42,39.449,42,40z M21.765,43h2.118v1
	c0,2.446,1.993,6,5.117,6c3.013,0,5.117-2.467,5.117-6v-1h2.118v1c0,5.467-2.84,9-7.235,9s-7.235-3.533-7.235-9V43z M25.883,43
	h6.234v1c0,2.43-1.224,4-3.117,4c-1.778,0-3.117-2.427-3.117-4V43z M40.353,44c0,7.72-5.093,14-11.353,14s-11.353-6.28-11.353-14v-1
	h2.117v1c0,6.58,3.711,11,9.235,11s9.235-4.42,9.235-11v-1h2.117V44z M42,20c0,0.551-0.448,1-1,1H17c-0.552,0-1-0.449-1-1
	s0.448-1,1-1h2.765h4.118h10.234h4.118H40c0.455,0,0.905,0.025,1.348,0.07C41.727,19.213,42,19.572,42,20z"/>
<g>
</g>
<g>
</g>
<g>
</g>
<g>
</g>
<g>
</g>
<g>
</g>
<g>
</g>
<g>
</g>
<g>
</g>
<g>
</g>
<g>
</g>
<g>
</g>
<g>
</g>
<g>
</g>
<g>
</g>
</svg>
