<?xml version="1.0" encoding="iso-8859-1"?>
<!-- Generator: Adobe Illustrator 19.0.0, SVG Export Plug-In . SVG Version: 6.00 Build 0)  -->
<svg version="1.1" id="Capa_1" xmlns="http://www.w3.org/2000/svg" xmlns:xlink="http://www.w3.org/1999/xlink" x="0px" y="0px"
	 viewBox="0 0 60 60" style="enable-background:new 0 0 60 60;" xml:space="preserve">
<g>
	<circle cx="12" cy="41" r="1"/>
	<circle cx="18" cy="41" r="1"/>
	<circle cx="20" cy="43" r="1"/>
	<circle cx="10" cy="43" r="1"/>
	<circle cx="10" cy="47" r="1"/>
	<circle cx="12" cy="45" r="1"/>
	<circle cx="12" cy="49" r="1"/>
	<circle cx="10" cy="51" r="1"/>
	<circle cx="18" cy="45" r="1"/>
	<circle cx="18" cy="49" r="1"/>
	<circle cx="48" cy="41" r="1"/>
	<circle cx="42" cy="41" r="1"/>
	<circle cx="40" cy="43" r="1"/>
	<circle cx="50" cy="43" r="1"/>
	<circle cx="50" cy="47" r="1"/>
	<circle cx="48" cy="45" r="1"/>
	<circle cx="48" cy="49" r="1"/>
	<circle cx="50" cy="51" r="1"/>
	<circle cx="42" cy="45" r="1"/>
	<circle cx="42" cy="49" r="1"/>
	<path d="M59.96,53.721l-8.979-30.926l-0.053-0.383L31,9.458V8h14l-5.333-4L45,0H29v1v7v1.458L9.063,22.417l-0.045,0.381
		L0.04,53.721c-0.154,0.531,0.151,1.086,0.682,1.239C0.815,54.987,0.908,55,1.001,55c0.434,0,0.833-0.284,0.96-0.721l5.604-19.304
		L5.177,55H14v3h-1v2h4v-2h-1v-3h3h22h3v3h-1v2h4v-2h-1v-3h9.404l-2.554-18.596l5.19,17.875C58.167,54.716,58.567,55,59,55
		c0.092,0,0.186-0.013,0.279-0.04C59.81,54.807,60.115,54.252,59.96,53.721z M31,2h8l-2.667,2L39,6h-8V2z M14,53h-1
		c0-0.552-0.448-1-1-1s-1,0.448-1,1H9c0-0.552-0.448-1-1-1c-0.172,0-0.326,0.055-0.467,0.131l0.259-2.173
		C7.862,49.973,7.927,50,8,50c0.552,0,1-0.448,1-1c0-0.543-0.435-0.981-0.975-0.995l0.246-2.06C8.689,45.825,9,45.456,9,45
		c0-0.372-0.212-0.684-0.514-0.856l0.305-2.561C8.914,41.417,9,41.222,9,41c0-0.146-0.035-0.282-0.091-0.407l2.028-17.01L29,11.843
		V25H15c-1.654,0-3,1.346-3,3c0,1.302,0.839,2.402,2,2.816V53z M19,49v4c0-0.552-0.448-1-1-1s-1,0.448-1,1h-1v-1
		c0.552,0,1-0.448,1-1c0-0.552-0.448-1-1-1v-2c0.552,0,1-0.448,1-1c0-0.552-0.448-1-1-1v-2c0.552,0,1-0.448,1-1c0-0.552-0.448-1-1-1
		V31h12.252l-5.503,9.355C22.566,40.142,22.303,40,22,40c-0.552,0-1,0.448-1,1c0,0.483,0.349,0.867,0.804,0.96L19,46.728V49z M29,53
		h-8v-5.728l8-13.6V53z M39,53h-8V33.673l8,13.6V53z M44,53h-1c0-0.552-0.448-1-1-1s-1,0.448-1,1v-4v-2.272l-2.804-4.767
		C38.651,41.867,39,41.483,39,41c0-0.552-0.448-1-1-1c-0.303,0-0.565,0.142-0.749,0.355L31.748,31H44v11c-0.552,0-1,0.448-1,1
		c0,0.552,0.448,1,1,1v2c-0.552,0-1,0.448-1,1c0,0.552,0.448,1,1,1v2c-0.552,0-1,0.448-1,1c0,0.552,0.448,1,1,1V53z M45,29H15
		c-0.551,0-1-0.448-1-1s0.449-1,1-1h30c0.551,0,1,0.448,1,1S45.552,29,45,29z M53,53c0-0.552-0.448-1-1-1s-1,0.448-1,1h-2
		c0-0.552-0.448-1-1-1s-1,0.448-1,1h-1V30.816c1.161-0.414,2-1.514,2-2.816c0-1.654-1.346-3-3-3H31V11.843l18.071,11.746
		l2.288,16.659C51.144,40.432,51,40.695,51,41c0,0.404,0.242,0.748,0.587,0.906l0.291,2.119C51.387,44.087,51,44.491,51,45
		c0,0.552,0.448,1,1,1c0.052,0,0.096-0.022,0.146-0.029l0.294,2.142C52.306,48.046,52.16,48,52,48c-0.552,0-1,0.448-1,1
		c0,0.552,0.448,1,1,1c0.257,0,0.486-0.104,0.663-0.263L53.112,53H53z"/>
</g>
<g>
</g>
<g>
</g>
<g>
</g>
<g>
</g>
<g>
</g>
<g>
</g>
<g>
</g>
<g>
</g>
<g>
</g>
<g>
</g>
<g>
</g>
<g>
</g>
<g>
</g>
<g>
</g>
<g>
</g>
</svg>
