<?xml version="1.0" encoding="iso-8859-1"?>
<!-- Generator: Adobe Illustrator 19.0.0, SVG Export Plug-In . SVG Version: 6.00 Build 0)  -->
<svg version="1.1" id="Capa_1" xmlns="http://www.w3.org/2000/svg" xmlns:xlink="http://www.w3.org/1999/xlink" x="0px" y="0px"
	 viewBox="0 0 60.003 60.003" style="enable-background:new 0 0 60.003 60.003;" xml:space="preserve">
<g>
	<path d="M59.626,53.219c-0.433-0.345-1.06-0.272-1.406,0.156l-2.841,3.551c-2.416-7.275-12.003-34.34-23.116-41.774l3.446-3.446
		c0.391-0.391,0.391-1.023,0-1.414s-1.023-0.391-1.414,0l-3.293,3.293V8h14l-5.333-4l5.333-4h-16v1v7v5.586l-3.293-3.293
		c-0.391-0.391-1.023-0.391-1.414,0s-0.391,1.023,0,1.414l3.446,3.446C16.626,22.586,7.039,49.651,4.624,56.926l-2.841-3.551
		c-0.345-0.432-0.974-0.502-1.406-0.156c-0.431,0.346-0.501,0.975-0.156,1.406l4,5c0.019,0.023,0.046,0.031,0.066,0.052
		c0.059,0.062,0.126,0.112,0.2,0.158c0.051,0.031,0.099,0.063,0.154,0.084c0.023,0.009,0.039,0.027,0.063,0.034
		C4.802,59.985,4.903,60,5.001,60l0,0c0,0,0,0,0,0c0.008,0,0.015-0.004,0.023-0.004c0.1-0.002,0.199-0.018,0.292-0.049
		c0.033-0.011,0.062-0.033,0.094-0.048c0.067-0.031,0.134-0.061,0.193-0.106c0.007-0.005,0.015-0.007,0.022-0.012
		c0.021-0.017,0.03-0.041,0.049-0.059c0.064-0.06,0.121-0.125,0.168-0.201c0.025-0.04,0.043-0.081,0.062-0.124
		c0.015-0.034,0.038-0.063,0.05-0.099c0.109-0.347,10.178-32.195,21.628-41.554L7.417,60h29.566l1.47,0.003L38.452,60h14.135
		L32.419,17.744c11.45,9.359,21.519,41.207,21.628,41.554c0.011,0.037,0.035,0.065,0.05,0.099c0.019,0.043,0.037,0.084,0.062,0.124
		c0.047,0.076,0.104,0.141,0.168,0.201c0.019,0.018,0.028,0.042,0.049,0.059c0.007,0.005,0.015,0.007,0.022,0.012
		c0.059,0.045,0.125,0.076,0.193,0.106c0.032,0.015,0.061,0.037,0.094,0.048c0.093,0.031,0.192,0.046,0.292,0.049
		C54.986,59.996,54.993,60,55,60c0,0,0,0,0,0l0,0c0.099,0,0.199-0.015,0.298-0.046c0.024-0.008,0.041-0.026,0.064-0.035
		c0.054-0.021,0.101-0.052,0.152-0.083c0.075-0.046,0.142-0.096,0.202-0.159c0.02-0.021,0.048-0.029,0.066-0.052l4-5
		C60.127,54.193,60.057,53.564,59.626,53.219z M39.001,6h-8V2h8l-2.667,2L39.001,6z M39.045,47.896l-1.968,7.383l-5.08-17.45
		l5.162,4.224C38.877,43.458,39.618,45.751,39.045,47.896z M24.452,57.976l5.667-19.445l5.668,19.467L24.452,57.976z M23.159,55.27
		l-1.967-7.375c-0.572-2.145,0.168-4.438,1.886-5.843l5.175-4.234L23.159,55.27z M47.001,58c0-0.552-0.448-1-1-1s-1,0.448-1,1h-2
		c0-0.552-0.448-1-1-1s-1,0.448-1,1h-2.581l1.346-5.047C39.844,52.972,39.918,53,40.001,53c0.552,0,1-0.448,1-1
		c0-0.456-0.312-0.825-0.729-0.945l0.705-2.643c0.774-2.901-0.227-6.005-2.552-7.907l-7.533-6.164l-0.137-0.283l-1.308,0.023
		l-0.135,0.289l-7.498,6.135c-2.325,1.902-3.326,5.006-2.552,7.907l0.693,2.598c-0.529,0.026-0.953,0.455-0.953,0.99
		c0,0.552,0.448,1,1,1c0.165,0,0.314-0.05,0.451-0.12L21.818,58h-2.817c0-0.552-0.448-1-1-1s-1,0.448-1,1h-2c0-0.552-0.448-1-1-1
		s-1,0.448-1,1h-2.415l0.655-1.372C11.425,56.85,11.691,57,12.001,57c0.552,0,1-0.448,1-1c0-0.547-0.44-0.988-0.985-0.997
		l1.917-4.017C13.958,50.988,13.978,51,14.001,51c0.552,0,1-0.448,1-1c0-0.263-0.107-0.499-0.273-0.678l0.406-0.852
		c0.17,0.311,0.488,0.53,0.867,0.53c0.552,0,1-0.448,1-1c0-0.552-0.448-1-1-1c-0.065,0-0.121,0.025-0.183,0.037l14.183-29.716
		l14.183,29.716C44.123,47.025,44.066,47,44.001,47c-0.552,0-1,0.448-1,1c0,0.552,0.448,1,1,1c0.379,0,0.697-0.219,0.867-0.53
		l0.406,0.852c-0.167,0.179-0.273,0.414-0.273,0.678c0,0.552,0.448,1,1,1c0.024,0,0.044-0.012,0.068-0.014l1.917,4.017
		c-0.545,0.009-0.985,0.45-0.985,0.997c0,0.552,0.448,1,1,1c0.31,0,0.577-0.15,0.76-0.372L49.417,58H47.001z"/>
	<circle cx="16.001" cy="56" r="1"/>
	<circle cx="16.001" cy="52" r="1"/>
	<circle cx="18.001" cy="50" r="1"/>
	<circle cx="20.001" cy="56" r="1"/>
	<circle cx="18.001" cy="54" r="1"/>
	<circle cx="14.001" cy="54" r="1"/>
	<circle cx="44.001" cy="56" r="1"/>
	<circle cx="44.001" cy="52" r="1"/>
	<circle cx="42.001" cy="50" r="1"/>
	<circle cx="40.001" cy="56" r="1"/>
	<circle cx="42.001" cy="54" r="1"/>
	<circle cx="46.001" cy="54" r="1"/>
</g>
<g>
</g>
<g>
</g>
<g>
</g>
<g>
</g>
<g>
</g>
<g>
</g>
<g>
</g>
<g>
</g>
<g>
</g>
<g>
</g>
<g>
</g>
<g>
</g>
<g>
</g>
<g>
</g>
<g>
</g>
</svg>
