<?xml version="1.0" encoding="iso-8859-1"?>
<!-- Generator: Adobe Illustrator 19.0.0, SVG Export Plug-In . SVG Version: 6.00 Build 0)  -->
<svg version="1.1" id="Capa_1" xmlns="http://www.w3.org/2000/svg" xmlns:xlink="http://www.w3.org/1999/xlink" x="0px" y="0px"
	 viewBox="0 0 60 60" style="enable-background:new 0 0 60 60;" xml:space="preserve">
<g>
	<path d="M46.24,22.739c0-1.478-0.841-2.719-2.128-3.264c1.057-0.917,1.472-2.356,1.015-3.763c-0.457-1.406-1.64-2.327-3.033-2.446
		c0.722-1.198,0.672-2.697-0.197-3.894c-0.868-1.195-2.275-1.705-3.641-1.39c0.316-1.362-0.193-2.771-1.39-3.641
		c-1.195-0.867-2.694-0.917-3.892-0.197c-0.121-1.393-1.042-2.576-2.448-3.033c-1.406-0.458-2.846-0.041-3.762,1.016
		C26.219,0.841,24.979,0,23.5,0s-2.719,0.841-3.264,2.129c-0.916-1.058-2.354-1.476-3.763-1.016
		c-1.406,0.456-2.327,1.64-2.447,3.032c-1.198-0.721-2.696-0.671-3.892,0.197c-1.196,0.869-1.706,2.279-1.39,3.641
		c-1.36-0.315-2.772,0.194-3.641,1.391c-0.869,1.195-0.918,2.693-0.197,3.893c-1.393,0.12-2.576,1.04-3.033,2.446
		c-0.457,1.405-0.041,2.846,1.015,3.763c-1.288,0.545-2.128,1.786-2.128,3.264c0,1.479,0.841,2.721,2.128,3.266
		c-1.057,0.916-1.473,2.356-1.016,3.763s1.64,2.326,3.033,2.446c-0.722,1.197-0.672,2.695,0.196,3.892
		c0.869,1.196,2.277,1.706,3.642,1.391c-0.316,1.362,0.193,2.771,1.39,3.641c1.196,0.868,2.694,0.918,3.892,0.197
		c0.121,1.393,1.041,2.576,2.447,3.032c0.968,0.317,1.948,0.209,2.767-0.229V60h8V43.797c0.899,0.714,2.103,0.955,3.287,0.57
		c1.406-0.457,2.327-1.641,2.448-3.033c1.198,0.721,2.696,0.671,3.892-0.197c1.196-0.869,1.706-2.278,1.39-3.641
		c1.365,0.317,2.772-0.194,3.641-1.391s0.918-2.694,0.196-3.892c1.393-0.12,2.577-1.04,3.033-2.446
		c0.458-1.407,0.041-2.848-1.016-3.764C45.399,25.46,46.24,24.219,46.24,22.739z M25.24,58h-4V44.694
		c0.035,0.028,0.075,0.049,0.111,0.076c0.094,0.07,0.19,0.137,0.291,0.197c0.061,0.037,0.124,0.072,0.188,0.105
		c0.104,0.054,0.212,0.102,0.322,0.145c0.066,0.026,0.131,0.053,0.199,0.075c0.122,0.04,0.249,0.07,0.377,0.097
		c0.061,0.013,0.12,0.03,0.182,0.04c0.192,0.031,0.389,0.049,0.591,0.049c0.173,0,0.343-0.014,0.509-0.036
		c0.053-0.007,0.104-0.02,0.156-0.029c0.112-0.02,0.222-0.042,0.329-0.072c0.059-0.017,0.117-0.037,0.175-0.056
		c0.096-0.032,0.191-0.067,0.283-0.107c0.059-0.025,0.116-0.052,0.173-0.081c0.038-0.019,0.078-0.034,0.115-0.054V58z
		 M42.921,24.277c-0.688,0.106-1.223,0.641-1.332,1.327c-0.109,0.688,0.235,1.36,0.857,1.675c0.878,0.443,0.978,1.257,0.779,1.87
		c-0.199,0.612-0.76,1.213-1.729,1.054c-0.686-0.109-1.361,0.23-1.677,0.851c-0.316,0.621-0.197,1.367,0.298,1.858
		c0.698,0.692,0.542,1.496,0.163,2.019c-0.379,0.521-1.096,0.919-1.969,0.47c-0.619-0.318-1.366-0.203-1.859,0.29
		c-0.493,0.492-0.61,1.239-0.291,1.857c0.45,0.875,0.053,1.592-0.469,1.971c-0.521,0.38-1.325,0.535-2.019-0.162
		c-0.49-0.495-1.238-0.615-1.857-0.298c-0.62,0.316-0.962,0.99-0.851,1.677c0.158,0.971-0.442,1.53-1.055,1.729
		c-0.615,0.197-1.426,0.1-1.87-0.778c-0.313-0.623-0.992-0.968-1.674-0.857c-0.13,0.021-0.248,0.07-0.365,0.119
		c-0.002,0-0.004,0.001-0.006,0.002c-0.042,0.018-0.087,0.026-0.127,0.048c-0.33,0.126-0.544,0.405-0.672,0.678
		c-0.002,0.003-0.003,0.006-0.004,0.009c-0.086,0.186-0.136,0.365-0.153,0.477c-0.15,0.971-0.893,1.317-1.538,1.317
		s-1.387-0.347-1.538-1.317c-0.021-0.135-0.066-0.259-0.121-0.376c-0.211-0.499-0.652-0.87-1.206-0.957
		c-0.033-0.005-0.065-0.005-0.097-0.008c-0.113-0.021-0.223-0.033-0.321-0.025l-0.977,0.11v0.392
		c-0.109,0.113-0.205,0.241-0.279,0.387c-0.444,0.878-1.256,0.976-1.87,0.779c-0.613-0.199-1.213-0.759-1.055-1.729
		c0.111-0.687-0.23-1.36-0.851-1.677c-0.619-0.316-1.367-0.198-1.857,0.298c-0.693,0.696-1.498,0.542-2.019,0.162
		c-0.522-0.379-0.919-1.096-0.469-1.971c0.319-0.619,0.202-1.366-0.292-1.858c-0.494-0.491-1.24-0.607-1.857-0.29
		c-0.875,0.451-1.592,0.053-1.971-0.47c-0.379-0.521-0.535-1.325,0.163-2.018c0.494-0.491,0.614-1.237,0.297-1.858
		c-0.317-0.62-0.991-0.962-1.678-0.851c-0.969,0.16-1.529-0.441-1.728-1.054c-0.2-0.613-0.1-1.427,0.779-1.87
		c0.621-0.314,0.965-0.987,0.856-1.674c-0.109-0.688-0.644-1.222-1.332-1.328c-0.972-0.15-1.318-0.893-1.318-1.538
		c0-0.645,0.346-1.387,1.319-1.537c0.688-0.107,1.224-0.641,1.332-1.329c0.108-0.688-0.237-1.359-0.857-1.672
		c-0.878-0.443-0.978-1.257-0.778-1.87c0.2-0.613,0.759-1.214,1.729-1.055c0.687,0.106,1.362-0.23,1.677-0.852
		c0.316-0.621,0.196-1.367-0.298-1.856c-0.698-0.692-0.542-1.497-0.163-2.02c0.378-0.521,1.097-0.918,1.969-0.47
		c0.618,0.318,1.365,0.204,1.858-0.288s0.61-1.239,0.292-1.859c-0.45-0.875-0.053-1.592,0.469-1.971
		c0.522-0.38,1.327-0.534,2.019,0.162c0.49,0.495,1.237,0.615,1.857,0.298c0.62-0.316,0.962-0.99,0.851-1.677
		c-0.158-0.971,0.442-1.53,1.055-1.729c0.613-0.197,1.426-0.099,1.87,0.778c0.313,0.623,0.988,0.972,1.674,0.857
		c0.688-0.108,1.221-0.644,1.327-1.332C22.113,2.347,22.855,2,23.5,2s1.387,0.347,1.538,1.318c0.106,0.688,0.64,1.224,1.327,1.332
		c0.688,0.114,1.361-0.234,1.674-0.857c0.443-0.877,1.255-0.974,1.87-0.778c0.613,0.199,1.213,0.759,1.055,1.729
		c-0.111,0.687,0.23,1.36,0.851,1.677c0.62,0.316,1.366,0.198,1.857-0.298c0.693-0.697,1.498-0.543,2.019-0.162
		c0.522,0.379,0.919,1.096,0.469,1.971c-0.319,0.619-0.202,1.366,0.291,1.858s1.239,0.607,1.858,0.29
		c0.872-0.452,1.59-0.053,1.97,0.469c0.379,0.522,0.536,1.326-0.162,2.019c-0.495,0.49-0.615,1.236-0.299,1.857
		c0.316,0.62,0.99,0.957,1.678,0.852c0.968-0.159,1.53,0.441,1.729,1.055s0.1,1.427-0.778,1.87
		c-0.622,0.313-0.966,0.985-0.857,1.673s0.644,1.222,1.333,1.328c0.972,0.15,1.318,0.893,1.318,1.537
		C44.24,23.385,43.894,24.127,42.921,24.277z"/>
	<path d="M35.24,26c0-0.553-0.448-1-1-1c-4.962,0-9,4.037-9,9c0,0.553,0.448,1,1,1s1-0.447,1-1c0-3.859,3.14-7,7-7
		C34.792,27,35.24,26.553,35.24,26z"/>
	<path d="M12.24,28c-0.552,0-1,0.447-1,1s0.448,1,1,1c3.86,0,7,3.141,7,7c0,0.553,0.448,1,1,1s1-0.447,1-1
		C21.24,32.037,17.202,28,12.24,28z"/>
	<path d="M14.24,17c-0.552,0-1,0.447-1,1s0.448,1,1,1c3.86,0,7,3.141,7,7c0,0.553,0.448,1,1,1s1-0.447,1-1
		C23.24,21.037,19.202,17,14.24,17z"/>
	<path d="M31.24,11c0.552,0,1-0.447,1-1s-0.448-1-1-1c-4.962,0-9,4.037-9,9c0,0.553,0.448,1,1,1s1-0.447,1-1
		C24.24,14.141,27.38,11,31.24,11z"/>
	<path d="M38.24,17c-1.103,0-2-0.897-2-2c0-0.553-0.448-1-1-1s-1,0.447-1,1c0,2.206,1.794,4,4,4c0.552,0,1-0.447,1-1
		S38.792,17,38.24,17z"/>
	<path d="M28.24,22c0,0.553,0.448,1,1,1s1-0.447,1-1c0-1.103,0.897-2,2-2c0.552,0,1-0.447,1-1s-0.448-1-1-1
		C30.034,18,28.24,19.794,28.24,22z"/>
	<path d="M20.24,12c0.552,0,1-0.447,1-1s-0.448-1-1-1c-1.103,0-2-0.897-2-2c0-0.553-0.448-1-1-1s-1,0.447-1,1
		C16.24,10.206,18.034,12,20.24,12z"/>
	<path d="M13.24,21c0-0.553-0.448-1-1-1s-1,0.447-1,1c0,1.103-0.897,2-2,2c-0.552,0-1,0.447-1,1s0.448,1,1,1
		C11.445,25,13.24,23.206,13.24,21z"/>
	<path d="M36.24,30c-2.206,0-4,1.794-4,4c0,0.553,0.448,1,1,1s1-0.447,1-1c0-1.103,0.897-2,2-2c0.552,0,1-0.447,1-1
		S36.792,30,36.24,30z"/>
	<path d="M17.24,57c-0.552,0-1,0.447-1,1v1c0,0.553,0.448,1,1,1s1-0.447,1-1v-1C18.24,57.447,17.792,57,17.24,57z"/>
	<path d="M14.24,57c-0.552,0-1,0.447-1,1v1c0,0.553,0.448,1,1,1s1-0.447,1-1v-1C15.24,57.447,14.792,57,14.24,57z"/>
	<path d="M11.24,57c-0.552,0-1,0.447-1,1v1c0,0.553,0.448,1,1,1s1-0.447,1-1v-1C12.24,57.447,11.792,57,11.24,57z"/>
	<path d="M8.24,57c-0.552,0-1,0.447-1,1v1c0,0.553,0.448,1,1,1s1-0.447,1-1v-1C9.24,57.447,8.792,57,8.24,57z"/>
	<path d="M5.24,57c-0.552,0-1,0.447-1,1v1c0,0.553,0.448,1,1,1s1-0.447,1-1v-1C6.24,57.447,5.792,57,5.24,57z"/>
	<path d="M35.24,57c-0.552,0-1,0.447-1,1v1c0,0.553,0.448,1,1,1s1-0.447,1-1v-1C36.24,57.447,35.792,57,35.24,57z"/>
	<path d="M32.24,57c-0.552,0-1,0.447-1,1v1c0,0.553,0.448,1,1,1s1-0.447,1-1v-1C33.24,57.447,32.792,57,32.24,57z"/>
	<path d="M29.24,57c-0.552,0-1,0.447-1,1v1c0,0.553,0.448,1,1,1s1-0.447,1-1v-1C30.24,57.447,29.792,57,29.24,57z"/>
	<path d="M44.24,57c-0.552,0-1,0.447-1,1v1c0,0.553,0.448,1,1,1s1-0.447,1-1v-1C45.24,57.447,44.792,57,44.24,57z"/>
	<path d="M41.24,57c-0.552,0-1,0.447-1,1v1c0,0.553,0.448,1,1,1s1-0.447,1-1v-1C42.24,57.447,41.792,57,41.24,57z"/>
	<path d="M38.24,57c-0.552,0-1,0.447-1,1v1c0,0.553,0.448,1,1,1s1-0.447,1-1v-1C39.24,57.447,38.792,57,38.24,57z"/>
	<path d="M53.24,57c-0.552,0-1,0.447-1,1v1c0,0.553,0.448,1,1,1s1-0.447,1-1v-1C54.24,57.447,53.792,57,53.24,57z"/>
	<path d="M50.24,57c-0.552,0-1,0.447-1,1v1c0,0.553,0.448,1,1,1s1-0.447,1-1v-1C51.24,57.447,50.792,57,50.24,57z"/>
	<path d="M47.24,57c-0.552,0-1,0.447-1,1v1c0,0.553,0.448,1,1,1s1-0.447,1-1v-1C48.24,57.447,47.792,57,47.24,57z"/>
	<path d="M58.24,6c-2.61,0-4.887,1.439-6.09,3.562C51.063,8.015,49.269,7,47.24,7c-0.552,0-1,0.447-1,1s0.448,1,1,1
		c2.206,0,4,1.794,4,4c0,0.553,0.448,1,1,1s1-0.447,1-1c0-2.757,2.243-5,5-5c0.552,0,1-0.447,1-1S58.792,6,58.24,6z"/>
</g>
<g>
</g>
<g>
</g>
<g>
</g>
<g>
</g>
<g>
</g>
<g>
</g>
<g>
</g>
<g>
</g>
<g>
</g>
<g>
</g>
<g>
</g>
<g>
</g>
<g>
</g>
<g>
</g>
<g>
</g>
</svg>
