<?xml version="1.0" encoding="iso-8859-1"?>
<!-- Generator: Adobe Illustrator 19.0.0, SVG Export Plug-In . SVG Version: 6.00 Build 0)  -->
<svg version="1.1" id="Capa_1" xmlns="http://www.w3.org/2000/svg" xmlns:xlink="http://www.w3.org/1999/xlink" x="0px" y="0px"
	 viewBox="0 0 60 60" style="enable-background:new 0 0 60 60;" xml:space="preserve">
<g>
	<path d="M16,12.448c0-4.029-2.577-7.766-7.069-10.251L8,1.682L7.07,2.197C2.577,4.682,0,8.418,0,12.448
		c0,4.008,2.551,7.725,7,10.211v9.413c0,0.553,0.448,1,1,1s1-0.447,1-1v-9.413C13.449,20.173,16,16.456,16,12.448z M2,12.448
		c0-3.27,2.186-6.357,6-8.48c3.813,2.122,6,5.211,6,8.48c0,2.967-1.816,5.778-5,7.861v-3.823l2.707-2.707
		c0.391-0.391,0.391-1.023,0-1.414s-1.023-0.391-1.414,0L9,13.658v-2.586c0-0.553-0.448-1-1-1s-1,0.447-1,1v2.586l-1.293-1.293
		c-0.391-0.391-1.023-0.391-1.414,0s-0.391,1.023,0,1.414L7,16.486v3.823C3.816,18.225,2,15.414,2,12.448z"/>
	<path d="M19.929,27.442L19,26.93l-0.931,0.513C13.577,29.929,11,33.666,11,37.695c0,4.008,2.551,7.724,7,10.211v9.412
		c0,0.553,0.448,1,1,1s1-0.447,1-1v-9.412c4.449-2.486,7-6.203,7-10.211C27,33.666,24.423,29.929,19.929,27.442z M20,45.555v-3.823
		l2.707-2.707c0.391-0.391,0.391-1.023,0-1.414s-1.023-0.391-1.414,0L20,38.904v-2.586c0-0.553-0.448-1-1-1s-1,0.447-1,1v2.586
		l-1.293-1.293c-0.391-0.391-1.023-0.391-1.414,0s-0.391,1.023,0,1.414L18,41.732v3.823c-3.184-2.082-5-4.893-5-7.86
		c0-3.27,2.187-6.359,6-8.48c3.814,2.122,6,5.211,6,8.48C25,40.662,23.184,43.473,20,45.555z"/>
	<path d="M41.929,27.442L41,26.93l-0.931,0.513C35.577,29.929,33,33.666,33,37.695c0,4.008,2.551,7.724,7,10.211v9.412
		c0,0.553,0.448,1,1,1s1-0.447,1-1v-9.412c4.449-2.486,7-6.203,7-10.211C49,33.666,46.423,29.929,41.929,27.442z M42,45.555v-3.823
		l2.707-2.707c0.391-0.391,0.391-1.023,0-1.414s-1.023-0.391-1.414,0L42,38.904v-2.586c0-0.553-0.448-1-1-1s-1,0.447-1,1v2.586
		l-1.293-1.293c-0.391-0.391-1.023-0.391-1.414,0s-0.391,1.023,0,1.414L40,41.732v3.823c-3.184-2.082-5-4.893-5-7.86
		c0-3.27,2.187-6.359,6-8.48c3.814,2.122,6,5.211,6,8.48C47,40.662,45.184,43.473,42,45.555z"/>
	<path d="M60,12.448c0-4.029-2.577-7.766-7.069-10.251L52,1.682l-0.93,0.515C46.577,4.682,44,8.418,44,12.448
		c0,4.008,2.551,7.725,7,10.211v9.413c0,0.553,0.448,1,1,1s1-0.447,1-1v-9.413C57.449,20.173,60,16.456,60,12.448z M53,20.308
		v-3.823l2.707-2.707c0.391-0.391,0.391-1.023,0-1.414s-1.023-0.391-1.414,0L53,13.658v-2.586c0-0.553-0.448-1-1-1s-1,0.447-1,1
		v2.586l-1.293-1.293c-0.391-0.391-1.023-0.391-1.414,0s-0.391,1.023,0,1.414L51,16.486v3.823c-3.184-2.083-5-4.894-5-7.861
		c0-3.27,2.186-6.357,6-8.48c3.813,2.122,6,5.211,6,8.48C58,15.414,56.184,18.225,53,20.308z"/>
	<path d="M38,12.448c0-4.029-2.577-7.766-7.069-10.251L30,1.682l-0.93,0.515C24.577,4.682,22,8.418,22,12.448
		c0,4.008,2.551,7.725,7,10.211v9.413c0,0.553,0.448,1,1,1s1-0.447,1-1v-9.413C35.449,20.173,38,16.456,38,12.448z M24,12.448
		c0-3.27,2.186-6.357,6-8.48c3.813,2.122,6,5.211,6,8.48c0,2.967-1.816,5.778-5,7.861v-3.823l2.707-2.707
		c0.391-0.391,0.391-1.023,0-1.414s-1.023-0.391-1.414,0L31,13.658v-2.586c0-0.553-0.448-1-1-1s-1,0.447-1,1v2.586l-1.293-1.293
		c-0.391-0.391-1.023-0.391-1.414,0s-0.391,1.023,0,1.414L29,16.486v3.823C25.816,18.225,24,15.414,24,12.448z"/>
</g>
<g>
</g>
<g>
</g>
<g>
</g>
<g>
</g>
<g>
</g>
<g>
</g>
<g>
</g>
<g>
</g>
<g>
</g>
<g>
</g>
<g>
</g>
<g>
</g>
<g>
</g>
<g>
</g>
<g>
</g>
</svg>
